<?xml version="1.0" encoding="UTF-8" standalone="no"?>
<svg
   xmlns:dc="http://purl.org/dc/elements/1.1/"
   xmlns:cc="http://creativecommons.org/ns#"
   xmlns:rdf="http://www.w3.org/1999/02/22-rdf-syntax-ns#"
   xmlns:svg="http://www.w3.org/2000/svg"
   xmlns="http://www.w3.org/2000/svg"
   viewBox="0 0 682.66669 682.66669"
   height="682.66669"
   width="682.66669"
   xml:space="preserve"
   id="svg2"
   version="1.1"><metadata
     id="metadata8"><rdf:RDF><cc:Work
         rdf:about=""><dc:format>image/svg+xml</dc:format><dc:type
           rdf:resource="http://purl.org/dc/dcmitype/StillImage" /></cc:Work></rdf:RDF></metadata><defs
     id="defs6"><clipPath
       id="clipPath18"
       clipPathUnits="userSpaceOnUse"><path
         id="path16"
         d="M 0,512 H 512 V 0 H 0 Z" /></clipPath><clipPath
       id="clipPath318"
       clipPathUnits="userSpaceOnUse"><path
         id="path316"
         d="m 164.519,413.622 h 8.844 v -4.225 h -8.844 z" /></clipPath><clipPath
       id="clipPath402"
       clipPathUnits="userSpaceOnUse"><path
         id="path400"
         d="m 251.578,65.3872 h 8.844 v -4.2259 h -8.844 z" /></clipPath></defs><g
     transform="matrix(1.3333333,0,0,-1.3333333,0,682.66667)"
     id="g10"><g
       id="g12"><g
         clip-path="url(#clipPath18)"
         id="g14"><g
           transform="translate(450,6)"
           id="g20"><path
             id="path22"
             style="fill:#139b48;fill-opacity:1;fill-rule:nonzero;stroke:none"
             d="m 0,0 h -388 c -30.928,0 -56,25.072 -56,56 v 388 c 0,30.928 25.072,56 56,56 H 0 c 30.928,0 56,-25.072 56,-56 V 56 C 56,25.072 30.928,0 0,0" /></g><g
           transform="translate(450,6)"
           id="g24"><path
             id="path26"
             style="fill:none;stroke:#ffffff;stroke-width:2;stroke-linecap:butt;stroke-linejoin:miter;stroke-miterlimit:10;stroke-dasharray:none;stroke-opacity:1"
             d="m 0,0 h -388 c -30.928,0 -56,25.072 -56,56 v 388 c 0,30.928 25.072,56 56,56 H 0 c 30.928,0 56,-25.072 56,-56 V 56 C 56,25.072 30.928,0 0,0 Z" /></g><g
           transform="translate(441.6475,38.3525)"
           id="g28"><path
             id="path30"
             style="fill:#0f9246;fill-opacity:1;fill-rule:nonzero;stroke:none"
             d="m 0,0 h -371.294 c -17.674,0 -32,14.327 -32,32 v 371.294 c 0,17.674 14.326,32 32,32 H 0 c 17.673,0 32,-14.326 32,-32 V 32 C 32,14.327 17.673,0 0,0" /></g><g
           transform="translate(441.6475,38.3525)"
           id="g32"><path
             id="path34"
             style="fill:none;stroke:#ffffff;stroke-width:1.74100006;stroke-linecap:butt;stroke-linejoin:miter;stroke-miterlimit:10;stroke-dasharray:none;stroke-opacity:1"
             d="m 0,0 h -371.294 c -17.674,0 -32,14.327 -32,32 v 371.294 c 0,17.674 14.326,32 32,32 H 0 c 17.673,0 32,-14.326 32,-32 V 32 C 32,14.327 17.673,0 0,0 Z" /></g><g
           transform="translate(197.7061,430.1177)"
           id="g36"><path
             id="path38"
             style="fill:#0f8040;fill-opacity:1;fill-rule:nonzero;stroke:none"
             d="m 0,0 c 0,-15.886 -12.878,-28.765 -28.765,-28.765 -15.886,0 -28.765,12.879 -28.765,28.765 0,15.886 12.879,28.765 28.765,28.765 C -12.878,28.765 0,15.886 0,0" /></g><g
           transform="translate(284.7646,430.1177)"
           id="g40"><path
             id="path42"
             style="fill:#0f8040;fill-opacity:1;fill-rule:nonzero;stroke:none"
             d="m 0,0 c 0,-15.886 -12.878,-28.765 -28.765,-28.765 -15.886,0 -28.764,12.879 -28.764,28.765 0,15.886 12.878,28.765 28.764,28.765 C -12.878,28.765 0,15.886 0,0" /></g><g
           transform="translate(371.8232,430.1177)"
           id="g44"><path
             id="path46"
             style="fill:#0f8040;fill-opacity:1;fill-rule:nonzero;stroke:none"
             d="m 0,0 c 0,-15.886 -12.878,-28.765 -28.765,-28.765 -15.885,0 -28.764,12.879 -28.764,28.765 0,15.886 12.879,28.765 28.764,28.765 C -12.878,28.765 0,15.886 0,0" /></g><g
           transform="translate(110.647,343.0586)"
           id="g48"><path
             id="path50"
             style="fill:#0f8040;fill-opacity:1;fill-rule:nonzero;stroke:none"
             d="m 0,0 c 0,-15.886 -12.878,-28.765 -28.765,-28.765 -15.886,0 -28.764,12.879 -28.764,28.765 0,15.887 12.878,28.765 28.764,28.765 C -12.878,28.765 0,15.887 0,0" /></g><g
           transform="translate(197.7061,343.0586)"
           id="g52"><path
             id="path54"
             style="fill:#0f8040;fill-opacity:1;fill-rule:nonzero;stroke:none"
             d="m 0,0 c 0,-15.886 -12.878,-28.765 -28.765,-28.765 -15.886,0 -28.765,12.879 -28.765,28.765 0,15.887 12.879,28.765 28.765,28.765 C -12.878,28.765 0,15.887 0,0" /></g><g
           transform="translate(284.7646,343.0586)"
           id="g56"><path
             id="path58"
             style="fill:#0f8040;fill-opacity:1;fill-rule:nonzero;stroke:none"
             d="m 0,0 c 0,-15.886 -12.878,-28.765 -28.765,-28.765 -15.886,0 -28.764,12.879 -28.764,28.765 0,15.887 12.878,28.765 28.764,28.765 C -12.878,28.765 0,15.887 0,0" /></g><g
           transform="translate(371.8232,343.0586)"
           id="g60"><path
             id="path62"
             style="fill:#0f8040;fill-opacity:1;fill-rule:nonzero;stroke:none"
             d="m 0,0 c 0,-15.886 -12.878,-28.765 -28.765,-28.765 -15.885,0 -28.764,12.879 -28.764,28.765 0,15.887 12.879,28.765 28.764,28.765 C -12.878,28.765 0,15.887 0,0" /></g><g
           transform="translate(458.8828,343.0586)"
           id="g64"><path
             id="path66"
             style="fill:#0f8040;fill-opacity:1;fill-rule:nonzero;stroke:none"
             d="m 0,0 c 0,-15.886 -12.879,-28.765 -28.766,-28.765 -15.885,0 -28.764,12.879 -28.764,28.765 0,15.887 12.879,28.765 28.764,28.765 C -12.879,28.765 0,15.887 0,0" /></g><g
           transform="translate(110.647,256)"
           id="g68"><path
             id="path70"
             style="fill:#0f8040;fill-opacity:1;fill-rule:nonzero;stroke:none"
             d="m 0,0 c 0,-15.887 -12.878,-28.765 -28.765,-28.765 -15.886,0 -28.764,12.878 -28.764,28.765 0,15.886 12.878,28.765 28.764,28.765 C -12.878,28.765 0,15.886 0,0" /></g><g
           transform="translate(197.7061,256)"
           id="g72"><path
             id="path74"
             style="fill:#0f8040;fill-opacity:1;fill-rule:nonzero;stroke:none"
             d="m 0,0 c 0,-15.887 -12.878,-28.765 -28.765,-28.765 -15.886,0 -28.765,12.878 -28.765,28.765 0,15.886 12.879,28.765 28.765,28.765 C -12.878,28.765 0,15.886 0,0" /></g><g
           transform="translate(371.8232,256)"
           id="g76"><path
             id="path78"
             style="fill:#0f8040;fill-opacity:1;fill-rule:nonzero;stroke:none"
             d="m 0,0 c 0,-15.887 -12.878,-28.765 -28.765,-28.765 -15.885,0 -28.764,12.878 -28.764,28.765 0,15.886 12.879,28.765 28.764,28.765 C -12.878,28.765 0,15.886 0,0" /></g><g
           transform="translate(458.8828,256)"
           id="g80"><path
             id="path82"
             style="fill:#0f8040;fill-opacity:1;fill-rule:nonzero;stroke:none"
             d="m 0,0 c 0,-15.887 -12.879,-28.765 -28.766,-28.765 -15.885,0 -28.764,12.878 -28.764,28.765 0,15.886 12.879,28.765 28.764,28.765 C -12.879,28.765 0,15.886 0,0" /></g><g
           transform="translate(110.647,168.9414)"
           id="g84"><path
             id="path86"
             style="fill:#0f8040;fill-opacity:1;fill-rule:nonzero;stroke:none"
             d="m 0,0 c 0,-15.887 -12.878,-28.765 -28.765,-28.765 -15.886,0 -28.764,12.878 -28.764,28.765 0,15.886 12.878,28.765 28.764,28.765 C -12.878,28.765 0,15.886 0,0" /></g><g
           transform="translate(197.7061,168.9414)"
           id="g88"><path
             id="path90"
             style="fill:#0f8040;fill-opacity:1;fill-rule:nonzero;stroke:none"
             d="m 0,0 c 0,-15.887 -12.878,-28.765 -28.765,-28.765 -15.886,0 -28.765,12.878 -28.765,28.765 0,15.886 12.879,28.765 28.765,28.765 C -12.878,28.765 0,15.886 0,0" /></g><g
           transform="translate(284.7646,168.9414)"
           id="g92"><path
             id="path94"
             style="fill:#0f8040;fill-opacity:1;fill-rule:nonzero;stroke:none"
             d="m 0,0 c 0,-15.887 -12.878,-28.765 -28.765,-28.765 -15.886,0 -28.764,12.878 -28.764,28.765 0,15.886 12.878,28.765 28.764,28.765 C -12.878,28.765 0,15.886 0,0" /></g><g
           transform="translate(371.8232,168.9414)"
           id="g96"><path
             id="path98"
             style="fill:#0f8040;fill-opacity:1;fill-rule:nonzero;stroke:none"
             d="m 0,0 c 0,-15.887 -12.878,-28.765 -28.765,-28.765 -15.885,0 -28.764,12.878 -28.764,28.765 0,15.886 12.879,28.765 28.764,28.765 C -12.878,28.765 0,15.886 0,0" /></g><g
           transform="translate(458.8828,168.9414)"
           id="g100"><path
             id="path102"
             style="fill:#0f8040;fill-opacity:1;fill-rule:nonzero;stroke:none"
             d="m 0,0 c 0,-15.887 -12.879,-28.765 -28.766,-28.765 -15.885,0 -28.764,12.878 -28.764,28.765 0,15.886 12.879,28.765 28.764,28.765 C -12.879,28.765 0,15.886 0,0" /></g><g
           transform="translate(197.7061,81.8828)"
           id="g104"><path
             id="path106"
             style="fill:#0f8040;fill-opacity:1;fill-rule:nonzero;stroke:none"
             d="m 0,0 c 0,-15.887 -12.878,-28.766 -28.765,-28.766 -15.886,0 -28.765,12.879 -28.765,28.766 0,15.886 12.879,28.765 28.765,28.765 C -12.878,28.765 0,15.886 0,0" /></g><g
           transform="translate(284.7646,81.8828)"
           id="g108"><path
             id="path110"
             style="fill:#0f8040;fill-opacity:1;fill-rule:nonzero;stroke:none"
             d="m 0,0 c 0,-15.887 -12.878,-28.766 -28.765,-28.766 -15.886,0 -28.764,12.879 -28.764,28.766 0,15.886 12.878,28.765 28.764,28.765 C -12.878,28.765 0,15.886 0,0" /></g><g
           transform="translate(371.8232,81.8828)"
           id="g112"><path
             id="path114"
             style="fill:#0f8040;fill-opacity:1;fill-rule:nonzero;stroke:none"
             d="m 0,0 c 0,-15.887 -12.878,-28.766 -28.765,-28.766 -15.885,0 -28.764,12.879 -28.764,28.766 0,15.886 12.879,28.765 28.764,28.765 C -12.878,28.765 0,15.886 0,0" /></g><g
           transform="translate(289.5293,212.4707)"
           id="g116"><path
             id="path118"
             style="fill:#139b48;fill-opacity:1;fill-rule:nonzero;stroke:none"
             d="m 0,0 h -67.059 c -5.523,0 -10,4.477 -10,10 v 67.059 c 0,5.523 4.477,10 10,10 H 0 c 5.523,0 10,-4.477 10,-10 V 10 C 10,4.477 5.523,0 0,0" /></g><g
           transform="translate(289.5293,212.4707)"
           id="g120"><path
             id="path122"
             style="fill:none;stroke:#ffffff;stroke-width:1.74100006;stroke-linecap:butt;stroke-linejoin:miter;stroke-miterlimit:10;stroke-dasharray:none;stroke-opacity:1"
             d="m 0,0 h -67.059 c -5.523,0 -10,4.477 -10,10 v 67.059 c 0,5.523 4.477,10 10,10 H 0 c 5.523,0 10,-4.477 10,-10 V 10 C 10,4.477 5.523,0 0,0 Z" /></g><g
           transform="translate(115.4116,386.5884)"
           id="g124"><path
             id="path126"
             style="fill:#139b48;fill-opacity:1;fill-rule:nonzero;stroke:none"
             d="m 0,0 h -67.059 c -5.523,0 -10,4.477 -10,10 v 45.059 c 0,17.673 14.327,32 32,32 H 0 c 5.523,0 10,-4.477 10,-10 V 10 C 10,4.477 5.523,0 0,0" /></g><g
           transform="translate(115.4116,386.5884)"
           id="g128"><path
             id="path130"
             style="fill:none;stroke:#ffffff;stroke-width:1.74100006;stroke-linecap:butt;stroke-linejoin:miter;stroke-miterlimit:10;stroke-dasharray:none;stroke-opacity:1"
             d="m 0,0 h -67.059 c -5.523,0 -10,4.477 -10,10 v 45.059 c 0,17.673 14.327,32 32,32 H 0 c 5.523,0 10,-4.477 10,-10 V 10 C 10,4.477 5.523,0 0,0 Z" /></g><g
           transform="translate(115.4116,38.3525)"
           id="g132"><path
             id="path134"
             style="fill:#139b48;fill-opacity:1;fill-rule:nonzero;stroke:none"
             d="m 0,0 h -45.059 c -17.673,0 -32,14.327 -32,32 v 45.06 c 0,5.522 4.477,10 10,10 H 0 c 5.523,0 10,-4.478 10,-10 V 10 C 10,4.478 5.523,0 0,0" /></g><g
           transform="translate(115.4116,38.3525)"
           id="g136"><path
             id="path138"
             style="fill:none;stroke:#ffffff;stroke-width:1.74100006;stroke-linecap:butt;stroke-linejoin:miter;stroke-miterlimit:10;stroke-dasharray:none;stroke-opacity:1"
             d="m 0,0 h -45.059 c -17.673,0 -32,14.327 -32,32 v 45.06 c 0,5.522 4.477,10 10,10 H 0 c 5.523,0 10,-4.478 10,-10 V 10 C 10,4.478 5.523,0 0,0 Z" /></g><g
           transform="translate(441.6475,38.3525)"
           id="g140"><path
             id="path142"
             style="fill:#139b48;fill-opacity:1;fill-rule:nonzero;stroke:none"
             d="m 0,0 h -45.06 c -5.522,0 -10,4.478 -10,10 v 67.06 c 0,5.522 4.478,10 10,10 H 22 c 5.522,0 10,-4.478 10,-10 V 32 C 32,14.327 17.673,0 0,0" /></g><g
           transform="translate(441.6475,38.3525)"
           id="g144"><path
             id="path146"
             style="fill:none;stroke:#ffffff;stroke-width:1.74100006;stroke-linecap:butt;stroke-linejoin:miter;stroke-miterlimit:10;stroke-dasharray:none;stroke-opacity:1"
             d="m 0,0 h -45.06 c -5.522,0 -10,4.478 -10,10 v 67.06 c 0,5.522 4.478,10 10,10 H 22 c 5.522,0 10,-4.478 10,-10 V 32 C 32,14.327 17.673,0 0,0 Z" /></g><g
           transform="translate(463.6475,386.5884)"
           id="g148"><path
             id="path150"
             style="fill:#139b48;fill-opacity:1;fill-rule:nonzero;stroke:none"
             d="m 0,0 h -67.06 c -5.522,0 -10,4.477 -10,10 v 67.059 c 0,5.523 4.478,10 10,10 H -22 c 17.673,0 32,-14.327 32,-32 V 10 C 10,4.477 5.522,0 0,0" /></g><g
           transform="translate(463.6475,386.5884)"
           id="g152"><path
             id="path154"
             style="fill:none;stroke:#ffffff;stroke-width:1.74100006;stroke-linecap:butt;stroke-linejoin:miter;stroke-miterlimit:10;stroke-dasharray:none;stroke-opacity:1"
             d="m 0,0 h -67.06 c -5.522,0 -10,4.477 -10,10 v 67.059 c 0,5.523 4.478,10 10,10 H -22 c 17.673,0 32,-14.327 32,-32 V 10 C 10,4.477 5.522,0 0,0 Z" /></g><g
           transform="translate(111.8823,430.1177)"
           id="g156"><path
             id="path158"
             style="fill:#473a38;fill-opacity:1;fill-rule:nonzero;stroke:none"
             d="m 0,0 c 0,-16.568 -13.432,-30 -30,-30 -16.568,0 -30,13.432 -30,30 0,16.568 13.432,30 30,30 C -13.432,30 0,16.568 0,0" /></g><g
           transform="translate(111.8823,430.1177)"
           id="g160"><path
             id="path162"
             style="fill:none;stroke:#55403d;stroke-width:3.87100005;stroke-linecap:butt;stroke-linejoin:miter;stroke-miterlimit:10;stroke-dasharray:none;stroke-opacity:1"
             d="m 0,0 c 0,-16.568 -13.432,-30 -30,-30 -16.568,0 -30,13.432 -30,30 0,16.568 13.432,30 30,30 C -13.432,30 0,16.568 0,0 Z" /></g><g
           transform="translate(460.1172,430.1177)"
           id="g164"><path
             id="path166"
             style="fill:#473a38;fill-opacity:1;fill-rule:nonzero;stroke:none"
             d="m 0,0 c 0,-16.568 -13.431,-30 -30,-30 -16.568,0 -30,13.432 -30,30 0,16.568 13.432,30 30,30 C -13.431,30 0,16.568 0,0" /></g><g
           transform="translate(460.1172,430.1177)"
           id="g168"><path
             id="path170"
             style="fill:none;stroke:#55403d;stroke-width:3.87100005;stroke-linecap:butt;stroke-linejoin:miter;stroke-miterlimit:10;stroke-dasharray:none;stroke-opacity:1"
             d="m 0,0 c 0,-16.568 -13.431,-30 -30,-30 -16.568,0 -30,13.432 -30,30 0,16.568 13.432,30 30,30 C -13.431,30 0,16.568 0,0 Z" /></g><g
           transform="translate(286,256)"
           id="g172"><path
             id="path174"
             style="fill:#473a38;fill-opacity:1;fill-rule:nonzero;stroke:none"
             d="m 0,0 c 0,-16.568 -13.432,-30 -30,-30 -16.568,0 -30,13.432 -30,30 0,16.568 13.432,30 30,30 C -13.432,30 0,16.568 0,0" /></g><g
           transform="translate(286,256)"
           id="g176"><path
             id="path178"
             style="fill:none;stroke:#55403d;stroke-width:3.87100005;stroke-linecap:butt;stroke-linejoin:miter;stroke-miterlimit:10;stroke-dasharray:none;stroke-opacity:1"
             d="m 0,0 c 0,-16.568 -13.432,-30 -30,-30 -16.568,0 -30,13.432 -30,30 0,16.568 13.432,30 30,30 C -13.432,30 0,16.568 0,0 Z" /></g><g
           transform="translate(111.8823,81.8828)"
           id="g180"><path
             id="path182"
             style="fill:#473a38;fill-opacity:1;fill-rule:nonzero;stroke:none"
             d="m 0,0 c 0,-16.569 -13.432,-30 -30,-30 -16.568,0 -30,13.431 -30,30 0,16.568 13.432,30 30,30 C -13.432,30 0,16.568 0,0" /></g><g
           transform="translate(111.8823,81.8828)"
           id="g184"><path
             id="path186"
             style="fill:none;stroke:#55403d;stroke-width:3.87100005;stroke-linecap:butt;stroke-linejoin:miter;stroke-miterlimit:10;stroke-dasharray:none;stroke-opacity:1"
             d="m 0,0 c 0,-16.569 -13.432,-30 -30,-30 -16.568,0 -30,13.431 -30,30 0,16.568 13.432,30 30,30 C -13.432,30 0,16.568 0,0 Z" /></g><g
           transform="translate(460.1172,81.8828)"
           id="g188"><path
             id="path190"
             style="fill:#473a38;fill-opacity:1;fill-rule:nonzero;stroke:none"
             d="m 0,0 c 0,-16.569 -13.431,-30 -30,-30 -16.568,0 -30,13.431 -30,30 0,16.568 13.432,30 30,30 C -13.431,30 0,16.568 0,0" /></g><g
           transform="translate(460.1172,81.8828)"
           id="g192"><path
             id="path194"
             style="fill:none;stroke:#55403d;stroke-width:3.87100005;stroke-linecap:butt;stroke-linejoin:miter;stroke-miterlimit:10;stroke-dasharray:none;stroke-opacity:1"
             d="m 0,0 c 0,-16.569 -13.431,-30 -30,-30 -16.568,0 -30,13.431 -30,30 0,16.568 13.432,30 30,30 C -13.431,30 0,16.568 0,0 Z" /></g><g
           transform="translate(374.1768,430.1177)"
           id="g196"><path
             id="path198"
             style="fill:#c52928;fill-opacity:1;fill-rule:nonzero;stroke:none"
             d="m 0,0 c 0,-17.186 -13.933,-31.118 -31.118,-31.118 -17.186,0 -31.117,13.932 -31.117,31.118 0,17.186 13.931,31.118 31.117,31.118 C -13.933,31.118 0,17.186 0,0" /></g><g
           transform="translate(349.1709,430.1177)"
           id="g200"><path
             id="path202"
             style="fill:#ffffff;fill-opacity:1;fill-rule:nonzero;stroke:none"
             d="m 0,0 c 0,-3.376 -2.736,-6.112 -6.112,-6.112 -3.376,0 -6.113,2.736 -6.113,6.112 0,3.376 2.737,6.112 6.113,6.112 C -2.736,6.112 0,3.376 0,0" /></g><g
           transform="translate(349.1709,450.4922)"
           id="g204"><path
             id="path206"
             style="fill:#ffffff;fill-opacity:1;fill-rule:nonzero;stroke:none"
             d="m 0,0 c 0,-3.375 -2.736,-6.112 -6.112,-6.112 -3.376,0 -6.113,2.737 -6.113,6.112 0,3.376 2.737,6.112 6.113,6.112 C -2.736,6.112 0,3.376 0,0" /></g><g
           transform="translate(349.1709,409.7432)"
           id="g208"><path
             id="path210"
             style="fill:#ffffff;fill-opacity:1;fill-rule:nonzero;stroke:none"
             d="m 0,0 c 0,-3.376 -2.736,-6.113 -6.112,-6.113 -3.376,0 -6.113,2.737 -6.113,6.113 0,3.375 2.737,6.112 6.113,6.112 C -2.736,6.112 0,3.375 0,0" /></g><g
           transform="translate(322.3574,425.2236)"
           id="g212"><path
             id="path214"
             style="fill:#ffffff;fill-opacity:1;fill-rule:nonzero;stroke:none"
             d="m 0,0 c 2.924,1.688 6.662,0.687 8.35,-2.237 1.688,-2.924 0.686,-6.662 -2.238,-8.35 -2.923,-1.688 -6.661,-0.686 -8.349,2.237 C -3.925,-5.426 -2.923,-1.687 0,0" /></g><g
           transform="translate(357.6475,445.5986)"
           id="g216"><path
             id="path218"
             style="fill:#ffffff;fill-opacity:1;fill-rule:nonzero;stroke:none"
             d="m 0,0 c 2.924,1.687 6.662,0.686 8.35,-2.237 1.688,-2.924 0.686,-6.662 -2.238,-8.35 -2.923,-1.688 -6.661,-0.686 -8.349,2.237 C -3.925,-5.426 -2.924,-1.688 0,0" /></g><g
           transform="translate(357.6475,414.6367)"
           id="g220"><path
             id="path222"
             style="fill:#ffffff;fill-opacity:1;fill-rule:nonzero;stroke:none"
             d="m 0,0 c -2.924,1.688 -3.925,5.426 -2.237,8.35 1.688,2.923 5.426,3.925 8.349,2.237 C 9.036,8.899 10.038,5.161 8.35,2.237 6.662,-0.686 2.924,-1.688 0,0" /></g><g
           transform="translate(322.3574,435.0117)"
           id="g224"><path
             id="path226"
             style="fill:#ffffff;fill-opacity:1;fill-rule:nonzero;stroke:none"
             d="m 0,0 c -2.923,1.687 -3.925,5.426 -2.237,8.35 1.688,2.923 5.426,3.924 8.349,2.237 C 9.036,8.899 10.038,5.161 8.35,2.237 6.662,-0.687 2.924,-1.688 0,0" /></g><g
           transform="translate(287.2363,343.1777)"
           id="g228"><path
             id="path230"
             style="fill:#c52928;fill-opacity:1;fill-rule:nonzero;stroke:none"
             d="m 0,0 c 0,-17.186 -13.932,-31.118 -31.118,-31.118 -17.185,0 -31.117,13.932 -31.117,31.118 0,17.186 13.932,31.118 31.117,31.118 C -13.932,31.118 0,17.186 0,0" /></g><g
           transform="translate(262.2314,343.1777)"
           id="g232"><path
             id="path234"
             style="fill:#ffffff;fill-opacity:1;fill-rule:nonzero;stroke:none"
             d="m 0,0 c 0,-3.376 -2.737,-6.112 -6.113,-6.112 -3.375,0 -6.112,2.736 -6.112,6.112 0,3.375 2.737,6.112 6.112,6.112 C -2.737,6.112 0,3.375 0,0" /></g><g
           transform="translate(262.2314,363.5522)"
           id="g236"><path
             id="path238"
             style="fill:#ffffff;fill-opacity:1;fill-rule:nonzero;stroke:none"
             d="m 0,0 c 0,-3.375 -2.737,-6.112 -6.113,-6.112 -3.375,0 -6.112,2.737 -6.112,6.112 0,3.376 2.737,6.112 6.112,6.112 C -2.737,6.112 0,3.376 0,0" /></g><g
           transform="translate(262.2314,322.8032)"
           id="g240"><path
             id="path242"
             style="fill:#ffffff;fill-opacity:1;fill-rule:nonzero;stroke:none"
             d="m 0,0 c 0,-3.376 -2.737,-6.113 -6.113,-6.113 -3.375,0 -6.112,2.737 -6.112,6.113 0,3.375 2.737,6.112 6.112,6.112 C -2.737,6.112 0,3.375 0,0" /></g><g
           transform="translate(235.4175,338.2837)"
           id="g244"><path
             id="path246"
             style="fill:#ffffff;fill-opacity:1;fill-rule:nonzero;stroke:none"
             d="m 0,0 c 2.924,1.688 6.662,0.687 8.35,-2.237 1.688,-2.924 0.686,-6.662 -2.237,-8.35 -2.924,-1.688 -6.662,-0.686 -8.35,2.237 C -3.925,-5.426 -2.923,-1.688 0,0" /></g><g
           transform="translate(270.708,358.6587)"
           id="g248"><path
             id="path250"
             style="fill:#ffffff;fill-opacity:1;fill-rule:nonzero;stroke:none"
             d="M 0,0 C 2.923,1.687 6.661,0.686 8.35,-2.237 10.037,-5.161 9.035,-8.899 6.112,-10.587 3.188,-12.275 -0.55,-11.273 -2.237,-8.35 -3.926,-5.426 -2.924,-1.688 0,0" /></g><g
           transform="translate(270.708,327.6968)"
           id="g252"><path
             id="path254"
             style="fill:#ffffff;fill-opacity:1;fill-rule:nonzero;stroke:none"
             d="m 0,0 c -2.924,1.688 -3.926,5.426 -2.237,8.35 1.687,2.923 5.425,3.925 8.349,2.237 C 9.035,8.899 10.037,5.161 8.35,2.237 6.661,-0.686 2.923,-1.688 0,0" /></g><g
           transform="translate(235.4175,348.0713)"
           id="g256"><path
             id="path258"
             style="fill:#ffffff;fill-opacity:1;fill-rule:nonzero;stroke:none"
             d="m 0,0 c -2.923,1.688 -3.925,5.426 -2.237,8.35 1.688,2.923 5.426,3.925 8.35,2.237 C 9.036,8.899 10.038,5.161 8.35,2.237 6.662,-0.686 2.924,-1.687 0,0" /></g><g
           transform="translate(287.2363,168.8223)"
           id="g260"><path
             id="path262"
             style="fill:#c52928;fill-opacity:1;fill-rule:nonzero;stroke:none"
             d="m 0,0 c 0,-17.186 -13.932,-31.117 -31.118,-31.117 -17.185,0 -31.117,13.931 -31.117,31.117 0,17.186 13.932,31.118 31.117,31.118 C -13.932,31.118 0,17.186 0,0" /></g><g
           transform="translate(262.2314,168.8223)"
           id="g264"><path
             id="path266"
             style="fill:#ffffff;fill-opacity:1;fill-rule:nonzero;stroke:none"
             d="m 0,0 c 0,-3.376 -2.737,-6.112 -6.113,-6.112 -3.375,0 -6.112,2.736 -6.112,6.112 0,3.376 2.737,6.112 6.112,6.112 C -2.737,6.112 0,3.376 0,0" /></g><g
           transform="translate(262.2314,189.1973)"
           id="g268"><path
             id="path270"
             style="fill:#ffffff;fill-opacity:1;fill-rule:nonzero;stroke:none"
             d="m 0,0 c 0,-3.376 -2.737,-6.112 -6.113,-6.112 -3.375,0 -6.112,2.736 -6.112,6.112 0,3.376 2.737,6.112 6.112,6.112 C -2.737,6.112 0,3.376 0,0" /></g><g
           transform="translate(262.2314,148.4473)"
           id="g272"><path
             id="path274"
             style="fill:#ffffff;fill-opacity:1;fill-rule:nonzero;stroke:none"
             d="m 0,0 c 0,-3.375 -2.737,-6.112 -6.113,-6.112 -3.375,0 -6.112,2.737 -6.112,6.112 0,3.376 2.737,6.113 6.112,6.113 C -2.737,6.113 0,3.376 0,0" /></g><g
           transform="translate(235.4175,163.9287)"
           id="g276"><path
             id="path278"
             style="fill:#ffffff;fill-opacity:1;fill-rule:nonzero;stroke:none"
             d="m 0,0 c 2.924,1.687 6.662,0.686 8.35,-2.237 1.688,-2.924 0.686,-6.662 -2.237,-8.35 -2.924,-1.688 -6.662,-0.686 -8.35,2.237 C -3.925,-5.427 -2.923,-1.688 0,0" /></g><g
           transform="translate(270.708,184.3027)"
           id="g280"><path
             id="path282"
             style="fill:#ffffff;fill-opacity:1;fill-rule:nonzero;stroke:none"
             d="M 0,0 C 2.923,1.688 6.661,0.687 8.35,-2.237 10.037,-5.16 9.035,-8.898 6.112,-10.587 3.188,-12.274 -0.55,-11.272 -2.237,-8.35 -3.926,-5.426 -2.924,-1.687 0,0" /></g><g
           transform="translate(270.708,153.3418)"
           id="g284"><path
             id="path286"
             style="fill:#ffffff;fill-opacity:1;fill-rule:nonzero;stroke:none"
             d="m 0,0 c -2.924,1.687 -3.926,5.426 -2.237,8.35 1.687,2.922 5.425,3.924 8.349,2.237 C 9.035,8.898 10.037,5.16 8.35,2.237 6.661,-0.687 2.923,-1.688 0,0" /></g><g
           transform="translate(235.4175,173.7158)"
           id="g288"><path
             id="path290"
             style="fill:#ffffff;fill-opacity:1;fill-rule:nonzero;stroke:none"
             d="m 0,0 c -2.923,1.688 -3.925,5.427 -2.237,8.35 1.688,2.923 5.426,3.925 8.35,2.237 C 9.036,8.899 10.038,5.161 8.35,2.237 6.662,-0.686 2.924,-1.687 0,0" /></g><g
           transform="translate(191.2002,427.167)"
           id="g292"><path
             id="path294"
             style="fill:#ffffff;fill-opacity:1;fill-rule:nonzero;stroke:none"
             d="m 0,0 c 0,-12.293 -9.965,-22.259 -22.259,-22.259 -12.293,0 -22.259,9.966 -22.259,22.259 0,12.293 9.966,22.259 22.259,22.259 C -9.965,22.259 0,12.293 0,0" /></g><g
           transform="translate(147.9854,466.395)"
           id="g296"><path
             id="path298"
             style="fill:#ffffff;fill-opacity:1;fill-rule:nonzero;stroke:none"
             d="M 0,0 C 4.625,2.67 20.656,-28.094 20.656,-28.094 L 7.422,-35.734 C 7.422,-35.734 -6.863,-3.962 0,0" /></g><g
           transform="translate(189.897,466.395)"
           id="g300"><path
             id="path302"
             style="fill:#ffffff;fill-opacity:1;fill-rule:nonzero;stroke:none"
             d="m 0,0 c -4.625,2.67 -20.656,-28.094 -20.656,-28.094 l 13.234,-7.64 c 0,0 14.285,31.772 7.422,35.734" /></g><g
           transform="translate(162.2998,423.1367)"
           id="g304"><path
             id="path306"
             style="fill:#272827;fill-opacity:1;fill-rule:nonzero;stroke:none"
             d="m 0,0 c 0,-2.226 -1.018,-4.03 -2.274,-4.03 -1.256,0 -2.274,1.804 -2.274,4.03 0,2.226 1.018,4.03 2.274,4.03 C -1.018,4.03 0,2.226 0,0" /></g><g
           transform="translate(180.1304,423.1367)"
           id="g308"><path
             id="path310"
             style="fill:#272827;fill-opacity:1;fill-rule:nonzero;stroke:none"
             d="m 0,0 c 0,-2.226 -1.018,-4.03 -2.274,-4.03 -1.256,0 -2.274,1.804 -2.274,4.03 0,2.226 1.018,4.03 2.274,4.03 C -1.018,4.03 0,2.226 0,0" /></g><g
           id="g312"><g
             id="g314" /><g
             id="g326"><g
               style="opacity:0.13999903"
               id="g324"
               clip-path="url(#clipPath318)"><g
                 id="g322"
                 transform="translate(173.3633,411.5098)"><path
                   id="path320"
                   style="fill:#000000;fill-opacity:1;fill-rule:nonzero;stroke:none"
                   d="m 0,0 c 0,-1.167 -1.98,-2.113 -4.422,-2.113 -2.442,0 -4.422,0.946 -4.422,2.113 0,1.167 1.98,2.113 4.422,2.113 C -1.98,2.113 0,1.167 0,0" /></g></g></g></g><g
           transform="translate(115.4116,212.4707)"
           id="g328"><path
             id="path330"
             style="fill:#139b48;fill-opacity:1;fill-rule:nonzero;stroke:none"
             d="m 0,0 h -67.059 c -5.523,0 -10,4.477 -10,10 v 67.059 c 0,5.523 4.477,10 10,10 H 0 c 5.523,0 10,-4.477 10,-10 V 10 C 10,4.477 5.523,0 0,0" /></g><g
           transform="translate(115.4116,212.4707)"
           id="g332"><path
             id="path334"
             style="fill:none;stroke:#ffffff;stroke-width:1.74100006;stroke-linecap:butt;stroke-linejoin:miter;stroke-miterlimit:10;stroke-dasharray:none;stroke-opacity:1"
             d="m 0,0 h -67.059 c -5.523,0 -10,4.477 -10,10 v 67.059 c 0,5.523 4.477,10 10,10 H 0 c 5.523,0 10,-4.477 10,-10 V 10 C 10,4.477 5.523,0 0,0 Z" /></g><g
           transform="translate(110.647,256)"
           id="g336"><path
             id="path338"
             style="fill:#0f8040;fill-opacity:1;fill-rule:nonzero;stroke:none"
             d="m 0,0 c 0,-15.887 -12.878,-28.765 -28.765,-28.765 -15.886,0 -28.764,12.878 -28.764,28.765 0,15.886 12.878,28.765 28.764,28.765 C -12.878,28.765 0,15.886 0,0" /></g><g
           transform="translate(463.6475,212.4707)"
           id="g340"><path
             id="path342"
             style="fill:#139b48;fill-opacity:1;fill-rule:nonzero;stroke:none"
             d="m 0,0 h -67.06 c -5.522,0 -10,4.477 -10,10 v 67.059 c 0,5.523 4.478,10 10,10 H 0 c 5.522,0 10,-4.477 10,-10 V 10 C 10,4.477 5.522,0 0,0" /></g><g
           transform="translate(463.6475,212.4707)"
           id="g344"><path
             id="path346"
             style="fill:none;stroke:#ffffff;stroke-width:1.74100006;stroke-linecap:butt;stroke-linejoin:miter;stroke-miterlimit:10;stroke-dasharray:none;stroke-opacity:1"
             d="m 0,0 h -67.06 c -5.522,0 -10,4.477 -10,10 v 67.059 c 0,5.523 4.478,10 10,10 H 0 c 5.522,0 10,-4.477 10,-10 V 10 C 10,4.477 5.522,0 0,0 Z" /></g><g
           transform="translate(458.8828,256)"
           id="g348"><path
             id="path350"
             style="fill:#0f8040;fill-opacity:1;fill-rule:nonzero;stroke:none"
             d="m 0,0 c 0,-15.887 -12.879,-28.765 -28.766,-28.765 -15.885,0 -28.764,12.878 -28.764,28.765 0,15.886 12.879,28.765 28.764,28.765 C -12.879,28.765 0,15.886 0,0" /></g><g
           transform="translate(299.5293,115.4121)"
           id="g352"><path
             id="path354"
             style="fill:#139b48;fill-opacity:1;fill-rule:nonzero;stroke:none"
             d="m 0,0 v -67.06 c 0,-5.522 -4.477,-10 -10,-10 h -67.059 c -5.523,0 -10,4.478 -10,10 V 0 c 0,5.522 4.477,10 10,10 H -10 C -4.477,10 0,5.522 0,0" /></g><g
           transform="translate(299.5293,115.4121)"
           id="g356"><path
             id="path358"
             style="fill:none;stroke:#ffffff;stroke-width:1.74100006;stroke-linecap:butt;stroke-linejoin:miter;stroke-miterlimit:10;stroke-dasharray:none;stroke-opacity:1"
             d="m 0,0 v -67.06 c 0,-5.522 -4.477,-10 -10,-10 h -67.059 c -5.523,0 -10,4.478 -10,10 V 0 c 0,5.522 4.477,10 10,10 H -10 C -4.477,10 0,5.522 0,0 Z" /></g><g
           transform="translate(256,110.6475)"
           id="g360"><path
             id="path362"
             style="fill:#0f8040;fill-opacity:1;fill-rule:nonzero;stroke:none"
             d="M 0,0 C 15.887,0 28.765,-12.879 28.765,-28.765 28.765,-44.651 15.887,-57.53 0,-57.53 c -15.886,0 -28.765,12.879 -28.765,28.765 C -28.765,-12.879 -15.886,0 0,0" /></g><g
           transform="translate(299.5293,463.647)"
           id="g364"><path
             id="path366"
             style="fill:#139b48;fill-opacity:1;fill-rule:nonzero;stroke:none"
             d="m 0,0 v -67.059 c 0,-5.523 -4.477,-10 -10,-10 h -67.059 c -5.523,0 -10,4.477 -10,10 V 0 c 0,5.523 4.477,10 10,10 H -10 C -4.477,10 0,5.523 0,0" /></g><g
           transform="translate(299.5293,463.647)"
           id="g368"><path
             id="path370"
             style="fill:none;stroke:#ffffff;stroke-width:1.74100006;stroke-linecap:butt;stroke-linejoin:miter;stroke-miterlimit:10;stroke-dasharray:none;stroke-opacity:1"
             d="m 0,0 v -67.059 c 0,-5.523 -4.477,-10 -10,-10 h -67.059 c -5.523,0 -10,4.477 -10,10 V 0 c 0,5.523 4.477,10 10,10 H -10 C -4.477,10 0,5.523 0,0 Z" /></g><g
           transform="translate(256,458.8823)"
           id="g372"><path
             id="path374"
             style="fill:#0f8040;fill-opacity:1;fill-rule:nonzero;stroke:none"
             d="m 0,0 c 15.887,0 28.765,-12.878 28.765,-28.765 0,-15.886 -12.878,-28.764 -28.765,-28.764 -15.886,0 -28.765,12.878 -28.765,28.764 C -28.765,-12.878 -15.886,0 0,0" /></g><g
           transform="translate(278.2588,78.9316)"
           id="g376"><path
             id="path378"
             style="fill:#f08540;fill-opacity:1;fill-rule:nonzero;stroke:none"
             d="m 0,0 c 0,-12.293 -9.965,-22.259 -22.258,-22.259 -12.294,0 -22.259,9.966 -22.259,22.259 0,12.293 9.965,22.259 22.259,22.259 C -9.965,22.259 0,12.293 0,0" /></g><g
           transform="translate(235.0444,118.1602)"
           id="g380"><path
             id="path382"
             style="fill:#f08540;fill-opacity:1;fill-rule:nonzero;stroke:none"
             d="M 0,0 C 4.625,2.67 20.656,-28.095 20.656,-28.095 L 7.422,-35.734 C 7.422,-35.734 -6.863,-3.963 0,0" /></g><g
           transform="translate(276.9561,118.1602)"
           id="g384"><path
             id="path386"
             style="fill:#f08540;fill-opacity:1;fill-rule:nonzero;stroke:none"
             d="m 0,0 c -4.625,2.67 -20.656,-28.095 -20.656,-28.095 l 13.233,-7.639 c 0,0 14.285,31.771 7.423,35.734" /></g><g
           transform="translate(249.3589,74.9014)"
           id="g388"><path
             id="path390"
             style="fill:#272827;fill-opacity:1;fill-rule:nonzero;stroke:none"
             d="m 0,0 c 0,-2.226 -1.019,-4.03 -2.274,-4.03 -1.256,0 -2.274,1.804 -2.274,4.03 0,2.226 1.018,4.03 2.274,4.03 C -1.019,4.03 0,2.226 0,0" /></g><g
           transform="translate(267.1895,74.9014)"
           id="g392"><path
             id="path394"
             style="fill:#272827;fill-opacity:1;fill-rule:nonzero;stroke:none"
             d="m 0,0 c 0,-2.226 -1.019,-4.03 -2.274,-4.03 -1.256,0 -2.274,1.804 -2.274,4.03 0,2.226 1.018,4.03 2.274,4.03 C -1.019,4.03 0,2.226 0,0" /></g><g
           id="g396"><g
             id="g398" /><g
             id="g410"><g
               style="opacity:0.13999903"
               id="g408"
               clip-path="url(#clipPath402)"><g
                 id="g406"
                 transform="translate(260.4219,63.2744)"><path
                   id="path404"
                   style="fill:#000000;fill-opacity:1;fill-rule:nonzero;stroke:none"
                   d="m 0,0 c 0,-1.167 -1.979,-2.113 -4.422,-2.113 -2.442,0 -4.422,0.946 -4.422,2.113 0,1.167 1.98,2.113 4.422,2.113 C -1.979,2.113 0,1.167 0,0" /></g></g></g></g></g></g></g></svg>