<?xml version="1.0" encoding="UTF-8" standalone="no"?>
<svg
   xmlns:dc="http://purl.org/dc/elements/1.1/"
   xmlns:cc="http://creativecommons.org/ns#"
   xmlns:rdf="http://www.w3.org/1999/02/22-rdf-syntax-ns#"
   xmlns:svg="http://www.w3.org/2000/svg"
   xmlns="http://www.w3.org/2000/svg"
   viewBox="0 0 682.66669 682.66669"
   height="682.66669"
   width="682.66669"
   xml:space="preserve"
   id="svg2"
   version="1.1"><metadata
     id="metadata8"><rdf:RDF><cc:Work
         rdf:about=""><dc:format>image/svg+xml</dc:format><dc:type
           rdf:resource="http://purl.org/dc/dcmitype/StillImage" /></cc:Work></rdf:RDF></metadata><defs
     id="defs6"><clipPath
       id="clipPath18"
       clipPathUnits="userSpaceOnUse"><path
         id="path16"
         d="M 0,512 H 512 V 0 H 0 Z" /></clipPath><clipPath
       id="clipPath270"
       clipPathUnits="userSpaceOnUse"><path
         id="path268"
         d="m 251.312,239.505 h 8.844 v -4.226 h -8.844 z" /></clipPath><clipPath
       id="clipPath306"
       clipPathUnits="userSpaceOnUse"><path
         id="path304"
         d="m 251.578,152.446 h 8.844 v -4.226 h -8.844 z" /></clipPath><clipPath
       id="clipPath404"
       clipPathUnits="userSpaceOnUse"><path
         id="path402"
         d="m 251.578,65.3872 h 8.844 v -4.2259 h -8.844 z" /></clipPath></defs><g
     transform="matrix(1.3333333,0,0,-1.3333333,0,682.66667)"
     id="g10"><g
       id="g12"><g
         clip-path="url(#clipPath18)"
         id="g14"><g
           transform="translate(450,6)"
           id="g20"><path
             id="path22"
             style="fill:#139b48;fill-opacity:1;fill-rule:nonzero;stroke:none"
             d="m 0,0 h -388 c -30.928,0 -56,25.072 -56,56 v 388 c 0,30.928 25.072,56 56,56 H 0 c 30.928,0 56,-25.072 56,-56 V 56 C 56,25.072 30.928,0 0,0" /></g><g
           transform="translate(450,6)"
           id="g24"><path
             id="path26"
             style="fill:none;stroke:#ffffff;stroke-width:2;stroke-linecap:butt;stroke-linejoin:miter;stroke-miterlimit:10;stroke-dasharray:none;stroke-opacity:1"
             d="m 0,0 h -388 c -30.928,0 -56,25.072 -56,56 v 388 c 0,30.928 25.072,56 56,56 H 0 c 30.928,0 56,-25.072 56,-56 V 56 C 56,25.072 30.928,0 0,0 Z" /></g><g
           transform="translate(441.6475,38.3525)"
           id="g28"><path
             id="path30"
             style="fill:#0f9246;fill-opacity:1;fill-rule:nonzero;stroke:none"
             d="m 0,0 h -371.294 c -17.674,0 -32,14.327 -32,32 v 371.294 c 0,17.674 14.326,32 32,32 H 0 c 17.673,0 32,-14.326 32,-32 V 32 C 32,14.327 17.673,0 0,0" /></g><g
           transform="translate(441.6475,38.3525)"
           id="g32"><path
             id="path34"
             style="fill:none;stroke:#ffffff;stroke-width:1.74100006;stroke-linecap:butt;stroke-linejoin:miter;stroke-miterlimit:10;stroke-dasharray:none;stroke-opacity:1"
             d="m 0,0 h -371.294 c -17.674,0 -32,14.327 -32,32 v 371.294 c 0,17.674 14.326,32 32,32 H 0 c 17.673,0 32,-14.326 32,-32 V 32 C 32,14.327 17.673,0 0,0 Z" /></g><g
           transform="translate(197.7061,430.1177)"
           id="g36"><path
             id="path38"
             style="fill:#0f8040;fill-opacity:1;fill-rule:nonzero;stroke:none"
             d="m 0,0 c 0,-15.886 -12.878,-28.765 -28.765,-28.765 -15.886,0 -28.765,12.879 -28.765,28.765 0,15.886 12.879,28.765 28.765,28.765 C -12.878,28.765 0,15.886 0,0" /></g><g
           transform="translate(284.7646,430.1177)"
           id="g40"><path
             id="path42"
             style="fill:#0f8040;fill-opacity:1;fill-rule:nonzero;stroke:none"
             d="m 0,0 c 0,-15.886 -12.878,-28.765 -28.765,-28.765 -15.886,0 -28.764,12.879 -28.764,28.765 0,15.886 12.878,28.765 28.764,28.765 C -12.878,28.765 0,15.886 0,0" /></g><g
           transform="translate(371.8232,430.1177)"
           id="g44"><path
             id="path46"
             style="fill:#0f8040;fill-opacity:1;fill-rule:nonzero;stroke:none"
             d="m 0,0 c 0,-15.886 -12.878,-28.765 -28.765,-28.765 -15.885,0 -28.764,12.879 -28.764,28.765 0,15.886 12.879,28.765 28.764,28.765 C -12.878,28.765 0,15.886 0,0" /></g><g
           transform="translate(110.647,343.0586)"
           id="g48"><path
             id="path50"
             style="fill:#0f8040;fill-opacity:1;fill-rule:nonzero;stroke:none"
             d="m 0,0 c 0,-15.886 -12.878,-28.765 -28.765,-28.765 -15.886,0 -28.764,12.879 -28.764,28.765 0,15.887 12.878,28.765 28.764,28.765 C -12.878,28.765 0,15.887 0,0" /></g><g
           transform="translate(197.7061,343.0586)"
           id="g52"><path
             id="path54"
             style="fill:#0f8040;fill-opacity:1;fill-rule:nonzero;stroke:none"
             d="m 0,0 c 0,-15.886 -12.878,-28.765 -28.765,-28.765 -15.886,0 -28.765,12.879 -28.765,28.765 0,15.887 12.879,28.765 28.765,28.765 C -12.878,28.765 0,15.887 0,0" /></g><g
           transform="translate(284.7646,343.0586)"
           id="g56"><path
             id="path58"
             style="fill:#0f8040;fill-opacity:1;fill-rule:nonzero;stroke:none"
             d="m 0,0 c 0,-15.886 -12.878,-28.765 -28.765,-28.765 -15.886,0 -28.764,12.879 -28.764,28.765 0,15.887 12.878,28.765 28.764,28.765 C -12.878,28.765 0,15.887 0,0" /></g><g
           transform="translate(371.8232,343.0586)"
           id="g60"><path
             id="path62"
             style="fill:#0f8040;fill-opacity:1;fill-rule:nonzero;stroke:none"
             d="m 0,0 c 0,-15.886 -12.878,-28.765 -28.765,-28.765 -15.885,0 -28.764,12.879 -28.764,28.765 0,15.887 12.879,28.765 28.764,28.765 C -12.878,28.765 0,15.887 0,0" /></g><g
           transform="translate(458.8828,343.0586)"
           id="g64"><path
             id="path66"
             style="fill:#0f8040;fill-opacity:1;fill-rule:nonzero;stroke:none"
             d="m 0,0 c 0,-15.886 -12.879,-28.765 -28.766,-28.765 -15.885,0 -28.764,12.879 -28.764,28.765 0,15.887 12.879,28.765 28.764,28.765 C -12.879,28.765 0,15.887 0,0" /></g><g
           transform="translate(110.647,256)"
           id="g68"><path
             id="path70"
             style="fill:#0f8040;fill-opacity:1;fill-rule:nonzero;stroke:none"
             d="m 0,0 c 0,-15.887 -12.878,-28.765 -28.765,-28.765 -15.886,0 -28.764,12.878 -28.764,28.765 0,15.886 12.878,28.765 28.764,28.765 C -12.878,28.765 0,15.886 0,0" /></g><g
           transform="translate(197.7061,256)"
           id="g72"><path
             id="path74"
             style="fill:#0f8040;fill-opacity:1;fill-rule:nonzero;stroke:none"
             d="m 0,0 c 0,-15.887 -12.878,-28.765 -28.765,-28.765 -15.886,0 -28.765,12.878 -28.765,28.765 0,15.886 12.879,28.765 28.765,28.765 C -12.878,28.765 0,15.886 0,0" /></g><g
           transform="translate(371.8232,256)"
           id="g76"><path
             id="path78"
             style="fill:#0f8040;fill-opacity:1;fill-rule:nonzero;stroke:none"
             d="m 0,0 c 0,-15.887 -12.878,-28.765 -28.765,-28.765 -15.885,0 -28.764,12.878 -28.764,28.765 0,15.886 12.879,28.765 28.764,28.765 C -12.878,28.765 0,15.886 0,0" /></g><g
           transform="translate(458.8828,256)"
           id="g80"><path
             id="path82"
             style="fill:#0f8040;fill-opacity:1;fill-rule:nonzero;stroke:none"
             d="m 0,0 c 0,-15.887 -12.879,-28.765 -28.766,-28.765 -15.885,0 -28.764,12.878 -28.764,28.765 0,15.886 12.879,28.765 28.764,28.765 C -12.879,28.765 0,15.886 0,0" /></g><g
           transform="translate(110.647,168.9414)"
           id="g84"><path
             id="path86"
             style="fill:#0f8040;fill-opacity:1;fill-rule:nonzero;stroke:none"
             d="m 0,0 c 0,-15.887 -12.878,-28.765 -28.765,-28.765 -15.886,0 -28.764,12.878 -28.764,28.765 0,15.886 12.878,28.765 28.764,28.765 C -12.878,28.765 0,15.886 0,0" /></g><g
           transform="translate(197.7061,168.9414)"
           id="g88"><path
             id="path90"
             style="fill:#0f8040;fill-opacity:1;fill-rule:nonzero;stroke:none"
             d="m 0,0 c 0,-15.887 -12.878,-28.765 -28.765,-28.765 -15.886,0 -28.765,12.878 -28.765,28.765 0,15.886 12.879,28.765 28.765,28.765 C -12.878,28.765 0,15.886 0,0" /></g><g
           transform="translate(284.7646,168.9414)"
           id="g92"><path
             id="path94"
             style="fill:#0f8040;fill-opacity:1;fill-rule:nonzero;stroke:none"
             d="m 0,0 c 0,-15.887 -12.878,-28.765 -28.765,-28.765 -15.886,0 -28.764,12.878 -28.764,28.765 0,15.886 12.878,28.765 28.764,28.765 C -12.878,28.765 0,15.886 0,0" /></g><g
           transform="translate(371.8232,168.9414)"
           id="g96"><path
             id="path98"
             style="fill:#0f8040;fill-opacity:1;fill-rule:nonzero;stroke:none"
             d="m 0,0 c 0,-15.887 -12.878,-28.765 -28.765,-28.765 -15.885,0 -28.764,12.878 -28.764,28.765 0,15.886 12.879,28.765 28.764,28.765 C -12.878,28.765 0,15.886 0,0" /></g><g
           transform="translate(458.8828,168.9414)"
           id="g100"><path
             id="path102"
             style="fill:#0f8040;fill-opacity:1;fill-rule:nonzero;stroke:none"
             d="m 0,0 c 0,-15.887 -12.879,-28.765 -28.766,-28.765 -15.885,0 -28.764,12.878 -28.764,28.765 0,15.886 12.879,28.765 28.764,28.765 C -12.879,28.765 0,15.886 0,0" /></g><g
           transform="translate(197.7061,81.8828)"
           id="g104"><path
             id="path106"
             style="fill:#0f8040;fill-opacity:1;fill-rule:nonzero;stroke:none"
             d="m 0,0 c 0,-15.887 -12.878,-28.766 -28.765,-28.766 -15.886,0 -28.765,12.879 -28.765,28.766 0,15.886 12.879,28.765 28.765,28.765 C -12.878,28.765 0,15.886 0,0" /></g><g
           transform="translate(284.7646,81.8828)"
           id="g108"><path
             id="path110"
             style="fill:#0f8040;fill-opacity:1;fill-rule:nonzero;stroke:none"
             d="m 0,0 c 0,-15.887 -12.878,-28.766 -28.765,-28.766 -15.886,0 -28.764,12.879 -28.764,28.766 0,15.886 12.878,28.765 28.764,28.765 C -12.878,28.765 0,15.886 0,0" /></g><g
           transform="translate(371.8232,81.8828)"
           id="g112"><path
             id="path114"
             style="fill:#0f8040;fill-opacity:1;fill-rule:nonzero;stroke:none"
             d="m 0,0 c 0,-15.887 -12.878,-28.766 -28.765,-28.766 -15.885,0 -28.764,12.879 -28.764,28.766 0,15.886 12.879,28.765 28.764,28.765 C -12.878,28.765 0,15.886 0,0" /></g><g
           transform="translate(289.5293,212.4707)"
           id="g116"><path
             id="path118"
             style="fill:#139b48;fill-opacity:1;fill-rule:nonzero;stroke:none"
             d="m 0,0 h -67.059 c -5.523,0 -10,4.477 -10,10 v 67.059 c 0,5.523 4.477,10 10,10 H 0 c 5.523,0 10,-4.477 10,-10 V 10 C 10,4.477 5.523,0 0,0" /></g><g
           transform="translate(289.5293,212.4707)"
           id="g120"><path
             id="path122"
             style="fill:none;stroke:#ffffff;stroke-width:1.74100006;stroke-linecap:butt;stroke-linejoin:miter;stroke-miterlimit:10;stroke-dasharray:none;stroke-opacity:1"
             d="m 0,0 h -67.059 c -5.523,0 -10,4.477 -10,10 v 67.059 c 0,5.523 4.477,10 10,10 H 0 c 5.523,0 10,-4.477 10,-10 V 10 C 10,4.477 5.523,0 0,0 Z" /></g><g
           transform="translate(115.4116,386.5884)"
           id="g124"><path
             id="path126"
             style="fill:#139b48;fill-opacity:1;fill-rule:nonzero;stroke:none"
             d="m 0,0 h -67.059 c -5.523,0 -10,4.477 -10,10 v 45.059 c 0,17.673 14.327,32 32,32 H 0 c 5.523,0 10,-4.477 10,-10 V 10 C 10,4.477 5.523,0 0,0" /></g><g
           transform="translate(115.4116,386.5884)"
           id="g128"><path
             id="path130"
             style="fill:none;stroke:#ffffff;stroke-width:1.74100006;stroke-linecap:butt;stroke-linejoin:miter;stroke-miterlimit:10;stroke-dasharray:none;stroke-opacity:1"
             d="m 0,0 h -67.059 c -5.523,0 -10,4.477 -10,10 v 45.059 c 0,17.673 14.327,32 32,32 H 0 c 5.523,0 10,-4.477 10,-10 V 10 C 10,4.477 5.523,0 0,0 Z" /></g><g
           transform="translate(115.4116,38.3525)"
           id="g132"><path
             id="path134"
             style="fill:#139b48;fill-opacity:1;fill-rule:nonzero;stroke:none"
             d="m 0,0 h -45.059 c -17.673,0 -32,14.327 -32,32 v 45.06 c 0,5.522 4.477,10 10,10 H 0 c 5.523,0 10,-4.478 10,-10 V 10 C 10,4.478 5.523,0 0,0" /></g><g
           transform="translate(115.4116,38.3525)"
           id="g136"><path
             id="path138"
             style="fill:none;stroke:#ffffff;stroke-width:1.74100006;stroke-linecap:butt;stroke-linejoin:miter;stroke-miterlimit:10;stroke-dasharray:none;stroke-opacity:1"
             d="m 0,0 h -45.059 c -17.673,0 -32,14.327 -32,32 v 45.06 c 0,5.522 4.477,10 10,10 H 0 c 5.523,0 10,-4.478 10,-10 V 10 C 10,4.478 5.523,0 0,0 Z" /></g><g
           transform="translate(441.6475,38.3525)"
           id="g140"><path
             id="path142"
             style="fill:#139b48;fill-opacity:1;fill-rule:nonzero;stroke:none"
             d="m 0,0 h -45.06 c -5.522,0 -10,4.478 -10,10 v 67.06 c 0,5.522 4.478,10 10,10 H 22 c 5.522,0 10,-4.478 10,-10 V 32 C 32,14.327 17.673,0 0,0" /></g><g
           transform="translate(441.6475,38.3525)"
           id="g144"><path
             id="path146"
             style="fill:none;stroke:#ffffff;stroke-width:1.74100006;stroke-linecap:butt;stroke-linejoin:miter;stroke-miterlimit:10;stroke-dasharray:none;stroke-opacity:1"
             d="m 0,0 h -45.06 c -5.522,0 -10,4.478 -10,10 v 67.06 c 0,5.522 4.478,10 10,10 H 22 c 5.522,0 10,-4.478 10,-10 V 32 C 32,14.327 17.673,0 0,0 Z" /></g><g
           transform="translate(463.6475,386.5884)"
           id="g148"><path
             id="path150"
             style="fill:#139b48;fill-opacity:1;fill-rule:nonzero;stroke:none"
             d="m 0,0 h -67.06 c -5.522,0 -10,4.477 -10,10 v 67.059 c 0,5.523 4.478,10 10,10 H -22 c 17.673,0 32,-14.327 32,-32 V 10 C 10,4.477 5.522,0 0,0" /></g><g
           transform="translate(463.6475,386.5884)"
           id="g152"><path
             id="path154"
             style="fill:none;stroke:#ffffff;stroke-width:1.74100006;stroke-linecap:butt;stroke-linejoin:miter;stroke-miterlimit:10;stroke-dasharray:none;stroke-opacity:1"
             d="m 0,0 h -67.06 c -5.522,0 -10,4.477 -10,10 v 67.059 c 0,5.523 4.478,10 10,10 H -22 c 17.673,0 32,-14.327 32,-32 V 10 C 10,4.477 5.522,0 0,0 Z" /></g><g
           transform="translate(111.8823,430.1177)"
           id="g156"><path
             id="path158"
             style="fill:#473a38;fill-opacity:1;fill-rule:nonzero;stroke:none"
             d="m 0,0 c 0,-16.568 -13.432,-30 -30,-30 -16.568,0 -30,13.432 -30,30 0,16.568 13.432,30 30,30 C -13.432,30 0,16.568 0,0" /></g><g
           transform="translate(111.8823,430.1177)"
           id="g160"><path
             id="path162"
             style="fill:none;stroke:#55403d;stroke-width:3.87100005;stroke-linecap:butt;stroke-linejoin:miter;stroke-miterlimit:10;stroke-dasharray:none;stroke-opacity:1"
             d="m 0,0 c 0,-16.568 -13.432,-30 -30,-30 -16.568,0 -30,13.432 -30,30 0,16.568 13.432,30 30,30 C -13.432,30 0,16.568 0,0 Z" /></g><g
           transform="translate(460.1172,430.1177)"
           id="g164"><path
             id="path166"
             style="fill:#473a38;fill-opacity:1;fill-rule:nonzero;stroke:none"
             d="m 0,0 c 0,-16.568 -13.431,-30 -30,-30 -16.568,0 -30,13.432 -30,30 0,16.568 13.432,30 30,30 C -13.431,30 0,16.568 0,0" /></g><g
           transform="translate(460.1172,430.1177)"
           id="g168"><path
             id="path170"
             style="fill:none;stroke:#55403d;stroke-width:3.87100005;stroke-linecap:butt;stroke-linejoin:miter;stroke-miterlimit:10;stroke-dasharray:none;stroke-opacity:1"
             d="m 0,0 c 0,-16.568 -13.431,-30 -30,-30 -16.568,0 -30,13.432 -30,30 0,16.568 13.432,30 30,30 C -13.431,30 0,16.568 0,0 Z" /></g><g
           transform="translate(286,256)"
           id="g172"><path
             id="path174"
             style="fill:#473a38;fill-opacity:1;fill-rule:nonzero;stroke:none"
             d="m 0,0 c 0,-16.568 -13.432,-30 -30,-30 -16.568,0 -30,13.432 -30,30 0,16.568 13.432,30 30,30 C -13.432,30 0,16.568 0,0" /></g><g
           transform="translate(286,256)"
           id="g176"><path
             id="path178"
             style="fill:none;stroke:#55403d;stroke-width:3.87100005;stroke-linecap:butt;stroke-linejoin:miter;stroke-miterlimit:10;stroke-dasharray:none;stroke-opacity:1"
             d="m 0,0 c 0,-16.568 -13.432,-30 -30,-30 -16.568,0 -30,13.432 -30,30 0,16.568 13.432,30 30,30 C -13.432,30 0,16.568 0,0 Z" /></g><g
           transform="translate(111.8823,81.8828)"
           id="g180"><path
             id="path182"
             style="fill:#473a38;fill-opacity:1;fill-rule:nonzero;stroke:none"
             d="m 0,0 c 0,-16.569 -13.432,-30 -30,-30 -16.568,0 -30,13.431 -30,30 0,16.568 13.432,30 30,30 C -13.432,30 0,16.568 0,0" /></g><g
           transform="translate(111.8823,81.8828)"
           id="g184"><path
             id="path186"
             style="fill:none;stroke:#55403d;stroke-width:3.87100005;stroke-linecap:butt;stroke-linejoin:miter;stroke-miterlimit:10;stroke-dasharray:none;stroke-opacity:1"
             d="m 0,0 c 0,-16.569 -13.432,-30 -30,-30 -16.568,0 -30,13.431 -30,30 0,16.568 13.432,30 30,30 C -13.432,30 0,16.568 0,0 Z" /></g><g
           transform="translate(460.1172,81.8828)"
           id="g188"><path
             id="path190"
             style="fill:#473a38;fill-opacity:1;fill-rule:nonzero;stroke:none"
             d="m 0,0 c 0,-16.569 -13.431,-30 -30,-30 -16.568,0 -30,13.431 -30,30 0,16.568 13.432,30 30,30 C -13.431,30 0,16.568 0,0" /></g><g
           transform="translate(460.1172,81.8828)"
           id="g192"><path
             id="path194"
             style="fill:none;stroke:#55403d;stroke-width:3.87100005;stroke-linecap:butt;stroke-linejoin:miter;stroke-miterlimit:10;stroke-dasharray:none;stroke-opacity:1"
             d="m 0,0 c 0,-16.569 -13.431,-30 -30,-30 -16.568,0 -30,13.431 -30,30 0,16.568 13.432,30 30,30 C -13.431,30 0,16.568 0,0 Z" /></g><g
           transform="translate(115.4116,212.4707)"
           id="g196"><path
             id="path198"
             style="fill:#139b48;fill-opacity:1;fill-rule:nonzero;stroke:none"
             d="m 0,0 h -67.059 c -5.523,0 -10,4.477 -10,10 v 67.059 c 0,5.523 4.477,10 10,10 H 0 c 5.523,0 10,-4.477 10,-10 V 10 C 10,4.477 5.523,0 0,0" /></g><g
           transform="translate(115.4116,212.4707)"
           id="g200"><path
             id="path202"
             style="fill:none;stroke:#ffffff;stroke-width:1.74100006;stroke-linecap:butt;stroke-linejoin:miter;stroke-miterlimit:10;stroke-dasharray:none;stroke-opacity:1"
             d="m 0,0 h -67.059 c -5.523,0 -10,4.477 -10,10 v 67.059 c 0,5.523 4.477,10 10,10 H 0 c 5.523,0 10,-4.477 10,-10 V 10 C 10,4.477 5.523,0 0,0 Z" /></g><g
           transform="translate(110.647,256)"
           id="g204"><path
             id="path206"
             style="fill:#0f8040;fill-opacity:1;fill-rule:nonzero;stroke:none"
             d="m 0,0 c 0,-15.887 -12.878,-28.765 -28.765,-28.765 -15.886,0 -28.764,12.878 -28.764,28.765 0,15.886 12.878,28.765 28.764,28.765 C -12.878,28.765 0,15.886 0,0" /></g><g
           transform="translate(463.6475,212.4707)"
           id="g208"><path
             id="path210"
             style="fill:#139b48;fill-opacity:1;fill-rule:nonzero;stroke:none"
             d="m 0,0 h -67.06 c -5.522,0 -10,4.477 -10,10 v 67.059 c 0,5.523 4.478,10 10,10 H 0 c 5.522,0 10,-4.477 10,-10 V 10 C 10,4.477 5.522,0 0,0" /></g><g
           transform="translate(463.6475,212.4707)"
           id="g212"><path
             id="path214"
             style="fill:none;stroke:#ffffff;stroke-width:1.74100006;stroke-linecap:butt;stroke-linejoin:miter;stroke-miterlimit:10;stroke-dasharray:none;stroke-opacity:1"
             d="m 0,0 h -67.06 c -5.522,0 -10,4.477 -10,10 v 67.059 c 0,5.523 4.478,10 10,10 H 0 c 5.522,0 10,-4.477 10,-10 V 10 C 10,4.477 5.522,0 0,0 Z" /></g><g
           transform="translate(458.8828,256)"
           id="g216"><path
             id="path218"
             style="fill:#0f8040;fill-opacity:1;fill-rule:nonzero;stroke:none"
             d="m 0,0 c 0,-15.887 -12.879,-28.765 -28.766,-28.765 -15.885,0 -28.764,12.878 -28.764,28.765 0,15.886 12.879,28.765 28.764,28.765 C -12.879,28.765 0,15.886 0,0" /></g><g
           transform="translate(299.5293,115.4121)"
           id="g220"><path
             id="path222"
             style="fill:#139b48;fill-opacity:1;fill-rule:nonzero;stroke:none"
             d="m 0,0 v -67.06 c 0,-5.522 -4.477,-10 -10,-10 h -67.059 c -5.523,0 -10,4.478 -10,10 V 0 c 0,5.522 4.477,10 10,10 H -10 C -4.477,10 0,5.522 0,0" /></g><g
           transform="translate(299.5293,115.4121)"
           id="g224"><path
             id="path226"
             style="fill:none;stroke:#ffffff;stroke-width:1.74100006;stroke-linecap:butt;stroke-linejoin:miter;stroke-miterlimit:10;stroke-dasharray:none;stroke-opacity:1"
             d="m 0,0 v -67.06 c 0,-5.522 -4.477,-10 -10,-10 h -67.059 c -5.523,0 -10,4.478 -10,10 V 0 c 0,5.522 4.477,10 10,10 H -10 C -4.477,10 0,5.522 0,0 Z" /></g><g
           transform="translate(256,110.6475)"
           id="g228"><path
             id="path230"
             style="fill:#0f8040;fill-opacity:1;fill-rule:nonzero;stroke:none"
             d="M 0,0 C 15.887,0 28.765,-12.879 28.765,-28.765 28.765,-44.651 15.887,-57.53 0,-57.53 c -15.886,0 -28.765,12.879 -28.765,28.765 C -28.765,-12.879 -15.886,0 0,0" /></g><g
           transform="translate(289.2637,386.5884)"
           id="g232"><path
             id="path234"
             style="fill:#139b48;fill-opacity:1;fill-rule:nonzero;stroke:none"
             d="m 0,0 h -67.059 c -5.523,0 -10,4.477 -10,10 v 67.059 c 0,5.523 4.477,10 10,10 H 0 c 5.522,0 10,-4.477 10,-10 V 10 C 10,4.477 5.522,0 0,0" /></g><g
           transform="translate(289.2637,386.5884)"
           id="g236"><path
             id="path238"
             style="fill:none;stroke:#ffffff;stroke-width:1.74100006;stroke-linecap:butt;stroke-linejoin:miter;stroke-miterlimit:10;stroke-dasharray:none;stroke-opacity:1"
             d="m 0,0 h -67.059 c -5.523,0 -10,4.477 -10,10 v 67.059 c 0,5.523 4.477,10 10,10 H 0 c 5.522,0 10,-4.477 10,-10 V 10 C 10,4.477 5.522,0 0,0 Z" /></g><g
           transform="translate(284.498,430.1177)"
           id="g240"><path
             id="path242"
             style="fill:#0f8040;fill-opacity:1;fill-rule:nonzero;stroke:none"
             d="m 0,0 c 0,-15.886 -12.878,-28.765 -28.764,-28.765 -15.886,0 -28.765,12.879 -28.765,28.765 0,15.886 12.879,28.765 28.765,28.765 C -12.878,28.765 0,15.886 0,0" /></g><g
           transform="translate(233.4756,253.0498)"
           id="g244"><path
             id="path246"
             style="fill:#f08540;fill-opacity:1;fill-rule:nonzero;stroke:none"
             d="m 0,0 c 0,12.293 9.965,22.258 22.258,22.258 12.294,0 22.26,-9.965 22.26,-22.258 0,-12.294 -9.966,-22.259 -22.26,-22.259 C 9.965,-22.259 0,-12.294 0,0" /></g><g
           transform="translate(234.7778,292.2773)"
           id="g248"><path
             id="path250"
             style="fill:#f08540;fill-opacity:1;fill-rule:nonzero;stroke:none"
             d="M 0,0 C 4.625,2.67 20.656,-28.094 20.656,-28.094 L 7.422,-35.734 C 7.422,-35.734 -6.863,-3.962 0,0" /></g><g
           transform="translate(276.6895,292.2773)"
           id="g252"><path
             id="path254"
             style="fill:#f08540;fill-opacity:1;fill-rule:nonzero;stroke:none"
             d="m 0,0 c -4.625,2.67 -20.656,-28.094 -20.656,-28.094 l 13.234,-7.64 c 0,0 14.285,31.772 7.422,35.734" /></g><g
           transform="translate(249.0923,249.0195)"
           id="g256"><path
             id="path258"
             style="fill:#272827;fill-opacity:1;fill-rule:nonzero;stroke:none"
             d="m 0,0 c 0,-2.227 -1.018,-4.03 -2.274,-4.03 -1.256,0 -2.274,1.803 -2.274,4.03 0,2.226 1.018,4.03 2.274,4.03 C -1.018,4.03 0,2.226 0,0" /></g><g
           transform="translate(266.9229,249.0195)"
           id="g260"><path
             id="path262"
             style="fill:#272827;fill-opacity:1;fill-rule:nonzero;stroke:none"
             d="m 0,0 c 0,-2.227 -1.018,-4.03 -2.273,-4.03 -1.256,0 -2.275,1.803 -2.275,4.03 0,2.226 1.019,4.03 2.275,4.03 C -1.018,4.03 0,2.226 0,0" /></g><g
           id="g264"><g
             id="g266" /><g
             id="g278"><g
               style="opacity:0.13999903"
               id="g276"
               clip-path="url(#clipPath270)"><g
                 id="g274"
                 transform="translate(260.1562,237.3916)"><path
                   id="path272"
                   style="fill:#000000;fill-opacity:1;fill-rule:nonzero;stroke:none"
                   d="m 0,0 c 0,-1.167 -1.98,-2.112 -4.422,-2.112 -2.443,0 -4.422,0.945 -4.422,2.112 0,1.167 1.979,2.113 4.422,2.113 C -1.98,2.113 0,1.167 0,0" /></g></g></g></g><g
           transform="translate(278.2588,165.9902)"
           id="g280"><path
             id="path282"
             style="fill:#ffffff;fill-opacity:1;fill-rule:nonzero;stroke:none"
             d="m 0,0 c 0,-12.293 -9.965,-22.259 -22.258,-22.259 -12.294,0 -22.259,9.966 -22.259,22.259 0,12.294 9.965,22.259 22.259,22.259 C -9.965,22.259 0,12.294 0,0" /></g><g
           transform="translate(235.0444,205.2187)"
           id="g284"><path
             id="path286"
             style="fill:#ffffff;fill-opacity:1;fill-rule:nonzero;stroke:none"
             d="M 0,0 C 4.625,2.67 20.656,-28.094 20.656,-28.094 L 7.422,-35.734 C 7.422,-35.734 -6.863,-3.963 0,0" /></g><g
           transform="translate(276.9561,205.2187)"
           id="g288"><path
             id="path290"
             style="fill:#ffffff;fill-opacity:1;fill-rule:nonzero;stroke:none"
             d="m 0,0 c -4.625,2.67 -20.656,-28.094 -20.656,-28.094 l 13.233,-7.64 c 0,0 14.285,31.771 7.423,35.734" /></g><g
           transform="translate(249.3589,161.96)"
           id="g292"><path
             id="path294"
             style="fill:#272827;fill-opacity:1;fill-rule:nonzero;stroke:none"
             d="m 0,0 c 0,-2.226 -1.019,-4.03 -2.274,-4.03 -1.256,0 -2.274,1.804 -2.274,4.03 0,2.227 1.018,4.03 2.274,4.03 C -1.019,4.03 0,2.227 0,0" /></g><g
           transform="translate(267.1895,161.96)"
           id="g296"><path
             id="path298"
             style="fill:#272827;fill-opacity:1;fill-rule:nonzero;stroke:none"
             d="m 0,0 c 0,-2.226 -1.019,-4.03 -2.274,-4.03 -1.256,0 -2.274,1.804 -2.274,4.03 0,2.227 1.018,4.03 2.274,4.03 C -1.019,4.03 0,2.227 0,0" /></g><g
           id="g300"><g
             id="g302" /><g
             id="g314"><g
               style="opacity:0.13999903"
               id="g312"
               clip-path="url(#clipPath306)"><g
                 id="g310"
                 transform="translate(260.4219,150.333)"><path
                   id="path308"
                   style="fill:#000000;fill-opacity:1;fill-rule:nonzero;stroke:none"
                   d="m 0,0 c 0,-1.167 -1.979,-2.113 -4.422,-2.113 -2.442,0 -4.422,0.946 -4.422,2.113 0,1.167 1.98,2.113 4.422,2.113 C -1.979,2.113 0,1.167 0,0" /></g></g></g></g><g
           transform="translate(212.4707,376.5884)"
           id="g316"><path
             id="path318"
             style="fill:#139b48;fill-opacity:1;fill-rule:nonzero;stroke:none"
             d="m 0,0 v -67.059 c 0,-5.523 -4.477,-10 -10,-10 h -154.118 c -5.523,0 -10,4.477 -10,10 V 0 c 0,5.522 4.477,10 10,10 H -10 C -4.477,10 0,5.522 0,0" /></g><g
           transform="translate(212.4707,376.5884)"
           id="g320"><path
             id="path322"
             style="fill:none;stroke:#ffffff;stroke-width:1.74100006;stroke-linecap:butt;stroke-linejoin:miter;stroke-miterlimit:10;stroke-dasharray:none;stroke-opacity:1"
             d="m 0,0 v -67.059 c 0,-5.523 -4.477,-10 -10,-10 h -154.118 c -5.523,0 -10,4.477 -10,10 V 0 c 0,5.522 4.477,10 10,10 H -10 C -4.477,10 0,5.522 0,0 Z" /></g><g
           transform="translate(176.3955,364.7891)"
           id="g324"><path
             id="path326"
             style="fill:#ffffff;fill-opacity:1;fill-rule:nonzero;stroke:none"
             d="m 0,0 c -1.974,2.113 -4.18,3.104 -6.453,3.389 -2.3,0.289 -4.328,-1.489 -4.328,-3.748 V -21.73 -43.102 c 0,-2.258 2.028,-4.037 4.328,-3.748 2.273,0.286 4.479,1.276 6.453,3.39 16.591,17.763 30.44,13.303 30.44,21.73 0,8.426 -13.849,3.967 -30.44,21.73" /></g><g
           transform="translate(206.8359,343.0591)"
           id="g328"><path
             id="path330"
             style="fill:#ffffff;fill-opacity:1;fill-rule:nonzero;stroke:none"
             d="M 0,0 C 0,-2.835 -1.567,-4.211 -4.278,-5.466 V 5.465 C -1.567,4.211 0,2.835 0,0" /></g><g
           transform="translate(154.438,323.1978)"
           id="g332"><path
             id="path334"
             style="fill:#db5727;fill-opacity:1;fill-rule:nonzero;stroke:none"
             d="m 0,0 v 0 c 3.424,0 6.2,2.389 6.2,5.336 v 29.05 c 0,2.947 -2.776,5.336 -6.2,5.336 -3.424,0 -9.208,-2.389 -9.208,-5.336 V 5.336 C -9.208,2.389 -3.424,0 0,0" /></g><path
           id="path336"
           style="fill:#db5727;fill-opacity:1;fill-rule:nonzero;stroke:none"
           d="m 169.788,327.533 h -11 v 31.379 h 11 z" /><g
           transform="translate(82.1421,355.4419)"
           id="g338"><path
             id="path340"
             style="fill:#ffffff;fill-opacity:1;fill-rule:nonzero;stroke:none"
             d="m 0,0 c 21.35,0 38.658,-5.471 38.658,-12.219 0,-6.748 -17.308,-12.218 -38.658,-12.218 -21.351,0 -38.658,5.47 -38.658,12.218 C -38.658,-5.471 -21.351,0 0,0" /></g><g
           transform="translate(120.8008,343.2222)"
           id="g342"><path
             id="path344"
             style="fill:#db5727;fill-opacity:1;fill-rule:nonzero;stroke:none"
             d="m 0,0 c 0,-6.664 -16.887,-12.083 -37.876,-12.215 1.949,0.763 3.303,1.685 3.303,2.964 0,4.565 -17.237,4.565 -17.237,9.13 0,4.564 17.237,4.564 17.237,9.13 0,1.421 -1.669,2.399 -3.968,3.21 C -17.245,12.199 0,6.736 0,0" /></g><g
           transform="translate(176.3955,357.4443)"
           id="g346"><path
             id="path348"
             style="fill:#db5727;fill-opacity:1;fill-rule:nonzero;stroke:none"
             d="m 0,0 c -3.277,3.865 -7.046,7.432 -10.781,6.622 v -21.008 -21.007 c 3.735,-0.81 7.504,2.757 10.781,6.622 14.628,17.25 30.44,4.69 30.44,14.385 C 30.44,-4.859 14.628,-17.25 0,0" /></g><g
           transform="translate(207.3398,343.0591)"
           id="g350"><path
             id="path352"
             style="fill:#222323;fill-opacity:1;fill-rule:nonzero;stroke:none"
             d="M 0,0 C 0,-2.835 -1.751,-4.211 -4.782,-5.466 V 5.465 C -1.751,4.211 0,2.835 0,0" /></g><g
           transform="translate(106.6523,319.7285)"
           id="g354"><path
             id="path356"
             style="fill:#db5727;fill-opacity:1;fill-rule:nonzero;stroke:none"
             d="m 0,0 h 0.997 c 4.324,0 7.83,3.413 7.83,7.624 v 31.413 c 0,4.211 -3.506,7.624 -7.83,7.624 H 0 C -17.967,46.661 -17.967,0 0,0" /></g><g
           transform="translate(171.9741,343.0586)"
           id="g358"><path
             id="path360"
             style="fill:#db5727;fill-opacity:1;fill-rule:nonzero;stroke:none"
             d="m 0,0 c 0,-10.248 -29.709,-18.555 -46.553,-18.555 -16.843,0 -30.497,8.307 -30.497,18.555 0,10.248 13.654,18.555 30.497,18.555 C -29.709,18.555 0,10.248 0,0" /></g><g
           transform="translate(165.6147,353.5439)"
           id="g362"><path
             id="path364"
             style="fill:#ffffff;fill-opacity:1;fill-rule:nonzero;stroke:none"
             d="m 0,0 v -7.289 c -4.107,0 -7.486,6.637 -7.486,10.635 0,4.24 4.966,3.943 7.486,3.943 z" /></g><g
           transform="translate(165.6147,332.5737)"
           id="g366"><path
             id="path368"
             style="fill:#ffffff;fill-opacity:1;fill-rule:nonzero;stroke:none"
             d="m 0,0 v 7.289 c -4.107,0 -7.486,-6.637 -7.486,-10.635 0,-4.24 4.966,-3.943 7.486,-3.943 z" /></g><g
           transform="translate(185.4849,351.6113)"
           id="g370"><path
             id="path372"
             style="fill:#252626;fill-opacity:1;fill-rule:nonzero;stroke:none"
             d="m 0,0 c 0,-1.344 -1.74,-2.434 -3.887,-2.434 -2.146,0 -3.886,1.09 -3.886,2.434 0,1.344 1.74,2.433 3.886,2.433 C -1.74,2.433 0,1.344 0,0" /></g><g
           transform="translate(185.4849,334.5063)"
           id="g374"><path
             id="path376"
             style="fill:#252626;fill-opacity:1;fill-rule:nonzero;stroke:none"
             d="m 0,0 c 0,-1.344 -1.74,-2.433 -3.887,-2.433 -2.146,0 -3.886,1.089 -3.886,2.433 0,1.344 1.74,2.434 3.886,2.434 C -1.74,2.434 0,1.344 0,0" /></g><g
           transform="translate(278.2588,78.9316)"
           id="g378"><path
             id="path380"
             style="fill:#afafaf;fill-opacity:1;fill-rule:nonzero;stroke:none"
             d="m 0,0 c 0,-12.293 -9.965,-22.259 -22.258,-22.259 -12.294,0 -22.259,9.966 -22.259,22.259 0,12.293 9.965,22.259 22.259,22.259 C -9.965,22.259 0,12.293 0,0" /></g><g
           transform="translate(235.0444,118.1602)"
           id="g382"><path
             id="path384"
             style="fill:#afafaf;fill-opacity:1;fill-rule:nonzero;stroke:none"
             d="M 0,0 C 4.625,2.67 20.656,-28.095 20.656,-28.095 L 7.422,-35.734 C 7.422,-35.734 -6.863,-3.963 0,0" /></g><g
           transform="translate(276.9561,118.1602)"
           id="g386"><path
             id="path388"
             style="fill:#afafaf;fill-opacity:1;fill-rule:nonzero;stroke:none"
             d="m 0,0 c -4.625,2.67 -20.656,-28.095 -20.656,-28.095 l 13.233,-7.639 c 0,0 14.285,31.771 7.423,35.734" /></g><g
           transform="translate(249.3589,74.9014)"
           id="g390"><path
             id="path392"
             style="fill:#272827;fill-opacity:1;fill-rule:nonzero;stroke:none"
             d="m 0,0 c 0,-2.226 -1.019,-4.03 -2.274,-4.03 -1.256,0 -2.274,1.804 -2.274,4.03 0,2.226 1.018,4.03 2.274,4.03 C -1.019,4.03 0,2.226 0,0" /></g><g
           transform="translate(267.1895,74.9014)"
           id="g394"><path
             id="path396"
             style="fill:#272827;fill-opacity:1;fill-rule:nonzero;stroke:none"
             d="m 0,0 c 0,-2.226 -1.019,-4.03 -2.274,-4.03 -1.256,0 -2.274,1.804 -2.274,4.03 0,2.226 1.018,4.03 2.274,4.03 C -1.019,4.03 0,2.226 0,0" /></g><g
           id="g398"><g
             id="g400" /><g
             id="g412"><g
               style="opacity:0.13999903"
               id="g410"
               clip-path="url(#clipPath404)"><g
                 id="g408"
                 transform="translate(260.4219,63.2744)"><path
                   id="path406"
                   style="fill:#000000;fill-opacity:1;fill-rule:nonzero;stroke:none"
                   d="m 0,0 c 0,-1.167 -1.979,-2.113 -4.422,-2.113 -2.442,0 -4.422,0.946 -4.422,2.113 0,1.167 1.98,2.113 4.422,2.113 C -1.979,2.113 0,1.167 0,0" /></g></g></g></g><g
           transform="translate(463.9463,125.4121)"
           id="g414"><path
             id="path416"
             style="fill:#139b48;fill-opacity:1;fill-rule:nonzero;stroke:none"
             d="m 0,0 h -67.059 c -5.522,0 -10,4.477 -10,10 v 67.059 c 0,5.522 4.478,10 10,10 H 0 c 5.523,0 10,-4.478 10,-10 V 10 C 10,4.477 5.523,0 0,0" /></g><g
           transform="translate(463.9463,125.4121)"
           id="g418"><path
             id="path420"
             style="fill:none;stroke:#ffffff;stroke-width:1.74100006;stroke-linecap:butt;stroke-linejoin:miter;stroke-miterlimit:10;stroke-dasharray:none;stroke-opacity:1"
             d="m 0,0 h -67.059 c -5.522,0 -10,4.477 -10,10 v 67.059 c 0,5.522 4.478,10 10,10 H 0 c 5.523,0 10,-4.478 10,-10 V 10 C 10,4.477 5.523,0 0,0 Z" /></g><g
           transform="translate(461.5352,168.9414)"
           id="g422"><path
             id="path424"
             style="fill:#c52928;fill-opacity:1;fill-rule:nonzero;stroke:none"
             d="m 0,0 c 0,-17.186 -13.932,-31.118 -31.118,-31.118 -17.186,0 -31.117,13.932 -31.117,31.118 0,17.186 13.931,31.117 31.117,31.117 C -13.932,31.117 0,17.186 0,0" /></g><g
           transform="translate(436.5293,168.9414)"
           id="g426"><path
             id="path428"
             style="fill:#ffffff;fill-opacity:1;fill-rule:nonzero;stroke:none"
             d="m 0,0 c 0,-3.376 -2.736,-6.112 -6.112,-6.112 -3.376,0 -6.113,2.736 -6.113,6.112 0,3.376 2.737,6.112 6.113,6.112 C -2.736,6.112 0,3.376 0,0" /></g><g
           transform="translate(436.5293,189.3154)"
           id="g430"><path
             id="path432"
             style="fill:#ffffff;fill-opacity:1;fill-rule:nonzero;stroke:none"
             d="m 0,0 c 0,-3.375 -2.736,-6.112 -6.112,-6.112 -3.376,0 -6.113,2.737 -6.113,6.112 0,3.376 2.737,6.112 6.113,6.112 C -2.736,6.112 0,3.376 0,0" /></g><g
           transform="translate(436.5293,148.5664)"
           id="g434"><path
             id="path436"
             style="fill:#ffffff;fill-opacity:1;fill-rule:nonzero;stroke:none"
             d="m 0,0 c 0,-3.376 -2.736,-6.112 -6.112,-6.112 -3.376,0 -6.113,2.736 -6.113,6.112 0,3.376 2.737,6.112 6.113,6.112 C -2.736,6.112 0,3.376 0,0" /></g><g
           transform="translate(409.7158,164.0469)"
           id="g438"><path
             id="path440"
             style="fill:#ffffff;fill-opacity:1;fill-rule:nonzero;stroke:none"
             d="M 0,0 C 2.924,1.688 6.662,0.687 8.35,-2.237 10.038,-5.16 9.036,-8.898 6.112,-10.587 3.189,-12.274 -0.549,-11.272 -2.237,-8.35 -3.925,-5.426 -2.923,-1.687 0,0" /></g><g
           transform="translate(445.0059,184.4219)"
           id="g442"><path
             id="path444"
             style="fill:#ffffff;fill-opacity:1;fill-rule:nonzero;stroke:none"
             d="m 0,0 c 2.924,1.688 6.662,0.687 8.35,-2.237 1.688,-2.924 0.686,-6.662 -2.238,-8.35 -2.923,-1.687 -6.661,-0.686 -8.349,2.237 C -3.925,-5.426 -2.924,-1.687 0,0" /></g><g
           transform="translate(445.0059,153.46)"
           id="g446"><path
             id="path448"
             style="fill:#ffffff;fill-opacity:1;fill-rule:nonzero;stroke:none"
             d="m 0,0 c -2.924,1.688 -3.925,5.427 -2.237,8.35 1.688,2.923 5.426,3.925 8.349,2.237 C 9.036,8.899 10.038,5.161 8.35,2.237 6.662,-0.686 2.924,-1.687 0,0" /></g><g
           transform="translate(409.7158,173.835)"
           id="g450"><path
             id="path452"
             style="fill:#ffffff;fill-opacity:1;fill-rule:nonzero;stroke:none"
             d="m 0,0 c -2.923,1.687 -3.925,5.426 -2.237,8.35 1.688,2.923 5.426,3.925 8.349,2.237 C 9.036,8.899 10.038,5.161 8.35,2.237 6.662,-0.687 2.924,-1.687 0,0" /></g><g
           transform="translate(463.6475,213.0137)"
           id="g454"><path
             id="path456"
             style="fill:#139b48;fill-opacity:1;fill-rule:nonzero;stroke:none"
             d="m 0,0 h -67.06 c -5.522,0 -10,4.478 -10,10 v 67.059 c 0,5.523 4.478,10 10,10 H 0 c 5.522,0 10,-4.477 10,-10 V 10 C 10,4.478 5.522,0 0,0" /></g><g
           transform="translate(463.6475,213.0137)"
           id="g458"><path
             id="path460"
             style="fill:none;stroke:#ffffff;stroke-width:1.74100006;stroke-linecap:butt;stroke-linejoin:miter;stroke-miterlimit:10;stroke-dasharray:none;stroke-opacity:1"
             d="m 0,0 h -67.06 c -5.522,0 -10,4.478 -10,10 v 67.059 c 0,5.523 4.478,10 10,10 H 0 c 5.522,0 10,-4.477 10,-10 V 10 C 10,4.478 5.522,0 0,0 Z" /></g><g
           transform="translate(461.2354,256.543)"
           id="g462"><path
             id="path464"
             style="fill:#c52928;fill-opacity:1;fill-rule:nonzero;stroke:none"
             d="m 0,0 c 0,-17.186 -13.932,-31.117 -31.118,-31.117 -17.186,0 -31.117,13.931 -31.117,31.117 0,17.186 13.931,31.118 31.117,31.118 C -13.932,31.118 0,17.186 0,0" /></g><g
           transform="translate(436.2305,256.543)"
           id="g466"><path
             id="path468"
             style="fill:#ffffff;fill-opacity:1;fill-rule:nonzero;stroke:none"
             d="m 0,0 c 0,-3.376 -2.737,-6.112 -6.113,-6.112 -3.375,0 -6.113,2.736 -6.113,6.112 0,3.376 2.738,6.112 6.113,6.112 C -2.737,6.112 0,3.376 0,0" /></g><g
           transform="translate(436.2305,276.9175)"
           id="g470"><path
             id="path472"
             style="fill:#ffffff;fill-opacity:1;fill-rule:nonzero;stroke:none"
             d="m 0,0 c 0,-3.375 -2.737,-6.112 -6.113,-6.112 -3.375,0 -6.113,2.737 -6.113,6.112 0,3.376 2.738,6.113 6.113,6.113 C -2.737,6.113 0,3.376 0,0" /></g><g
           transform="translate(436.2305,236.168)"
           id="g474"><path
             id="path476"
             style="fill:#ffffff;fill-opacity:1;fill-rule:nonzero;stroke:none"
             d="m 0,0 c 0,-3.375 -2.737,-6.112 -6.113,-6.112 -3.375,0 -6.113,2.737 -6.113,6.112 0,3.376 2.738,6.112 6.113,6.112 C -2.737,6.112 0,3.376 0,0" /></g><g
           transform="translate(409.416,251.6494)"
           id="g478"><path
             id="path480"
             style="fill:#ffffff;fill-opacity:1;fill-rule:nonzero;stroke:none"
             d="m 0,0 c 2.924,1.687 6.662,0.686 8.351,-2.237 1.687,-2.924 0.685,-6.662 -2.238,-8.35 -2.924,-1.688 -6.662,-0.686 -8.35,2.237 C -3.925,-5.427 -2.923,-1.688 0,0" /></g><g
           transform="translate(444.7061,272.0239)"
           id="g482"><path
             id="path484"
             style="fill:#ffffff;fill-opacity:1;fill-rule:nonzero;stroke:none"
             d="m 0,0 c 2.924,1.688 6.662,0.686 8.35,-2.237 1.688,-2.924 0.686,-6.662 -2.238,-8.35 -2.923,-1.688 -6.661,-0.686 -8.349,2.237 C -3.925,-5.426 -2.923,-1.688 0,0" /></g><g
           transform="translate(444.7061,241.0625)"
           id="g486"><path
             id="path488"
             style="fill:#ffffff;fill-opacity:1;fill-rule:nonzero;stroke:none"
             d="m 0,0 c -2.923,1.687 -3.925,5.426 -2.237,8.35 1.688,2.922 5.426,3.924 8.349,2.237 C 9.036,8.898 10.038,5.16 8.35,2.237 6.662,-0.687 2.924,-1.688 0,0" /></g><g
           transform="translate(409.416,261.437)"
           id="g490"><path
             id="path492"
             style="fill:#ffffff;fill-opacity:1;fill-rule:nonzero;stroke:none"
             d="m 0,0 c -2.923,1.687 -3.925,5.426 -2.237,8.35 1.688,2.923 5.426,3.925 8.35,2.237 C 9.036,8.899 10.038,5.161 8.351,2.237 6.662,-0.687 2.924,-1.688 0,0" /></g><g
           transform="translate(202.4707,213.0137)"
           id="g494"><path
             id="path496"
             style="fill:#139b48;fill-opacity:1;fill-rule:nonzero;stroke:none"
             d="m 0,0 h -67.059 c -5.523,0 -10,4.478 -10,10 v 67.059 c 0,5.523 4.477,10 10,10 H 0 c 5.523,0 10,-4.477 10,-10 V 10 C 10,4.478 5.523,0 0,0" /></g><g
           transform="translate(202.4707,213.0137)"
           id="g498"><path
             id="path500"
             style="fill:none;stroke:#ffffff;stroke-width:1.74100006;stroke-linecap:butt;stroke-linejoin:miter;stroke-miterlimit:10;stroke-dasharray:none;stroke-opacity:1"
             d="m 0,0 h -67.059 c -5.523,0 -10,4.478 -10,10 v 67.059 c 0,5.523 4.477,10 10,10 H 0 c 5.523,0 10,-4.477 10,-10 V 10 C 10,4.478 5.523,0 0,0 Z" /></g><g
           transform="translate(200.0586,256.543)"
           id="g502"><path
             id="path504"
             style="fill:#c52928;fill-opacity:1;fill-rule:nonzero;stroke:none"
             d="m 0,0 c 0,-17.186 -13.932,-31.117 -31.117,-31.117 -17.186,0 -31.118,13.931 -31.118,31.117 0,17.186 13.932,31.118 31.118,31.118 C -13.932,31.118 0,17.186 0,0" /></g><g
           transform="translate(175.0537,256.543)"
           id="g506"><path
             id="path508"
             style="fill:#ffffff;fill-opacity:1;fill-rule:nonzero;stroke:none"
             d="m 0,0 c 0,-3.376 -2.737,-6.112 -6.112,-6.112 -3.376,0 -6.113,2.736 -6.113,6.112 0,3.376 2.737,6.112 6.113,6.112 C -2.737,6.112 0,3.376 0,0" /></g><g
           transform="translate(175.0537,276.9175)"
           id="g510"><path
             id="path512"
             style="fill:#ffffff;fill-opacity:1;fill-rule:nonzero;stroke:none"
             d="m 0,0 c 0,-3.375 -2.737,-6.112 -6.112,-6.112 -3.376,0 -6.113,2.737 -6.113,6.112 0,3.376 2.737,6.113 6.113,6.113 C -2.737,6.113 0,3.376 0,0" /></g><g
           transform="translate(175.0537,236.168)"
           id="g514"><path
             id="path516"
             style="fill:#ffffff;fill-opacity:1;fill-rule:nonzero;stroke:none"
             d="m 0,0 c 0,-3.375 -2.737,-6.112 -6.112,-6.112 -3.376,0 -6.113,2.737 -6.113,6.112 0,3.376 2.737,6.112 6.113,6.112 C -2.737,6.112 0,3.376 0,0" /></g><g
           transform="translate(148.2402,251.6494)"
           id="g518"><path
             id="path520"
             style="fill:#ffffff;fill-opacity:1;fill-rule:nonzero;stroke:none"
             d="M 0,0 C 2.923,1.687 6.662,0.686 8.35,-2.237 10.038,-5.161 9.036,-8.899 6.112,-10.587 3.188,-12.275 -0.55,-11.273 -2.237,-8.35 -3.925,-5.427 -2.924,-1.688 0,0" /></g><g
           transform="translate(183.5298,272.0239)"
           id="g522"><path
             id="path524"
             style="fill:#ffffff;fill-opacity:1;fill-rule:nonzero;stroke:none"
             d="m 0,0 c 2.924,1.688 6.662,0.686 8.35,-2.237 1.688,-2.924 0.686,-6.662 -2.237,-8.35 -2.924,-1.688 -6.662,-0.686 -8.35,2.237 C -3.925,-5.426 -2.923,-1.688 0,0" /></g><g
           transform="translate(183.5298,241.0625)"
           id="g526"><path
             id="path528"
             style="fill:#ffffff;fill-opacity:1;fill-rule:nonzero;stroke:none"
             d="m 0,0 c -2.923,1.687 -3.925,5.426 -2.237,8.35 1.688,2.922 5.426,3.924 8.35,2.237 C 9.036,8.898 10.038,5.16 8.35,2.237 6.662,-0.687 2.924,-1.688 0,0" /></g><g
           transform="translate(148.2402,261.437)"
           id="g530"><path
             id="path532"
             style="fill:#ffffff;fill-opacity:1;fill-rule:nonzero;stroke:none"
             d="m 0,0 c -2.924,1.687 -3.925,5.426 -2.237,8.35 1.687,2.923 5.425,3.925 8.349,2.237 C 9.036,8.899 10.038,5.161 8.35,2.237 6.662,-0.687 2.923,-1.688 0,0" /></g><g
           transform="translate(376.3975,38.3525)"
           id="g534"><path
             id="path536"
             style="fill:#139b48;fill-opacity:1;fill-rule:nonzero;stroke:none"
             d="m 0,0 h -67.059 c -5.522,0 -10,4.478 -10,10 v 154.118 c 0,5.523 4.478,10 10,10 H 0 c 5.523,0 10,-4.477 10,-10 V 10 C 10,4.478 5.523,0 0,0" /></g><g
           transform="translate(376.3975,38.3525)"
           id="g538"><path
             id="path540"
             style="fill:none;stroke:#ffffff;stroke-width:1.74100006;stroke-linecap:butt;stroke-linejoin:miter;stroke-miterlimit:10;stroke-dasharray:none;stroke-opacity:1"
             d="m 0,0 h -67.059 c -5.522,0 -10,4.478 -10,10 v 154.118 c 0,5.523 4.478,10 10,10 H 0 c 5.523,0 10,-4.477 10,-10 V 10 C 10,4.478 5.523,0 0,0 Z" /></g><g
           transform="translate(364.5986,74.4277)"
           id="g542"><path
             id="path544"
             style="fill:#ffffff;fill-opacity:1;fill-rule:nonzero;stroke:none"
             d="m 0,0 c 2.113,1.974 3.104,4.18 3.389,6.453 0.289,2.301 -1.49,4.328 -3.748,4.328 H -21.73 -43.102 c -2.258,0 -4.037,-2.027 -3.748,-4.328 0.286,-2.273 1.276,-4.479 3.389,-6.453 17.764,-16.591 13.304,-30.44 21.731,-30.44 8.426,0 3.966,13.849 21.73,30.44" /></g><g
           transform="translate(342.8682,43.9873)"
           id="g546"><path
             id="path548"
             style="fill:#ffffff;fill-opacity:1;fill-rule:nonzero;stroke:none"
             d="M 0,0 C -2.835,0 -4.211,1.567 -5.466,4.278 H 5.466 C 4.211,1.567 2.835,0 0,0" /></g><g
           transform="translate(323.0078,96.3857)"
           id="g550"><path
             id="path552"
             style="fill:#db5727;fill-opacity:1;fill-rule:nonzero;stroke:none"
             d="m 0,0 v 0 c 0,-3.425 2.389,-6.2 5.336,-6.2 h 29.049 c 2.947,0 5.337,2.775 5.337,6.2 0,3.424 -2.39,9.207 -5.337,9.207 H 5.336 C 2.389,9.207 0,3.424 0,0" /></g><path
           id="path554"
           style="fill:#db5727;fill-opacity:1;fill-rule:nonzero;stroke:none"
           d="m 327.343,92.036 h 31.379 V 81.035 h -31.379 z" /><g
           transform="translate(355.251,168.6816)"
           id="g556"><path
             id="path558"
             style="fill:#ffffff;fill-opacity:1;fill-rule:nonzero;stroke:none"
             d="m 0,0 c 0,-21.351 -5.471,-38.658 -12.219,-38.658 -6.748,0 -12.218,17.307 -12.218,38.658 0,21.351 5.47,38.658 12.218,38.658 C -5.471,38.658 0,21.351 0,0" /></g><g
           transform="translate(343.0322,130.0225)"
           id="g560"><path
             id="path562"
             style="fill:#db5727;fill-opacity:1;fill-rule:nonzero;stroke:none"
             d="m 0,0 c -6.665,0 -12.084,16.887 -12.216,37.877 0.764,-1.949 1.685,-3.304 2.964,-3.304 4.565,0 4.565,17.237 9.13,17.237 4.564,0 4.564,-17.237 9.131,-17.237 1.42,0 2.398,1.669 3.21,3.969 C 12.198,17.245 6.735,0 0,0" /></g><g
           transform="translate(357.2539,74.4277)"
           id="g564"><path
             id="path566"
             style="fill:#db5727;fill-opacity:1;fill-rule:nonzero;stroke:none"
             d="m 0,0 c 3.864,3.277 7.432,7.047 6.621,10.781 h -21.007 -21.007 c -0.81,-3.734 2.757,-7.504 6.622,-10.781 17.25,-14.628 4.69,-30.44 14.385,-30.44 9.527,0 -2.864,15.812 14.386,30.44" /></g><g
           transform="translate(342.8682,43.4834)"
           id="g568"><path
             id="path570"
             style="fill:#222323;fill-opacity:1;fill-rule:nonzero;stroke:none"
             d="M 0,0 C -2.835,0 -4.211,1.752 -5.466,4.782 H 5.466 C 4.211,1.752 2.835,0 0,0" /></g><g
           transform="translate(319.5381,144.1709)"
           id="g572"><path
             id="path574"
             style="fill:#db5727;fill-opacity:1;fill-rule:nonzero;stroke:none"
             d="m 0,0 v -0.996 c 0,-4.325 3.413,-7.83 7.624,-7.83 h 31.412 c 4.211,0 7.624,3.505 7.624,7.83 L 46.66,0 C 46.66,17.967 0,17.967 0,0" /></g><g
           transform="translate(342.8682,78.8496)"
           id="g576"><path
             id="path578"
             style="fill:#db5727;fill-opacity:1;fill-rule:nonzero;stroke:none"
             d="m 0,0 c -10.248,0 -18.555,29.709 -18.555,46.553 0,16.843 8.307,30.497 18.555,30.497 10.248,0 18.555,-13.654 18.555,-30.497 C 18.555,29.709 10.248,0 0,0" /></g><g
           transform="translate(353.3535,85.209)"
           id="g580"><path
             id="path582"
             style="fill:#ffffff;fill-opacity:1;fill-rule:nonzero;stroke:none"
             d="m 0,0 h -7.289 c 0,4.106 6.637,7.486 10.635,7.486 4.24,0 3.942,-4.966 3.942,-7.486 z" /></g><g
           transform="translate(332.3828,85.209)"
           id="g584"><path
             id="path586"
             style="fill:#ffffff;fill-opacity:1;fill-rule:nonzero;stroke:none"
             d="M 0,0 H 7.289 C 7.289,4.106 0.652,7.486 -3.346,7.486 -7.586,7.486 -7.288,2.52 -7.288,0 Z" /></g><g
           transform="translate(351.4209,65.3389)"
           id="g588"><path
             id="path590"
             style="fill:#252626;fill-opacity:1;fill-rule:nonzero;stroke:none"
             d="m 0,0 c -1.345,0 -2.434,1.74 -2.434,3.887 0,2.146 1.089,3.886 2.434,3.886 1.344,0 2.433,-1.74 2.433,-3.886 C 2.433,1.74 1.344,0 0,0" /></g><g
           transform="translate(334.3154,65.3389)"
           id="g592"><path
             id="path594"
             style="fill:#252626;fill-opacity:1;fill-rule:nonzero;stroke:none"
             d="m 0,0 c -1.344,0 -2.433,1.74 -2.433,3.887 0,2.146 1.089,3.886 2.433,3.886 1.345,0 2.434,-1.74 2.434,-3.886 C 2.434,1.74 1.345,0 0,0" /></g></g></g></g></svg>