<?xml version="1.0" encoding="UTF-8" standalone="no"?>
<svg
   xmlns:dc="http://purl.org/dc/elements/1.1/"
   xmlns:cc="http://creativecommons.org/ns#"
   xmlns:rdf="http://www.w3.org/1999/02/22-rdf-syntax-ns#"
   xmlns:svg="http://www.w3.org/2000/svg"
   xmlns="http://www.w3.org/2000/svg"
   viewBox="0 0 682.66669 682.66669"
   height="682.66669"
   width="682.66669"
   xml:space="preserve"
   id="svg2"
   version="1.1"><metadata
     id="metadata8"><rdf:RDF><cc:Work
         rdf:about=""><dc:format>image/svg+xml</dc:format><dc:type
           rdf:resource="http://purl.org/dc/dcmitype/StillImage" /></cc:Work></rdf:RDF></metadata><defs
     id="defs6"><clipPath
       id="clipPath18"
       clipPathUnits="userSpaceOnUse"><path
         id="path16"
         d="M 0,512 H 512 V 0 H 0 Z" /></clipPath><clipPath
       id="clipPath436"
       clipPathUnits="userSpaceOnUse"><path
         id="path434"
         d="m 164.519,413.622 h 8.844 v -4.225 h -8.844 z" /></clipPath></defs><g
     transform="matrix(1.3333333,0,0,-1.3333333,0,682.66667)"
     id="g10"><g
       id="g12"><g
         clip-path="url(#clipPath18)"
         id="g14"><g
           transform="translate(450,6)"
           id="g20"><path
             id="path22"
             style="fill:#139b48;fill-opacity:1;fill-rule:nonzero;stroke:none"
             d="m 0,0 h -388 c -30.928,0 -56,25.072 -56,56 v 388 c 0,30.928 25.072,56 56,56 H 0 c 30.928,0 56,-25.072 56,-56 V 56 C 56,25.072 30.928,0 0,0" /></g><g
           transform="translate(450,6)"
           id="g24"><path
             id="path26"
             style="fill:none;stroke:#ffffff;stroke-width:2;stroke-linecap:butt;stroke-linejoin:miter;stroke-miterlimit:10;stroke-dasharray:none;stroke-opacity:1"
             d="m 0,0 h -388 c -30.928,0 -56,25.072 -56,56 v 388 c 0,30.928 25.072,56 56,56 H 0 c 30.928,0 56,-25.072 56,-56 V 56 C 56,25.072 30.928,0 0,0 Z" /></g><g
           transform="translate(441.6475,38.3525)"
           id="g28"><path
             id="path30"
             style="fill:#0f9246;fill-opacity:1;fill-rule:nonzero;stroke:none"
             d="m 0,0 h -371.294 c -17.674,0 -32,14.327 -32,32 v 371.294 c 0,17.674 14.326,32 32,32 H 0 c 17.673,0 32,-14.326 32,-32 V 32 C 32,14.327 17.673,0 0,0" /></g><g
           transform="translate(441.6475,38.3525)"
           id="g32"><path
             id="path34"
             style="fill:none;stroke:#ffffff;stroke-width:1.74100006;stroke-linecap:butt;stroke-linejoin:miter;stroke-miterlimit:10;stroke-dasharray:none;stroke-opacity:1"
             d="m 0,0 h -371.294 c -17.674,0 -32,14.327 -32,32 v 371.294 c 0,17.674 14.326,32 32,32 H 0 c 17.673,0 32,-14.326 32,-32 V 32 C 32,14.327 17.673,0 0,0 Z" /></g><g
           transform="translate(197.7061,430.1177)"
           id="g36"><path
             id="path38"
             style="fill:#0f8040;fill-opacity:1;fill-rule:nonzero;stroke:none"
             d="m 0,0 c 0,-15.886 -12.878,-28.765 -28.765,-28.765 -15.886,0 -28.765,12.879 -28.765,28.765 0,15.886 12.879,28.765 28.765,28.765 C -12.878,28.765 0,15.886 0,0" /></g><g
           transform="translate(284.7646,430.1177)"
           id="g40"><path
             id="path42"
             style="fill:#0f8040;fill-opacity:1;fill-rule:nonzero;stroke:none"
             d="m 0,0 c 0,-15.886 -12.878,-28.765 -28.765,-28.765 -15.886,0 -28.764,12.879 -28.764,28.765 0,15.886 12.878,28.765 28.764,28.765 C -12.878,28.765 0,15.886 0,0" /></g><g
           transform="translate(371.8232,430.1177)"
           id="g44"><path
             id="path46"
             style="fill:#0f8040;fill-opacity:1;fill-rule:nonzero;stroke:none"
             d="m 0,0 c 0,-15.886 -12.878,-28.765 -28.765,-28.765 -15.885,0 -28.764,12.879 -28.764,28.765 0,15.886 12.879,28.765 28.764,28.765 C -12.878,28.765 0,15.886 0,0" /></g><g
           transform="translate(110.647,343.0586)"
           id="g48"><path
             id="path50"
             style="fill:#0f8040;fill-opacity:1;fill-rule:nonzero;stroke:none"
             d="m 0,0 c 0,-15.886 -12.878,-28.765 -28.765,-28.765 -15.886,0 -28.764,12.879 -28.764,28.765 0,15.887 12.878,28.765 28.764,28.765 C -12.878,28.765 0,15.887 0,0" /></g><g
           transform="translate(197.7061,343.0586)"
           id="g52"><path
             id="path54"
             style="fill:#0f8040;fill-opacity:1;fill-rule:nonzero;stroke:none"
             d="m 0,0 c 0,-15.886 -12.878,-28.765 -28.765,-28.765 -15.886,0 -28.765,12.879 -28.765,28.765 0,15.887 12.879,28.765 28.765,28.765 C -12.878,28.765 0,15.887 0,0" /></g><g
           transform="translate(284.7646,343.0586)"
           id="g56"><path
             id="path58"
             style="fill:#0f8040;fill-opacity:1;fill-rule:nonzero;stroke:none"
             d="m 0,0 c 0,-15.886 -12.878,-28.765 -28.765,-28.765 -15.886,0 -28.764,12.879 -28.764,28.765 0,15.887 12.878,28.765 28.764,28.765 C -12.878,28.765 0,15.887 0,0" /></g><g
           transform="translate(371.8232,343.0586)"
           id="g60"><path
             id="path62"
             style="fill:#0f8040;fill-opacity:1;fill-rule:nonzero;stroke:none"
             d="m 0,0 c 0,-15.886 -12.878,-28.765 -28.765,-28.765 -15.885,0 -28.764,12.879 -28.764,28.765 0,15.887 12.879,28.765 28.764,28.765 C -12.878,28.765 0,15.887 0,0" /></g><g
           transform="translate(458.8828,343.0586)"
           id="g64"><path
             id="path66"
             style="fill:#0f8040;fill-opacity:1;fill-rule:nonzero;stroke:none"
             d="m 0,0 c 0,-15.886 -12.879,-28.765 -28.766,-28.765 -15.885,0 -28.764,12.879 -28.764,28.765 0,15.887 12.879,28.765 28.764,28.765 C -12.879,28.765 0,15.887 0,0" /></g><g
           transform="translate(110.647,256)"
           id="g68"><path
             id="path70"
             style="fill:#0f8040;fill-opacity:1;fill-rule:nonzero;stroke:none"
             d="m 0,0 c 0,-15.887 -12.878,-28.765 -28.765,-28.765 -15.886,0 -28.764,12.878 -28.764,28.765 0,15.886 12.878,28.765 28.764,28.765 C -12.878,28.765 0,15.886 0,0" /></g><g
           transform="translate(197.7061,256)"
           id="g72"><path
             id="path74"
             style="fill:#0f8040;fill-opacity:1;fill-rule:nonzero;stroke:none"
             d="m 0,0 c 0,-15.887 -12.878,-28.765 -28.765,-28.765 -15.886,0 -28.765,12.878 -28.765,28.765 0,15.886 12.879,28.765 28.765,28.765 C -12.878,28.765 0,15.886 0,0" /></g><g
           transform="translate(371.8232,256)"
           id="g76"><path
             id="path78"
             style="fill:#0f8040;fill-opacity:1;fill-rule:nonzero;stroke:none"
             d="m 0,0 c 0,-15.887 -12.878,-28.765 -28.765,-28.765 -15.885,0 -28.764,12.878 -28.764,28.765 0,15.886 12.879,28.765 28.764,28.765 C -12.878,28.765 0,15.886 0,0" /></g><g
           transform="translate(458.8828,256)"
           id="g80"><path
             id="path82"
             style="fill:#0f8040;fill-opacity:1;fill-rule:nonzero;stroke:none"
             d="m 0,0 c 0,-15.887 -12.879,-28.765 -28.766,-28.765 -15.885,0 -28.764,12.878 -28.764,28.765 0,15.886 12.879,28.765 28.764,28.765 C -12.879,28.765 0,15.886 0,0" /></g><g
           transform="translate(110.647,168.9414)"
           id="g84"><path
             id="path86"
             style="fill:#0f8040;fill-opacity:1;fill-rule:nonzero;stroke:none"
             d="m 0,0 c 0,-15.887 -12.878,-28.765 -28.765,-28.765 -15.886,0 -28.764,12.878 -28.764,28.765 0,15.886 12.878,28.765 28.764,28.765 C -12.878,28.765 0,15.886 0,0" /></g><g
           transform="translate(197.7061,168.9414)"
           id="g88"><path
             id="path90"
             style="fill:#0f8040;fill-opacity:1;fill-rule:nonzero;stroke:none"
             d="m 0,0 c 0,-15.887 -12.878,-28.765 -28.765,-28.765 -15.886,0 -28.765,12.878 -28.765,28.765 0,15.886 12.879,28.765 28.765,28.765 C -12.878,28.765 0,15.886 0,0" /></g><g
           transform="translate(284.7646,168.9414)"
           id="g92"><path
             id="path94"
             style="fill:#0f8040;fill-opacity:1;fill-rule:nonzero;stroke:none"
             d="m 0,0 c 0,-15.887 -12.878,-28.765 -28.765,-28.765 -15.886,0 -28.764,12.878 -28.764,28.765 0,15.886 12.878,28.765 28.764,28.765 C -12.878,28.765 0,15.886 0,0" /></g><g
           transform="translate(371.8232,168.9414)"
           id="g96"><path
             id="path98"
             style="fill:#0f8040;fill-opacity:1;fill-rule:nonzero;stroke:none"
             d="m 0,0 c 0,-15.887 -12.878,-28.765 -28.765,-28.765 -15.885,0 -28.764,12.878 -28.764,28.765 0,15.886 12.879,28.765 28.764,28.765 C -12.878,28.765 0,15.886 0,0" /></g><g
           transform="translate(458.8828,168.9414)"
           id="g100"><path
             id="path102"
             style="fill:#0f8040;fill-opacity:1;fill-rule:nonzero;stroke:none"
             d="m 0,0 c 0,-15.887 -12.879,-28.765 -28.766,-28.765 -15.885,0 -28.764,12.878 -28.764,28.765 0,15.886 12.879,28.765 28.764,28.765 C -12.879,28.765 0,15.886 0,0" /></g><g
           transform="translate(197.7061,81.8828)"
           id="g104"><path
             id="path106"
             style="fill:#0f8040;fill-opacity:1;fill-rule:nonzero;stroke:none"
             d="m 0,0 c 0,-15.887 -12.878,-28.766 -28.765,-28.766 -15.886,0 -28.765,12.879 -28.765,28.766 0,15.886 12.879,28.765 28.765,28.765 C -12.878,28.765 0,15.886 0,0" /></g><g
           transform="translate(284.7646,81.8828)"
           id="g108"><path
             id="path110"
             style="fill:#0f8040;fill-opacity:1;fill-rule:nonzero;stroke:none"
             d="m 0,0 c 0,-15.887 -12.878,-28.766 -28.765,-28.766 -15.886,0 -28.764,12.879 -28.764,28.766 0,15.886 12.878,28.765 28.764,28.765 C -12.878,28.765 0,15.886 0,0" /></g><g
           transform="translate(371.8232,81.8828)"
           id="g112"><path
             id="path114"
             style="fill:#0f8040;fill-opacity:1;fill-rule:nonzero;stroke:none"
             d="m 0,0 c 0,-15.887 -12.878,-28.766 -28.765,-28.766 -15.885,0 -28.764,12.879 -28.764,28.766 0,15.886 12.879,28.765 28.764,28.765 C -12.878,28.765 0,15.886 0,0" /></g><g
           transform="translate(289.5293,212.4707)"
           id="g116"><path
             id="path118"
             style="fill:#139b48;fill-opacity:1;fill-rule:nonzero;stroke:none"
             d="m 0,0 h -67.059 c -5.523,0 -10,4.477 -10,10 v 67.059 c 0,5.523 4.477,10 10,10 H 0 c 5.523,0 10,-4.477 10,-10 V 10 C 10,4.477 5.523,0 0,0" /></g><g
           transform="translate(289.5293,212.4707)"
           id="g120"><path
             id="path122"
             style="fill:none;stroke:#ffffff;stroke-width:1.74100006;stroke-linecap:butt;stroke-linejoin:miter;stroke-miterlimit:10;stroke-dasharray:none;stroke-opacity:1"
             d="m 0,0 h -67.059 c -5.523,0 -10,4.477 -10,10 v 67.059 c 0,5.523 4.477,10 10,10 H 0 c 5.523,0 10,-4.477 10,-10 V 10 C 10,4.477 5.523,0 0,0 Z" /></g><g
           transform="translate(115.4116,386.5884)"
           id="g124"><path
             id="path126"
             style="fill:#139b48;fill-opacity:1;fill-rule:nonzero;stroke:none"
             d="m 0,0 h -67.059 c -5.523,0 -10,4.477 -10,10 v 45.059 c 0,17.673 14.327,32 32,32 H 0 c 5.523,0 10,-4.477 10,-10 V 10 C 10,4.477 5.523,0 0,0" /></g><g
           transform="translate(115.4116,386.5884)"
           id="g128"><path
             id="path130"
             style="fill:none;stroke:#ffffff;stroke-width:1.74100006;stroke-linecap:butt;stroke-linejoin:miter;stroke-miterlimit:10;stroke-dasharray:none;stroke-opacity:1"
             d="m 0,0 h -67.059 c -5.523,0 -10,4.477 -10,10 v 45.059 c 0,17.673 14.327,32 32,32 H 0 c 5.523,0 10,-4.477 10,-10 V 10 C 10,4.477 5.523,0 0,0 Z" /></g><g
           transform="translate(115.4116,38.3525)"
           id="g132"><path
             id="path134"
             style="fill:#139b48;fill-opacity:1;fill-rule:nonzero;stroke:none"
             d="m 0,0 h -45.059 c -17.673,0 -32,14.327 -32,32 v 45.06 c 0,5.522 4.477,10 10,10 H 0 c 5.523,0 10,-4.478 10,-10 V 10 C 10,4.478 5.523,0 0,0" /></g><g
           transform="translate(115.4116,38.3525)"
           id="g136"><path
             id="path138"
             style="fill:none;stroke:#ffffff;stroke-width:1.74100006;stroke-linecap:butt;stroke-linejoin:miter;stroke-miterlimit:10;stroke-dasharray:none;stroke-opacity:1"
             d="m 0,0 h -45.059 c -17.673,0 -32,14.327 -32,32 v 45.06 c 0,5.522 4.477,10 10,10 H 0 c 5.523,0 10,-4.478 10,-10 V 10 C 10,4.478 5.523,0 0,0 Z" /></g><g
           transform="translate(441.6475,38.3525)"
           id="g140"><path
             id="path142"
             style="fill:#139b48;fill-opacity:1;fill-rule:nonzero;stroke:none"
             d="m 0,0 h -45.06 c -5.522,0 -10,4.478 -10,10 v 67.06 c 0,5.522 4.478,10 10,10 H 22 c 5.522,0 10,-4.478 10,-10 V 32 C 32,14.327 17.673,0 0,0" /></g><g
           transform="translate(441.6475,38.3525)"
           id="g144"><path
             id="path146"
             style="fill:none;stroke:#ffffff;stroke-width:1.74100006;stroke-linecap:butt;stroke-linejoin:miter;stroke-miterlimit:10;stroke-dasharray:none;stroke-opacity:1"
             d="m 0,0 h -45.06 c -5.522,0 -10,4.478 -10,10 v 67.06 c 0,5.522 4.478,10 10,10 H 22 c 5.522,0 10,-4.478 10,-10 V 32 C 32,14.327 17.673,0 0,0 Z" /></g><g
           transform="translate(463.6475,386.5884)"
           id="g148"><path
             id="path150"
             style="fill:#139b48;fill-opacity:1;fill-rule:nonzero;stroke:none"
             d="m 0,0 h -67.06 c -5.522,0 -10,4.477 -10,10 v 67.059 c 0,5.523 4.478,10 10,10 H -22 c 17.673,0 32,-14.327 32,-32 V 10 C 10,4.477 5.522,0 0,0" /></g><g
           transform="translate(463.6475,386.5884)"
           id="g152"><path
             id="path154"
             style="fill:none;stroke:#ffffff;stroke-width:1.74100006;stroke-linecap:butt;stroke-linejoin:miter;stroke-miterlimit:10;stroke-dasharray:none;stroke-opacity:1"
             d="m 0,0 h -67.06 c -5.522,0 -10,4.477 -10,10 v 67.059 c 0,5.523 4.478,10 10,10 H -22 c 17.673,0 32,-14.327 32,-32 V 10 C 10,4.477 5.522,0 0,0 Z" /></g><g
           transform="translate(202.1709,38.3525)"
           id="g156"><path
             id="path158"
             style="fill:#139b48;fill-opacity:1;fill-rule:nonzero;stroke:none"
             d="m 0,0 h -67.059 c -5.523,0 -10,4.478 -10,10 v 154.118 c 0,5.523 4.477,10 10,10 H 0 c 5.523,0 10,-4.477 10,-10 V 10 C 10,4.478 5.523,0 0,0" /></g><g
           transform="translate(202.1709,38.3525)"
           id="g160"><path
             id="path162"
             style="fill:none;stroke:#ffffff;stroke-width:1.74100006;stroke-linecap:butt;stroke-linejoin:miter;stroke-miterlimit:10;stroke-dasharray:none;stroke-opacity:1"
             d="m 0,0 h -67.059 c -5.523,0 -10,4.478 -10,10 v 154.118 c 0,5.523 4.477,10 10,10 H 0 c 5.523,0 10,-4.477 10,-10 V 10 C 10,4.478 5.523,0 0,0 Z" /></g><g
           transform="translate(190.3716,74.4277)"
           id="g164"><path
             id="path166"
             style="fill:#ffffff;fill-opacity:1;fill-rule:nonzero;stroke:none"
             d="M 0,0 C 2.113,1.974 3.104,4.18 3.39,6.453 3.679,8.754 1.9,10.781 -0.358,10.781 H -21.73 -43.102 c -2.258,0 -4.037,-2.027 -3.748,-4.328 0.286,-2.273 1.276,-4.479 3.39,-6.453 17.763,-16.591 13.304,-30.44 21.73,-30.44 8.426,0 3.967,13.849 21.73,30.44" /></g><g
           transform="translate(168.6416,43.9873)"
           id="g168"><path
             id="path170"
             style="fill:#ffffff;fill-opacity:1;fill-rule:nonzero;stroke:none"
             d="M 0,0 C -2.835,0 -4.211,1.567 -5.465,4.278 H 5.466 C 4.211,1.567 2.835,0 0,0" /></g><g
           transform="translate(148.7808,96.3857)"
           id="g172"><path
             id="path174"
             style="fill:#db5727;fill-opacity:1;fill-rule:nonzero;stroke:none"
             d="m 0,0 v 0 c 0,-3.425 2.389,-6.2 5.336,-6.2 h 29.05 c 2.947,0 5.336,2.775 5.336,6.2 0,3.424 -2.389,9.207 -5.336,9.207 H 5.336 C 2.389,9.207 0,3.424 0,0" /></g><path
           id="path176"
           style="fill:#db5727;fill-opacity:1;fill-rule:nonzero;stroke:none"
           d="m 153.116,92.036 h 31.379 V 81.035 h -31.379 z" /><g
           transform="translate(181.0244,168.6816)"
           id="g178"><path
             id="path180"
             style="fill:#ffffff;fill-opacity:1;fill-rule:nonzero;stroke:none"
             d="m 0,0 c 0,-21.351 -5.471,-38.658 -12.219,-38.658 -6.748,0 -12.218,17.307 -12.218,38.658 0,21.351 5.47,38.658 12.218,38.658 C -5.471,38.658 0,21.351 0,0" /></g><g
           transform="translate(168.8052,130.0225)"
           id="g182"><path
             id="path184"
             style="fill:#db5727;fill-opacity:1;fill-rule:nonzero;stroke:none"
             d="m 0,0 c -6.664,0 -12.084,16.887 -12.215,37.877 0.763,-1.949 1.685,-3.304 2.964,-3.304 4.565,0 4.565,17.237 9.13,17.237 4.564,0 4.564,-17.237 9.13,-17.237 1.421,0 2.398,1.669 3.21,3.969 C 12.199,17.245 6.736,0 0,0" /></g><g
           transform="translate(183.0269,74.4277)"
           id="g186"><path
             id="path188"
             style="fill:#db5727;fill-opacity:1;fill-rule:nonzero;stroke:none"
             d="M 0,0 C 3.865,3.277 7.432,7.047 6.622,10.781 H -14.385 -35.392 C -36.203,7.047 -32.636,3.277 -28.771,0 c 17.25,-14.628 4.69,-30.44 14.386,-30.44 9.526,0 -2.865,15.812 14.385,30.44" /></g><g
           transform="translate(168.6416,43.4834)"
           id="g190"><path
             id="path192"
             style="fill:#222323;fill-opacity:1;fill-rule:nonzero;stroke:none"
             d="M 0,0 C -2.835,0 -4.211,1.752 -5.465,4.782 H 5.466 C 4.211,1.752 2.835,0 0,0" /></g><g
           transform="translate(145.311,144.1709)"
           id="g194"><path
             id="path196"
             style="fill:#db5727;fill-opacity:1;fill-rule:nonzero;stroke:none"
             d="m 0,0 v -0.996 c 0,-4.325 3.414,-7.83 7.624,-7.83 h 31.413 c 4.211,0 7.624,3.505 7.624,7.83 V 0 C 46.661,17.967 0,17.967 0,0" /></g><g
           transform="translate(168.6416,78.8496)"
           id="g198"><path
             id="path200"
             style="fill:#db5727;fill-opacity:1;fill-rule:nonzero;stroke:none"
             d="m 0,0 c -10.248,0 -18.555,29.709 -18.555,46.553 0,16.843 8.307,30.497 18.555,30.497 10.248,0 18.555,-13.654 18.555,-30.497 C 18.555,29.709 10.248,0 0,0" /></g><g
           transform="translate(179.1265,85.209)"
           id="g202"><path
             id="path204"
             style="fill:#ffffff;fill-opacity:1;fill-rule:nonzero;stroke:none"
             d="m 0,0 h -7.289 c 0,4.106 6.637,7.486 10.636,7.486 4.24,0 3.942,-4.966 3.942,-7.486 z" /></g><g
           transform="translate(158.1567,85.209)"
           id="g206"><path
             id="path208"
             style="fill:#ffffff;fill-opacity:1;fill-rule:nonzero;stroke:none"
             d="M 0,0 H 7.289 C 7.289,4.106 0.652,7.486 -3.347,7.486 -7.587,7.486 -7.289,2.52 -7.289,0 Z" /></g><g
           transform="translate(177.1938,65.3389)"
           id="g210"><path
             id="path212"
             style="fill:#252626;fill-opacity:1;fill-rule:nonzero;stroke:none"
             d="m 0,0 c -1.344,0 -2.434,1.74 -2.434,3.887 0,2.146 1.09,3.886 2.434,3.886 1.344,0 2.434,-1.74 2.434,-3.886 C 2.434,1.74 1.344,0 0,0" /></g><g
           transform="translate(160.0894,65.3389)"
           id="g214"><path
             id="path216"
             style="fill:#252626;fill-opacity:1;fill-rule:nonzero;stroke:none"
             d="m 0,0 c -1.344,0 -2.434,1.74 -2.434,3.887 0,2.146 1.09,3.886 2.434,3.886 1.344,0 2.433,-1.74 2.433,-3.886 C 2.433,1.74 1.344,0 0,0" /></g><g
           transform="translate(115.4116,212.4707)"
           id="g218"><path
             id="path220"
             style="fill:#139b48;fill-opacity:1;fill-rule:nonzero;stroke:none"
             d="m 0,0 h -67.059 c -5.523,0 -10,4.477 -10,10 v 67.059 c 0,5.523 4.477,10 10,10 H 0 c 5.523,0 10,-4.477 10,-10 V 10 C 10,4.477 5.523,0 0,0" /></g><g
           transform="translate(115.4116,212.4707)"
           id="g222"><path
             id="path224"
             style="fill:none;stroke:#ffffff;stroke-width:1.74100006;stroke-linecap:butt;stroke-linejoin:miter;stroke-miterlimit:10;stroke-dasharray:none;stroke-opacity:1"
             d="m 0,0 h -67.059 c -5.523,0 -10,4.477 -10,10 v 67.059 c 0,5.523 4.477,10 10,10 H 0 c 5.523,0 10,-4.477 10,-10 V 10 C 10,4.477 5.523,0 0,0 Z" /></g><g
           transform="translate(110.647,256)"
           id="g226"><path
             id="path228"
             style="fill:#0f8040;fill-opacity:1;fill-rule:nonzero;stroke:none"
             d="m 0,0 c 0,-15.887 -12.878,-28.765 -28.765,-28.765 -15.886,0 -28.764,12.878 -28.764,28.765 0,15.886 12.878,28.765 28.764,28.765 C -12.878,28.765 0,15.886 0,0" /></g><g
           transform="translate(463.6475,212.4707)"
           id="g230"><path
             id="path232"
             style="fill:#139b48;fill-opacity:1;fill-rule:nonzero;stroke:none"
             d="m 0,0 h -67.06 c -5.522,0 -10,4.477 -10,10 v 67.059 c 0,5.523 4.478,10 10,10 H 0 c 5.522,0 10,-4.477 10,-10 V 10 C 10,4.477 5.522,0 0,0" /></g><g
           transform="translate(463.6475,212.4707)"
           id="g234"><path
             id="path236"
             style="fill:none;stroke:#ffffff;stroke-width:1.74100006;stroke-linecap:butt;stroke-linejoin:miter;stroke-miterlimit:10;stroke-dasharray:none;stroke-opacity:1"
             d="m 0,0 h -67.06 c -5.522,0 -10,4.477 -10,10 v 67.059 c 0,5.523 4.478,10 10,10 H 0 c 5.522,0 10,-4.477 10,-10 V 10 C 10,4.477 5.522,0 0,0 Z" /></g><g
           transform="translate(458.8828,256)"
           id="g238"><path
             id="path240"
             style="fill:#0f8040;fill-opacity:1;fill-rule:nonzero;stroke:none"
             d="m 0,0 c 0,-15.887 -12.879,-28.765 -28.766,-28.765 -15.885,0 -28.764,12.878 -28.764,28.765 0,15.886 12.879,28.765 28.764,28.765 C -12.879,28.765 0,15.886 0,0" /></g><g
           transform="translate(299.5293,115.4121)"
           id="g242"><path
             id="path244"
             style="fill:#139b48;fill-opacity:1;fill-rule:nonzero;stroke:none"
             d="m 0,0 v -67.06 c 0,-5.522 -4.477,-10 -10,-10 h -67.059 c -5.523,0 -10,4.478 -10,10 V 0 c 0,5.522 4.477,10 10,10 H -10 C -4.477,10 0,5.522 0,0" /></g><g
           transform="translate(299.5293,115.4121)"
           id="g246"><path
             id="path248"
             style="fill:none;stroke:#ffffff;stroke-width:1.74100006;stroke-linecap:butt;stroke-linejoin:miter;stroke-miterlimit:10;stroke-dasharray:none;stroke-opacity:1"
             d="m 0,0 v -67.06 c 0,-5.522 -4.477,-10 -10,-10 h -67.059 c -5.523,0 -10,4.478 -10,10 V 0 c 0,5.522 4.477,10 10,10 H -10 C -4.477,10 0,5.522 0,0 Z" /></g><g
           transform="translate(256,110.6475)"
           id="g250"><path
             id="path252"
             style="fill:#0f8040;fill-opacity:1;fill-rule:nonzero;stroke:none"
             d="M 0,0 C 15.887,0 28.765,-12.879 28.765,-28.765 28.765,-44.651 15.887,-57.53 0,-57.53 c -15.886,0 -28.765,12.879 -28.765,28.765 C -28.765,-12.879 -15.886,0 0,0" /></g><g
           transform="translate(299.5293,463.647)"
           id="g254"><path
             id="path256"
             style="fill:#139b48;fill-opacity:1;fill-rule:nonzero;stroke:none"
             d="m 0,0 v -67.059 c 0,-5.523 -4.477,-10 -10,-10 h -67.059 c -5.523,0 -10,4.477 -10,10 V 0 c 0,5.523 4.477,10 10,10 H -10 C -4.477,10 0,5.523 0,0" /></g><g
           transform="translate(299.5293,463.647)"
           id="g258"><path
             id="path260"
             style="fill:none;stroke:#ffffff;stroke-width:1.74100006;stroke-linecap:butt;stroke-linejoin:miter;stroke-miterlimit:10;stroke-dasharray:none;stroke-opacity:1"
             d="m 0,0 v -67.059 c 0,-5.523 -4.477,-10 -10,-10 h -67.059 c -5.523,0 -10,4.477 -10,10 V 0 c 0,5.523 4.477,10 10,10 H -10 C -4.477,10 0,5.523 0,0 Z" /></g><g
           transform="translate(256,458.8823)"
           id="g262"><path
             id="path264"
             style="fill:#0f8040;fill-opacity:1;fill-rule:nonzero;stroke:none"
             d="m 0,0 c 15.887,0 28.765,-12.878 28.765,-28.765 0,-15.886 -12.878,-28.764 -28.765,-28.764 -15.886,0 -28.765,12.878 -28.765,28.764 C -28.765,-12.878 -15.886,0 0,0" /></g><g
           transform="translate(112.6816,343.0586)"
           id="g266"><path
             id="path268"
             style="fill:#c52928;fill-opacity:1;fill-rule:nonzero;stroke:none"
             d="m 0,0 c 0,-17.186 -13.932,-31.117 -31.118,-31.117 -17.185,0 -31.117,13.931 -31.117,31.117 0,17.186 13.932,31.118 31.117,31.118 C -13.932,31.118 0,17.186 0,0" /></g><g
           transform="translate(87.6768,343.0586)"
           id="g270"><path
             id="path272"
             style="fill:#ffffff;fill-opacity:1;fill-rule:nonzero;stroke:none"
             d="m 0,0 c 0,-3.375 -2.737,-6.112 -6.113,-6.112 -3.375,0 -6.112,2.737 -6.112,6.112 0,3.376 2.737,6.113 6.112,6.113 C -2.737,6.113 0,3.376 0,0" /></g><g
           transform="translate(87.6768,363.4336)"
           id="g274"><path
             id="path276"
             style="fill:#ffffff;fill-opacity:1;fill-rule:nonzero;stroke:none"
             d="m 0,0 c 0,-3.376 -2.737,-6.112 -6.113,-6.112 -3.375,0 -6.112,2.736 -6.112,6.112 0,3.375 2.737,6.112 6.112,6.112 C -2.737,6.112 0,3.375 0,0" /></g><g
           transform="translate(87.6768,322.6841)"
           id="g278"><path
             id="path280"
             style="fill:#ffffff;fill-opacity:1;fill-rule:nonzero;stroke:none"
             d="m 0,0 c 0,-3.375 -2.737,-6.112 -6.113,-6.112 -3.375,0 -6.112,2.737 -6.112,6.112 0,3.376 2.737,6.112 6.112,6.112 C -2.737,6.112 0,3.376 0,0" /></g><g
           transform="translate(60.8628,338.165)"
           id="g282"><path
             id="path284"
             style="fill:#ffffff;fill-opacity:1;fill-rule:nonzero;stroke:none"
             d="m 0,0 c 2.924,1.688 6.662,0.686 8.35,-2.237 1.688,-2.924 0.686,-6.662 -2.237,-8.35 -2.924,-1.688 -6.662,-0.686 -8.35,2.237 C -3.925,-5.426 -2.923,-1.688 0,0" /></g><g
           transform="translate(96.1528,358.5396)"
           id="g286"><path
             id="path288"
             style="fill:#ffffff;fill-opacity:1;fill-rule:nonzero;stroke:none"
             d="m 0,0 c 2.924,1.688 6.662,0.687 8.35,-2.237 1.688,-2.924 0.686,-6.662 -2.238,-8.35 -2.923,-1.688 -6.661,-0.686 -8.349,2.237 C -3.925,-5.426 -2.923,-1.688 0,0" /></g><g
           transform="translate(96.1528,327.5781)"
           id="g290"><path
             id="path292"
             style="fill:#ffffff;fill-opacity:1;fill-rule:nonzero;stroke:none"
             d="m 0,0 c -2.923,1.688 -3.925,5.426 -2.237,8.35 1.688,2.923 5.426,3.925 8.349,2.237 C 9.036,8.899 10.038,5.161 8.35,2.237 6.662,-0.687 2.924,-1.688 0,0" /></g><g
           transform="translate(60.8628,347.9526)"
           id="g294"><path
             id="path296"
             style="fill:#ffffff;fill-opacity:1;fill-rule:nonzero;stroke:none"
             d="m 0,0 c -2.923,1.688 -3.925,5.426 -2.237,8.35 1.688,2.923 5.426,3.925 8.35,2.237 C 9.036,8.899 10.038,5.161 8.35,2.237 6.662,-0.686 2.924,-1.688 0,0" /></g><g
           transform="translate(287.1172,168.9414)"
           id="g298"><path
             id="path300"
             style="fill:#c52928;fill-opacity:1;fill-rule:nonzero;stroke:none"
             d="m 0,0 c 0,-17.186 -13.932,-31.118 -31.117,-31.118 -17.186,0 -31.118,13.932 -31.118,31.118 0,17.186 13.932,31.117 31.118,31.117 C -13.932,31.117 0,17.186 0,0" /></g><g
           transform="translate(262.1123,168.9414)"
           id="g302"><path
             id="path304"
             style="fill:#ffffff;fill-opacity:1;fill-rule:nonzero;stroke:none"
             d="m 0,0 c 0,-3.376 -2.736,-6.112 -6.112,-6.112 -3.376,0 -6.113,2.736 -6.113,6.112 0,3.376 2.737,6.112 6.113,6.112 C -2.736,6.112 0,3.376 0,0" /></g><g
           transform="translate(262.1123,189.3154)"
           id="g306"><path
             id="path308"
             style="fill:#ffffff;fill-opacity:1;fill-rule:nonzero;stroke:none"
             d="m 0,0 c 0,-3.375 -2.736,-6.112 -6.112,-6.112 -3.376,0 -6.113,2.737 -6.113,6.112 0,3.376 2.737,6.112 6.113,6.112 C -2.736,6.112 0,3.376 0,0" /></g><g
           transform="translate(262.1123,148.5664)"
           id="g310"><path
             id="path312"
             style="fill:#ffffff;fill-opacity:1;fill-rule:nonzero;stroke:none"
             d="m 0,0 c 0,-3.376 -2.736,-6.112 -6.112,-6.112 -3.376,0 -6.113,2.736 -6.113,6.112 0,3.376 2.737,6.112 6.113,6.112 C -2.736,6.112 0,3.376 0,0" /></g><g
           transform="translate(235.2988,164.0469)"
           id="g314"><path
             id="path316"
             style="fill:#ffffff;fill-opacity:1;fill-rule:nonzero;stroke:none"
             d="M 0,0 C 2.923,1.688 6.662,0.687 8.35,-2.237 10.038,-5.16 9.036,-8.898 6.112,-10.587 3.189,-12.274 -0.549,-11.272 -2.237,-8.35 -3.925,-5.426 -2.923,-1.687 0,0" /></g><g
           transform="translate(270.5889,184.4219)"
           id="g318"><path
             id="path320"
             style="fill:#ffffff;fill-opacity:1;fill-rule:nonzero;stroke:none"
             d="M 0,0 C 2.924,1.688 6.662,0.687 8.35,-2.237 10.037,-5.161 9.036,-8.899 6.112,-10.587 3.188,-12.274 -0.55,-11.273 -2.237,-8.35 -3.925,-5.426 -2.924,-1.687 0,0" /></g><g
           transform="translate(270.5889,153.46)"
           id="g322"><path
             id="path324"
             style="fill:#ffffff;fill-opacity:1;fill-rule:nonzero;stroke:none"
             d="m 0,0 c -2.924,1.688 -3.925,5.427 -2.237,8.35 1.687,2.923 5.425,3.925 8.349,2.237 C 9.036,8.899 10.037,5.161 8.35,2.237 6.662,-0.686 2.924,-1.687 0,0" /></g><g
           transform="translate(235.2988,173.835)"
           id="g326"><path
             id="path328"
             style="fill:#ffffff;fill-opacity:1;fill-rule:nonzero;stroke:none"
             d="m 0,0 c -2.923,1.687 -3.925,5.426 -2.237,8.35 1.688,2.923 5.426,3.925 8.349,2.237 C 9.036,8.899 10.038,5.161 8.35,2.237 6.662,-0.687 2.923,-1.687 0,0" /></g><g
           transform="translate(111.8823,430.1177)"
           id="g330"><path
             id="path332"
             style="fill:#473a38;fill-opacity:1;fill-rule:nonzero;stroke:none"
             d="m 0,0 c 0,-16.568 -13.432,-30 -30,-30 -16.568,0 -30,13.432 -30,30 0,16.568 13.432,30 30,30 C -13.432,30 0,16.568 0,0" /></g><g
           transform="translate(111.8823,430.1177)"
           id="g334"><path
             id="path336"
             style="fill:none;stroke:#55403d;stroke-width:3.87100005;stroke-linecap:butt;stroke-linejoin:miter;stroke-miterlimit:10;stroke-dasharray:none;stroke-opacity:1"
             d="m 0,0 c 0,-16.568 -13.432,-30 -30,-30 -16.568,0 -30,13.432 -30,30 0,16.568 13.432,30 30,30 C -13.432,30 0,16.568 0,0 Z" /></g><g
           transform="translate(460.1172,430.1177)"
           id="g338"><path
             id="path340"
             style="fill:#473a38;fill-opacity:1;fill-rule:nonzero;stroke:none"
             d="m 0,0 c 0,-16.568 -13.431,-30 -30,-30 -16.568,0 -30,13.432 -30,30 0,16.568 13.432,30 30,30 C -13.431,30 0,16.568 0,0" /></g><g
           transform="translate(460.1172,430.1177)"
           id="g342"><path
             id="path344"
             style="fill:none;stroke:#55403d;stroke-width:3.87100005;stroke-linecap:butt;stroke-linejoin:miter;stroke-miterlimit:10;stroke-dasharray:none;stroke-opacity:1"
             d="m 0,0 c 0,-16.568 -13.431,-30 -30,-30 -16.568,0 -30,13.432 -30,30 0,16.568 13.432,30 30,30 C -13.431,30 0,16.568 0,0 Z" /></g><g
           transform="translate(286,256)"
           id="g346"><path
             id="path348"
             style="fill:#473a38;fill-opacity:1;fill-rule:nonzero;stroke:none"
             d="m 0,0 c 0,-16.568 -13.432,-30 -30,-30 -16.568,0 -30,13.432 -30,30 0,16.568 13.432,30 30,30 C -13.432,30 0,16.568 0,0" /></g><g
           transform="translate(286,256)"
           id="g350"><path
             id="path352"
             style="fill:none;stroke:#55403d;stroke-width:3.87100005;stroke-linecap:butt;stroke-linejoin:miter;stroke-miterlimit:10;stroke-dasharray:none;stroke-opacity:1"
             d="m 0,0 c 0,-16.568 -13.432,-30 -30,-30 -16.568,0 -30,13.432 -30,30 0,16.568 13.432,30 30,30 C -13.432,30 0,16.568 0,0 Z" /></g><g
           transform="translate(111.8823,81.8828)"
           id="g354"><path
             id="path356"
             style="fill:#473a38;fill-opacity:1;fill-rule:nonzero;stroke:none"
             d="m 0,0 c 0,-16.569 -13.432,-30 -30,-30 -16.568,0 -30,13.431 -30,30 0,16.568 13.432,30 30,30 C -13.432,30 0,16.568 0,0" /></g><g
           transform="translate(111.8823,81.8828)"
           id="g358"><path
             id="path360"
             style="fill:none;stroke:#55403d;stroke-width:3.87100005;stroke-linecap:butt;stroke-linejoin:miter;stroke-miterlimit:10;stroke-dasharray:none;stroke-opacity:1"
             d="m 0,0 c 0,-16.569 -13.432,-30 -30,-30 -16.568,0 -30,13.431 -30,30 0,16.568 13.432,30 30,30 C -13.432,30 0,16.568 0,0 Z" /></g><g
           transform="translate(460.1172,81.8828)"
           id="g362"><path
             id="path364"
             style="fill:#473a38;fill-opacity:1;fill-rule:nonzero;stroke:none"
             d="m 0,0 c 0,-16.569 -13.431,-30 -30,-30 -16.568,0 -30,13.431 -30,30 0,16.568 13.432,30 30,30 C -13.431,30 0,16.568 0,0" /></g><g
           transform="translate(460.1172,81.8828)"
           id="g366"><path
             id="path368"
             style="fill:none;stroke:#55403d;stroke-width:3.87100005;stroke-linecap:butt;stroke-linejoin:miter;stroke-miterlimit:10;stroke-dasharray:none;stroke-opacity:1"
             d="m 0,0 c 0,-16.569 -13.431,-30 -30,-30 -16.568,0 -30,13.431 -30,30 0,16.568 13.432,30 30,30 C -13.431,30 0,16.568 0,0 Z" /></g><g
           transform="translate(115.4116,212.4707)"
           id="g370"><path
             id="path372"
             style="fill:#139b48;fill-opacity:1;fill-rule:nonzero;stroke:none"
             d="m 0,0 h -67.059 c -5.523,0 -10,4.477 -10,10 v 67.059 c 0,5.523 4.477,10 10,10 H 0 c 5.523,0 10,-4.477 10,-10 V 10 C 10,4.477 5.523,0 0,0" /></g><g
           transform="translate(115.4116,212.4707)"
           id="g374"><path
             id="path376"
             style="fill:none;stroke:#ffffff;stroke-width:1.74100006;stroke-linecap:butt;stroke-linejoin:miter;stroke-miterlimit:10;stroke-dasharray:none;stroke-opacity:1"
             d="m 0,0 h -67.059 c -5.523,0 -10,4.477 -10,10 v 67.059 c 0,5.523 4.477,10 10,10 H 0 c 5.523,0 10,-4.477 10,-10 V 10 C 10,4.477 5.523,0 0,0 Z" /></g><g
           transform="translate(113,256)"
           id="g378"><path
             id="path380"
             style="fill:#c52928;fill-opacity:1;fill-rule:nonzero;stroke:none"
             d="m 0,0 c 0,-17.186 -13.932,-31.117 -31.118,-31.117 -17.185,0 -31.117,13.931 -31.117,31.117 0,17.186 13.932,31.118 31.117,31.118 C -13.932,31.118 0,17.186 0,0" /></g><g
           transform="translate(87.9946,256)"
           id="g382"><path
             id="path384"
             style="fill:#ffffff;fill-opacity:1;fill-rule:nonzero;stroke:none"
             d="m 0,0 c 0,-3.376 -2.736,-6.112 -6.112,-6.112 -3.376,0 -6.113,2.736 -6.113,6.112 0,3.376 2.737,6.112 6.113,6.112 C -2.736,6.112 0,3.376 0,0" /></g><g
           transform="translate(87.9946,276.3745)"
           id="g386"><path
             id="path388"
             style="fill:#ffffff;fill-opacity:1;fill-rule:nonzero;stroke:none"
             d="m 0,0 c 0,-3.375 -2.736,-6.112 -6.112,-6.112 -3.376,0 -6.113,2.737 -6.113,6.112 0,3.376 2.737,6.112 6.113,6.112 C -2.736,6.112 0,3.376 0,0" /></g><g
           transform="translate(87.9946,235.625)"
           id="g390"><path
             id="path392"
             style="fill:#ffffff;fill-opacity:1;fill-rule:nonzero;stroke:none"
             d="m 0,0 c 0,-3.375 -2.736,-6.112 -6.112,-6.112 -3.376,0 -6.113,2.737 -6.113,6.112 0,3.376 2.737,6.112 6.113,6.112 C -2.736,6.112 0,3.376 0,0" /></g><g
           transform="translate(61.1812,251.1064)"
           id="g394"><path
             id="path396"
             style="fill:#ffffff;fill-opacity:1;fill-rule:nonzero;stroke:none"
             d="m 0,0 c 2.923,1.687 6.662,0.686 8.35,-2.237 1.688,-2.924 0.686,-6.662 -2.238,-8.35 -2.923,-1.688 -6.661,-0.686 -8.349,2.237 C -3.925,-5.427 -2.923,-1.688 0,0" /></g><g
           transform="translate(96.4712,271.481)"
           id="g398"><path
             id="path400"
             style="fill:#ffffff;fill-opacity:1;fill-rule:nonzero;stroke:none"
             d="m 0,0 c 2.923,1.688 6.662,0.686 8.35,-2.237 1.688,-2.924 0.686,-6.662 -2.238,-8.35 -2.923,-1.688 -6.661,-0.686 -8.349,2.237 C -3.925,-5.426 -2.924,-1.688 0,0" /></g><g
           transform="translate(96.4712,240.5195)"
           id="g402"><path
             id="path404"
             style="fill:#ffffff;fill-opacity:1;fill-rule:nonzero;stroke:none"
             d="m 0,0 c -2.923,1.687 -3.925,5.426 -2.237,8.35 1.688,2.922 5.426,3.924 8.349,2.237 C 9.036,8.898 10.038,5.16 8.35,2.237 6.662,-0.687 2.923,-1.688 0,0" /></g><g
           transform="translate(61.1812,260.894)"
           id="g406"><path
             id="path408"
             style="fill:#ffffff;fill-opacity:1;fill-rule:nonzero;stroke:none"
             d="m 0,0 c -2.923,1.687 -3.925,5.426 -2.237,8.35 1.688,2.923 5.426,3.925 8.349,2.237 C 9.036,8.899 10.038,5.161 8.35,2.237 6.662,-0.687 2.923,-1.688 0,0" /></g><g
           transform="translate(191.2002,427.167)"
           id="g410"><path
             id="path412"
             style="fill:#ffffff;fill-opacity:1;fill-rule:nonzero;stroke:none"
             d="m 0,0 c 0,-12.293 -9.965,-22.259 -22.259,-22.259 -12.293,0 -22.259,9.966 -22.259,22.259 0,12.293 9.966,22.259 22.259,22.259 C -9.965,22.259 0,12.293 0,0" /></g><g
           transform="translate(147.9854,466.395)"
           id="g414"><path
             id="path416"
             style="fill:#ffffff;fill-opacity:1;fill-rule:nonzero;stroke:none"
             d="M 0,0 C 4.625,2.67 20.656,-28.094 20.656,-28.094 L 7.422,-35.734 C 7.422,-35.734 -6.863,-3.962 0,0" /></g><g
           transform="translate(189.897,466.395)"
           id="g418"><path
             id="path420"
             style="fill:#ffffff;fill-opacity:1;fill-rule:nonzero;stroke:none"
             d="m 0,0 c -4.625,2.67 -20.656,-28.094 -20.656,-28.094 l 13.234,-7.64 c 0,0 14.285,31.772 7.422,35.734" /></g><g
           transform="translate(162.2998,423.1367)"
           id="g422"><path
             id="path424"
             style="fill:#272827;fill-opacity:1;fill-rule:nonzero;stroke:none"
             d="m 0,0 c 0,-2.226 -1.018,-4.03 -2.274,-4.03 -1.256,0 -2.274,1.804 -2.274,4.03 0,2.226 1.018,4.03 2.274,4.03 C -1.018,4.03 0,2.226 0,0" /></g><g
           transform="translate(180.1304,423.1367)"
           id="g426"><path
             id="path428"
             style="fill:#272827;fill-opacity:1;fill-rule:nonzero;stroke:none"
             d="m 0,0 c 0,-2.226 -1.018,-4.03 -2.274,-4.03 -1.256,0 -2.274,1.804 -2.274,4.03 0,2.226 1.018,4.03 2.274,4.03 C -1.018,4.03 0,2.226 0,0" /></g><g
           id="g430"><g
             id="g432" /><g
             id="g444"><g
               style="opacity:0.13999903"
               id="g442"
               clip-path="url(#clipPath436)"><g
                 id="g440"
                 transform="translate(173.3633,411.5098)"><path
                   id="path438"
                   style="fill:#000000;fill-opacity:1;fill-rule:nonzero;stroke:none"
                   d="m 0,0 c 0,-1.167 -1.98,-2.113 -4.422,-2.113 -2.442,0 -4.422,0.946 -4.422,2.113 0,1.167 1.98,2.113 4.422,2.113 C -1.98,2.113 0,1.167 0,0" /></g></g></g></g></g></g></g></svg>