<?xml version="1.0" encoding="UTF-8" standalone="no"?>
<svg
   xmlns:dc="http://purl.org/dc/elements/1.1/"
   xmlns:cc="http://creativecommons.org/ns#"
   xmlns:rdf="http://www.w3.org/1999/02/22-rdf-syntax-ns#"
   xmlns:svg="http://www.w3.org/2000/svg"
   xmlns="http://www.w3.org/2000/svg"
   viewBox="0 0 682.66669 682.66669"
   height="682.66669"
   width="682.66669"
   xml:space="preserve"
   id="svg2"
   version="1.1"><metadata
     id="metadata8"><rdf:RDF><cc:Work
         rdf:about=""><dc:format>image/svg+xml</dc:format><dc:type
           rdf:resource="http://purl.org/dc/dcmitype/StillImage" /></cc:Work></rdf:RDF></metadata><defs
     id="defs6"><clipPath
       id="clipPath18"
       clipPathUnits="userSpaceOnUse"><path
         id="path16"
         d="M 0,512 H 512 V 0 H 0 Z" /></clipPath><clipPath
       id="clipPath254"
       clipPathUnits="userSpaceOnUse"><path
         id="path252"
         d="m 251.578,327.508 h 8.844 v -4.226 h -8.844 z" /></clipPath></defs><g
     transform="matrix(1.3333333,0,0,-1.3333333,0,682.66667)"
     id="g10"><g
       id="g12"><g
         clip-path="url(#clipPath18)"
         id="g14"><g
           transform="translate(450,6)"
           id="g20"><path
             id="path22"
             style="fill:#139b48;fill-opacity:1;fill-rule:nonzero;stroke:none"
             d="m 0,0 h -388 c -30.928,0 -56,25.072 -56,56 v 388 c 0,30.928 25.072,56 56,56 H 0 c 30.928,0 56,-25.072 56,-56 V 56 C 56,25.072 30.928,0 0,0" /></g><g
           transform="translate(450,6)"
           id="g24"><path
             id="path26"
             style="fill:none;stroke:#ffffff;stroke-width:2;stroke-linecap:butt;stroke-linejoin:miter;stroke-miterlimit:10;stroke-dasharray:none;stroke-opacity:1"
             d="m 0,0 h -388 c -30.928,0 -56,25.072 -56,56 v 388 c 0,30.928 25.072,56 56,56 H 0 c 30.928,0 56,-25.072 56,-56 V 56 C 56,25.072 30.928,0 0,0 Z" /></g><g
           transform="translate(441.6475,38.3525)"
           id="g28"><path
             id="path30"
             style="fill:#0f9246;fill-opacity:1;fill-rule:nonzero;stroke:none"
             d="m 0,0 h -371.294 c -17.674,0 -32,14.327 -32,32 v 371.294 c 0,17.674 14.326,32 32,32 H 0 c 17.673,0 32,-14.326 32,-32 V 32 C 32,14.327 17.673,0 0,0" /></g><g
           transform="translate(441.6475,38.3525)"
           id="g32"><path
             id="path34"
             style="fill:none;stroke:#ffffff;stroke-width:1.74100006;stroke-linecap:butt;stroke-linejoin:miter;stroke-miterlimit:10;stroke-dasharray:none;stroke-opacity:1"
             d="m 0,0 h -371.294 c -17.674,0 -32,14.327 -32,32 v 371.294 c 0,17.674 14.326,32 32,32 H 0 c 17.673,0 32,-14.326 32,-32 V 32 C 32,14.327 17.673,0 0,0 Z" /></g><g
           transform="translate(197.7061,430.1177)"
           id="g36"><path
             id="path38"
             style="fill:#0f8040;fill-opacity:1;fill-rule:nonzero;stroke:none"
             d="m 0,0 c 0,-15.886 -12.878,-28.765 -28.765,-28.765 -15.886,0 -28.765,12.879 -28.765,28.765 0,15.886 12.879,28.765 28.765,28.765 C -12.878,28.765 0,15.886 0,0" /></g><g
           transform="translate(284.7646,430.1177)"
           id="g40"><path
             id="path42"
             style="fill:#0f8040;fill-opacity:1;fill-rule:nonzero;stroke:none"
             d="m 0,0 c 0,-15.886 -12.878,-28.765 -28.765,-28.765 -15.886,0 -28.764,12.879 -28.764,28.765 0,15.886 12.878,28.765 28.764,28.765 C -12.878,28.765 0,15.886 0,0" /></g><g
           transform="translate(371.8232,430.1177)"
           id="g44"><path
             id="path46"
             style="fill:#0f8040;fill-opacity:1;fill-rule:nonzero;stroke:none"
             d="m 0,0 c 0,-15.886 -12.878,-28.765 -28.765,-28.765 -15.885,0 -28.764,12.879 -28.764,28.765 0,15.886 12.879,28.765 28.764,28.765 C -12.878,28.765 0,15.886 0,0" /></g><g
           transform="translate(110.647,343.0586)"
           id="g48"><path
             id="path50"
             style="fill:#0f8040;fill-opacity:1;fill-rule:nonzero;stroke:none"
             d="m 0,0 c 0,-15.886 -12.878,-28.765 -28.765,-28.765 -15.886,0 -28.764,12.879 -28.764,28.765 0,15.887 12.878,28.765 28.764,28.765 C -12.878,28.765 0,15.887 0,0" /></g><g
           transform="translate(197.7061,343.0586)"
           id="g52"><path
             id="path54"
             style="fill:#0f8040;fill-opacity:1;fill-rule:nonzero;stroke:none"
             d="m 0,0 c 0,-15.886 -12.878,-28.765 -28.765,-28.765 -15.886,0 -28.765,12.879 -28.765,28.765 0,15.887 12.879,28.765 28.765,28.765 C -12.878,28.765 0,15.887 0,0" /></g><g
           transform="translate(284.7646,343.0586)"
           id="g56"><path
             id="path58"
             style="fill:#0f8040;fill-opacity:1;fill-rule:nonzero;stroke:none"
             d="m 0,0 c 0,-15.886 -12.878,-28.765 -28.765,-28.765 -15.886,0 -28.764,12.879 -28.764,28.765 0,15.887 12.878,28.765 28.764,28.765 C -12.878,28.765 0,15.887 0,0" /></g><g
           transform="translate(371.8232,343.0586)"
           id="g60"><path
             id="path62"
             style="fill:#0f8040;fill-opacity:1;fill-rule:nonzero;stroke:none"
             d="m 0,0 c 0,-15.886 -12.878,-28.765 -28.765,-28.765 -15.885,0 -28.764,12.879 -28.764,28.765 0,15.887 12.879,28.765 28.764,28.765 C -12.878,28.765 0,15.887 0,0" /></g><g
           transform="translate(458.8828,343.0586)"
           id="g64"><path
             id="path66"
             style="fill:#0f8040;fill-opacity:1;fill-rule:nonzero;stroke:none"
             d="m 0,0 c 0,-15.886 -12.879,-28.765 -28.766,-28.765 -15.885,0 -28.764,12.879 -28.764,28.765 0,15.887 12.879,28.765 28.764,28.765 C -12.879,28.765 0,15.887 0,0" /></g><g
           transform="translate(110.647,256)"
           id="g68"><path
             id="path70"
             style="fill:#0f8040;fill-opacity:1;fill-rule:nonzero;stroke:none"
             d="m 0,0 c 0,-15.887 -12.878,-28.765 -28.765,-28.765 -15.886,0 -28.764,12.878 -28.764,28.765 0,15.886 12.878,28.765 28.764,28.765 C -12.878,28.765 0,15.886 0,0" /></g><g
           transform="translate(197.7061,256)"
           id="g72"><path
             id="path74"
             style="fill:#0f8040;fill-opacity:1;fill-rule:nonzero;stroke:none"
             d="m 0,0 c 0,-15.887 -12.878,-28.765 -28.765,-28.765 -15.886,0 -28.765,12.878 -28.765,28.765 0,15.886 12.879,28.765 28.765,28.765 C -12.878,28.765 0,15.886 0,0" /></g><g
           transform="translate(371.8232,256)"
           id="g76"><path
             id="path78"
             style="fill:#0f8040;fill-opacity:1;fill-rule:nonzero;stroke:none"
             d="m 0,0 c 0,-15.887 -12.878,-28.765 -28.765,-28.765 -15.885,0 -28.764,12.878 -28.764,28.765 0,15.886 12.879,28.765 28.764,28.765 C -12.878,28.765 0,15.886 0,0" /></g><g
           transform="translate(458.8828,256)"
           id="g80"><path
             id="path82"
             style="fill:#0f8040;fill-opacity:1;fill-rule:nonzero;stroke:none"
             d="m 0,0 c 0,-15.887 -12.879,-28.765 -28.766,-28.765 -15.885,0 -28.764,12.878 -28.764,28.765 0,15.886 12.879,28.765 28.764,28.765 C -12.879,28.765 0,15.886 0,0" /></g><g
           transform="translate(110.647,168.9414)"
           id="g84"><path
             id="path86"
             style="fill:#0f8040;fill-opacity:1;fill-rule:nonzero;stroke:none"
             d="m 0,0 c 0,-15.887 -12.878,-28.765 -28.765,-28.765 -15.886,0 -28.764,12.878 -28.764,28.765 0,15.886 12.878,28.765 28.764,28.765 C -12.878,28.765 0,15.886 0,0" /></g><g
           transform="translate(197.7061,168.9414)"
           id="g88"><path
             id="path90"
             style="fill:#0f8040;fill-opacity:1;fill-rule:nonzero;stroke:none"
             d="m 0,0 c 0,-15.887 -12.878,-28.765 -28.765,-28.765 -15.886,0 -28.765,12.878 -28.765,28.765 0,15.886 12.879,28.765 28.765,28.765 C -12.878,28.765 0,15.886 0,0" /></g><g
           transform="translate(284.7646,168.9414)"
           id="g92"><path
             id="path94"
             style="fill:#0f8040;fill-opacity:1;fill-rule:nonzero;stroke:none"
             d="m 0,0 c 0,-15.887 -12.878,-28.765 -28.765,-28.765 -15.886,0 -28.764,12.878 -28.764,28.765 0,15.886 12.878,28.765 28.764,28.765 C -12.878,28.765 0,15.886 0,0" /></g><g
           transform="translate(371.8232,168.9414)"
           id="g96"><path
             id="path98"
             style="fill:#0f8040;fill-opacity:1;fill-rule:nonzero;stroke:none"
             d="m 0,0 c 0,-15.887 -12.878,-28.765 -28.765,-28.765 -15.885,0 -28.764,12.878 -28.764,28.765 0,15.886 12.879,28.765 28.764,28.765 C -12.878,28.765 0,15.886 0,0" /></g><g
           transform="translate(458.8828,168.9414)"
           id="g100"><path
             id="path102"
             style="fill:#0f8040;fill-opacity:1;fill-rule:nonzero;stroke:none"
             d="m 0,0 c 0,-15.887 -12.879,-28.765 -28.766,-28.765 -15.885,0 -28.764,12.878 -28.764,28.765 0,15.886 12.879,28.765 28.764,28.765 C -12.879,28.765 0,15.886 0,0" /></g><g
           transform="translate(197.7061,81.8828)"
           id="g104"><path
             id="path106"
             style="fill:#0f8040;fill-opacity:1;fill-rule:nonzero;stroke:none"
             d="m 0,0 c 0,-15.887 -12.878,-28.766 -28.765,-28.766 -15.886,0 -28.765,12.879 -28.765,28.766 0,15.886 12.879,28.765 28.765,28.765 C -12.878,28.765 0,15.886 0,0" /></g><g
           transform="translate(284.7646,81.8828)"
           id="g108"><path
             id="path110"
             style="fill:#0f8040;fill-opacity:1;fill-rule:nonzero;stroke:none"
             d="m 0,0 c 0,-15.887 -12.878,-28.766 -28.765,-28.766 -15.886,0 -28.764,12.879 -28.764,28.766 0,15.886 12.878,28.765 28.764,28.765 C -12.878,28.765 0,15.886 0,0" /></g><g
           transform="translate(371.8232,81.8828)"
           id="g112"><path
             id="path114"
             style="fill:#0f8040;fill-opacity:1;fill-rule:nonzero;stroke:none"
             d="m 0,0 c 0,-15.887 -12.878,-28.766 -28.765,-28.766 -15.885,0 -28.764,12.879 -28.764,28.766 0,15.886 12.879,28.765 28.764,28.765 C -12.878,28.765 0,15.886 0,0" /></g><g
           transform="translate(289.5293,212.4707)"
           id="g116"><path
             id="path118"
             style="fill:#139b48;fill-opacity:1;fill-rule:nonzero;stroke:none"
             d="m 0,0 h -67.059 c -5.523,0 -10,4.477 -10,10 v 67.059 c 0,5.523 4.477,10 10,10 H 0 c 5.523,0 10,-4.477 10,-10 V 10 C 10,4.477 5.523,0 0,0" /></g><g
           transform="translate(289.5293,212.4707)"
           id="g120"><path
             id="path122"
             style="fill:none;stroke:#ffffff;stroke-width:1.74100006;stroke-linecap:butt;stroke-linejoin:miter;stroke-miterlimit:10;stroke-dasharray:none;stroke-opacity:1"
             d="m 0,0 h -67.059 c -5.523,0 -10,4.477 -10,10 v 67.059 c 0,5.523 4.477,10 10,10 H 0 c 5.523,0 10,-4.477 10,-10 V 10 C 10,4.477 5.523,0 0,0 Z" /></g><g
           transform="translate(115.4116,386.5884)"
           id="g124"><path
             id="path126"
             style="fill:#139b48;fill-opacity:1;fill-rule:nonzero;stroke:none"
             d="m 0,0 h -67.059 c -5.523,0 -10,4.477 -10,10 v 45.059 c 0,17.673 14.327,32 32,32 H 0 c 5.523,0 10,-4.477 10,-10 V 10 C 10,4.477 5.523,0 0,0" /></g><g
           transform="translate(115.4116,386.5884)"
           id="g128"><path
             id="path130"
             style="fill:none;stroke:#ffffff;stroke-width:1.74100006;stroke-linecap:butt;stroke-linejoin:miter;stroke-miterlimit:10;stroke-dasharray:none;stroke-opacity:1"
             d="m 0,0 h -67.059 c -5.523,0 -10,4.477 -10,10 v 45.059 c 0,17.673 14.327,32 32,32 H 0 c 5.523,0 10,-4.477 10,-10 V 10 C 10,4.477 5.523,0 0,0 Z" /></g><g
           transform="translate(115.4116,38.3525)"
           id="g132"><path
             id="path134"
             style="fill:#139b48;fill-opacity:1;fill-rule:nonzero;stroke:none"
             d="m 0,0 h -45.059 c -17.673,0 -32,14.327 -32,32 v 45.06 c 0,5.522 4.477,10 10,10 H 0 c 5.523,0 10,-4.478 10,-10 V 10 C 10,4.478 5.523,0 0,0" /></g><g
           transform="translate(115.4116,38.3525)"
           id="g136"><path
             id="path138"
             style="fill:none;stroke:#ffffff;stroke-width:1.74100006;stroke-linecap:butt;stroke-linejoin:miter;stroke-miterlimit:10;stroke-dasharray:none;stroke-opacity:1"
             d="m 0,0 h -45.059 c -17.673,0 -32,14.327 -32,32 v 45.06 c 0,5.522 4.477,10 10,10 H 0 c 5.523,0 10,-4.478 10,-10 V 10 C 10,4.478 5.523,0 0,0 Z" /></g><g
           transform="translate(441.6475,38.3525)"
           id="g140"><path
             id="path142"
             style="fill:#139b48;fill-opacity:1;fill-rule:nonzero;stroke:none"
             d="m 0,0 h -45.06 c -5.522,0 -10,4.478 -10,10 v 67.06 c 0,5.522 4.478,10 10,10 H 22 c 5.522,0 10,-4.478 10,-10 V 32 C 32,14.327 17.673,0 0,0" /></g><g
           transform="translate(441.6475,38.3525)"
           id="g144"><path
             id="path146"
             style="fill:none;stroke:#ffffff;stroke-width:1.74100006;stroke-linecap:butt;stroke-linejoin:miter;stroke-miterlimit:10;stroke-dasharray:none;stroke-opacity:1"
             d="m 0,0 h -45.06 c -5.522,0 -10,4.478 -10,10 v 67.06 c 0,5.522 4.478,10 10,10 H 22 c 5.522,0 10,-4.478 10,-10 V 32 C 32,14.327 17.673,0 0,0 Z" /></g><g
           transform="translate(463.6475,386.5884)"
           id="g148"><path
             id="path150"
             style="fill:#139b48;fill-opacity:1;fill-rule:nonzero;stroke:none"
             d="m 0,0 h -67.06 c -5.522,0 -10,4.477 -10,10 v 67.059 c 0,5.523 4.478,10 10,10 H -22 c 17.673,0 32,-14.327 32,-32 V 10 C 10,4.477 5.522,0 0,0" /></g><g
           transform="translate(463.6475,386.5884)"
           id="g152"><path
             id="path154"
             style="fill:none;stroke:#ffffff;stroke-width:1.74100006;stroke-linecap:butt;stroke-linejoin:miter;stroke-miterlimit:10;stroke-dasharray:none;stroke-opacity:1"
             d="m 0,0 h -67.06 c -5.522,0 -10,4.477 -10,10 v 67.059 c 0,5.523 4.478,10 10,10 H -22 c 17.673,0 32,-14.327 32,-32 V 10 C 10,4.477 5.522,0 0,0 Z" /></g><g
           transform="translate(287.1172,168.9414)"
           id="g156"><path
             id="path158"
             style="fill:#c52928;fill-opacity:1;fill-rule:nonzero;stroke:none"
             d="m 0,0 c 0,-17.186 -13.932,-31.118 -31.117,-31.118 -17.186,0 -31.118,13.932 -31.118,31.118 0,17.186 13.932,31.117 31.118,31.117 C -13.932,31.117 0,17.186 0,0" /></g><g
           transform="translate(262.1123,168.9414)"
           id="g160"><path
             id="path162"
             style="fill:#ffffff;fill-opacity:1;fill-rule:nonzero;stroke:none"
             d="m 0,0 c 0,-3.376 -2.736,-6.112 -6.112,-6.112 -3.376,0 -6.113,2.736 -6.113,6.112 0,3.376 2.737,6.112 6.113,6.112 C -2.736,6.112 0,3.376 0,0" /></g><g
           transform="translate(262.1123,189.3154)"
           id="g164"><path
             id="path166"
             style="fill:#ffffff;fill-opacity:1;fill-rule:nonzero;stroke:none"
             d="m 0,0 c 0,-3.375 -2.736,-6.112 -6.112,-6.112 -3.376,0 -6.113,2.737 -6.113,6.112 0,3.376 2.737,6.112 6.113,6.112 C -2.736,6.112 0,3.376 0,0" /></g><g
           transform="translate(262.1123,148.5664)"
           id="g168"><path
             id="path170"
             style="fill:#ffffff;fill-opacity:1;fill-rule:nonzero;stroke:none"
             d="m 0,0 c 0,-3.376 -2.736,-6.112 -6.112,-6.112 -3.376,0 -6.113,2.736 -6.113,6.112 0,3.376 2.737,6.112 6.113,6.112 C -2.736,6.112 0,3.376 0,0" /></g><g
           transform="translate(235.2988,164.0469)"
           id="g172"><path
             id="path174"
             style="fill:#ffffff;fill-opacity:1;fill-rule:nonzero;stroke:none"
             d="M 0,0 C 2.923,1.688 6.662,0.687 8.35,-2.237 10.038,-5.16 9.036,-8.898 6.112,-10.587 3.189,-12.274 -0.549,-11.272 -2.237,-8.35 -3.925,-5.426 -2.923,-1.687 0,0" /></g><g
           transform="translate(270.5889,184.4219)"
           id="g176"><path
             id="path178"
             style="fill:#ffffff;fill-opacity:1;fill-rule:nonzero;stroke:none"
             d="M 0,0 C 2.924,1.688 6.662,0.687 8.35,-2.237 10.037,-5.161 9.036,-8.899 6.112,-10.587 3.188,-12.274 -0.55,-11.273 -2.237,-8.35 -3.925,-5.426 -2.924,-1.687 0,0" /></g><g
           transform="translate(270.5889,153.46)"
           id="g180"><path
             id="path182"
             style="fill:#ffffff;fill-opacity:1;fill-rule:nonzero;stroke:none"
             d="m 0,0 c -2.924,1.688 -3.925,5.427 -2.237,8.35 1.687,2.923 5.425,3.925 8.349,2.237 C 9.036,8.899 10.037,5.161 8.35,2.237 6.662,-0.686 2.924,-1.687 0,0" /></g><g
           transform="translate(235.2988,173.835)"
           id="g184"><path
             id="path186"
             style="fill:#ffffff;fill-opacity:1;fill-rule:nonzero;stroke:none"
             d="m 0,0 c -2.923,1.687 -3.925,5.426 -2.237,8.35 1.688,2.923 5.426,3.925 8.349,2.237 C 9.036,8.899 10.038,5.161 8.35,2.237 6.662,-0.687 2.923,-1.687 0,0" /></g><g
           transform="translate(111.8823,430.1177)"
           id="g188"><path
             id="path190"
             style="fill:#473a38;fill-opacity:1;fill-rule:nonzero;stroke:none"
             d="m 0,0 c 0,-16.568 -13.432,-30 -30,-30 -16.568,0 -30,13.432 -30,30 0,16.568 13.432,30 30,30 C -13.432,30 0,16.568 0,0" /></g><g
           transform="translate(111.8823,430.1177)"
           id="g192"><path
             id="path194"
             style="fill:none;stroke:#55403d;stroke-width:3.87100005;stroke-linecap:butt;stroke-linejoin:miter;stroke-miterlimit:10;stroke-dasharray:none;stroke-opacity:1"
             d="m 0,0 c 0,-16.568 -13.432,-30 -30,-30 -16.568,0 -30,13.432 -30,30 0,16.568 13.432,30 30,30 C -13.432,30 0,16.568 0,0 Z" /></g><g
           transform="translate(460.1172,430.1177)"
           id="g196"><path
             id="path198"
             style="fill:#473a38;fill-opacity:1;fill-rule:nonzero;stroke:none"
             d="m 0,0 c 0,-16.568 -13.431,-30 -30,-30 -16.568,0 -30,13.432 -30,30 0,16.568 13.432,30 30,30 C -13.431,30 0,16.568 0,0" /></g><g
           transform="translate(460.1172,430.1177)"
           id="g200"><path
             id="path202"
             style="fill:none;stroke:#55403d;stroke-width:3.87100005;stroke-linecap:butt;stroke-linejoin:miter;stroke-miterlimit:10;stroke-dasharray:none;stroke-opacity:1"
             d="m 0,0 c 0,-16.568 -13.431,-30 -30,-30 -16.568,0 -30,13.432 -30,30 0,16.568 13.432,30 30,30 C -13.431,30 0,16.568 0,0 Z" /></g><g
           transform="translate(286,256)"
           id="g204"><path
             id="path206"
             style="fill:#473a38;fill-opacity:1;fill-rule:nonzero;stroke:none"
             d="m 0,0 c 0,-16.568 -13.432,-30 -30,-30 -16.568,0 -30,13.432 -30,30 0,16.568 13.432,30 30,30 C -13.432,30 0,16.568 0,0" /></g><g
           transform="translate(286,256)"
           id="g208"><path
             id="path210"
             style="fill:none;stroke:#55403d;stroke-width:3.87100005;stroke-linecap:butt;stroke-linejoin:miter;stroke-miterlimit:10;stroke-dasharray:none;stroke-opacity:1"
             d="m 0,0 c 0,-16.568 -13.432,-30 -30,-30 -16.568,0 -30,13.432 -30,30 0,16.568 13.432,30 30,30 C -13.432,30 0,16.568 0,0 Z" /></g><g
           transform="translate(111.8823,81.8828)"
           id="g212"><path
             id="path214"
             style="fill:#473a38;fill-opacity:1;fill-rule:nonzero;stroke:none"
             d="m 0,0 c 0,-16.569 -13.432,-30 -30,-30 -16.568,0 -30,13.431 -30,30 0,16.568 13.432,30 30,30 C -13.432,30 0,16.568 0,0" /></g><g
           transform="translate(111.8823,81.8828)"
           id="g216"><path
             id="path218"
             style="fill:none;stroke:#55403d;stroke-width:3.87100005;stroke-linecap:butt;stroke-linejoin:miter;stroke-miterlimit:10;stroke-dasharray:none;stroke-opacity:1"
             d="m 0,0 c 0,-16.569 -13.432,-30 -30,-30 -16.568,0 -30,13.431 -30,30 0,16.568 13.432,30 30,30 C -13.432,30 0,16.568 0,0 Z" /></g><g
           transform="translate(460.1172,81.8828)"
           id="g220"><path
             id="path222"
             style="fill:#473a38;fill-opacity:1;fill-rule:nonzero;stroke:none"
             d="m 0,0 c 0,-16.569 -13.431,-30 -30,-30 -16.568,0 -30,13.431 -30,30 0,16.568 13.432,30 30,30 C -13.431,30 0,16.568 0,0" /></g><g
           transform="translate(460.1172,81.8828)"
           id="g224"><path
             id="path226"
             style="fill:none;stroke:#55403d;stroke-width:3.87100005;stroke-linecap:butt;stroke-linejoin:miter;stroke-miterlimit:10;stroke-dasharray:none;stroke-opacity:1"
             d="m 0,0 c 0,-16.569 -13.431,-30 -30,-30 -16.568,0 -30,13.431 -30,30 0,16.568 13.432,30 30,30 C -13.431,30 0,16.568 0,0 Z" /></g><g
           transform="translate(278.2588,341.0527)"
           id="g228"><path
             id="path230"
             style="fill:#ffffff;fill-opacity:1;fill-rule:nonzero;stroke:none"
             d="m 0,0 c 0,-12.293 -9.965,-22.258 -22.258,-22.258 -12.294,0 -22.259,9.965 -22.259,22.258 0,12.293 9.965,22.259 22.259,22.259 C -9.965,22.259 0,12.293 0,0" /></g><g
           transform="translate(235.0444,380.2812)"
           id="g232"><path
             id="path234"
             style="fill:#ffffff;fill-opacity:1;fill-rule:nonzero;stroke:none"
             d="M 0,0 C 4.625,2.67 20.656,-28.094 20.656,-28.094 L 7.422,-35.735 C 7.422,-35.735 -6.863,-3.962 0,0" /></g><g
           transform="translate(276.9561,380.2812)"
           id="g236"><path
             id="path238"
             style="fill:#ffffff;fill-opacity:1;fill-rule:nonzero;stroke:none"
             d="m 0,0 c -4.625,2.67 -20.656,-28.094 -20.656,-28.094 l 13.233,-7.641 c 0,0 14.285,31.773 7.423,35.735" /></g><g
           transform="translate(249.3589,337.0229)"
           id="g240"><path
             id="path242"
             style="fill:#272827;fill-opacity:1;fill-rule:nonzero;stroke:none"
             d="m 0,0 c 0,-2.226 -1.019,-4.03 -2.274,-4.03 -1.256,0 -2.274,1.804 -2.274,4.03 0,2.226 1.018,4.03 2.274,4.03 C -1.019,4.03 0,2.226 0,0" /></g><g
           transform="translate(267.1895,337.0229)"
           id="g244"><path
             id="path246"
             style="fill:#272827;fill-opacity:1;fill-rule:nonzero;stroke:none"
             d="m 0,0 c 0,-2.226 -1.019,-4.03 -2.274,-4.03 -1.256,0 -2.274,1.804 -2.274,4.03 0,2.226 1.018,4.03 2.274,4.03 C -1.019,4.03 0,2.226 0,0" /></g><g
           id="g248"><g
             id="g250" /><g
             id="g262"><g
               style="opacity:0.13999903"
               id="g260"
               clip-path="url(#clipPath254)"><g
                 id="g258"
                 transform="translate(260.4219,325.3955)"><path
                   id="path256"
                   style="fill:#000000;fill-opacity:1;fill-rule:nonzero;stroke:none"
                   d="m 0,0 c 0,-1.167 -1.979,-2.113 -4.422,-2.113 -2.442,0 -4.422,0.946 -4.422,2.113 0,1.167 1.98,2.113 4.422,2.113 C -1.979,2.113 0,1.167 0,0" /></g></g></g></g><g
           transform="translate(376.5879,125.4121)"
           id="g264"><path
             id="path266"
             style="fill:#139b48;fill-opacity:1;fill-rule:nonzero;stroke:none"
             d="m 0,0 h -67.059 c -5.522,0 -10,4.477 -10,10 v 154.117 c 0,5.523 4.478,10 10,10 H 0 c 5.523,0 10,-4.477 10,-10 V 10 C 10,4.477 5.523,0 0,0" /></g><g
           transform="translate(376.5879,125.4121)"
           id="g268"><path
             id="path270"
             style="fill:none;stroke:#ffffff;stroke-width:1.74100006;stroke-linecap:butt;stroke-linejoin:miter;stroke-miterlimit:10;stroke-dasharray:none;stroke-opacity:1"
             d="m 0,0 h -67.059 c -5.522,0 -10,4.477 -10,10 v 154.117 c 0,5.523 4.478,10 10,10 H 0 c 5.523,0 10,-4.477 10,-10 V 10 C 10,4.477 5.523,0 0,0 Z" /></g><g
           transform="translate(364.7891,161.4863)"
           id="g272"><path
             id="path274"
             style="fill:#ffffff;fill-opacity:1;fill-rule:nonzero;stroke:none"
             d="m 0,0 c 2.113,1.975 3.104,4.181 3.39,6.453 0.289,2.301 -1.491,4.328 -3.748,4.328 H -21.73 -43.102 c -2.258,0 -4.037,-2.027 -3.748,-4.328 0.286,-2.272 1.277,-4.478 3.39,-6.453 17.763,-16.591 13.304,-30.44 21.73,-30.44 8.426,0 3.966,13.849 21.73,30.44" /></g><g
           transform="translate(343.0586,131.0469)"
           id="g276"><path
             id="path278"
             style="fill:#ffffff;fill-opacity:1;fill-rule:nonzero;stroke:none"
             d="M 0,0 C -2.835,0 -4.211,1.566 -5.465,4.277 H 5.466 C 4.211,1.566 2.835,0 0,0" /></g><g
           transform="translate(323.1982,183.4443)"
           id="g280"><path
             id="path282"
             style="fill:#db5727;fill-opacity:1;fill-rule:nonzero;stroke:none"
             d="m 0,0 v 0 c 0,-3.425 2.389,-6.2 5.336,-6.2 h 29.05 c 2.946,0 5.336,2.775 5.336,6.2 0,3.424 -2.39,9.207 -5.336,9.207 H 5.336 C 2.389,9.207 0,3.424 0,0" /></g><path
           id="path284"
           style="fill:#db5727;fill-opacity:1;fill-rule:nonzero;stroke:none"
           d="m 327.533,179.095 h 31.379 v -11.001 h -31.379 z" /><g
           transform="translate(355.4414,255.7402)"
           id="g286"><path
             id="path288"
             style="fill:#ffffff;fill-opacity:1;fill-rule:nonzero;stroke:none"
             d="m 0,0 c 0,-21.351 -5.471,-38.658 -12.219,-38.658 -6.748,0 -12.218,17.307 -12.218,38.658 0,21.351 5.47,38.658 12.218,38.658 C -5.471,38.658 0,21.351 0,0" /></g><g
           transform="translate(343.2227,217.082)"
           id="g290"><path
             id="path292"
             style="fill:#db5727;fill-opacity:1;fill-rule:nonzero;stroke:none"
             d="m 0,0 c -6.664,0 -12.084,16.886 -12.216,37.876 0.764,-1.949 1.686,-3.304 2.964,-3.304 4.566,0 4.566,17.237 9.131,17.237 4.564,0 4.564,-17.237 9.13,-17.237 1.421,0 2.398,1.669 3.21,3.969 C 12.198,17.244 6.735,0 0,0" /></g><g
           transform="translate(357.4443,161.4863)"
           id="g294"><path
             id="path296"
             style="fill:#db5727;fill-opacity:1;fill-rule:nonzero;stroke:none"
             d="m 0,0 c 3.865,3.277 7.432,7.047 6.621,10.781 h -21.007 -21.007 c -0.81,-3.734 2.757,-7.504 6.622,-10.781 17.25,-14.628 4.69,-30.44 14.385,-30.44 9.527,0 -2.864,15.812 14.386,30.44" /></g><g
           transform="translate(343.0586,130.543)"
           id="g298"><path
             id="path300"
             style="fill:#222323;fill-opacity:1;fill-rule:nonzero;stroke:none"
             d="M 0,0 C -2.835,0 -4.211,1.751 -5.465,4.781 H 5.466 C 4.211,1.751 2.835,0 0,0" /></g><g
           transform="translate(319.7285,231.2295)"
           id="g302"><path
             id="path304"
             style="fill:#db5727;fill-opacity:1;fill-rule:nonzero;stroke:none"
             d="m 0,0 v -0.996 c 0,-4.324 3.413,-7.83 7.624,-7.83 h 31.413 c 4.21,0 7.624,3.506 7.624,7.83 V 0 C 46.661,17.967 0,17.967 0,0" /></g><g
           transform="translate(343.0586,165.9082)"
           id="g306"><path
             id="path308"
             style="fill:#db5727;fill-opacity:1;fill-rule:nonzero;stroke:none"
             d="m 0,0 c -10.247,0 -18.555,29.71 -18.555,46.553 0,16.843 8.308,30.497 18.555,30.497 10.248,0 18.556,-13.654 18.556,-30.497 C 18.556,29.71 10.248,0 0,0" /></g><g
           transform="translate(353.5439,172.2676)"
           id="g310"><path
             id="path312"
             style="fill:#ffffff;fill-opacity:1;fill-rule:nonzero;stroke:none"
             d="m 0,0 h -7.289 c 0,4.106 6.637,7.486 10.636,7.486 4.24,0 3.942,-4.966 3.942,-7.486 z" /></g><g
           transform="translate(332.5742,172.2676)"
           id="g314"><path
             id="path316"
             style="fill:#ffffff;fill-opacity:1;fill-rule:nonzero;stroke:none"
             d="M 0,0 H 7.288 C 7.288,4.106 0.651,7.486 -3.347,7.486 -7.587,7.486 -7.289,2.52 -7.289,0 Z" /></g><g
           transform="translate(351.6113,152.3975)"
           id="g318"><path
             id="path320"
             style="fill:#252626;fill-opacity:1;fill-rule:nonzero;stroke:none"
             d="m 0,0 c -1.344,0 -2.434,1.74 -2.434,3.887 0,2.146 1.09,3.886 2.434,3.886 1.344,0 2.434,-1.74 2.434,-3.886 C 2.434,1.74 1.344,0 0,0" /></g><g
           transform="translate(334.5068,152.3975)"
           id="g322"><path
             id="path324"
             style="fill:#252626;fill-opacity:1;fill-rule:nonzero;stroke:none"
             d="m 0,0 c -1.344,0 -2.434,1.74 -2.434,3.887 0,2.146 1.09,3.886 2.434,3.886 1.344,0 2.433,-1.74 2.433,-3.886 C 2.433,1.74 1.344,0 0,0" /></g><g
           transform="translate(289.2295,386.5884)"
           id="g326"><path
             id="path328"
             style="fill:#139b48;fill-opacity:1;fill-rule:nonzero;stroke:none"
             d="m 0,0 h -67.059 c -5.523,0 -10,4.477 -10,10 v 67.059 c 0,5.523 4.477,10 10,10 H 0 c 5.523,0 10,-4.477 10,-10 V 10 C 10,4.477 5.523,0 0,0" /></g><g
           transform="translate(289.2295,386.5884)"
           id="g330"><path
             id="path332"
             style="fill:none;stroke:#ffffff;stroke-width:1.74100006;stroke-linecap:butt;stroke-linejoin:miter;stroke-miterlimit:10;stroke-dasharray:none;stroke-opacity:1"
             d="m 0,0 h -67.059 c -5.523,0 -10,4.477 -10,10 v 67.059 c 0,5.523 4.477,10 10,10 H 0 c 5.523,0 10,-4.477 10,-10 V 10 C 10,4.477 5.523,0 0,0 Z" /></g><g
           transform="translate(286.8184,430.1177)"
           id="g334"><path
             id="path336"
             style="fill:#c52928;fill-opacity:1;fill-rule:nonzero;stroke:none"
             d="m 0,0 c 0,-17.186 -13.933,-31.118 -31.118,-31.118 -17.186,0 -31.118,13.932 -31.118,31.118 0,17.186 13.932,31.118 31.118,31.118 C -13.933,31.118 0,17.186 0,0" /></g><g
           transform="translate(261.8125,430.1177)"
           id="g338"><path
             id="path340"
             style="fill:#ffffff;fill-opacity:1;fill-rule:nonzero;stroke:none"
             d="m 0,0 c 0,-3.376 -2.736,-6.112 -6.112,-6.112 -3.376,0 -6.113,2.736 -6.113,6.112 0,3.376 2.737,6.112 6.113,6.112 C -2.736,6.112 0,3.376 0,0" /></g><g
           transform="translate(261.8125,450.4922)"
           id="g342"><path
             id="path344"
             style="fill:#ffffff;fill-opacity:1;fill-rule:nonzero;stroke:none"
             d="m 0,0 c 0,-3.375 -2.736,-6.112 -6.112,-6.112 -3.376,0 -6.113,2.737 -6.113,6.112 0,3.376 2.737,6.112 6.113,6.112 C -2.736,6.112 0,3.376 0,0" /></g><g
           transform="translate(261.8125,409.7432)"
           id="g346"><path
             id="path348"
             style="fill:#ffffff;fill-opacity:1;fill-rule:nonzero;stroke:none"
             d="m 0,0 c 0,-3.376 -2.736,-6.113 -6.112,-6.113 -3.376,0 -6.113,2.737 -6.113,6.113 0,3.375 2.737,6.112 6.113,6.112 C -2.736,6.112 0,3.375 0,0" /></g><g
           transform="translate(234.999,425.2236)"
           id="g350"><path
             id="path352"
             style="fill:#ffffff;fill-opacity:1;fill-rule:nonzero;stroke:none"
             d="m 0,0 c 2.924,1.688 6.662,0.687 8.35,-2.237 1.688,-2.924 0.686,-6.662 -2.237,-8.35 -2.924,-1.688 -6.662,-0.686 -8.35,2.237 C -3.925,-5.426 -2.923,-1.687 0,0" /></g><g
           transform="translate(270.2891,445.5986)"
           id="g354"><path
             id="path356"
             style="fill:#ffffff;fill-opacity:1;fill-rule:nonzero;stroke:none"
             d="m 0,0 c 2.924,1.687 6.662,0.686 8.35,-2.237 1.688,-2.924 0.686,-6.662 -2.238,-8.35 -2.923,-1.688 -6.661,-0.686 -8.349,2.237 C -3.925,-5.426 -2.924,-1.688 0,0" /></g><g
           transform="translate(270.2891,414.6367)"
           id="g358"><path
             id="path360"
             style="fill:#ffffff;fill-opacity:1;fill-rule:nonzero;stroke:none"
             d="m 0,0 c -2.924,1.688 -3.925,5.426 -2.237,8.35 1.688,2.923 5.426,3.925 8.349,2.237 C 9.036,8.899 10.038,5.161 8.35,2.237 6.662,-0.686 2.924,-1.688 0,0" /></g><g
           transform="translate(234.999,435.0117)"
           id="g362"><path
             id="path364"
             style="fill:#ffffff;fill-opacity:1;fill-rule:nonzero;stroke:none"
             d="m 0,0 c -2.923,1.687 -3.925,5.426 -2.237,8.35 1.688,2.923 5.426,3.924 8.35,2.237 C 9.036,8.899 10.038,5.161 8.35,2.237 6.662,-0.687 2.924,-1.688 0,0" /></g><g
           transform="translate(115.4116,212.4707)"
           id="g366"><path
             id="path368"
             style="fill:#139b48;fill-opacity:1;fill-rule:nonzero;stroke:none"
             d="m 0,0 h -67.059 c -5.523,0 -10,4.477 -10,10 v 67.059 c 0,5.523 4.477,10 10,10 H 0 c 5.523,0 10,-4.477 10,-10 V 10 C 10,4.477 5.523,0 0,0" /></g><g
           transform="translate(115.4116,212.4707)"
           id="g370"><path
             id="path372"
             style="fill:none;stroke:#ffffff;stroke-width:1.74100006;stroke-linecap:butt;stroke-linejoin:miter;stroke-miterlimit:10;stroke-dasharray:none;stroke-opacity:1"
             d="m 0,0 h -67.059 c -5.523,0 -10,4.477 -10,10 v 67.059 c 0,5.523 4.477,10 10,10 H 0 c 5.523,0 10,-4.477 10,-10 V 10 C 10,4.477 5.523,0 0,0 Z" /></g><g
           transform="translate(110.647,256)"
           id="g374"><path
             id="path376"
             style="fill:#0f8040;fill-opacity:1;fill-rule:nonzero;stroke:none"
             d="m 0,0 c 0,-15.887 -12.878,-28.765 -28.765,-28.765 -15.886,0 -28.764,12.878 -28.764,28.765 0,15.886 12.878,28.765 28.764,28.765 C -12.878,28.765 0,15.886 0,0" /></g><g
           transform="translate(463.6475,212.4707)"
           id="g378"><path
             id="path380"
             style="fill:#139b48;fill-opacity:1;fill-rule:nonzero;stroke:none"
             d="m 0,0 h -67.06 c -5.522,0 -10,4.477 -10,10 v 67.059 c 0,5.523 4.478,10 10,10 H 0 c 5.522,0 10,-4.477 10,-10 V 10 C 10,4.477 5.522,0 0,0" /></g><g
           transform="translate(463.6475,212.4707)"
           id="g382"><path
             id="path384"
             style="fill:none;stroke:#ffffff;stroke-width:1.74100006;stroke-linecap:butt;stroke-linejoin:miter;stroke-miterlimit:10;stroke-dasharray:none;stroke-opacity:1"
             d="m 0,0 h -67.06 c -5.522,0 -10,4.477 -10,10 v 67.059 c 0,5.523 4.478,10 10,10 H 0 c 5.522,0 10,-4.477 10,-10 V 10 C 10,4.477 5.522,0 0,0 Z" /></g><g
           transform="translate(458.8828,256)"
           id="g386"><path
             id="path388"
             style="fill:#0f8040;fill-opacity:1;fill-rule:nonzero;stroke:none"
             d="m 0,0 c 0,-15.887 -12.879,-28.765 -28.766,-28.765 -15.885,0 -28.764,12.878 -28.764,28.765 0,15.886 12.879,28.765 28.764,28.765 C -12.879,28.765 0,15.886 0,0" /></g><g
           transform="translate(299.5293,115.4121)"
           id="g390"><path
             id="path392"
             style="fill:#139b48;fill-opacity:1;fill-rule:nonzero;stroke:none"
             d="m 0,0 v -67.06 c 0,-5.522 -4.477,-10 -10,-10 h -67.059 c -5.523,0 -10,4.478 -10,10 V 0 c 0,5.522 4.477,10 10,10 H -10 C -4.477,10 0,5.522 0,0" /></g><g
           transform="translate(299.5293,115.4121)"
           id="g394"><path
             id="path396"
             style="fill:none;stroke:#ffffff;stroke-width:1.74100006;stroke-linecap:butt;stroke-linejoin:miter;stroke-miterlimit:10;stroke-dasharray:none;stroke-opacity:1"
             d="m 0,0 v -67.06 c 0,-5.522 -4.477,-10 -10,-10 h -67.059 c -5.523,0 -10,4.478 -10,10 V 0 c 0,5.522 4.477,10 10,10 H -10 C -4.477,10 0,5.522 0,0 Z" /></g><g
           transform="translate(256,110.6475)"
           id="g398"><path
             id="path400"
             style="fill:#0f8040;fill-opacity:1;fill-rule:nonzero;stroke:none"
             d="M 0,0 C 15.887,0 28.765,-12.879 28.765,-28.765 28.765,-44.651 15.887,-57.53 0,-57.53 c -15.886,0 -28.765,12.879 -28.765,28.765 C -28.765,-12.879 -15.886,0 0,0" /></g></g></g></g></svg>