<?xml version="1.0" encoding="UTF-8" standalone="no"?>
<svg
   xmlns:dc="http://purl.org/dc/elements/1.1/"
   xmlns:cc="http://creativecommons.org/ns#"
   xmlns:rdf="http://www.w3.org/1999/02/22-rdf-syntax-ns#"
   xmlns:svg="http://www.w3.org/2000/svg"
   xmlns="http://www.w3.org/2000/svg"
   viewBox="0 0 682.66669 682.66669"
   height="682.66669"
   width="682.66669"
   xml:space="preserve"
   id="svg2"
   version="1.1"><metadata
     id="metadata8"><rdf:RDF><cc:Work
         rdf:about=""><dc:format>image/svg+xml</dc:format><dc:type
           rdf:resource="http://purl.org/dc/dcmitype/StillImage" /></cc:Work></rdf:RDF></metadata><defs
     id="defs6"><clipPath
       id="clipPath18"
       clipPathUnits="userSpaceOnUse"><path
         id="path16"
         d="M 0,512 H 512 V 0 H 0 Z" /></clipPath><clipPath
       id="clipPath338"
       clipPathUnits="userSpaceOnUse"><path
         id="path336"
         d="m 338.637,413.622 h 8.844 v -4.225 h -8.844 z" /></clipPath></defs><g
     transform="matrix(1.3333333,0,0,-1.3333333,0,682.66667)"
     id="g10"><g
       id="g12"><g
         clip-path="url(#clipPath18)"
         id="g14"><g
           transform="translate(450,6)"
           id="g20"><path
             id="path22"
             style="fill:#139b48;fill-opacity:1;fill-rule:nonzero;stroke:none"
             d="m 0,0 h -388 c -30.928,0 -56,25.072 -56,56 v 388 c 0,30.928 25.072,56 56,56 H 0 c 30.928,0 56,-25.072 56,-56 V 56 C 56,25.072 30.928,0 0,0" /></g><g
           transform="translate(450,6)"
           id="g24"><path
             id="path26"
             style="fill:none;stroke:#ffffff;stroke-width:2;stroke-linecap:butt;stroke-linejoin:miter;stroke-miterlimit:10;stroke-dasharray:none;stroke-opacity:1"
             d="m 0,0 h -388 c -30.928,0 -56,25.072 -56,56 v 388 c 0,30.928 25.072,56 56,56 H 0 c 30.928,0 56,-25.072 56,-56 V 56 C 56,25.072 30.928,0 0,0 Z" /></g><g
           transform="translate(441.6475,38.3525)"
           id="g28"><path
             id="path30"
             style="fill:#0f9246;fill-opacity:1;fill-rule:nonzero;stroke:none"
             d="m 0,0 h -371.294 c -17.674,0 -32,14.327 -32,32 v 371.294 c 0,17.674 14.326,32 32,32 H 0 c 17.673,0 32,-14.326 32,-32 V 32 C 32,14.327 17.673,0 0,0" /></g><g
           transform="translate(441.6475,38.3525)"
           id="g32"><path
             id="path34"
             style="fill:none;stroke:#ffffff;stroke-width:1.74100006;stroke-linecap:butt;stroke-linejoin:miter;stroke-miterlimit:10;stroke-dasharray:none;stroke-opacity:1"
             d="m 0,0 h -371.294 c -17.674,0 -32,14.327 -32,32 v 371.294 c 0,17.674 14.326,32 32,32 H 0 c 17.673,0 32,-14.326 32,-32 V 32 C 32,14.327 17.673,0 0,0 Z" /></g><g
           transform="translate(197.7061,430.1177)"
           id="g36"><path
             id="path38"
             style="fill:#0f8040;fill-opacity:1;fill-rule:nonzero;stroke:none"
             d="m 0,0 c 0,-15.886 -12.878,-28.765 -28.765,-28.765 -15.886,0 -28.765,12.879 -28.765,28.765 0,15.886 12.879,28.765 28.765,28.765 C -12.878,28.765 0,15.886 0,0" /></g><g
           transform="translate(284.7646,430.1177)"
           id="g40"><path
             id="path42"
             style="fill:#0f8040;fill-opacity:1;fill-rule:nonzero;stroke:none"
             d="m 0,0 c 0,-15.886 -12.878,-28.765 -28.765,-28.765 -15.886,0 -28.764,12.879 -28.764,28.765 0,15.886 12.878,28.765 28.764,28.765 C -12.878,28.765 0,15.886 0,0" /></g><g
           transform="translate(371.8232,430.1177)"
           id="g44"><path
             id="path46"
             style="fill:#0f8040;fill-opacity:1;fill-rule:nonzero;stroke:none"
             d="m 0,0 c 0,-15.886 -12.878,-28.765 -28.765,-28.765 -15.885,0 -28.764,12.879 -28.764,28.765 0,15.886 12.879,28.765 28.764,28.765 C -12.878,28.765 0,15.886 0,0" /></g><g
           transform="translate(110.647,343.0586)"
           id="g48"><path
             id="path50"
             style="fill:#0f8040;fill-opacity:1;fill-rule:nonzero;stroke:none"
             d="m 0,0 c 0,-15.886 -12.878,-28.765 -28.765,-28.765 -15.886,0 -28.764,12.879 -28.764,28.765 0,15.887 12.878,28.765 28.764,28.765 C -12.878,28.765 0,15.887 0,0" /></g><g
           transform="translate(197.7061,343.0586)"
           id="g52"><path
             id="path54"
             style="fill:#0f8040;fill-opacity:1;fill-rule:nonzero;stroke:none"
             d="m 0,0 c 0,-15.886 -12.878,-28.765 -28.765,-28.765 -15.886,0 -28.765,12.879 -28.765,28.765 0,15.887 12.879,28.765 28.765,28.765 C -12.878,28.765 0,15.887 0,0" /></g><g
           transform="translate(284.7646,343.0586)"
           id="g56"><path
             id="path58"
             style="fill:#0f8040;fill-opacity:1;fill-rule:nonzero;stroke:none"
             d="m 0,0 c 0,-15.886 -12.878,-28.765 -28.765,-28.765 -15.886,0 -28.764,12.879 -28.764,28.765 0,15.887 12.878,28.765 28.764,28.765 C -12.878,28.765 0,15.887 0,0" /></g><g
           transform="translate(371.8232,343.0586)"
           id="g60"><path
             id="path62"
             style="fill:#0f8040;fill-opacity:1;fill-rule:nonzero;stroke:none"
             d="m 0,0 c 0,-15.886 -12.878,-28.765 -28.765,-28.765 -15.885,0 -28.764,12.879 -28.764,28.765 0,15.887 12.879,28.765 28.764,28.765 C -12.878,28.765 0,15.887 0,0" /></g><g
           transform="translate(458.8828,343.0586)"
           id="g64"><path
             id="path66"
             style="fill:#0f8040;fill-opacity:1;fill-rule:nonzero;stroke:none"
             d="m 0,0 c 0,-15.886 -12.879,-28.765 -28.766,-28.765 -15.885,0 -28.764,12.879 -28.764,28.765 0,15.887 12.879,28.765 28.764,28.765 C -12.879,28.765 0,15.887 0,0" /></g><g
           transform="translate(110.647,256)"
           id="g68"><path
             id="path70"
             style="fill:#0f8040;fill-opacity:1;fill-rule:nonzero;stroke:none"
             d="m 0,0 c 0,-15.887 -12.878,-28.765 -28.765,-28.765 -15.886,0 -28.764,12.878 -28.764,28.765 0,15.886 12.878,28.765 28.764,28.765 C -12.878,28.765 0,15.886 0,0" /></g><g
           transform="translate(197.7061,256)"
           id="g72"><path
             id="path74"
             style="fill:#0f8040;fill-opacity:1;fill-rule:nonzero;stroke:none"
             d="m 0,0 c 0,-15.887 -12.878,-28.765 -28.765,-28.765 -15.886,0 -28.765,12.878 -28.765,28.765 0,15.886 12.879,28.765 28.765,28.765 C -12.878,28.765 0,15.886 0,0" /></g><g
           transform="translate(371.8232,256)"
           id="g76"><path
             id="path78"
             style="fill:#0f8040;fill-opacity:1;fill-rule:nonzero;stroke:none"
             d="m 0,0 c 0,-15.887 -12.878,-28.765 -28.765,-28.765 -15.885,0 -28.764,12.878 -28.764,28.765 0,15.886 12.879,28.765 28.764,28.765 C -12.878,28.765 0,15.886 0,0" /></g><g
           transform="translate(458.8828,256)"
           id="g80"><path
             id="path82"
             style="fill:#0f8040;fill-opacity:1;fill-rule:nonzero;stroke:none"
             d="m 0,0 c 0,-15.887 -12.879,-28.765 -28.766,-28.765 -15.885,0 -28.764,12.878 -28.764,28.765 0,15.886 12.879,28.765 28.764,28.765 C -12.879,28.765 0,15.886 0,0" /></g><g
           transform="translate(110.647,168.9414)"
           id="g84"><path
             id="path86"
             style="fill:#0f8040;fill-opacity:1;fill-rule:nonzero;stroke:none"
             d="m 0,0 c 0,-15.887 -12.878,-28.765 -28.765,-28.765 -15.886,0 -28.764,12.878 -28.764,28.765 0,15.886 12.878,28.765 28.764,28.765 C -12.878,28.765 0,15.886 0,0" /></g><g
           transform="translate(197.7061,168.9414)"
           id="g88"><path
             id="path90"
             style="fill:#0f8040;fill-opacity:1;fill-rule:nonzero;stroke:none"
             d="m 0,0 c 0,-15.887 -12.878,-28.765 -28.765,-28.765 -15.886,0 -28.765,12.878 -28.765,28.765 0,15.886 12.879,28.765 28.765,28.765 C -12.878,28.765 0,15.886 0,0" /></g><g
           transform="translate(284.7646,168.9414)"
           id="g92"><path
             id="path94"
             style="fill:#0f8040;fill-opacity:1;fill-rule:nonzero;stroke:none"
             d="m 0,0 c 0,-15.887 -12.878,-28.765 -28.765,-28.765 -15.886,0 -28.764,12.878 -28.764,28.765 0,15.886 12.878,28.765 28.764,28.765 C -12.878,28.765 0,15.886 0,0" /></g><g
           transform="translate(371.8232,168.9414)"
           id="g96"><path
             id="path98"
             style="fill:#0f8040;fill-opacity:1;fill-rule:nonzero;stroke:none"
             d="m 0,0 c 0,-15.887 -12.878,-28.765 -28.765,-28.765 -15.885,0 -28.764,12.878 -28.764,28.765 0,15.886 12.879,28.765 28.764,28.765 C -12.878,28.765 0,15.886 0,0" /></g><g
           transform="translate(458.8828,168.9414)"
           id="g100"><path
             id="path102"
             style="fill:#0f8040;fill-opacity:1;fill-rule:nonzero;stroke:none"
             d="m 0,0 c 0,-15.887 -12.879,-28.765 -28.766,-28.765 -15.885,0 -28.764,12.878 -28.764,28.765 0,15.886 12.879,28.765 28.764,28.765 C -12.879,28.765 0,15.886 0,0" /></g><g
           transform="translate(197.7061,81.8828)"
           id="g104"><path
             id="path106"
             style="fill:#0f8040;fill-opacity:1;fill-rule:nonzero;stroke:none"
             d="m 0,0 c 0,-15.887 -12.878,-28.766 -28.765,-28.766 -15.886,0 -28.765,12.879 -28.765,28.766 0,15.886 12.879,28.765 28.765,28.765 C -12.878,28.765 0,15.886 0,0" /></g><g
           transform="translate(284.7646,81.8828)"
           id="g108"><path
             id="path110"
             style="fill:#0f8040;fill-opacity:1;fill-rule:nonzero;stroke:none"
             d="m 0,0 c 0,-15.887 -12.878,-28.766 -28.765,-28.766 -15.886,0 -28.764,12.879 -28.764,28.766 0,15.886 12.878,28.765 28.764,28.765 C -12.878,28.765 0,15.886 0,0" /></g><g
           transform="translate(371.8232,81.8828)"
           id="g112"><path
             id="path114"
             style="fill:#0f8040;fill-opacity:1;fill-rule:nonzero;stroke:none"
             d="m 0,0 c 0,-15.887 -12.878,-28.766 -28.765,-28.766 -15.885,0 -28.764,12.879 -28.764,28.766 0,15.886 12.879,28.765 28.764,28.765 C -12.878,28.765 0,15.886 0,0" /></g><g
           transform="translate(289.5293,212.4707)"
           id="g116"><path
             id="path118"
             style="fill:#139b48;fill-opacity:1;fill-rule:nonzero;stroke:none"
             d="m 0,0 h -67.059 c -5.523,0 -10,4.477 -10,10 v 67.059 c 0,5.523 4.477,10 10,10 H 0 c 5.523,0 10,-4.477 10,-10 V 10 C 10,4.477 5.523,0 0,0" /></g><g
           transform="translate(289.5293,212.4707)"
           id="g120"><path
             id="path122"
             style="fill:none;stroke:#ffffff;stroke-width:1.74100006;stroke-linecap:butt;stroke-linejoin:miter;stroke-miterlimit:10;stroke-dasharray:none;stroke-opacity:1"
             d="m 0,0 h -67.059 c -5.523,0 -10,4.477 -10,10 v 67.059 c 0,5.523 4.477,10 10,10 H 0 c 5.523,0 10,-4.477 10,-10 V 10 C 10,4.477 5.523,0 0,0 Z" /></g><g
           transform="translate(115.4116,386.5884)"
           id="g124"><path
             id="path126"
             style="fill:#139b48;fill-opacity:1;fill-rule:nonzero;stroke:none"
             d="m 0,0 h -67.059 c -5.523,0 -10,4.477 -10,10 v 45.059 c 0,17.673 14.327,32 32,32 H 0 c 5.523,0 10,-4.477 10,-10 V 10 C 10,4.477 5.523,0 0,0" /></g><g
           transform="translate(115.4116,386.5884)"
           id="g128"><path
             id="path130"
             style="fill:none;stroke:#ffffff;stroke-width:1.74100006;stroke-linecap:butt;stroke-linejoin:miter;stroke-miterlimit:10;stroke-dasharray:none;stroke-opacity:1"
             d="m 0,0 h -67.059 c -5.523,0 -10,4.477 -10,10 v 45.059 c 0,17.673 14.327,32 32,32 H 0 c 5.523,0 10,-4.477 10,-10 V 10 C 10,4.477 5.523,0 0,0 Z" /></g><g
           transform="translate(115.4116,38.3525)"
           id="g132"><path
             id="path134"
             style="fill:#139b48;fill-opacity:1;fill-rule:nonzero;stroke:none"
             d="m 0,0 h -45.059 c -17.673,0 -32,14.327 -32,32 v 45.06 c 0,5.522 4.477,10 10,10 H 0 c 5.523,0 10,-4.478 10,-10 V 10 C 10,4.478 5.523,0 0,0" /></g><g
           transform="translate(115.4116,38.3525)"
           id="g136"><path
             id="path138"
             style="fill:none;stroke:#ffffff;stroke-width:1.74100006;stroke-linecap:butt;stroke-linejoin:miter;stroke-miterlimit:10;stroke-dasharray:none;stroke-opacity:1"
             d="m 0,0 h -45.059 c -17.673,0 -32,14.327 -32,32 v 45.06 c 0,5.522 4.477,10 10,10 H 0 c 5.523,0 10,-4.478 10,-10 V 10 C 10,4.478 5.523,0 0,0 Z" /></g><g
           transform="translate(441.6475,38.3525)"
           id="g140"><path
             id="path142"
             style="fill:#139b48;fill-opacity:1;fill-rule:nonzero;stroke:none"
             d="m 0,0 h -45.06 c -5.522,0 -10,4.478 -10,10 v 67.06 c 0,5.522 4.478,10 10,10 H 22 c 5.522,0 10,-4.478 10,-10 V 32 C 32,14.327 17.673,0 0,0" /></g><g
           transform="translate(441.6475,38.3525)"
           id="g144"><path
             id="path146"
             style="fill:none;stroke:#ffffff;stroke-width:1.74100006;stroke-linecap:butt;stroke-linejoin:miter;stroke-miterlimit:10;stroke-dasharray:none;stroke-opacity:1"
             d="m 0,0 h -45.06 c -5.522,0 -10,4.478 -10,10 v 67.06 c 0,5.522 4.478,10 10,10 H 22 c 5.522,0 10,-4.478 10,-10 V 32 C 32,14.327 17.673,0 0,0 Z" /></g><g
           transform="translate(463.6475,386.5884)"
           id="g148"><path
             id="path150"
             style="fill:#139b48;fill-opacity:1;fill-rule:nonzero;stroke:none"
             d="m 0,0 h -67.06 c -5.522,0 -10,4.477 -10,10 v 67.059 c 0,5.523 4.478,10 10,10 H -22 c 17.673,0 32,-14.327 32,-32 V 10 C 10,4.477 5.522,0 0,0" /></g><g
           transform="translate(463.6475,386.5884)"
           id="g152"><path
             id="path154"
             style="fill:none;stroke:#ffffff;stroke-width:1.74100006;stroke-linecap:butt;stroke-linejoin:miter;stroke-miterlimit:10;stroke-dasharray:none;stroke-opacity:1"
             d="m 0,0 h -67.06 c -5.522,0 -10,4.477 -10,10 v 67.059 c 0,5.523 4.478,10 10,10 H -22 c 17.673,0 32,-14.327 32,-32 V 10 C 10,4.477 5.522,0 0,0 Z" /></g><g
           transform="translate(111.8823,430.1177)"
           id="g156"><path
             id="path158"
             style="fill:#473a38;fill-opacity:1;fill-rule:nonzero;stroke:none"
             d="m 0,0 c 0,-16.568 -13.432,-30 -30,-30 -16.568,0 -30,13.432 -30,30 0,16.568 13.432,30 30,30 C -13.432,30 0,16.568 0,0" /></g><g
           transform="translate(111.8823,430.1177)"
           id="g160"><path
             id="path162"
             style="fill:none;stroke:#55403d;stroke-width:3.87100005;stroke-linecap:butt;stroke-linejoin:miter;stroke-miterlimit:10;stroke-dasharray:none;stroke-opacity:1"
             d="m 0,0 c 0,-16.568 -13.432,-30 -30,-30 -16.568,0 -30,13.432 -30,30 0,16.568 13.432,30 30,30 C -13.432,30 0,16.568 0,0 Z" /></g><g
           transform="translate(286,256)"
           id="g164"><path
             id="path166"
             style="fill:#473a38;fill-opacity:1;fill-rule:nonzero;stroke:none"
             d="m 0,0 c 0,-16.568 -13.432,-30 -30,-30 -16.568,0 -30,13.432 -30,30 0,16.568 13.432,30 30,30 C -13.432,30 0,16.568 0,0" /></g><g
           transform="translate(286,256)"
           id="g168"><path
             id="path170"
             style="fill:none;stroke:#55403d;stroke-width:3.87100005;stroke-linecap:butt;stroke-linejoin:miter;stroke-miterlimit:10;stroke-dasharray:none;stroke-opacity:1"
             d="m 0,0 c 0,-16.568 -13.432,-30 -30,-30 -16.568,0 -30,13.432 -30,30 0,16.568 13.432,30 30,30 C -13.432,30 0,16.568 0,0 Z" /></g><g
           transform="translate(111.8823,81.8828)"
           id="g172"><path
             id="path174"
             style="fill:#473a38;fill-opacity:1;fill-rule:nonzero;stroke:none"
             d="m 0,0 c 0,-16.569 -13.432,-30 -30,-30 -16.568,0 -30,13.431 -30,30 0,16.568 13.432,30 30,30 C -13.432,30 0,16.568 0,0" /></g><g
           transform="translate(111.8823,81.8828)"
           id="g176"><path
             id="path178"
             style="fill:none;stroke:#55403d;stroke-width:3.87100005;stroke-linecap:butt;stroke-linejoin:miter;stroke-miterlimit:10;stroke-dasharray:none;stroke-opacity:1"
             d="m 0,0 c 0,-16.569 -13.432,-30 -30,-30 -16.568,0 -30,13.431 -30,30 0,16.568 13.432,30 30,30 C -13.432,30 0,16.568 0,0 Z" /></g><g
           transform="translate(460.1172,81.8828)"
           id="g180"><path
             id="path182"
             style="fill:#473a38;fill-opacity:1;fill-rule:nonzero;stroke:none"
             d="m 0,0 c 0,-16.569 -13.431,-30 -30,-30 -16.568,0 -30,13.431 -30,30 0,16.568 13.432,30 30,30 C -13.431,30 0,16.568 0,0" /></g><g
           transform="translate(460.1172,81.8828)"
           id="g184"><path
             id="path186"
             style="fill:none;stroke:#55403d;stroke-width:3.87100005;stroke-linecap:butt;stroke-linejoin:miter;stroke-miterlimit:10;stroke-dasharray:none;stroke-opacity:1"
             d="m 0,0 c 0,-16.569 -13.431,-30 -30,-30 -16.568,0 -30,13.431 -30,30 0,16.568 13.432,30 30,30 C -13.431,30 0,16.568 0,0 Z" /></g><g
           transform="translate(202.4707,38.3623)"
           id="g188"><path
             id="path190"
             style="fill:#139b48;fill-opacity:1;fill-rule:nonzero;stroke:none"
             d="m 0,0 h -67.059 c -5.523,0 -10,4.478 -10,10 v 154.118 c 0,5.523 4.477,10 10,10 H 0 c 5.523,0 10,-4.477 10,-10 V 10 C 10,4.478 5.523,0 0,0" /></g><g
           transform="translate(202.4707,38.3623)"
           id="g192"><path
             id="path194"
             style="fill:none;stroke:#ffffff;stroke-width:1.74100006;stroke-linecap:butt;stroke-linejoin:miter;stroke-miterlimit:10;stroke-dasharray:none;stroke-opacity:1"
             d="m 0,0 h -67.059 c -5.523,0 -10,4.478 -10,10 v 154.118 c 0,5.523 4.477,10 10,10 H 0 c 5.523,0 10,-4.477 10,-10 V 10 C 10,4.478 5.523,0 0,0 Z" /></g><g
           transform="translate(190.6714,74.4375)"
           id="g196"><path
             id="path198"
             style="fill:#ffffff;fill-opacity:1;fill-rule:nonzero;stroke:none"
             d="M 0,0 C 2.113,1.974 3.104,4.18 3.389,6.453 3.678,8.754 1.9,10.781 -0.359,10.781 H -21.73 -43.102 c -2.258,0 -4.037,-2.027 -3.748,-4.328 0.286,-2.273 1.276,-4.479 3.39,-6.453 17.763,-16.591 13.303,-30.44 21.73,-30.44 8.426,0 3.967,13.849 21.73,30.44" /></g><g
           transform="translate(168.9414,43.9971)"
           id="g200"><path
             id="path202"
             style="fill:#ffffff;fill-opacity:1;fill-rule:nonzero;stroke:none"
             d="M 0,0 C -2.835,0 -4.211,1.567 -5.466,4.278 H 5.465 C 4.211,1.567 2.835,0 0,0" /></g><g
           transform="translate(149.0806,96.3955)"
           id="g204"><path
             id="path206"
             style="fill:#db5727;fill-opacity:1;fill-rule:nonzero;stroke:none"
             d="m 0,0 v 0 c 0,-3.425 2.389,-6.2 5.336,-6.2 h 29.049 c 2.948,0 5.337,2.775 5.337,6.2 0,3.424 -2.389,9.207 -5.337,9.207 H 5.336 C 2.389,9.207 0,3.424 0,0" /></g><path
           id="path208"
           style="fill:#db5727;fill-opacity:1;fill-rule:nonzero;stroke:none"
           d="m 153.416,92.046 h 31.379 V 81.045 h -31.379 z" /><g
           transform="translate(181.3242,168.6914)"
           id="g210"><path
             id="path212"
             style="fill:#ffffff;fill-opacity:1;fill-rule:nonzero;stroke:none"
             d="m 0,0 c 0,-21.351 -5.471,-38.658 -12.219,-38.658 -6.748,0 -12.218,17.307 -12.218,38.658 0,21.351 5.47,38.658 12.218,38.658 C -5.471,38.658 0,21.351 0,0" /></g><g
           transform="translate(169.105,130.0322)"
           id="g214"><path
             id="path216"
             style="fill:#db5727;fill-opacity:1;fill-rule:nonzero;stroke:none"
             d="m 0,0 c -6.665,0 -12.084,16.887 -12.215,37.877 0.763,-1.949 1.684,-3.304 2.964,-3.304 4.565,0 4.565,17.237 9.129,17.237 4.565,0 4.565,-17.237 9.131,-17.237 1.42,0 2.398,1.669 3.21,3.969 C 12.198,17.245 6.735,0 0,0" /></g><g
           transform="translate(183.3267,74.4375)"
           id="g218"><path
             id="path220"
             style="fill:#db5727;fill-opacity:1;fill-rule:nonzero;stroke:none"
             d="m 0,0 c 3.865,3.277 7.432,7.047 6.622,10.781 h -21.007 -21.008 c -0.81,-3.734 2.757,-7.504 6.622,-10.781 17.25,-14.628 4.69,-30.44 14.386,-30.44 9.526,0 -2.865,15.812 14.385,30.44" /></g><g
           transform="translate(168.9414,43.4932)"
           id="g222"><path
             id="path224"
             style="fill:#222323;fill-opacity:1;fill-rule:nonzero;stroke:none"
             d="M 0,0 C -2.835,0 -4.211,1.752 -5.466,4.782 H 5.465 C 4.211,1.752 2.835,0 0,0" /></g><g
           transform="translate(145.6108,144.1807)"
           id="g226"><path
             id="path228"
             style="fill:#db5727;fill-opacity:1;fill-rule:nonzero;stroke:none"
             d="m 0,0 v -0.996 c 0,-4.325 3.413,-7.83 7.624,-7.83 h 31.413 c 4.211,0 7.624,3.505 7.624,7.83 V 0 C 46.661,17.967 0,17.967 0,0" /></g><g
           transform="translate(168.9414,78.8594)"
           id="g230"><path
             id="path232"
             style="fill:#db5727;fill-opacity:1;fill-rule:nonzero;stroke:none"
             d="m 0,0 c -10.248,0 -18.555,29.709 -18.555,46.553 0,16.843 8.307,30.497 18.555,30.497 10.248,0 18.555,-13.654 18.555,-30.497 C 18.555,29.709 10.248,0 0,0" /></g><g
           transform="translate(179.4263,85.2188)"
           id="g234"><path
             id="path236"
             style="fill:#ffffff;fill-opacity:1;fill-rule:nonzero;stroke:none"
             d="m 0,0 h -7.289 c 0,4.106 6.637,7.486 10.635,7.486 4.24,0 3.943,-4.966 3.943,-7.486 z" /></g><g
           transform="translate(158.4561,85.2188)"
           id="g238"><path
             id="path240"
             style="fill:#ffffff;fill-opacity:1;fill-rule:nonzero;stroke:none"
             d="M 0,0 H 7.289 C 7.289,4.106 0.652,7.486 -3.346,7.486 -7.586,7.486 -7.289,2.52 -7.289,0 Z" /></g><g
           transform="translate(177.4937,65.3486)"
           id="g242"><path
             id="path244"
             style="fill:#252626;fill-opacity:1;fill-rule:nonzero;stroke:none"
             d="m 0,0 c -1.344,0 -2.434,1.74 -2.434,3.887 0,2.146 1.09,3.886 2.434,3.886 1.344,0 2.433,-1.74 2.433,-3.886 C 2.433,1.74 1.344,0 0,0" /></g><g
           transform="translate(160.3887,65.3486)"
           id="g246"><path
             id="path248"
             style="fill:#252626;fill-opacity:1;fill-rule:nonzero;stroke:none"
             d="m 0,0 c -1.344,0 -2.433,1.74 -2.433,3.887 0,2.146 1.089,3.886 2.433,3.886 1.344,0 2.434,-1.74 2.434,-3.886 C 2.434,1.74 1.344,0 0,0" /></g><g
           transform="translate(212.4707,376.5884)"
           id="g250"><path
             id="path252"
             style="fill:#139b48;fill-opacity:1;fill-rule:nonzero;stroke:none"
             d="m 0,0 v -67.059 c 0,-5.523 -4.477,-10 -10,-10 h -154.118 c -5.523,0 -10,4.477 -10,10 V 0 c 0,5.522 4.477,10 10,10 H -10 C -4.477,10 0,5.522 0,0" /></g><g
           transform="translate(212.4707,376.5884)"
           id="g254"><path
             id="path256"
             style="fill:none;stroke:#ffffff;stroke-width:1.74100006;stroke-linecap:butt;stroke-linejoin:miter;stroke-miterlimit:10;stroke-dasharray:none;stroke-opacity:1"
             d="m 0,0 v -67.059 c 0,-5.523 -4.477,-10 -10,-10 h -154.118 c -5.523,0 -10,4.477 -10,10 V 0 c 0,5.522 4.477,10 10,10 H -10 C -4.477,10 0,5.522 0,0 Z" /></g><g
           transform="translate(176.3955,364.7891)"
           id="g258"><path
             id="path260"
             style="fill:#ffffff;fill-opacity:1;fill-rule:nonzero;stroke:none"
             d="m 0,0 c -1.974,2.113 -4.18,3.104 -6.453,3.389 -2.3,0.289 -4.328,-1.489 -4.328,-3.748 V -21.73 -43.102 c 0,-2.258 2.028,-4.037 4.328,-3.748 2.273,0.286 4.479,1.276 6.453,3.39 16.591,17.763 30.44,13.303 30.44,21.73 0,8.426 -13.849,3.967 -30.44,21.73" /></g><g
           transform="translate(206.8359,343.0591)"
           id="g262"><path
             id="path264"
             style="fill:#ffffff;fill-opacity:1;fill-rule:nonzero;stroke:none"
             d="M 0,0 C 0,-2.835 -1.567,-4.211 -4.278,-5.466 V 5.465 C -1.567,4.211 0,2.835 0,0" /></g><g
           transform="translate(154.438,323.1978)"
           id="g266"><path
             id="path268"
             style="fill:#db5727;fill-opacity:1;fill-rule:nonzero;stroke:none"
             d="m 0,0 v 0 c 3.424,0 6.2,2.389 6.2,5.336 v 29.05 c 0,2.947 -2.776,5.336 -6.2,5.336 -3.424,0 -9.208,-2.389 -9.208,-5.336 V 5.336 C -9.208,2.389 -3.424,0 0,0" /></g><path
           id="path270"
           style="fill:#db5727;fill-opacity:1;fill-rule:nonzero;stroke:none"
           d="m 169.788,327.533 h -11 v 31.379 h 11 z" /><g
           transform="translate(82.1421,355.4419)"
           id="g272"><path
             id="path274"
             style="fill:#ffffff;fill-opacity:1;fill-rule:nonzero;stroke:none"
             d="m 0,0 c 21.35,0 38.658,-5.471 38.658,-12.219 0,-6.748 -17.308,-12.218 -38.658,-12.218 -21.351,0 -38.658,5.47 -38.658,12.218 C -38.658,-5.471 -21.351,0 0,0" /></g><g
           transform="translate(120.8008,343.2222)"
           id="g276"><path
             id="path278"
             style="fill:#db5727;fill-opacity:1;fill-rule:nonzero;stroke:none"
             d="m 0,0 c 0,-6.664 -16.887,-12.083 -37.876,-12.215 1.949,0.763 3.303,1.685 3.303,2.964 0,4.565 -17.237,4.565 -17.237,9.13 0,4.564 17.237,4.564 17.237,9.13 0,1.421 -1.669,2.399 -3.968,3.21 C -17.245,12.199 0,6.736 0,0" /></g><g
           transform="translate(176.3955,357.4443)"
           id="g280"><path
             id="path282"
             style="fill:#db5727;fill-opacity:1;fill-rule:nonzero;stroke:none"
             d="m 0,0 c -3.277,3.865 -7.046,7.432 -10.781,6.622 v -21.008 -21.007 c 3.735,-0.81 7.504,2.757 10.781,6.622 14.628,17.25 30.44,4.69 30.44,14.385 C 30.44,-4.859 14.628,-17.25 0,0" /></g><g
           transform="translate(207.3398,343.0591)"
           id="g284"><path
             id="path286"
             style="fill:#222323;fill-opacity:1;fill-rule:nonzero;stroke:none"
             d="M 0,0 C 0,-2.835 -1.751,-4.211 -4.782,-5.466 V 5.465 C -1.751,4.211 0,2.835 0,0" /></g><g
           transform="translate(106.6523,319.7285)"
           id="g288"><path
             id="path290"
             style="fill:#db5727;fill-opacity:1;fill-rule:nonzero;stroke:none"
             d="m 0,0 h 0.997 c 4.324,0 7.83,3.413 7.83,7.624 v 31.413 c 0,4.211 -3.506,7.624 -7.83,7.624 H 0 C -17.967,46.661 -17.967,0 0,0" /></g><g
           transform="translate(171.9741,343.0586)"
           id="g292"><path
             id="path294"
             style="fill:#db5727;fill-opacity:1;fill-rule:nonzero;stroke:none"
             d="m 0,0 c 0,-10.248 -29.709,-18.555 -46.553,-18.555 -16.843,0 -30.497,8.307 -30.497,18.555 0,10.248 13.654,18.555 30.497,18.555 C -29.709,18.555 0,10.248 0,0" /></g><g
           transform="translate(165.6147,353.5439)"
           id="g296"><path
             id="path298"
             style="fill:#ffffff;fill-opacity:1;fill-rule:nonzero;stroke:none"
             d="m 0,0 v -7.289 c -4.107,0 -7.486,6.637 -7.486,10.635 0,4.24 4.966,3.943 7.486,3.943 z" /></g><g
           transform="translate(165.6147,332.5737)"
           id="g300"><path
             id="path302"
             style="fill:#ffffff;fill-opacity:1;fill-rule:nonzero;stroke:none"
             d="m 0,0 v 7.289 c -4.107,0 -7.486,-6.637 -7.486,-10.635 0,-4.24 4.966,-3.943 7.486,-3.943 z" /></g><g
           transform="translate(185.4849,351.6113)"
           id="g304"><path
             id="path306"
             style="fill:#252626;fill-opacity:1;fill-rule:nonzero;stroke:none"
             d="m 0,0 c 0,-1.344 -1.74,-2.434 -3.887,-2.434 -2.146,0 -3.886,1.09 -3.886,2.434 0,1.344 1.74,2.433 3.886,2.433 C -1.74,2.433 0,1.344 0,0" /></g><g
           transform="translate(185.4849,334.5063)"
           id="g308"><path
             id="path310"
             style="fill:#252626;fill-opacity:1;fill-rule:nonzero;stroke:none"
             d="m 0,0 c 0,-1.344 -1.74,-2.433 -3.887,-2.433 -2.146,0 -3.886,1.089 -3.886,2.433 0,1.344 1.74,2.434 3.886,2.434 C -1.74,2.434 0,1.344 0,0" /></g><g
           transform="translate(365.3184,427.167)"
           id="g312"><path
             id="path314"
             style="fill:#ffffff;fill-opacity:1;fill-rule:nonzero;stroke:none"
             d="m 0,0 c 0,-12.293 -9.966,-22.259 -22.259,-22.259 -12.294,0 -22.259,9.966 -22.259,22.259 0,12.293 9.965,22.259 22.259,22.259 C -9.966,22.259 0,12.293 0,0" /></g><g
           transform="translate(322.1035,466.395)"
           id="g316"><path
             id="path318"
             style="fill:#ffffff;fill-opacity:1;fill-rule:nonzero;stroke:none"
             d="M 0,0 C 4.625,2.67 20.655,-28.094 20.655,-28.094 L 7.422,-35.734 C 7.422,-35.734 -6.863,-3.962 0,0" /></g><g
           transform="translate(364.0146,466.395)"
           id="g320"><path
             id="path322"
             style="fill:#ffffff;fill-opacity:1;fill-rule:nonzero;stroke:none"
             d="m 0,0 c -4.625,2.67 -20.656,-28.094 -20.656,-28.094 l 13.233,-7.64 c 0,0 14.286,31.772 7.423,35.734" /></g><g
           transform="translate(336.418,423.1367)"
           id="g324"><path
             id="path326"
             style="fill:#272827;fill-opacity:1;fill-rule:nonzero;stroke:none"
             d="m 0,0 c 0,-2.226 -1.019,-4.03 -2.274,-4.03 -1.256,0 -2.275,1.804 -2.275,4.03 0,2.226 1.019,4.03 2.275,4.03 C -1.019,4.03 0,2.226 0,0" /></g><g
           transform="translate(354.248,423.1367)"
           id="g328"><path
             id="path330"
             style="fill:#272827;fill-opacity:1;fill-rule:nonzero;stroke:none"
             d="m 0,0 c 0,-2.226 -1.018,-4.03 -2.273,-4.03 -1.257,0 -2.275,1.804 -2.275,4.03 0,2.226 1.018,4.03 2.275,4.03 C -1.018,4.03 0,2.226 0,0" /></g><g
           id="g332"><g
             id="g334" /><g
             id="g346"><g
               style="opacity:0.13999903"
               id="g344"
               clip-path="url(#clipPath338)"><g
                 id="g342"
                 transform="translate(347.4805,411.5098)"><path
                   id="path340"
                   style="fill:#000000;fill-opacity:1;fill-rule:nonzero;stroke:none"
                   d="m 0,0 c 0,-1.167 -1.979,-2.113 -4.422,-2.113 -2.442,0 -4.422,0.946 -4.422,2.113 0,1.167 1.98,2.113 4.422,2.113 C -1.979,2.113 0,1.167 0,0" /></g></g></g></g><g
           transform="translate(461.2354,430.8823)"
           id="g348"><path
             id="path350"
             style="fill:#c52928;fill-opacity:1;fill-rule:nonzero;stroke:none"
             d="m 0,0 c 0,-17.186 -13.932,-31.118 -31.118,-31.118 -17.186,0 -31.117,13.932 -31.117,31.118 0,17.186 13.931,31.118 31.117,31.118 C -13.932,31.118 0,17.186 0,0" /></g><g
           transform="translate(436.2305,430.8823)"
           id="g352"><path
             id="path354"
             style="fill:#ffffff;fill-opacity:1;fill-rule:nonzero;stroke:none"
             d="m 0,0 c 0,-3.376 -2.737,-6.112 -6.113,-6.112 -3.375,0 -6.113,2.736 -6.113,6.112 0,3.376 2.738,6.112 6.113,6.112 C -2.737,6.112 0,3.376 0,0" /></g><g
           transform="translate(436.2305,451.2568)"
           id="g356"><path
             id="path358"
             style="fill:#ffffff;fill-opacity:1;fill-rule:nonzero;stroke:none"
             d="m 0,0 c 0,-3.375 -2.737,-6.112 -6.113,-6.112 -3.375,0 -6.113,2.737 -6.113,6.112 0,3.376 2.738,6.113 6.113,6.113 C -2.737,6.113 0,3.376 0,0" /></g><g
           transform="translate(436.2305,410.5078)"
           id="g360"><path
             id="path362"
             style="fill:#ffffff;fill-opacity:1;fill-rule:nonzero;stroke:none"
             d="m 0,0 c 0,-3.376 -2.737,-6.112 -6.113,-6.112 -3.375,0 -6.113,2.736 -6.113,6.112 0,3.375 2.738,6.112 6.113,6.112 C -2.737,6.112 0,3.375 0,0" /></g><g
           transform="translate(409.416,425.9883)"
           id="g364"><path
             id="path366"
             style="fill:#ffffff;fill-opacity:1;fill-rule:nonzero;stroke:none"
             d="m 0,0 c 2.924,1.688 6.662,0.687 8.351,-2.237 1.687,-2.924 0.685,-6.662 -2.238,-8.35 -2.924,-1.687 -6.662,-0.686 -8.35,2.237 C -3.925,-5.426 -2.923,-1.687 0,0" /></g><g
           transform="translate(444.7061,446.3633)"
           id="g368"><path
             id="path370"
             style="fill:#ffffff;fill-opacity:1;fill-rule:nonzero;stroke:none"
             d="m 0,0 c 2.924,1.688 6.662,0.686 8.35,-2.237 1.688,-2.924 0.686,-6.662 -2.238,-8.35 -2.923,-1.688 -6.661,-0.686 -8.349,2.237 C -3.925,-5.426 -2.923,-1.688 0,0" /></g><g
           transform="translate(444.7061,415.4014)"
           id="g372"><path
             id="path374"
             style="fill:#ffffff;fill-opacity:1;fill-rule:nonzero;stroke:none"
             d="m 0,0 c -2.923,1.688 -3.925,5.426 -2.237,8.35 1.688,2.923 5.426,3.925 8.349,2.237 C 9.036,8.899 10.038,5.161 8.35,2.237 6.662,-0.686 2.924,-1.687 0,0" /></g><g
           transform="translate(409.416,435.7764)"
           id="g376"><path
             id="path378"
             style="fill:#ffffff;fill-opacity:1;fill-rule:nonzero;stroke:none"
             d="m 0,0 c -2.923,1.687 -3.925,5.426 -2.237,8.35 1.688,2.923 5.426,3.925 8.35,2.237 C 9.036,8.899 10.038,5.161 8.351,2.237 6.662,-0.687 2.924,-1.688 0,0" /></g><g
           transform="translate(374.1768,256.0088)"
           id="g380"><path
             id="path382"
             style="fill:#c52928;fill-opacity:1;fill-rule:nonzero;stroke:none"
             d="m 0,0 c 0,-17.186 -13.933,-31.117 -31.118,-31.117 -17.186,0 -31.117,13.931 -31.117,31.117 0,17.186 13.931,31.118 31.117,31.118 C -13.933,31.118 0,17.186 0,0" /></g><g
           transform="translate(349.1709,256.0088)"
           id="g384"><path
             id="path386"
             style="fill:#ffffff;fill-opacity:1;fill-rule:nonzero;stroke:none"
             d="m 0,0 c 0,-3.376 -2.736,-6.112 -6.112,-6.112 -3.376,0 -6.113,2.736 -6.113,6.112 0,3.376 2.737,6.112 6.113,6.112 C -2.736,6.112 0,3.376 0,0" /></g><g
           transform="translate(349.1709,276.3833)"
           id="g388"><path
             id="path390"
             style="fill:#ffffff;fill-opacity:1;fill-rule:nonzero;stroke:none"
             d="m 0,0 c 0,-3.375 -2.736,-6.112 -6.112,-6.112 -3.376,0 -6.113,2.737 -6.113,6.112 0,3.376 2.737,6.112 6.113,6.112 C -2.736,6.112 0,3.376 0,0" /></g><g
           transform="translate(349.1709,235.6338)"
           id="g392"><path
             id="path394"
             style="fill:#ffffff;fill-opacity:1;fill-rule:nonzero;stroke:none"
             d="m 0,0 c 0,-3.375 -2.736,-6.112 -6.112,-6.112 -3.376,0 -6.113,2.737 -6.113,6.112 0,3.376 2.737,6.112 6.113,6.112 C -2.736,6.112 0,3.376 0,0" /></g><g
           transform="translate(322.3574,251.1152)"
           id="g396"><path
             id="path398"
             style="fill:#ffffff;fill-opacity:1;fill-rule:nonzero;stroke:none"
             d="m 0,0 c 2.924,1.687 6.662,0.686 8.35,-2.237 1.688,-2.924 0.686,-6.662 -2.238,-8.35 -2.923,-1.688 -6.661,-0.686 -8.349,2.237 C -3.925,-5.427 -2.923,-1.688 0,0" /></g><g
           transform="translate(357.6475,271.4897)"
           id="g400"><path
             id="path402"
             style="fill:#ffffff;fill-opacity:1;fill-rule:nonzero;stroke:none"
             d="m 0,0 c 2.924,1.688 6.662,0.686 8.35,-2.237 1.688,-2.924 0.686,-6.662 -2.238,-8.35 -2.923,-1.688 -6.661,-0.686 -8.349,2.237 C -3.925,-5.426 -2.924,-1.688 0,0" /></g><g
           transform="translate(357.6475,240.5283)"
           id="g404"><path
             id="path406"
             style="fill:#ffffff;fill-opacity:1;fill-rule:nonzero;stroke:none"
             d="m 0,0 c -2.924,1.687 -3.925,5.426 -2.237,8.35 1.688,2.922 5.426,3.924 8.349,2.237 C 9.036,8.898 10.038,5.16 8.35,2.237 6.662,-0.687 2.924,-1.688 0,0" /></g><g
           transform="translate(322.3574,260.9028)"
           id="g408"><path
             id="path410"
             style="fill:#ffffff;fill-opacity:1;fill-rule:nonzero;stroke:none"
             d="m 0,0 c -2.923,1.687 -3.925,5.426 -2.237,8.35 1.688,2.923 5.426,3.924 8.349,2.237 C 9.036,8.899 10.038,5.161 8.35,2.237 6.662,-0.687 2.924,-1.688 0,0" /></g><g
           transform="translate(115.4116,212.4707)"
           id="g412"><path
             id="path414"
             style="fill:#139b48;fill-opacity:1;fill-rule:nonzero;stroke:none"
             d="m 0,0 h -67.059 c -5.523,0 -10,4.477 -10,10 v 67.059 c 0,5.523 4.477,10 10,10 H 0 c 5.523,0 10,-4.477 10,-10 V 10 C 10,4.477 5.523,0 0,0" /></g><g
           transform="translate(115.4116,212.4707)"
           id="g416"><path
             id="path418"
             style="fill:none;stroke:#ffffff;stroke-width:1.74100006;stroke-linecap:butt;stroke-linejoin:miter;stroke-miterlimit:10;stroke-dasharray:none;stroke-opacity:1"
             d="m 0,0 h -67.059 c -5.523,0 -10,4.477 -10,10 v 67.059 c 0,5.523 4.477,10 10,10 H 0 c 5.523,0 10,-4.477 10,-10 V 10 C 10,4.477 5.523,0 0,0 Z" /></g><g
           transform="translate(110.647,256)"
           id="g420"><path
             id="path422"
             style="fill:#0f8040;fill-opacity:1;fill-rule:nonzero;stroke:none"
             d="m 0,0 c 0,-15.887 -12.878,-28.765 -28.765,-28.765 -15.886,0 -28.764,12.878 -28.764,28.765 0,15.886 12.878,28.765 28.764,28.765 C -12.878,28.765 0,15.886 0,0" /></g><g
           transform="translate(463.6475,212.4707)"
           id="g424"><path
             id="path426"
             style="fill:#139b48;fill-opacity:1;fill-rule:nonzero;stroke:none"
             d="m 0,0 h -67.06 c -5.522,0 -10,4.477 -10,10 v 67.059 c 0,5.523 4.478,10 10,10 H 0 c 5.522,0 10,-4.477 10,-10 V 10 C 10,4.477 5.522,0 0,0" /></g><g
           transform="translate(463.6475,212.4707)"
           id="g428"><path
             id="path430"
             style="fill:none;stroke:#ffffff;stroke-width:1.74100006;stroke-linecap:butt;stroke-linejoin:miter;stroke-miterlimit:10;stroke-dasharray:none;stroke-opacity:1"
             d="m 0,0 h -67.06 c -5.522,0 -10,4.477 -10,10 v 67.059 c 0,5.523 4.478,10 10,10 H 0 c 5.522,0 10,-4.477 10,-10 V 10 C 10,4.477 5.522,0 0,0 Z" /></g><g
           transform="translate(458.8828,256)"
           id="g432"><path
             id="path434"
             style="fill:#0f8040;fill-opacity:1;fill-rule:nonzero;stroke:none"
             d="m 0,0 c 0,-15.887 -12.879,-28.765 -28.766,-28.765 -15.885,0 -28.764,12.878 -28.764,28.765 0,15.886 12.879,28.765 28.764,28.765 C -12.879,28.765 0,15.886 0,0" /></g><g
           transform="translate(299.5293,463.647)"
           id="g436"><path
             id="path438"
             style="fill:#139b48;fill-opacity:1;fill-rule:nonzero;stroke:none"
             d="m 0,0 v -67.059 c 0,-5.523 -4.477,-10 -10,-10 h -67.059 c -5.523,0 -10,4.477 -10,10 V 0 c 0,5.523 4.477,10 10,10 H -10 C -4.477,10 0,5.523 0,0" /></g><g
           transform="translate(299.5293,463.647)"
           id="g440"><path
             id="path442"
             style="fill:none;stroke:#ffffff;stroke-width:1.74100006;stroke-linecap:butt;stroke-linejoin:miter;stroke-miterlimit:10;stroke-dasharray:none;stroke-opacity:1"
             d="m 0,0 v -67.059 c 0,-5.523 -4.477,-10 -10,-10 h -67.059 c -5.523,0 -10,4.477 -10,10 V 0 c 0,5.523 4.477,10 10,10 H -10 C -4.477,10 0,5.523 0,0 Z" /></g><g
           transform="translate(256,458.8823)"
           id="g444"><path
             id="path446"
             style="fill:#0f8040;fill-opacity:1;fill-rule:nonzero;stroke:none"
             d="m 0,0 c 15.887,0 28.765,-12.878 28.765,-28.765 0,-15.886 -12.878,-28.764 -28.765,-28.764 -15.886,0 -28.765,12.878 -28.765,28.764 C -28.765,-12.878 -15.886,0 0,0" /></g><g
           transform="translate(289.5293,38.3525)"
           id="g448"><path
             id="path450"
             style="fill:#139b48;fill-opacity:1;fill-rule:nonzero;stroke:none"
             d="m 0,0 h -67.059 c -5.523,0 -10,4.478 -10,10 v 67.06 c 0,5.522 4.477,10 10,10 H 0 c 5.523,0 10,-4.478 10,-10 V 10 C 10,4.478 5.523,0 0,0" /></g><g
           transform="translate(289.5293,38.3525)"
           id="g452"><path
             id="path454"
             style="fill:none;stroke:#ffffff;stroke-width:1.74100006;stroke-linecap:butt;stroke-linejoin:miter;stroke-miterlimit:10;stroke-dasharray:none;stroke-opacity:1"
             d="m 0,0 h -67.059 c -5.523,0 -10,4.478 -10,10 v 67.06 c 0,5.522 4.477,10 10,10 H 0 c 5.523,0 10,-4.478 10,-10 V 10 C 10,4.478 5.523,0 0,0 Z" /></g><g
           transform="translate(287.1172,81.8828)"
           id="g456"><path
             id="path458"
             style="fill:#c52928;fill-opacity:1;fill-rule:nonzero;stroke:none"
             d="m 0,0 c 0,-17.187 -13.932,-31.118 -31.117,-31.118 -17.186,0 -31.118,13.931 -31.118,31.118 0,17.186 13.932,31.117 31.118,31.117 C -13.932,31.117 0,17.186 0,0" /></g><g
           transform="translate(262.1123,81.8828)"
           id="g460"><path
             id="path462"
             style="fill:#ffffff;fill-opacity:1;fill-rule:nonzero;stroke:none"
             d="m 0,0 c 0,-3.376 -2.736,-6.113 -6.112,-6.113 -3.376,0 -6.113,2.737 -6.113,6.113 0,3.375 2.737,6.112 6.113,6.112 C -2.736,6.112 0,3.375 0,0" /></g><g
           transform="translate(262.1123,102.2568)"
           id="g464"><path
             id="path466"
             style="fill:#ffffff;fill-opacity:1;fill-rule:nonzero;stroke:none"
             d="m 0,0 c 0,-3.376 -2.736,-6.112 -6.112,-6.112 -3.376,0 -6.113,2.736 -6.113,6.112 0,3.376 2.737,6.112 6.113,6.112 C -2.736,6.112 0,3.376 0,0" /></g><g
           transform="translate(262.1123,61.5078)"
           id="g468"><path
             id="path470"
             style="fill:#ffffff;fill-opacity:1;fill-rule:nonzero;stroke:none"
             d="m 0,0 c 0,-3.376 -2.736,-6.112 -6.112,-6.112 -3.376,0 -6.113,2.736 -6.113,6.112 0,3.376 2.737,6.112 6.113,6.112 C -2.736,6.112 0,3.376 0,0" /></g><g
           transform="translate(235.2988,76.9883)"
           id="g472"><path
             id="path474"
             style="fill:#ffffff;fill-opacity:1;fill-rule:nonzero;stroke:none"
             d="M 0,0 C 2.923,1.688 6.662,0.687 8.35,-2.237 10.038,-5.16 9.036,-8.898 6.112,-10.587 3.189,-12.274 -0.549,-11.273 -2.237,-8.35 -3.925,-5.426 -2.923,-1.687 0,0" /></g><g
           transform="translate(270.5889,97.3633)"
           id="g476"><path
             id="path478"
             style="fill:#ffffff;fill-opacity:1;fill-rule:nonzero;stroke:none"
             d="M 0,0 C 2.924,1.687 6.662,0.687 8.35,-2.237 10.037,-5.161 9.036,-8.899 6.112,-10.587 3.188,-12.275 -0.55,-11.273 -2.237,-8.35 -3.925,-5.427 -2.924,-1.688 0,0" /></g><g
           transform="translate(270.5889,66.4014)"
           id="g480"><path
             id="path482"
             style="fill:#ffffff;fill-opacity:1;fill-rule:nonzero;stroke:none"
             d="m 0,0 c -2.924,1.688 -3.925,5.427 -2.237,8.35 1.687,2.923 5.425,3.925 8.349,2.237 C 9.036,8.899 10.037,5.161 8.35,2.237 6.662,-0.687 2.924,-1.687 0,0" /></g><g
           transform="translate(235.2988,86.7764)"
           id="g484"><path
             id="path486"
             style="fill:#ffffff;fill-opacity:1;fill-rule:nonzero;stroke:none"
             d="m 0,0 c -2.923,1.687 -3.925,5.426 -2.237,8.35 1.688,2.923 5.426,3.924 8.349,2.237 C 9.036,8.898 10.038,5.16 8.35,2.237 6.662,-0.687 2.923,-1.688 0,0" /></g></g></g></g></svg>