<?xml version="1.0" encoding="UTF-8" standalone="no"?>
<svg
   xmlns:dc="http://purl.org/dc/elements/1.1/"
   xmlns:cc="http://creativecommons.org/ns#"
   xmlns:rdf="http://www.w3.org/1999/02/22-rdf-syntax-ns#"
   xmlns:svg="http://www.w3.org/2000/svg"
   xmlns="http://www.w3.org/2000/svg"
   viewBox="0 0 1716.7067 609.72534"
   height="609.72534"
   width="1716.7067"
   xml:space="preserve"
   id="svg2"
   version="1.1"><metadata
     id="metadata8"><rdf:RDF><cc:Work
         rdf:about=""><dc:format>image/svg+xml</dc:format><dc:type
           rdf:resource="http://purl.org/dc/dcmitype/StillImage" /></cc:Work></rdf:RDF></metadata><defs
     id="defs6"><clipPath
       id="clipPath18"
       clipPathUnits="userSpaceOnUse"><path
         id="path16"
         d="M 0,457.294 H 1287.529 V 0 H 0 Z" /></clipPath></defs><g
     transform="matrix(1.3333333,0,0,-1.3333333,0,609.72533)"
     id="g10"><g
       id="g12"><g
         clip-path="url(#clipPath18)"
         id="g14"><g
           transform="translate(1029.7847,398.8902)"
           id="g20"><path
             id="path22"
             style="fill:#ffffff;fill-opacity:1;fill-rule:nonzero;stroke:none"
             d="M 0,0 C -15.058,16.557 -31.885,24.317 -49.225,26.555 -66.773,28.818 -82.237,14.885 -82.237,-2.81 v -167.433 -167.434 c 0,-17.694 15.464,-31.628 33.012,-29.364 17.34,2.237 34.167,9.997 49.225,26.555 126.554,139.165 232.197,104.227 232.197,170.243 C 232.197,-104.228 126.554,-139.165 0,0" /></g><g
           transform="translate(1261.98,228.6485)"
           id="g24"><path
             id="path26"
             style="fill:#ffffff;fill-opacity:1;fill-rule:nonzero;stroke:none"
             d="M 0,0 C 0,-22.21 -11.95,-32.99 -32.63,-42.82 V 42.82 C -11.95,32.99 0,22.21 0,0" /></g><g
           transform="translate(862.2944,73.0484)"
           id="g28"><path
             id="path30"
             style="fill:#db5727;fill-opacity:1;fill-rule:nonzero;stroke:none"
             d="m 0,0 v 0 c 26.119,0 47.294,18.717 47.294,41.805 v 227.587 c 0,23.088 -21.175,41.805 -47.294,41.805 -26.12,0 -70.235,-18.717 -70.235,-41.805 V 41.805 C -70.235,18.717 -26.12,0 0,0" /></g><path
           id="path32"
           style="fill:#db5727;fill-opacity:1;fill-rule:nonzero;stroke:none"
           d="M 979.382,107.014 H 895.47 v 245.838 h 83.912 z" /><g
           transform="translate(310.8238,325.6598)"
           id="g34"><path
             id="path36"
             style="fill:#ffffff;fill-opacity:1;fill-rule:nonzero;stroke:none"
             d="m 0,0 c 162.859,0 294.882,-42.858 294.882,-95.727 0,-52.868 -132.023,-95.726 -294.882,-95.726 -162.859,0 -294.883,42.858 -294.883,95.726 C -294.883,-42.858 -162.859,0 0,0" /></g><g
           transform="translate(605.71,229.9283)"
           id="g38"><path
             id="path40"
             style="fill:#db5727;fill-opacity:1;fill-rule:nonzero;stroke:none"
             d="m 0,0 c 0,-52.21 -128.81,-94.67 -288.92,-95.7 14.87,5.98 25.2,13.2 25.2,23.221 0,35.769 -131.48,35.769 -131.48,71.529 0,35.76 131.48,35.76 131.48,71.53 0,11.13 -12.73,18.79 -30.27,25.15 C -131.54,95.57 0,52.77 0,0" /></g><g
           transform="translate(1029.7837,341.3492)"
           id="g42"><path
             id="path44"
             style="fill:#db5727;fill-opacity:1;fill-rule:nonzero;stroke:none"
             d="m 0,0 c -25,30.279 -53.749,58.225 -82.236,51.875 v -164.577 -164.577 c 28.487,-6.35 57.236,21.595 82.236,51.875 111.582,135.143 232.198,36.745 232.198,112.702 C 232.198,-38.071 111.582,-135.144 0,0" /></g><g
           transform="translate(1265.8237,228.6485)"
           id="g46"><path
             id="path48"
             style="fill:#222323;fill-opacity:1;fill-rule:nonzero;stroke:none"
             d="M 0,0 C 0,-22.21 -13.357,-32.99 -36.474,-42.82 V 42.82 C -13.357,32.99 0,22.21 0,0" /></g><g
           transform="translate(497.7876,45.8668)"
           id="g50"><path
             id="path52"
             style="fill:#db5727;fill-opacity:1;fill-rule:nonzero;stroke:none"
             d="M 0,0 H 7.601 C 40.588,0 67.33,26.741 67.33,59.729 v 246.103 c 0,32.987 -26.742,59.729 -59.729,59.729 H 0 C -137.05,365.561 -137.05,0 0,0" /></g><g
           transform="translate(996.0591,228.6471)"
           id="g54"><path
             id="path56"
             style="fill:#db5727;fill-opacity:1;fill-rule:nonzero;stroke:none"
             d="m 0,0 c 0,-80.285 -226.624,-145.368 -355.103,-145.368 -128.48,0 -232.632,65.083 -232.632,145.368 0,80.285 104.152,145.369 232.632,145.369 C -226.624,145.369 0,80.285 0,0" /></g><g
           transform="translate(947.5474,310.7911)"
           id="g58"><path
             id="path60"
             style="fill:#ffffff;fill-opacity:1;fill-rule:nonzero;stroke:none"
             d="m 0,0 v -57.104 c -31.326,0 -57.104,51.996 -57.104,83.322 0,33.219 37.887,30.885 57.104,30.885 z" /></g><g
           transform="translate(947.5474,146.5035)"
           id="g62"><path
             id="path64"
             style="fill:#ffffff;fill-opacity:1;fill-rule:nonzero;stroke:none"
             d="m 0,0 v 57.104 c -31.326,0 -57.104,-51.997 -57.104,-83.323 0,-33.219 37.887,-30.885 57.104,-30.885 z" /></g><g
           transform="translate(1099.1157,295.6495)"
           id="g66"><path
             id="path68"
             style="fill:#252626;fill-opacity:1;fill-rule:nonzero;stroke:none"
             d="m 0,0 c 0,-10.529 -13.273,-19.064 -29.646,-19.064 -16.375,0 -29.648,8.535 -29.648,19.064 0,10.529 13.273,19.064 29.648,19.064 C -13.273,19.064 0,10.529 0,0" /></g><g
           transform="translate(1099.1157,161.6451)"
           id="g70"><path
             id="path72"
             style="fill:#252626;fill-opacity:1;fill-rule:nonzero;stroke:none"
             d="m 0,0 c 0,-10.529 -13.273,-19.064 -29.646,-19.064 -16.375,0 -29.648,8.535 -29.648,19.064 0,10.528 13.273,19.063 29.648,19.063 C -13.273,19.063 0,10.528 0,0" /></g></g></g></g></svg>