<?xml version="1.0" encoding="UTF-8" standalone="no"?>
<svg
   xmlns:dc="http://purl.org/dc/elements/1.1/"
   xmlns:cc="http://creativecommons.org/ns#"
   xmlns:rdf="http://www.w3.org/1999/02/22-rdf-syntax-ns#"
   xmlns:svg="http://www.w3.org/2000/svg"
   xmlns="http://www.w3.org/2000/svg"
   viewBox="0 0 609.33331 1716"
   height="1716"
   width="609.33331"
   xml:space="preserve"
   id="svg2"
   version="1.1"><metadata
     id="metadata8"><rdf:RDF><cc:Work
         rdf:about=""><dc:format>image/svg+xml</dc:format><dc:type
           rdf:resource="http://purl.org/dc/dcmitype/StillImage" /></cc:Work></rdf:RDF></metadata><defs
     id="defs6"><clipPath
       id="clipPath18"
       clipPathUnits="userSpaceOnUse"><path
         id="path16"
         d="M 0,1287 H 457 V 0 H 0 Z" /></clipPath></defs><g
     transform="matrix(1.3333333,0,0,-1.3333333,0,1716)"
     id="g10"><g
       id="g12"><g
         clip-path="url(#clipPath18)"
         id="g14"><g
           transform="translate(395.8608,254.5977)"
           id="g20"><path
             id="path22"
             style="fill:#ffffff;fill-opacity:1;fill-rule:nonzero;stroke:none"
             d="M 0,0 C 16.558,15.058 24.317,31.885 26.555,49.225 28.818,66.773 14.885,82.237 -2.81,82.237 h -167.433 -167.434 c -17.694,0 -31.628,-15.464 -29.364,-33.012 2.237,-17.34 9.998,-34.167 26.555,-49.225 139.164,-126.554 104.227,-232.197 170.243,-232.197 66.015,0 31.078,105.643 170.243,232.197" /></g><g
           transform="translate(225.6191,22.4023)"
           id="g24"><path
             id="path26"
             style="fill:#ffffff;fill-opacity:1;fill-rule:nonzero;stroke:none"
             d="M 0,0 C -22.21,0 -32.99,11.95 -42.82,32.63 H 42.82 C 32.99,11.95 22.21,0 0,0" /></g><g
           transform="translate(70.019,422.0879)"
           id="g28"><path
             id="path30"
             style="fill:#db5727;fill-opacity:1;fill-rule:nonzero;stroke:none"
             d="m 0,0 v 0 c 0,-26.119 18.717,-47.294 41.805,-47.294 h 227.588 c 23.087,0 41.804,21.175 41.804,47.294 0,26.12 -18.717,70.235 -41.804,70.235 H 41.805 C 18.717,70.235 0,26.12 0,0" /></g><path
           id="path32"
           style="fill:#db5727;fill-opacity:1;fill-rule:nonzero;stroke:none"
           d="M 103.985,388.912 H 349.823 V 305 H 103.985 Z" /><g
           transform="translate(322.6303,973.5586)"
           id="g34"><path
             id="path36"
             style="fill:#ffffff;fill-opacity:1;fill-rule:nonzero;stroke:none"
             d="m 0,0 c 0,-162.859 -42.858,-294.882 -95.727,-294.882 -52.868,0 -95.726,132.023 -95.726,294.882 0,162.859 42.858,294.883 95.726,294.883 C -42.858,294.883 0,162.859 0,0" /></g><g
           transform="translate(226.8989,678.6724)"
           id="g38"><path
             id="path40"
             style="fill:#db5727;fill-opacity:1;fill-rule:nonzero;stroke:none"
             d="m 0,0 c -52.21,0 -94.67,128.81 -95.7,288.92 5.98,-14.87 13.2,-25.2 23.22,-25.2 35.77,0 35.77,131.48 71.53,131.48 35.761,0 35.761,-131.48 71.53,-131.48 11.13,0 18.79,12.73 25.15,30.27 C 95.57,131.54 52.771,0 0,0" /></g><g
           transform="translate(338.3198,254.5986)"
           id="g42"><path
             id="path44"
             style="fill:#db5727;fill-opacity:1;fill-rule:nonzero;stroke:none"
             d="M 0,0 C 30.279,25 58.225,53.749 51.875,82.236 H -112.702 -277.28 C -283.629,53.749 -255.684,25 -225.404,0 -90.261,-111.582 -188.659,-232.198 -112.702,-232.198 -38.07,-232.198 -135.143,-111.582 0,0" /></g><g
           transform="translate(225.6191,18.5586)"
           id="g46"><path
             id="path48"
             style="fill:#222323;fill-opacity:1;fill-rule:nonzero;stroke:none"
             d="M 0,0 C -22.21,0 -32.99,13.357 -42.82,36.474 H 42.82 C 32.99,13.357 22.21,0 0,0" /></g><g
           transform="translate(42.8374,786.5947)"
           id="g50"><path
             id="path52"
             style="fill:#db5727;fill-opacity:1;fill-rule:nonzero;stroke:none"
             d="M 0,0 V -7.601 C 0,-40.588 26.742,-67.33 59.729,-67.33 h 246.103 c 32.987,0 59.729,26.742 59.729,59.729 V 0 C 365.561,137.05 0,137.05 0,0" /></g><g
           transform="translate(225.6176,288.3232)"
           id="g54"><path
             id="path56"
             style="fill:#db5727;fill-opacity:1;fill-rule:nonzero;stroke:none"
             d="m 0,0 c -80.285,0 -145.369,226.624 -145.369,355.103 0,128.48 65.084,232.632 145.369,232.632 80.285,0 145.368,-104.152 145.368,-232.632 C 145.368,226.624 80.285,0 0,0" /></g><g
           transform="translate(307.7612,336.835)"
           id="g58"><path
             id="path60"
             style="fill:#ffffff;fill-opacity:1;fill-rule:nonzero;stroke:none"
             d="m 0,0 h -57.104 c 0,31.326 51.997,57.104 83.323,57.104 33.219,0 30.885,-37.887 30.885,-57.104 z" /></g><g
           transform="translate(143.4736,336.835)"
           id="g62"><path
             id="path64"
             style="fill:#ffffff;fill-opacity:1;fill-rule:nonzero;stroke:none"
             d="m 0,0 h 57.104 c 0,31.326 -51.996,57.104 -83.322,57.104 -33.219,0 -30.885,-37.887 -30.885,-57.104 z" /></g><g
           transform="translate(292.6196,185.2666)"
           id="g66"><path
             id="path68"
             style="fill:#252626;fill-opacity:1;fill-rule:nonzero;stroke:none"
             d="m 0,0 c -10.528,0 -19.063,13.273 -19.063,29.646 0,16.375 8.535,29.648 19.063,29.648 10.529,0 19.064,-13.273 19.064,-29.648 C 19.064,13.273 10.529,0 0,0" /></g><g
           transform="translate(158.6152,185.2666)"
           id="g70"><path
             id="path72"
             style="fill:#252626;fill-opacity:1;fill-rule:nonzero;stroke:none"
             d="m 0,0 c -10.529,0 -19.064,13.273 -19.064,29.646 0,16.375 8.535,29.648 19.064,29.648 10.529,0 19.064,-13.273 19.064,-29.648 C 19.064,13.273 10.529,0 0,0" /></g></g></g></g></svg>