<?xml version="1.0" encoding="UTF-8" standalone="no"?>
<svg
   xmlns:dc="http://purl.org/dc/elements/1.1/"
   xmlns:cc="http://creativecommons.org/ns#"
   xmlns:rdf="http://www.w3.org/1999/02/22-rdf-syntax-ns#"
   xmlns:svg="http://www.w3.org/2000/svg"
   xmlns="http://www.w3.org/2000/svg"
   viewBox="0 0 666.66669 333.33334"
   height="333.33334"
   width="666.66669"
   xml:space="preserve"
   id="svg2"
   version="1.1"><metadata
     id="metadata8"><rdf:RDF><cc:Work
         rdf:about=""><dc:format>image/svg+xml</dc:format><dc:type
           rdf:resource="http://purl.org/dc/dcmitype/StillImage" /></cc:Work></rdf:RDF></metadata><defs
     id="defs6"><clipPath
       id="clipPath18"
       clipPathUnits="userSpaceOnUse"><path
         id="path16"
         d="M 0,250 H 500 V 0 H 0 Z" /></clipPath></defs><g
     transform="matrix(1.3333333,0,0,-1.3333333,0,333.33333)"
     id="g10"><g
       id="g12"><g
         clip-path="url(#clipPath18)"
         id="g14"><g
           transform="translate(48.499,115.4805)"
           id="g20"><path
             id="path22"
             style="fill:#ffffff;fill-opacity:1;fill-rule:nonzero;stroke:none"
             d="m 0,0 c 0,-4.734 -0.444,-8.996 -1.331,-12.788 -0.888,-3.792 -2.394,-7.019 -4.518,-9.682 -2.126,-2.662 -4.909,-4.693 -8.351,-6.091 -3.442,-1.398 -7.692,-2.097 -12.747,-2.097 -1.614,0 -3.215,0.121 -4.801,0.362 -1.586,0.242 -3.039,0.553 -4.356,0.929 -1.319,0.375 -2.461,0.778 -3.429,1.21 -0.968,0.429 -1.613,0.819 -1.936,1.17 -0.323,0.348 -0.593,0.712 -0.807,1.089 -0.216,0.376 -0.404,0.874 -0.565,1.492 -0.161,0.618 -0.27,1.385 -0.323,2.3 -0.054,0.914 -0.08,2.07 -0.08,3.468 0,1.828 0.04,3.375 0.121,4.64 0.081,1.263 0.214,2.259 0.403,2.984 0.188,0.727 0.456,1.238 0.807,1.534 0.349,0.294 0.793,0.444 1.331,0.444 0.484,0 1.049,-0.176 1.694,-0.525 0.646,-0.35 1.372,-0.713 2.179,-1.089 0.807,-0.377 1.747,-0.741 2.824,-1.089 1.075,-0.351 2.339,-0.525 3.792,-0.525 1.452,0 2.729,0.202 3.832,0.606 1.102,0.403 2.017,1.101 2.743,2.097 0.726,0.995 1.277,2.326 1.654,3.994 0.376,1.667 0.565,3.818 0.565,6.454 v 71.724 c 0,0.537 0.174,1.009 0.524,1.412 0.349,0.403 0.914,0.739 1.694,1.009 0.779,0.268 1.869,0.47 3.268,0.605 1.398,0.134 3.119,0.201 5.164,0.201 2.043,0 3.737,-0.067 5.082,-0.201 1.344,-0.135 2.433,-0.337 3.268,-0.605 0.833,-0.27 1.424,-0.606 1.775,-1.009 C -0.175,73.62 0,73.148 0,72.611 Z" /></g><g
           transform="translate(138.1343,89.1787)"
           id="g24"><path
             id="path26"
             style="fill:#ffffff;fill-opacity:1;fill-rule:nonzero;stroke:none"
             d="m 0,0 c 0,-0.538 -0.135,-1.009 -0.403,-1.412 -0.27,-0.403 -0.741,-0.74 -1.412,-1.009 -0.674,-0.269 -1.561,-0.47 -2.663,-0.604 -1.103,-0.134 -2.488,-0.203 -4.155,-0.203 -1.775,0 -3.215,0.069 -4.316,0.203 -1.103,0.134 -1.977,0.335 -2.622,0.604 -0.646,0.269 -1.103,0.606 -1.372,1.009 -0.269,0.403 -0.403,0.874 -0.403,1.412 v 8.31 c -3.981,-4.304 -8.028,-7.531 -12.143,-9.682 -4.114,-2.15 -8.378,-3.227 -12.787,-3.227 -4.95,0 -9.104,0.807 -12.465,2.42 -3.363,1.615 -6.079,3.819 -8.149,6.616 -2.071,2.796 -3.55,6.038 -4.438,9.722 -0.887,3.684 -1.331,8.27 -1.331,13.756 v 44.051 c 0,0.537 0.148,1.008 0.444,1.412 0.295,0.403 0.833,0.739 1.614,1.008 0.779,0.269 1.828,0.47 3.146,0.605 1.318,0.134 2.945,0.202 4.881,0.202 1.99,0 3.631,-0.068 4.922,-0.202 1.291,-0.135 2.326,-0.336 3.106,-0.605 0.779,-0.269 1.331,-0.605 1.654,-1.008 0.323,-0.404 0.484,-0.875 0.484,-1.412 V 31.304 c 0,-3.766 0.242,-6.644 0.726,-8.633 0.484,-1.99 1.223,-3.699 2.219,-5.123 0.994,-1.426 2.259,-2.529 3.792,-3.308 1.533,-0.78 3.32,-1.17 5.365,-1.17 2.582,0 5.176,0.941 7.785,2.824 2.609,1.881 5.392,4.625 8.351,8.229 v 47.843 c 0,0.537 0.148,1.008 0.443,1.412 0.296,0.403 0.834,0.739 1.614,1.008 0.78,0.269 1.816,0.47 3.107,0.605 1.29,0.134 2.93,0.202 4.921,0.202 1.989,0 3.63,-0.068 4.921,-0.202 1.291,-0.135 2.312,-0.336 3.066,-0.605 0.753,-0.269 1.291,-0.605 1.614,-1.008 C -0.162,72.974 0,72.503 0,71.966 Z" /></g><g
           transform="translate(273.0312,89.1787)"
           id="g28"><path
             id="path30"
             style="fill:#ffffff;fill-opacity:1;fill-rule:nonzero;stroke:none"
             d="m 0,0 c 0,-0.538 -0.161,-1.009 -0.484,-1.412 -0.323,-0.403 -0.861,-0.74 -1.614,-1.009 -0.754,-0.269 -1.775,-0.47 -3.065,-0.604 -1.291,-0.134 -2.933,-0.203 -4.922,-0.203 -2.045,0 -3.711,0.069 -5.002,0.203 -1.291,0.134 -2.327,0.335 -3.106,0.604 -0.781,0.269 -1.319,0.606 -1.614,1.009 -0.296,0.403 -0.443,0.874 -0.443,1.412 v 42.679 c 0,2.421 -0.229,4.625 -0.687,6.616 -0.457,1.989 -1.157,3.697 -2.097,5.123 -0.942,1.424 -2.126,2.527 -3.55,3.308 -1.426,0.779 -3.134,1.17 -5.123,1.17 -2.42,0 -4.869,-0.942 -7.342,-2.824 -2.475,-1.884 -5.163,-4.627 -8.068,-8.229 V 0 c 0,-0.538 -0.161,-1.009 -0.484,-1.412 -0.323,-0.403 -0.875,-0.74 -1.654,-1.009 -0.781,-0.269 -1.815,-0.47 -3.106,-0.604 -1.291,-0.134 -2.905,-0.203 -4.841,-0.203 -1.99,0 -3.631,0.069 -4.922,0.203 -1.291,0.134 -2.327,0.335 -3.105,0.604 -0.781,0.269 -1.332,0.606 -1.655,1.009 -0.323,0.403 -0.484,0.874 -0.484,1.412 v 42.679 c 0,2.421 -0.229,4.625 -0.686,6.616 -0.457,1.989 -1.143,3.697 -2.057,5.123 -0.915,1.424 -2.097,2.527 -3.55,3.308 -1.452,0.779 -3.146,1.17 -5.083,1.17 -2.474,0 -4.949,-0.942 -7.422,-2.824 -2.475,-1.884 -5.137,-4.627 -7.987,-8.229 V 0 c 0,-0.538 -0.162,-1.009 -0.485,-1.412 -0.322,-0.403 -0.874,-0.74 -1.654,-1.009 -0.78,-0.269 -1.815,-0.47 -3.105,-0.604 -1.291,-0.134 -2.933,-0.203 -4.922,-0.203 -1.991,0 -3.631,0.069 -4.922,0.203 -1.29,0.134 -2.327,0.335 -3.106,0.604 -0.78,0.269 -1.331,0.606 -1.653,1.009 -0.323,0.403 -0.485,0.874 -0.485,1.412 v 71.966 c 0,0.537 0.134,1.008 0.403,1.412 0.269,0.403 0.753,0.739 1.453,1.008 0.698,0.269 1.6,0.47 2.703,0.605 1.101,0.134 2.487,0.202 4.155,0.202 1.72,0 3.146,-0.068 4.276,-0.202 1.129,-0.135 2.003,-0.336 2.622,-0.605 0.618,-0.269 1.061,-0.605 1.331,-1.008 0.269,-0.404 0.403,-0.875 0.403,-1.412 v -8.31 c 3.98,4.302 7.948,7.53 11.901,9.681 3.953,2.151 8.08,3.227 12.384,3.227 2.958,0 5.62,-0.31 7.987,-0.927 2.367,-0.619 4.478,-1.507 6.334,-2.663 1.855,-1.157 3.455,-2.541 4.8,-4.155 1.344,-1.613 2.474,-3.416 3.389,-5.405 2.15,2.312 4.262,4.302 6.333,5.97 2.07,1.667 4.115,3.026 6.132,4.074 2.017,1.049 4.034,1.828 6.051,2.34 2.017,0.511 4.074,0.766 6.172,0.766 4.787,0 8.821,-0.806 12.101,-2.42 3.281,-1.613 5.931,-3.806 7.948,-6.575 2.017,-2.771 3.455,-6.011 4.316,-9.722 C -0.432,54.136 0,50.209 0,46.068 Z" /></g><g
           transform="translate(344.2715,124.7578)"
           id="g32"><path
             id="path34"
             style="fill:#ffffff;fill-opacity:1;fill-rule:nonzero;stroke:none"
             d="m 0,0 c 0,3.066 -0.229,6.011 -0.687,8.834 -0.457,2.824 -1.237,5.338 -2.339,7.544 -1.103,2.205 -2.555,3.966 -4.357,5.285 -1.803,1.317 -4.048,1.976 -6.736,1.976 -1.346,0 -2.677,-0.202 -3.994,-0.605 -1.319,-0.403 -2.662,-1.062 -4.034,-1.976 -1.372,-0.915 -2.784,-2.098 -4.236,-3.55 -1.452,-1.452 -2.985,-3.255 -4.598,-5.406 v -23.719 c 2.85,-3.605 5.566,-6.388 8.148,-8.351 2.582,-1.964 5.271,-2.944 8.068,-2.944 2.635,0 4.881,0.672 6.737,2.016 1.855,1.344 3.375,3.107 4.558,5.285 1.183,2.178 2.058,4.639 2.622,7.382 C -0.283,-5.485 0,-2.743 0,0 m 21.138,1.453 c 0,-6.402 -0.686,-12.171 -2.058,-17.307 -1.371,-5.136 -3.376,-9.506 -6.011,-13.11 -2.635,-3.603 -5.917,-6.373 -9.842,-8.309 -3.927,-1.937 -8.418,-2.905 -13.474,-2.905 -2.098,0 -4.022,0.201 -5.769,0.605 -1.748,0.404 -3.442,1.022 -5.083,1.856 -1.64,0.833 -3.267,1.868 -4.88,3.106 -1.614,1.237 -3.282,2.689 -5.002,4.357 V -64.14 c 0,-0.537 -0.162,-1.021 -0.485,-1.452 -0.322,-0.429 -0.875,-0.793 -1.653,-1.09 -0.78,-0.295 -1.816,-0.524 -3.107,-0.685 -1.291,-0.161 -2.932,-0.242 -4.921,-0.242 -1.991,0 -3.63,0.081 -4.921,0.242 -1.291,0.161 -2.328,0.39 -3.107,0.685 -0.78,0.297 -1.331,0.661 -1.654,1.09 -0.322,0.431 -0.484,0.915 -0.484,1.452 V 36.387 c 0,0.537 0.133,1.008 0.404,1.412 0.268,0.403 0.738,0.739 1.411,1.008 0.673,0.269 1.56,0.47 2.663,0.605 1.102,0.134 2.487,0.202 4.155,0.202 1.614,0 2.971,-0.068 4.075,-0.202 1.101,-0.135 1.989,-0.336 2.662,-0.605 0.672,-0.269 1.142,-0.605 1.412,-1.008 0.268,-0.404 0.403,-0.875 0.403,-1.412 v -8.471 c 2.098,2.15 4.155,4.046 6.172,5.688 2.017,1.639 4.074,3.011 6.172,4.114 2.097,1.102 4.263,1.923 6.495,2.461 2.231,0.537 4.611,0.806 7.14,0.806 5.27,0 9.762,-1.036 13.473,-3.106 3.712,-2.071 6.738,-4.908 9.076,-8.511 2.34,-3.604 4.047,-7.8 5.124,-12.586 1.076,-4.788 1.614,-9.898 1.614,-15.329" /></g><g
           transform="translate(404.1357,89.3398)"
           id="g36"><path
             id="path38"
             style="fill:#ffffff;fill-opacity:1;fill-rule:nonzero;stroke:none"
             d="m 0,0 c 0,-0.538 -0.176,-1.022 -0.524,-1.452 -0.351,-0.431 -0.929,-0.78 -1.736,-1.049 -0.806,-0.27 -1.883,-0.484 -3.226,-0.645 -1.346,-0.162 -3.067,-0.243 -5.164,-0.243 -2.045,0 -3.751,0.081 -5.123,0.243 -1.372,0.161 -2.461,0.375 -3.268,0.645 -0.807,0.269 -1.386,0.618 -1.734,1.049 -0.351,0.43 -0.525,0.914 -0.525,1.452 v 98.59 c 0,0.537 0.174,1.021 0.525,1.452 0.348,0.431 0.94,0.78 1.774,1.049 0.834,0.269 1.923,0.485 3.268,0.646 1.343,0.161 3.038,0.242 5.083,0.242 2.097,0 3.818,-0.081 5.164,-0.242 1.343,-0.161 2.42,-0.377 3.226,-0.646 0.807,-0.269 1.385,-0.618 1.736,-1.049 C -0.176,99.611 0,99.127 0,98.59 Z" /></g><g
           transform="translate(494.417,89.1787)"
           id="g40"><path
             id="path42"
             style="fill:#ffffff;fill-opacity:1;fill-rule:nonzero;stroke:none"
             d="m 0,0 c 0,-0.538 -0.162,-1.009 -0.484,-1.412 -0.324,-0.403 -0.862,-0.74 -1.614,-1.009 -0.754,-0.269 -1.789,-0.47 -3.106,-0.604 -1.318,-0.134 -2.945,-0.203 -4.881,-0.203 -1.991,0 -3.644,0.069 -4.962,0.203 -1.319,0.134 -2.353,0.335 -3.106,0.604 -0.754,0.269 -1.291,0.606 -1.614,1.009 -0.323,0.403 -0.484,0.874 -0.484,1.412 v 41.065 c 0,3.496 -0.256,6.239 -0.767,8.23 -0.511,1.989 -1.25,3.697 -2.218,5.123 -0.968,1.424 -2.219,2.527 -3.752,3.308 -1.533,0.779 -3.322,1.17 -5.365,1.17 -2.582,0 -5.191,-0.942 -7.826,-2.824 -2.635,-1.884 -5.379,-4.627 -8.229,-8.229 V 0 c 0,-0.538 -0.161,-1.009 -0.485,-1.412 -0.322,-0.403 -0.875,-0.74 -1.653,-1.009 -0.78,-0.269 -1.815,-0.47 -3.106,-0.604 -1.291,-0.134 -2.933,-0.203 -4.922,-0.203 -1.99,0 -3.63,0.069 -4.921,0.203 -1.291,0.134 -2.327,0.335 -3.107,0.604 -0.78,0.269 -1.331,0.606 -1.654,1.009 -0.322,0.403 -0.483,0.874 -0.483,1.412 v 71.966 c 0,0.537 0.133,1.008 0.403,1.412 0.269,0.403 0.752,0.739 1.452,1.008 0.698,0.269 1.6,0.47 2.702,0.605 1.103,0.134 2.488,0.202 4.156,0.202 1.72,0 3.146,-0.068 4.276,-0.202 1.129,-0.135 2.003,-0.336 2.622,-0.605 0.617,-0.269 1.062,-0.605 1.331,-1.008 0.269,-0.404 0.403,-0.875 0.403,-1.412 v -8.31 c 3.98,4.302 8.028,7.53 12.143,9.681 4.114,2.151 8.403,3.227 12.868,3.227 4.894,0 9.023,-0.806 12.385,-2.42 3.36,-1.613 6.077,-3.806 8.148,-6.575 2.071,-2.771 3.563,-6.011 4.478,-9.722 C -0.458,54.136 0,49.67 0,44.454 Z" /></g></g></g></g></svg>