<?xml version="1.0" encoding="UTF-8" standalone="no"?>
<svg
   xmlns:dc="http://purl.org/dc/elements/1.1/"
   xmlns:cc="http://creativecommons.org/ns#"
   xmlns:rdf="http://www.w3.org/1999/02/22-rdf-syntax-ns#"
   xmlns:svg="http://www.w3.org/2000/svg"
   xmlns="http://www.w3.org/2000/svg"
   viewBox="0 0 666.66669 333.33334"
   height="333.33334"
   width="666.66669"
   xml:space="preserve"
   id="svg2"
   version="1.1"><metadata
     id="metadata8"><rdf:RDF><cc:Work
         rdf:about=""><dc:format>image/svg+xml</dc:format><dc:type
           rdf:resource="http://purl.org/dc/dcmitype/StillImage" /></cc:Work></rdf:RDF></metadata><defs
     id="defs6"><clipPath
       id="clipPath18"
       clipPathUnits="userSpaceOnUse"><path
         id="path16"
         d="M 0,250 H 500 V 0 H 0 Z" /></clipPath></defs><g
     transform="matrix(1.3333333,0,0,-1.3333333,0,333.33333)"
     id="g10"><g
       id="g12"><g
         clip-path="url(#clipPath18)"
         id="g14"><g
           transform="translate(44.9785,116.4785)"
           id="g20"><path
             id="path22"
             style="fill:#ffffff;fill-opacity:1;fill-rule:nonzero;stroke:none"
             d="m 0,0 c 0,-4.607 -0.432,-8.757 -1.296,-12.448 -0.864,-3.692 -2.33,-6.832 -4.398,-9.425 -2.069,-2.591 -4.779,-4.568 -8.129,-5.929 -3.351,-1.361 -7.488,-2.042 -12.408,-2.042 -1.571,0 -3.13,0.118 -4.674,0.354 -1.545,0.235 -2.958,0.537 -4.241,0.902 -1.283,0.366 -2.395,0.759 -3.337,1.179 -0.943,0.418 -1.571,0.798 -1.886,1.138 -0.313,0.34 -0.576,0.694 -0.785,1.061 -0.21,0.365 -0.392,0.85 -0.549,1.453 -0.157,0.601 -0.263,1.347 -0.315,2.237 -0.052,0.891 -0.078,2.016 -0.078,3.378 0,1.78 0.039,3.286 0.118,4.516 0.078,1.23 0.208,2.199 0.393,2.906 0.182,0.706 0.444,1.203 0.785,1.492 0.34,0.288 0.772,0.432 1.296,0.432 0.471,0 1.021,-0.171 1.649,-0.511 0.628,-0.34 1.335,-0.694 2.121,-1.06 0.785,-0.366 1.7,-0.72 2.748,-1.06 1.047,-0.342 2.278,-0.511 3.692,-0.511 1.413,0 2.656,0.197 3.73,0.589 1.073,0.393 1.963,1.073 2.67,2.042 0.707,0.969 1.244,2.265 1.61,3.888 0.366,1.622 0.55,3.717 0.55,6.283 v 69.82 c 0,0.523 0.17,0.982 0.51,1.374 0.34,0.393 0.89,0.719 1.65,0.982 0.758,0.261 1.818,0.458 3.18,0.589 1.362,0.13 3.037,0.196 5.027,0.196 1.989,0 3.638,-0.066 4.948,-0.196 1.308,-0.131 2.368,-0.328 3.18,-0.589 0.812,-0.263 1.387,-0.589 1.728,-0.982 C -0.171,71.666 0,71.207 0,70.684 Z" /></g><g
           transform="translate(132.2334,90.876)"
           id="g24"><path
             id="path26"
             style="fill:#ffffff;fill-opacity:1;fill-rule:nonzero;stroke:none"
             d="m 0,0 c 0,-0.524 -0.131,-0.982 -0.393,-1.375 -0.262,-0.393 -0.72,-0.72 -1.374,-0.981 -0.655,-0.263 -1.519,-0.458 -2.592,-0.589 -1.074,-0.131 -2.422,-0.197 -4.044,-0.197 -1.728,0 -3.13,0.066 -4.202,0.197 -1.074,0.131 -1.924,0.326 -2.553,0.589 -0.628,0.261 -1.073,0.588 -1.335,0.981 -0.262,0.393 -0.393,0.851 -0.393,1.375 v 8.089 c -3.875,-4.19 -7.814,-7.331 -11.82,-9.425 -4.005,-2.093 -8.155,-3.142 -12.448,-3.142 -4.817,0 -8.862,0.787 -12.134,2.357 -3.273,1.571 -5.917,3.717 -7.932,6.44 -2.016,2.722 -3.456,5.877 -4.319,9.464 -0.864,3.585 -1.296,8.05 -1.296,13.391 v 42.881 c 0,0.523 0.143,0.982 0.432,1.374 0.287,0.393 0.811,0.719 1.57,0.982 0.759,0.261 1.78,0.458 3.063,0.589 1.283,0.13 2.867,0.196 4.752,0.196 1.936,0 3.534,-0.066 4.791,-0.196 1.256,-0.131 2.264,-0.328 3.023,-0.589 0.759,-0.263 1.296,-0.589 1.61,-0.982 0.315,-0.392 0.471,-0.851 0.471,-1.374 V 30.472 c 0,-3.665 0.236,-6.467 0.707,-8.404 0.472,-1.937 1.191,-3.6 2.16,-4.987 0.968,-1.388 2.199,-2.461 3.692,-3.22 1.492,-0.759 3.232,-1.138 5.222,-1.138 2.513,0 5.039,0.915 7.579,2.749 2.539,1.832 5.249,4.502 8.129,8.01 v 46.573 c 0,0.523 0.143,0.982 0.432,1.374 0.287,0.393 0.811,0.719 1.57,0.982 0.758,0.261 1.767,0.458 3.024,0.589 1.256,0.13 2.853,0.196 4.791,0.196 1.936,0 3.534,-0.066 4.791,-0.196 1.256,-0.131 2.25,-0.328 2.984,-0.589 0.732,-0.263 1.256,-0.589 1.571,-0.982 C -0.157,71.037 0,70.578 0,70.055 Z" /></g><g
           transform="translate(263.5479,90.876)"
           id="g28"><path
             id="path30"
             style="fill:#ffffff;fill-opacity:1;fill-rule:nonzero;stroke:none"
             d="m 0,0 c 0,-0.524 -0.157,-0.982 -0.471,-1.375 -0.314,-0.393 -0.839,-0.72 -1.571,-0.981 -0.733,-0.263 -1.728,-0.458 -2.984,-0.589 -1.257,-0.131 -2.855,-0.197 -4.791,-0.197 -1.991,0 -3.613,0.066 -4.87,0.197 -1.256,0.131 -2.265,0.326 -3.023,0.589 -0.76,0.261 -1.284,0.588 -1.571,0.981 -0.288,0.393 -0.432,0.851 -0.432,1.375 v 41.545 c 0,2.357 -0.224,4.503 -0.667,6.441 -0.446,1.936 -1.127,3.599 -2.042,4.987 -0.917,1.387 -2.069,2.46 -3.456,3.22 -1.388,0.759 -3.051,1.139 -4.987,1.139 -2.356,0 -4.739,-0.917 -7.147,-2.749 -2.409,-1.833 -5.027,-4.504 -7.854,-8.011 V 0 c 0,-0.524 -0.157,-0.982 -0.471,-1.375 -0.314,-0.393 -0.852,-0.72 -1.61,-0.981 -0.76,-0.263 -1.767,-0.458 -3.024,-0.589 -1.257,-0.131 -2.827,-0.197 -4.712,-0.197 -1.938,0 -3.534,0.066 -4.791,0.197 -1.256,0.131 -2.265,0.326 -3.024,0.589 -0.759,0.261 -1.295,0.588 -1.609,0.981 -0.314,0.393 -0.472,0.851 -0.472,1.375 v 41.545 c 0,2.357 -0.223,4.503 -0.667,6.441 -0.445,1.936 -1.113,3.599 -2.003,4.987 -0.891,1.387 -2.042,2.46 -3.456,3.22 -1.413,0.759 -3.063,1.139 -4.947,1.139 -2.41,0 -4.818,-0.917 -7.226,-2.749 -2.409,-1.833 -5,-4.504 -7.775,-8.011 V 0 c 0,-0.524 -0.157,-0.982 -0.472,-1.375 -0.313,-0.393 -0.851,-0.72 -1.609,-0.981 -0.76,-0.263 -1.767,-0.458 -3.024,-0.589 -1.257,-0.131 -2.854,-0.197 -4.791,-0.197 -1.937,0 -3.534,0.066 -4.791,0.197 -1.256,0.131 -2.265,0.326 -3.023,0.589 -0.76,0.261 -1.296,0.588 -1.611,0.981 -0.314,0.393 -0.47,0.851 -0.47,1.375 v 70.055 c 0,0.523 0.13,0.982 0.392,1.374 0.261,0.393 0.733,0.719 1.414,0.982 0.68,0.261 1.557,0.458 2.631,0.589 1.072,0.13 2.421,0.196 4.045,0.196 1.674,0 3.063,-0.066 4.162,-0.196 1.099,-0.131 1.95,-0.328 2.552,-0.589 0.602,-0.263 1.034,-0.589 1.296,-0.982 0.262,-0.392 0.393,-0.851 0.393,-1.374 v -8.09 c 3.874,4.189 7.736,7.33 11.584,9.425 3.849,2.093 7.866,3.141 12.056,3.141 2.878,0 5.47,-0.302 7.775,-0.903 2.303,-0.602 4.359,-1.466 6.165,-2.591 1.806,-1.127 3.364,-2.474 4.673,-4.045 1.308,-1.571 2.408,-3.325 3.299,-5.262 2.093,2.25 4.149,4.188 6.165,5.812 2.015,1.622 4.005,2.945 5.968,3.966 1.964,1.021 3.928,1.779 5.891,2.277 1.963,0.497 3.966,0.746 6.008,0.746 4.66,0 8.586,-0.785 11.781,-2.356 3.193,-1.571 5.772,-3.705 7.736,-6.4 1.963,-2.698 3.363,-5.852 4.201,-9.464 C -0.42,52.698 0,48.875 0,44.844 Z" /></g><g
           transform="translate(332.8965,125.5103)"
           id="g32"><path
             id="path34"
             style="fill:#ffffff;fill-opacity:1;fill-rule:nonzero;stroke:none"
             d="m 0,0 c 0,2.985 -0.224,5.852 -0.668,8.6 -0.445,2.749 -1.205,5.196 -2.277,7.343 -1.075,2.147 -2.489,3.861 -4.242,5.144 -1.754,1.283 -3.94,1.925 -6.557,1.925 -1.31,0 -2.606,-0.197 -3.888,-0.589 -1.284,-0.393 -2.592,-1.035 -3.927,-1.924 -1.336,-0.892 -2.71,-2.042 -4.123,-3.456 -1.414,-1.414 -2.906,-3.168 -4.477,-5.262 v -23.09 c 2.775,-3.509 5.419,-6.218 7.932,-8.129 2.514,-1.912 5.131,-2.866 7.854,-2.866 2.565,0 4.752,0.654 6.558,1.963 1.806,1.308 3.285,3.023 4.437,5.144 1.151,2.12 2.003,4.516 2.553,7.187 C -0.275,-5.34 0,-2.67 0,0 m 20.576,1.414 c 0,-6.232 -0.667,-11.847 -2.003,-16.846 -1.335,-5.001 -3.286,-9.255 -5.85,-12.763 -2.566,-3.508 -5.761,-6.204 -9.582,-8.089 -3.823,-1.885 -8.195,-2.828 -13.116,-2.828 -2.042,0 -3.915,0.196 -5.615,0.59 -1.702,0.393 -3.351,0.995 -4.948,1.806 -1.598,0.811 -3.181,1.819 -4.751,3.024 -1.571,1.203 -3.194,2.617 -4.87,4.24 v -32.985 c 0,-0.522 -0.156,-0.994 -0.471,-1.413 -0.314,-0.419 -0.851,-0.773 -1.61,-1.061 -0.76,-0.287 -1.767,-0.51 -3.024,-0.668 -1.257,-0.157 -2.854,-0.235 -4.791,-0.235 -1.937,0 -3.534,0.078 -4.791,0.235 -1.256,0.158 -2.264,0.381 -3.023,0.668 -0.76,0.288 -1.296,0.642 -1.61,1.061 -0.314,0.419 -0.471,0.891 -0.471,1.413 V 35.42 c 0,0.523 0.13,0.982 0.392,1.375 0.262,0.393 0.72,0.719 1.374,0.982 0.655,0.261 1.519,0.457 2.592,0.589 1.073,0.13 2.422,0.196 4.045,0.196 1.571,0 2.893,-0.066 3.967,-0.196 1.072,-0.132 1.935,-0.328 2.592,-0.589 0.653,-0.263 1.111,-0.589 1.374,-0.982 0.261,-0.393 0.392,-0.852 0.392,-1.375 v -8.246 c 2.042,2.094 4.045,3.939 6.008,5.537 1.964,1.597 3.967,2.932 6.009,4.005 2.042,1.073 4.148,1.872 6.322,2.396 2.172,0.522 4.488,0.785 6.95,0.785 5.131,0 9.503,-1.009 13.117,-3.023 3.612,-2.017 6.557,-4.779 8.835,-8.286 2.277,-3.508 3.939,-7.592 4.987,-12.252 1.047,-4.661 1.57,-9.634 1.57,-14.922" /></g><g
           transform="translate(391.1709,91.0322)"
           id="g36"><path
             id="path38"
             style="fill:#ffffff;fill-opacity:1;fill-rule:nonzero;stroke:none"
             d="m 0,0 c 0,-0.523 -0.171,-0.995 -0.511,-1.413 -0.341,-0.42 -0.903,-0.76 -1.688,-1.022 -0.785,-0.262 -1.833,-0.47 -3.142,-0.628 -1.309,-0.157 -2.984,-0.235 -5.026,-0.235 -1.99,0 -3.652,0.078 -4.987,0.235 -1.335,0.158 -2.396,0.366 -3.181,0.628 -0.785,0.262 -1.349,0.602 -1.689,1.022 -0.34,0.418 -0.509,0.89 -0.509,1.413 v 95.973 c 0,0.523 0.169,0.994 0.509,1.414 0.34,0.418 0.915,0.758 1.728,1.021 0.811,0.261 1.872,0.471 3.182,0.628 1.307,0.157 2.957,0.235 4.947,0.235 2.042,0 3.717,-0.078 5.026,-0.235 1.309,-0.157 2.357,-0.367 3.142,-0.628 0.785,-0.263 1.347,-0.603 1.688,-1.021 C -0.171,96.967 0,96.496 0,95.973 Z" /></g><g
           transform="translate(497.1172,95.4307)"
           id="g40"><path
             id="path42"
             style="fill:#ffffff;fill-opacity:1;fill-rule:nonzero;stroke:none"
             d="M 0,0 C 0,-1.205 -0.209,-2.277 -0.628,-3.22 -1.048,-4.162 -1.609,-4.948 -2.316,-5.576 -3.023,-6.204 -3.861,-6.663 -4.83,-6.95 -5.799,-7.237 -6.781,-7.383 -7.774,-7.383 h -8.796 c -1.834,0 -3.417,0.184 -4.752,0.55 -1.335,0.366 -2.567,1.033 -3.692,2.003 -1.127,0.968 -2.213,2.277 -3.259,3.927 -1.048,1.649 -2.226,3.782 -3.535,6.4 l -25.288,47.516 c -1.467,2.827 -2.959,5.877 -4.477,9.149 -1.519,3.272 -2.88,6.452 -4.083,9.543 h -0.157 c 0.208,-3.77 0.365,-7.528 0.47,-11.27 0.105,-3.745 0.157,-7.606 0.157,-11.585 V -4.319 c 0,-0.525 -0.144,-0.995 -0.431,-1.414 -0.289,-0.42 -0.785,-0.774 -1.492,-1.061 -0.707,-0.288 -1.663,-0.51 -2.867,-0.667 -1.206,-0.157 -2.749,-0.235 -4.634,-0.235 -1.833,0 -3.351,0.078 -4.555,0.235 -1.205,0.157 -2.148,0.379 -2.827,0.667 -0.682,0.287 -1.153,0.641 -1.414,1.061 -0.263,0.419 -0.393,0.889 -0.393,1.414 V 87.02 c 0,2.459 0.719,4.305 2.16,5.536 1.44,1.23 3.206,1.846 5.301,1.846 h 11.074 c 1.99,0 3.664,-0.171 5.027,-0.511 1.36,-0.341 2.578,-0.903 3.651,-1.688 1.073,-0.786 2.081,-1.873 3.024,-3.26 0.943,-1.387 1.911,-3.102 2.906,-5.144 l 19.791,-37.148 c 1.151,-2.252 2.29,-4.464 3.417,-6.636 1.126,-2.174 2.212,-4.347 3.259,-6.519 1.047,-2.173 2.068,-4.307 3.063,-6.4 0.994,-2.095 1.964,-4.19 2.906,-6.284 h 0.078 c -0.157,3.665 -0.275,7.487 -0.353,11.467 -0.078,3.978 -0.117,7.775 -0.117,11.388 v 47.672 c 0,0.522 0.157,0.994 0.47,1.414 0.315,0.418 0.837,0.785 1.572,1.099 0.732,0.314 1.7,0.536 2.905,0.668 1.204,0.13 2.749,0.196 4.634,0.196 1.779,0 3.271,-0.066 4.476,-0.196 1.204,-0.132 2.133,-0.354 2.788,-0.668 0.655,-0.314 1.113,-0.681 1.375,-1.099 C -0.131,92.333 0,91.861 0,91.339 Z" /></g></g></g></g></svg>