<?xml version="1.0" encoding="UTF-8" standalone="no"?>
<svg
   xmlns:dc="http://purl.org/dc/elements/1.1/"
   xmlns:cc="http://creativecommons.org/ns#"
   xmlns:rdf="http://www.w3.org/1999/02/22-rdf-syntax-ns#"
   xmlns:svg="http://www.w3.org/2000/svg"
   xmlns="http://www.w3.org/2000/svg"
   viewBox="0 0 1066.6667 1133.3333"
   height="1133.3333"
   width="1066.6667"
   xml:space="preserve"
   id="svg2"
   version="1.1"><metadata
     id="metadata8"><rdf:RDF><cc:Work
         rdf:about=""><dc:format>image/svg+xml</dc:format><dc:type
           rdf:resource="http://purl.org/dc/dcmitype/StillImage" /></cc:Work></rdf:RDF></metadata><defs
     id="defs6"><clipPath
       id="clipPath18"
       clipPathUnits="userSpaceOnUse"><path
         id="path16"
         d="M 0,850 H 800 V 0 H 0 Z" /></clipPath><clipPath
       id="clipPath238"
       clipPathUnits="userSpaceOnUse"><path
         id="path236"
         d="m 344.108,592.537 h 8.844 v -4.226 h -8.844 z" /></clipPath><clipPath
       id="clipPath286"
       clipPathUnits="userSpaceOnUse"><path
         id="path284"
         d="m 246.575,592.537 h 8.844 v -4.226 h -8.844 z" /></clipPath><clipPath
       id="clipPath334"
       clipPathUnits="userSpaceOnUse"><path
         id="path332"
         d="m 149.042,592.537 h 8.844 v -4.226 h -8.844 z" /></clipPath><clipPath
       id="clipPath386"
       clipPathUnits="userSpaceOnUse"><path
         id="path384"
         d="m 395.728,166.344 h 8.844 v -4.226 h -8.844 z" /></clipPath><clipPath
       id="clipPath438"
       clipPathUnits="userSpaceOnUse"><path
         id="path436"
         d="m 493.26,166.344 h 8.844 v -4.226 h -8.844 z" /></clipPath><clipPath
       id="clipPath490"
       clipPathUnits="userSpaceOnUse"><path
         id="path488"
         d="m 297.896,166.344 h 8.844 v -4.226 h -8.844 z" /></clipPath><clipPath
       id="clipPath534"
       clipPathUnits="userSpaceOnUse"><path
         id="path532"
         d="m 308.616,337.473 h 8.844 v -4.226 h -8.844 z" /></clipPath></defs><g
     transform="matrix(1.3333333,0,0,-1.3333333,0,1133.3333)"
     id="g10"><g
       id="g12"><g
         clip-path="url(#clipPath18)"
         id="g14"><g
           transform="translate(892.9326,777.5137)"
           id="g20"><path
             id="path22"
             style="fill:none;stroke:#ffffff;stroke-width:5;stroke-linecap:butt;stroke-linejoin:miter;stroke-miterlimit:10;stroke-dasharray:none;stroke-opacity:1"
             d="m 0,0 c 0,-61.48 -49.839,-111.319 -111.319,-111.319 -61.48,0 -111.32,49.839 -111.32,111.319 0,61.48 49.84,111.319 111.32,111.319 C -49.839,111.319 0,61.48 0,0 Z" /></g><g
           transform="translate(754.6914,167.0879)"
           id="g24"><path
             id="path26"
             style="fill:none;stroke:#ffffff;stroke-width:5;stroke-linecap:butt;stroke-linejoin:miter;stroke-miterlimit:10;stroke-dasharray:none;stroke-opacity:1"
             d="m 0,0 -22.658,-6.389 c -3.071,-0.866 -5.52,-3.187 -6.548,-6.209 l -7.582,-22.287 c -2.588,-7.608 -12.777,-8.946 -17.241,-2.263 l -13.078,19.575 c -1.773,2.653 -4.739,4.264 -7.929,4.308 l -23.539,0.324 c -8.036,0.111 -12.457,9.387 -7.482,15.698 l 14.577,18.487 c 1.975,2.506 2.591,5.824 1.647,8.872 l -6.966,22.488 c -2.378,7.676 5.078,14.748 12.618,11.965 l 22.086,-8.149 c 2.994,-1.105 6.34,-0.665 8.948,1.175 l 19.234,13.574 c 6.565,4.634 15.595,-0.273 15.279,-8.304 L -19.56,39.342 c -0.126,-3.189 1.327,-6.236 3.882,-8.147 L 3.176,17.098 C 9.611,12.285 7.735,2.182 0,0 Z" /></g><g
           transform="translate(137.0381,343.6465)"
           id="g28"><path
             id="path30"
             style="fill:none;stroke:#ffffff;stroke-width:5;stroke-linecap:butt;stroke-linejoin:miter;stroke-miterlimit:10;stroke-dasharray:none;stroke-opacity:1"
             d="m 0,0 -27.625,-15.949 c -11.479,-6.628 -26.157,-2.696 -32.785,8.784 L -76.359,20.46 c -6.627,11.478 -2.694,26.157 8.785,32.784 l 27.625,15.949 c 11.479,6.628 26.157,2.696 32.784,-8.784 L 8.785,32.784 C 15.412,21.306 11.479,6.627 0,0 Z" /></g><g
           transform="translate(456.8682,412.5264)"
           id="g32"><path
             id="path34"
             style="fill:#ffffff;fill-opacity:1;fill-rule:nonzero;stroke:none"
             d="m 0,0 c -1.782,5.444 -4.225,10.653 -7.266,15.51 -3.04,4.857 -6.678,9.362 -10.838,13.408 -1.611,1.563 -4.655,1.317 -5.366,-0.339 -1.291,-2.905 -2.581,-5.809 -3.871,-8.715 -28.182,9.848 -60.377,4.151 -83.399,-16.731 -2.366,-2.16 -3.366,-4.867 -2.377,-5.821 0.993,-0.958 3.512,-0.076 5.742,1.76 21.875,18.224 51.291,22.238 76.305,12.399 -1.29,-2.906 -2.58,-5.811 -3.871,-8.716 -0.709,-1.648 0.439,-3.458 2.125,-3.33 4.45,0.35 9.161,0.364 14.098,-0.065 4.938,-0.429 10.102,-1.301 15.443,-2.734 C -1.241,-3.935 0.682,-2.104 0,0" /></g><g
           transform="translate(581.5752,623.9028)"
           id="g36"><path
             id="path38"
             style="fill:#149a49;fill-opacity:1;fill-rule:nonzero;stroke:none"
             d="m 0,0 v -29.742 c 0,-5.523 -4.478,-10 -10,-10 h -79.485 c -5.523,0 -10,4.477 -10,10 V 0 c 0,5.523 4.477,10 10,10 L -10,10 C -4.478,10 0,5.523 0,0" /></g><g
           transform="translate(581.5752,623.9028)"
           id="g40"><path
             id="path42"
             style="fill:none;stroke:#ffffff;stroke-width:1.74100006;stroke-linecap:butt;stroke-linejoin:miter;stroke-miterlimit:10;stroke-dasharray:none;stroke-opacity:1"
             d="m 0,0 v -29.742 c 0,-5.523 -4.478,-10 -10,-10 h -79.485 c -5.523,0 -10,4.477 -10,10 V 0 c 0,5.523 4.477,10 10,10 L -10,10 C -4.478,10 0,5.523 0,0 Z" /></g><g
           transform="translate(560.9629,621.4478)"
           id="g44"><path
             id="path46"
             style="fill:#ffffff;fill-opacity:1;fill-rule:nonzero;stroke:none"
             d="M 0,0 C -1.128,1.208 -2.389,1.773 -3.688,1.937 -5.002,2.102 -6.16,1.085 -6.16,-0.205 v -12.211 -12.211 c 0,-1.29 1.158,-2.307 2.472,-2.142 1.299,0.164 2.56,0.729 3.688,1.937 9.479,10.149 17.393,7.602 17.393,12.416 C 17.393,-7.602 9.479,-10.149 0,0" /></g><g
           transform="translate(578.3555,609.0317)"
           id="g48"><path
             id="path50"
             style="fill:#ffffff;fill-opacity:1;fill-rule:nonzero;stroke:none"
             d="M 0,0 C 0,-1.62 -0.896,-2.406 -2.444,-3.123 V 3.123 C -0.896,2.406 0,1.62 0,0" /></g><g
           transform="translate(548.417,597.6841)"
           id="g52"><path
             id="path54"
             style="fill:#db5727;fill-opacity:1;fill-rule:nonzero;stroke:none"
             d="m 0,0 v 0 c 1.957,0 3.543,1.365 3.543,3.049 v 16.597 c 0,1.685 -1.586,3.049 -3.543,3.049 -1.956,0 -5.261,-1.364 -5.261,-3.049 V 3.049 C -5.261,1.365 -1.956,0 0,0" /></g><path
           id="path56"
           style="fill:#db5727;fill-opacity:1;fill-rule:nonzero;stroke:none"
           d="m 557.187,600.161 h -6.285 v 17.929 h 6.285 z" /><g
           transform="translate(507.1094,616.1069)"
           id="g58"><path
             id="path60"
             style="fill:#ffffff;fill-opacity:1;fill-rule:nonzero;stroke:none"
             d="m 0,0 c 12.199,0 22.088,-3.125 22.088,-6.981 0,-3.856 -9.889,-6.982 -22.088,-6.982 -12.199,0 -22.088,3.126 -22.088,6.982 C -22.088,-3.125 -12.199,0 0,0" /></g><g
           transform="translate(529.1982,609.125)"
           id="g62"><path
             id="path64"
             style="fill:#db5727;fill-opacity:1;fill-rule:nonzero;stroke:none"
             d="m 0,0 c 0,-3.808 -9.648,-6.904 -21.642,-6.979 1.114,0.436 1.888,0.962 1.888,1.693 0,2.609 -9.849,2.609 -9.849,5.217 0,2.608 9.849,2.608 9.849,5.216 0,0.812 -0.954,1.371 -2.267,1.835 C -9.854,6.97 0,3.849 0,0" /></g><g
           transform="translate(560.9629,617.251)"
           id="g66"><path
             id="path68"
             style="fill:#db5727;fill-opacity:1;fill-rule:nonzero;stroke:none"
             d="M 0,0 C -1.873,2.208 -4.026,4.247 -6.16,3.784 V -8.219 -20.222 c 2.134,-0.463 4.287,1.575 6.16,3.784 8.358,9.855 17.393,2.679 17.393,8.219 C 17.393,-2.776 8.358,-9.856 0,0" /></g><g
           transform="translate(578.6436,609.0317)"
           id="g70"><path
             id="path72"
             style="fill:#232323;fill-opacity:1;fill-rule:nonzero;stroke:none"
             d="M 0,0 C 0,-1.62 -1.001,-2.406 -2.732,-3.123 V 3.123 C -1.001,2.406 0,1.62 0,0" /></g><g
           transform="translate(521.1143,595.7017)"
           id="g74"><path
             id="path76"
             style="fill:#db5727;fill-opacity:1;fill-rule:nonzero;stroke:none"
             d="M 0,0 H 0.569 C 3.04,0 5.043,1.95 5.043,4.356 v 17.948 c 0,2.406 -2.003,4.356 -4.474,4.356 L 0,26.66 C -10.266,26.66 -10.266,0 0,0" /></g><g
           transform="translate(558.4365,609.0317)"
           id="g78"><path
             id="path80"
             style="fill:#db5727;fill-opacity:1;fill-rule:nonzero;stroke:none"
             d="m 0,0 c 0,-5.855 -16.975,-10.602 -26.599,-10.602 -9.624,0 -17.424,4.747 -17.424,10.602 0,5.855 7.8,10.602 17.424,10.602 C -16.975,10.602 0,5.855 0,0" /></g><g
           transform="translate(554.8027,615.0225)"
           id="g82"><path
             id="path84"
             style="fill:#ffffff;fill-opacity:1;fill-rule:nonzero;stroke:none"
             d="m 0,0 v -4.165 c -2.346,0 -4.277,3.792 -4.277,6.077 0,2.423 2.838,2.253 4.277,2.253 z" /></g><g
           transform="translate(554.8027,603.041)"
           id="g86"><path
             id="path88"
             style="fill:#ffffff;fill-opacity:1;fill-rule:nonzero;stroke:none"
             d="m 0,0 v 4.165 c -2.346,0 -4.277,-3.792 -4.277,-6.077 0,-2.423 2.838,-2.253 4.277,-2.253 z" /></g><g
           transform="translate(566.1562,613.9185)"
           id="g90"><path
             id="path92"
             style="fill:#262626;fill-opacity:1;fill-rule:nonzero;stroke:none"
             d="m 0,0 c 0,-0.768 -0.994,-1.391 -2.221,-1.391 -1.226,0 -2.22,0.623 -2.22,1.391 0,0.768 0.994,1.39 2.22,1.39 C -0.994,1.39 0,0.768 0,0" /></g><g
           transform="translate(566.1562,604.145)"
           id="g94"><path
             id="path96"
             style="fill:#262626;fill-opacity:1;fill-rule:nonzero;stroke:none"
             d="m 0,0 c 0,-0.768 -0.994,-1.39 -2.221,-1.39 -1.226,0 -2.22,0.622 -2.22,1.39 0,0.768 0.994,1.391 2.22,1.391 C -0.994,1.391 0,0.768 0,0" /></g><g
           transform="translate(680.0654,566.0454)"
           id="g98"><path
             id="path100"
             style="fill:#149a49;fill-opacity:1;fill-rule:nonzero;stroke:none"
             d="m 0,0 h -67.059 c -5.523,0 -10,4.477 -10,10 v 67.059 c 0,5.523 4.477,10 10,10 H 0 c 5.522,0 10,-4.477 10,-10 V 10 C 10,4.477 5.522,0 0,0" /></g><g
           transform="translate(680.0654,566.0454)"
           id="g102"><path
             id="path104"
             style="fill:none;stroke:#ffffff;stroke-width:1.74100006;stroke-linecap:butt;stroke-linejoin:miter;stroke-miterlimit:10;stroke-dasharray:none;stroke-opacity:1"
             d="m 0,0 h -67.059 c -5.523,0 -10,4.477 -10,10 v 67.059 c 0,5.523 4.477,10 10,10 H 0 c 5.522,0 10,-4.477 10,-10 V 10 C 10,4.477 5.522,0 0,0 Z" /></g><g
           transform="translate(677.6533,609.5747)"
           id="g106"><path
             id="path108"
             style="fill:#c52928;fill-opacity:1;fill-rule:nonzero;stroke:none"
             d="m 0,0 c 0,-17.186 -13.932,-31.118 -31.117,-31.118 -17.186,0 -31.118,13.932 -31.118,31.118 0,17.186 13.932,31.118 31.118,31.118 C -13.932,31.118 0,17.186 0,0" /></g><g
           transform="translate(652.6484,609.5747)"
           id="g110"><path
             id="path112"
             style="fill:#ffffff;fill-opacity:1;fill-rule:nonzero;stroke:none"
             d="m 0,0 c 0,-3.376 -2.736,-6.112 -6.112,-6.112 -3.376,0 -6.113,2.736 -6.113,6.112 0,3.376 2.737,6.112 6.113,6.112 C -2.736,6.112 0,3.376 0,0" /></g><g
           transform="translate(652.6484,629.9492)"
           id="g114"><path
             id="path116"
             style="fill:#ffffff;fill-opacity:1;fill-rule:nonzero;stroke:none"
             d="m 0,0 c 0,-3.375 -2.736,-6.112 -6.112,-6.112 -3.376,0 -6.113,2.737 -6.113,6.112 0,3.376 2.737,6.113 6.113,6.113 C -2.736,6.113 0,3.376 0,0" /></g><g
           transform="translate(652.6484,589.2002)"
           id="g118"><path
             id="path120"
             style="fill:#ffffff;fill-opacity:1;fill-rule:nonzero;stroke:none"
             d="m 0,0 c 0,-3.376 -2.736,-6.112 -6.112,-6.112 -3.376,0 -6.113,2.736 -6.113,6.112 0,3.375 2.737,6.112 6.113,6.112 C -2.736,6.112 0,3.375 0,0" /></g><g
           transform="translate(625.835,604.6812)"
           id="g122"><path
             id="path124"
             style="fill:#ffffff;fill-opacity:1;fill-rule:nonzero;stroke:none"
             d="M 0,0 C 2.924,1.687 6.662,0.686 8.35,-2.237 10.037,-5.161 9.036,-8.899 6.112,-10.587 3.188,-12.275 -0.55,-11.273 -2.237,-8.35 -3.926,-5.426 -2.924,-1.688 0,0" /></g><g
           transform="translate(661.125,625.0557)"
           id="g126"><path
             id="path128"
             style="fill:#ffffff;fill-opacity:1;fill-rule:nonzero;stroke:none"
             d="M 0,0 C 2.923,1.688 6.661,0.686 8.35,-2.237 10.037,-5.161 9.036,-8.899 6.112,-10.587 3.188,-12.275 -0.55,-11.273 -2.237,-8.35 -3.926,-5.426 -2.924,-1.688 0,0" /></g><g
           transform="translate(661.125,594.0937)"
           id="g130"><path
             id="path132"
             style="fill:#ffffff;fill-opacity:1;fill-rule:nonzero;stroke:none"
             d="m 0,0 c -2.924,1.688 -3.926,5.426 -2.237,8.35 1.687,2.923 5.425,3.925 8.349,2.237 C 9.036,8.899 10.037,5.161 8.35,2.237 6.661,-0.686 2.923,-1.687 0,0" /></g><g
           transform="translate(625.835,614.4687)"
           id="g134"><path
             id="path136"
             style="fill:#ffffff;fill-opacity:1;fill-rule:nonzero;stroke:none"
             d="m 0,0 c -2.924,1.687 -3.926,5.426 -2.237,8.35 1.687,2.923 5.425,3.925 8.349,2.237 C 9.036,8.899 10.037,5.161 8.35,2.237 6.662,-0.687 2.924,-1.688 0,0" /></g><g
           transform="translate(461.8223,559.2891)"
           id="g138"><path
             id="path140"
             style="fill:#149a49;fill-opacity:1;fill-rule:nonzero;stroke:none"
             d="m 0,0 h -29.743 c -5.523,0 -10,4.477 -10,10 v 79.485 c 0,5.523 4.477,10 10,10 H 0 c 5.522,0 10,-4.477 10,-10 L 10,10 C 10,4.477 5.522,0 0,0" /></g><g
           transform="translate(461.8223,559.2891)"
           id="g142"><path
             id="path144"
             style="fill:none;stroke:#ffffff;stroke-width:1.74100006;stroke-linecap:butt;stroke-linejoin:miter;stroke-miterlimit:10;stroke-dasharray:none;stroke-opacity:1"
             d="m 0,0 h -29.743 c -5.523,0 -10,4.477 -10,10 v 79.485 c 0,5.523 4.477,10 10,10 H 0 c 5.522,0 10,-4.477 10,-10 L 10,10 C 10,4.477 5.522,0 0,0 Z" /></g><g
           transform="translate(459.3662,579.9014)"
           id="g146"><path
             id="path148"
             style="fill:#ffffff;fill-opacity:1;fill-rule:nonzero;stroke:none"
             d="M 0,0 C 1.208,1.127 1.774,2.388 1.937,3.687 2.103,5.001 1.086,6.16 -0.204,6.16 h -12.211 -12.211 c -1.291,0 -2.307,-1.159 -2.142,-2.473 0.164,-1.299 0.729,-2.56 1.937,-3.687 10.149,-9.479 7.602,-17.393 12.416,-17.393 4.814,0 2.267,7.914 12.415,17.393" /></g><g
           transform="translate(446.9512,562.5088)"
           id="g150"><path
             id="path152"
             style="fill:#ffffff;fill-opacity:1;fill-rule:nonzero;stroke:none"
             d="M 0,0 C -1.62,0 -2.406,0.895 -3.123,2.444 H 3.123 C 2.405,0.895 1.619,0 0,0" /></g><g
           transform="translate(435.6025,592.4468)"
           id="g154"><path
             id="path156"
             style="fill:#db5727;fill-opacity:1;fill-rule:nonzero;stroke:none"
             d="m 0,0 v 0 c 0,-1.957 1.365,-3.542 3.049,-3.542 h 16.598 c 1.684,0 3.049,1.585 3.049,3.542 0,1.957 -1.365,5.261 -3.049,5.261 H 3.049 C 1.365,5.261 0,1.957 0,0" /></g><path
           id="path158"
           style="fill:#db5727;fill-opacity:1;fill-rule:nonzero;stroke:none"
           d="m 438.08,589.962 h 17.929 v -6.285 H 438.08 Z" /><g
           transform="translate(454.0264,633.7549)"
           id="g160"><path
             id="path162"
             style="fill:#ffffff;fill-opacity:1;fill-rule:nonzero;stroke:none"
             d="m 0,0 c 0,-12.199 -3.126,-22.088 -6.981,-22.088 -3.857,0 -6.982,9.889 -6.982,22.088 0,12.199 3.125,22.088 6.982,22.088 C -3.126,22.088 0,12.199 0,0" /></g><g
           transform="translate(447.0439,611.6665)"
           id="g164"><path
             id="path166"
             style="fill:#db5727;fill-opacity:1;fill-rule:nonzero;stroke:none"
             d="m 0,0 c -3.808,0 -6.904,9.648 -6.979,21.641 0.436,-1.114 0.962,-1.887 1.693,-1.887 2.609,0 2.609,9.848 5.217,9.848 2.608,0 2.608,-9.848 5.216,-9.848 0.812,0 1.372,0.953 1.835,2.267 C 6.971,9.853 3.849,0 0,0" /></g><g
           transform="translate(455.1699,579.9014)"
           id="g168"><path
             id="path170"
             style="fill:#db5727;fill-opacity:1;fill-rule:nonzero;stroke:none"
             d="M 0,0 C 2.209,1.873 4.247,4.026 3.783,6.16 H -8.219 -20.222 c -0.463,-2.134 1.576,-4.287 3.784,-6.16 9.856,-8.358 2.679,-17.393 8.219,-17.393 5.443,0 -1.636,9.035 8.219,17.393" /></g><g
           transform="translate(446.9512,562.2207)"
           id="g172"><path
             id="path174"
             style="fill:#232323;fill-opacity:1;fill-rule:nonzero;stroke:none"
             d="M 0,0 C -1.62,0 -2.406,1 -3.123,2.732 H 3.123 C 2.405,1 1.619,0 0,0" /></g><g
           transform="translate(433.6201,619.75)"
           id="g176"><path
             id="path178"
             style="fill:#db5727;fill-opacity:1;fill-rule:nonzero;stroke:none"
             d="M 0,0 V -0.569 C 0,-3.04 1.951,-5.043 4.356,-5.043 h 17.949 c 2.406,0 4.356,2.003 4.356,4.474 V 0 C 26.661,10.266 0.001,10.266 0,0" /></g><g
           transform="translate(446.9512,582.4272)"
           id="g180"><path
             id="path182"
             style="fill:#db5727;fill-opacity:1;fill-rule:nonzero;stroke:none"
             d="m 0,0 c -5.855,0 -10.603,16.975 -10.603,26.599 0,9.624 4.748,17.425 10.603,17.425 5.854,0 10.602,-7.801 10.602,-17.425 C 10.602,16.975 5.854,0 0,0" /></g><g
           transform="translate(452.9414,586.061)"
           id="g184"><path
             id="path186"
             style="fill:#ffffff;fill-opacity:1;fill-rule:nonzero;stroke:none"
             d="m 0,0 h -4.164 c 0,2.347 3.792,4.277 6.076,4.277 2.423,0 2.253,-2.838 2.253,-4.277 z" /></g><g
           transform="translate(440.96,586.061)"
           id="g188"><path
             id="path190"
             style="fill:#ffffff;fill-opacity:1;fill-rule:nonzero;stroke:none"
             d="m 0,0 h 4.165 c 0,2.347 -3.792,4.277 -6.077,4.277 -2.423,0 -2.252,-2.838 -2.252,-4.277 z" /></g><g
           transform="translate(451.8369,574.708)"
           id="g192"><path
             id="path194"
             style="fill:#262626;fill-opacity:1;fill-rule:nonzero;stroke:none"
             d="m 0,0 c -0.768,0 -1.39,0.994 -1.39,2.221 0,1.226 0.622,2.22 1.39,2.22 0.769,0 1.391,-0.994 1.391,-2.22 C 1.391,0.994 0.769,0 0,0" /></g><g
           transform="translate(442.0645,574.708)"
           id="g196"><path
             id="path198"
             style="fill:#262626;fill-opacity:1;fill-rule:nonzero;stroke:none"
             d="m 0,0 c -0.768,0 -1.391,0.994 -1.391,2.221 0,1.226 0.623,2.22 1.391,2.22 0.768,0 1.391,-0.994 1.391,-2.22 C 1.391,0.994 0.768,0 0,0" /></g><g
           transform="translate(382.0591,565.5024)"
           id="g200"><path
             id="path202"
             style="fill:#149a49;fill-opacity:1;fill-rule:nonzero;stroke:none"
             d="m 0,0 h -67.059 c -5.523,0 -10,4.477 -10,10 v 67.059 c 0,5.523 4.477,10 10,10 H 0 c 5.522,0 10,-4.477 10,-10 V 10 C 10,4.477 5.522,0 0,0" /></g><g
           transform="translate(382.0591,565.5024)"
           id="g204"><path
             id="path206"
             style="fill:none;stroke:#ffffff;stroke-width:1.74100006;stroke-linecap:butt;stroke-linejoin:miter;stroke-miterlimit:10;stroke-dasharray:none;stroke-opacity:1"
             d="m 0,0 h -67.059 c -5.523,0 -10,4.477 -10,10 v 67.059 c 0,5.523 4.477,10 10,10 H 0 c 5.522,0 10,-4.477 10,-10 V 10 C 10,4.477 5.522,0 0,0 Z" /></g><g
           transform="translate(377.2944,609.0317)"
           id="g208"><path
             id="path210"
             style="fill:#0b8041;fill-opacity:1;fill-rule:nonzero;stroke:none"
             d="m 0,0 c 0,-15.886 -12.878,-28.765 -28.765,-28.765 -15.886,0 -28.765,12.879 -28.765,28.765 0,15.886 12.879,28.765 28.765,28.765 C -12.878,28.765 0,15.886 0,0" /></g><g
           transform="translate(370.7886,606.0811)"
           id="g212"><path
             id="path214"
             style="fill:#ef8440;fill-opacity:1;fill-rule:nonzero;stroke:none"
             d="m 0,0 c 0,-12.293 -9.965,-22.259 -22.259,-22.259 -12.293,0 -22.259,9.966 -22.259,22.259 0,12.293 9.966,22.259 22.259,22.259 C -9.965,22.259 0,12.293 0,0" /></g><g
           transform="translate(327.5737,645.3091)"
           id="g216"><path
             id="path218"
             style="fill:#ef8440;fill-opacity:1;fill-rule:nonzero;stroke:none"
             d="M 0,0 C 4.625,2.67 20.656,-28.094 20.656,-28.094 L 7.422,-35.734 C 7.422,-35.734 -6.863,-3.962 0,0" /></g><g
           transform="translate(369.4854,645.3091)"
           id="g220"><path
             id="path222"
             style="fill:#ef8440;fill-opacity:1;fill-rule:nonzero;stroke:none"
             d="m 0,0 c -4.625,2.67 -20.656,-28.094 -20.656,-28.094 l 13.234,-7.64 c 0,0 14.285,31.772 7.422,35.734" /></g><g
           transform="translate(341.8882,602.0508)"
           id="g224"><path
             id="path226"
             style="fill:#282827;fill-opacity:1;fill-rule:nonzero;stroke:none"
             d="m 0,0 c 0,-2.226 -1.018,-4.03 -2.274,-4.03 -1.256,0 -2.274,1.804 -2.274,4.03 0,2.226 1.018,4.03 2.274,4.03 C -1.018,4.03 0,2.226 0,0" /></g><g
           transform="translate(359.7187,602.0508)"
           id="g228"><path
             id="path230"
             style="fill:#282827;fill-opacity:1;fill-rule:nonzero;stroke:none"
             d="m 0,0 c 0,-2.226 -1.018,-4.03 -2.274,-4.03 -1.256,0 -2.274,1.804 -2.274,4.03 0,2.226 1.018,4.03 2.274,4.03 C -1.018,4.03 0,2.226 0,0" /></g><g
           id="g232"><g
             id="g234" /><g
             id="g246"><g
               style="opacity:0.13999903"
               id="g244"
               clip-path="url(#clipPath238)"><g
                 id="g242"
                 transform="translate(352.9517,590.4238)"><path
                   id="path240"
                   style="fill:#000000;fill-opacity:1;fill-rule:nonzero;stroke:none"
                   d="m 0,0 c 0,-1.167 -1.98,-2.113 -4.422,-2.113 -2.442,0 -4.422,0.946 -4.422,2.113 0,1.167 1.98,2.113 4.422,2.113 C -1.98,2.113 0,1.167 0,0" /></g></g></g></g><g
           transform="translate(284.5264,565.5024)"
           id="g248"><path
             id="path250"
             style="fill:#149a49;fill-opacity:1;fill-rule:nonzero;stroke:none"
             d="m 0,0 h -67.059 c -5.523,0 -10,4.477 -10,10 v 67.059 c 0,5.523 4.477,10 10,10 H 0 c 5.522,0 10,-4.477 10,-10 V 10 C 10,4.477 5.522,0 0,0" /></g><g
           transform="translate(284.5264,565.5024)"
           id="g252"><path
             id="path254"
             style="fill:none;stroke:#ffffff;stroke-width:1.74100006;stroke-linecap:butt;stroke-linejoin:miter;stroke-miterlimit:10;stroke-dasharray:none;stroke-opacity:1"
             d="m 0,0 h -67.059 c -5.523,0 -10,4.477 -10,10 v 67.059 c 0,5.523 4.477,10 10,10 H 0 c 5.522,0 10,-4.477 10,-10 V 10 C 10,4.477 5.522,0 0,0 Z" /></g><g
           transform="translate(279.7617,609.0317)"
           id="g256"><path
             id="path258"
             style="fill:#0b8041;fill-opacity:1;fill-rule:nonzero;stroke:none"
             d="m 0,0 c 0,-15.886 -12.878,-28.765 -28.765,-28.765 -15.886,0 -28.765,12.879 -28.765,28.765 0,15.886 12.879,28.765 28.765,28.765 C -12.878,28.765 0,15.886 0,0" /></g><g
           transform="translate(273.2559,606.0811)"
           id="g260"><path
             id="path262"
             style="fill:#ffffff;fill-opacity:1;fill-rule:nonzero;stroke:none"
             d="m 0,0 c 0,-12.293 -9.966,-22.259 -22.259,-22.259 -12.293,0 -22.259,9.966 -22.259,22.259 0,12.293 9.966,22.259 22.259,22.259 C -9.966,22.259 0,12.293 0,0" /></g><g
           transform="translate(230.041,645.3091)"
           id="g264"><path
             id="path266"
             style="fill:#ffffff;fill-opacity:1;fill-rule:nonzero;stroke:none"
             d="M 0,0 C 4.625,2.67 20.656,-28.094 20.656,-28.094 L 7.422,-35.734 C 7.422,-35.734 -6.863,-3.962 0,0" /></g><g
           transform="translate(271.9526,645.3091)"
           id="g268"><path
             id="path270"
             style="fill:#ffffff;fill-opacity:1;fill-rule:nonzero;stroke:none"
             d="m 0,0 c -4.625,2.67 -20.656,-28.094 -20.656,-28.094 l 13.234,-7.64 c 0,0 14.285,31.772 7.422,35.734" /></g><g
           transform="translate(244.3555,602.0508)"
           id="g272"><path
             id="path274"
             style="fill:#282827;fill-opacity:1;fill-rule:nonzero;stroke:none"
             d="m 0,0 c 0,-2.226 -1.018,-4.03 -2.274,-4.03 -1.256,0 -2.274,1.804 -2.274,4.03 0,2.226 1.018,4.03 2.274,4.03 C -1.018,4.03 0,2.226 0,0" /></g><g
           transform="translate(262.186,602.0508)"
           id="g276"><path
             id="path278"
             style="fill:#282827;fill-opacity:1;fill-rule:nonzero;stroke:none"
             d="m 0,0 c 0,-2.226 -1.018,-4.03 -2.274,-4.03 -1.256,0 -2.274,1.804 -2.274,4.03 0,2.226 1.018,4.03 2.274,4.03 C -1.018,4.03 0,2.226 0,0" /></g><g
           id="g280"><g
             id="g282" /><g
             id="g294"><g
               style="opacity:0.13999903"
               id="g292"
               clip-path="url(#clipPath286)"><g
                 id="g290"
                 transform="translate(255.4189,590.4238)"><path
                   id="path288"
                   style="fill:#000000;fill-opacity:1;fill-rule:nonzero;stroke:none"
                   d="m 0,0 c 0,-1.167 -1.98,-2.113 -4.422,-2.113 -2.442,0 -4.422,0.946 -4.422,2.113 0,1.167 1.98,2.113 4.422,2.113 C -1.98,2.113 0,1.167 0,0" /></g></g></g></g><g
           transform="translate(186.9937,565.5024)"
           id="g296"><path
             id="path298"
             style="fill:#149a49;fill-opacity:1;fill-rule:nonzero;stroke:none"
             d="m 0,0 h -67.059 c -5.523,0 -10,4.477 -10,10 v 67.059 c 0,5.523 4.477,10 10,10 H 0 c 5.522,0 10,-4.477 10,-10 V 10 C 10,4.477 5.522,0 0,0" /></g><g
           transform="translate(186.9937,565.5024)"
           id="g300"><path
             id="path302"
             style="fill:none;stroke:#ffffff;stroke-width:1.74100006;stroke-linecap:butt;stroke-linejoin:miter;stroke-miterlimit:10;stroke-dasharray:none;stroke-opacity:1"
             d="m 0,0 h -67.059 c -5.523,0 -10,4.477 -10,10 v 67.059 c 0,5.523 4.477,10 10,10 H 0 c 5.522,0 10,-4.477 10,-10 V 10 C 10,4.477 5.522,0 0,0 Z" /></g><g
           transform="translate(182.2285,609.0317)"
           id="g304"><path
             id="path306"
             style="fill:#0b8041;fill-opacity:1;fill-rule:nonzero;stroke:none"
             d="m 0,0 c 0,-15.886 -12.878,-28.765 -28.765,-28.765 -15.886,0 -28.764,12.879 -28.764,28.765 0,15.886 12.878,28.765 28.764,28.765 C -12.878,28.765 0,15.886 0,0" /></g><g
           transform="translate(175.7231,606.0811)"
           id="g308"><path
             id="path310"
             style="fill:#aeaeaf;fill-opacity:1;fill-rule:nonzero;stroke:none"
             d="m 0,0 c 0,-12.293 -9.966,-22.259 -22.259,-22.259 -12.293,0 -22.259,9.966 -22.259,22.259 0,12.293 9.966,22.259 22.259,22.259 C -9.966,22.259 0,12.293 0,0" /></g><g
           transform="translate(132.5083,645.3091)"
           id="g312"><path
             id="path314"
             style="fill:#aeaeaf;fill-opacity:1;fill-rule:nonzero;stroke:none"
             d="M 0,0 C 4.625,2.67 20.656,-28.094 20.656,-28.094 L 7.422,-35.734 C 7.422,-35.734 -6.863,-3.962 0,0" /></g><g
           transform="translate(174.4199,645.3091)"
           id="g316"><path
             id="path318"
             style="fill:#aeaeaf;fill-opacity:1;fill-rule:nonzero;stroke:none"
             d="m 0,0 c -4.625,2.67 -20.656,-28.094 -20.656,-28.094 l 13.234,-7.64 c 0,0 14.285,31.772 7.422,35.734" /></g><g
           transform="translate(146.8228,602.0508)"
           id="g320"><path
             id="path322"
             style="fill:#282827;fill-opacity:1;fill-rule:nonzero;stroke:none"
             d="m 0,0 c 0,-2.226 -1.018,-4.03 -2.274,-4.03 -1.256,0 -2.274,1.804 -2.274,4.03 0,2.226 1.018,4.03 2.274,4.03 C -1.018,4.03 0,2.226 0,0" /></g><g
           transform="translate(164.6533,602.0508)"
           id="g324"><path
             id="path326"
             style="fill:#282827;fill-opacity:1;fill-rule:nonzero;stroke:none"
             d="m 0,0 c 0,-2.226 -1.018,-4.03 -2.274,-4.03 -1.256,0 -2.274,1.804 -2.274,4.03 0,2.226 1.018,4.03 2.274,4.03 C -1.018,4.03 0,2.226 0,0" /></g><g
           id="g328"><g
             id="g330" /><g
             id="g342"><g
               style="opacity:0.13999903"
               id="g340"
               clip-path="url(#clipPath334)"><g
                 id="g338"
                 transform="translate(157.8862,590.4238)"><path
                   id="path336"
                   style="fill:#000000;fill-opacity:1;fill-rule:nonzero;stroke:none"
                   d="m 0,0 c 0,-1.167 -1.98,-2.113 -4.422,-2.113 -2.442,0 -4.422,0.946 -4.422,2.113 0,1.167 1.98,2.113 4.422,2.113 C -1.98,2.113 0,1.167 0,0" /></g></g></g></g><g
           transform="translate(433.6787,139.3096)"
           id="g344"><path
             id="path346"
             style="fill:#149a49;fill-opacity:1;fill-rule:nonzero;stroke:none"
             d="m 0,0 h -67.059 c -5.523,0 -10,4.477 -10,10 v 67.059 c 0,5.522 4.477,10 10,10 H 0 c 5.523,0 10,-4.478 10,-10 V 10 C 10,4.477 5.523,0 0,0" /></g><g
           transform="translate(433.6787,139.3096)"
           id="g348"><path
             id="path350"
             style="fill:none;stroke:#ffffff;stroke-width:1.74100006;stroke-linecap:butt;stroke-linejoin:miter;stroke-miterlimit:10;stroke-dasharray:none;stroke-opacity:1"
             d="m 0,0 h -67.059 c -5.523,0 -10,4.477 -10,10 v 67.059 c 0,5.522 4.477,10 10,10 H 0 c 5.523,0 10,-4.478 10,-10 V 10 C 10,4.477 5.523,0 0,0 Z" /></g><g
           transform="translate(430.1494,182.8389)"
           id="g352"><path
             id="path354"
             style="fill:#473a38;fill-opacity:1;fill-rule:nonzero;stroke:none"
             d="m 0,0 c 0,-16.568 -13.432,-30 -30,-30 -16.568,0 -30,13.432 -30,30 0,16.568 13.432,30 30,30 C -13.432,30 0,16.568 0,0" /></g><g
           transform="translate(430.1494,182.8389)"
           id="g356"><path
             id="path358"
             style="fill:none;stroke:#55403d;stroke-width:3.87100005;stroke-linecap:butt;stroke-linejoin:miter;stroke-miterlimit:10;stroke-dasharray:none;stroke-opacity:1"
             d="m 0,0 c 0,-16.568 -13.432,-30 -30,-30 -16.568,0 -30,13.432 -30,30 0,16.568 13.432,30 30,30 C -13.432,30 0,16.568 0,0 Z" /></g><g
           transform="translate(422.4092,179.8877)"
           id="g360"><path
             id="path362"
             style="fill:#aeaeaf;fill-opacity:1;fill-rule:nonzero;stroke:none"
             d="m 0,0 c 0,-12.293 -9.966,-22.259 -22.259,-22.259 -12.293,0 -22.259,9.966 -22.259,22.259 0,12.294 9.966,22.259 22.259,22.259 C -9.966,22.259 0,12.294 0,0" /></g><g
           transform="translate(379.1938,219.1162)"
           id="g364"><path
             id="path366"
             style="fill:#aeaeaf;fill-opacity:1;fill-rule:nonzero;stroke:none"
             d="M 0,0 C 4.625,2.67 20.656,-28.094 20.656,-28.094 L 7.422,-35.734 C 7.422,-35.734 -6.863,-3.963 0,0" /></g><g
           transform="translate(421.1055,219.1162)"
           id="g368"><path
             id="path370"
             style="fill:#aeaeaf;fill-opacity:1;fill-rule:nonzero;stroke:none"
             d="m 0,0 c -4.625,2.67 -20.656,-28.094 -20.656,-28.094 l 13.233,-7.64 c 0,0 14.286,31.771 7.423,35.734" /></g><g
           transform="translate(393.5083,175.8574)"
           id="g372"><path
             id="path374"
             style="fill:#282827;fill-opacity:1;fill-rule:nonzero;stroke:none"
             d="m 0,0 c 0,-2.226 -1.018,-4.029 -2.274,-4.029 -1.256,0 -2.274,1.803 -2.274,4.029 0,2.227 1.018,4.03 2.274,4.03 C -1.018,4.03 0,2.227 0,0" /></g><g
           transform="translate(411.3389,175.8574)"
           id="g376"><path
             id="path378"
             style="fill:#282827;fill-opacity:1;fill-rule:nonzero;stroke:none"
             d="m 0,0 c 0,-2.226 -1.018,-4.029 -2.273,-4.029 -1.257,0 -2.275,1.803 -2.275,4.029 0,2.227 1.018,4.03 2.275,4.03 C -1.018,4.03 0,2.227 0,0" /></g><g
           id="g380"><g
             id="g382" /><g
             id="g394"><g
               style="opacity:0.13999903"
               id="g392"
               clip-path="url(#clipPath386)"><g
                 id="g390"
                 transform="translate(404.5713,164.2305)"><path
                   id="path388"
                   style="fill:#000000;fill-opacity:1;fill-rule:nonzero;stroke:none"
                   d="m 0,0 c 0,-1.167 -1.979,-2.113 -4.422,-2.113 -2.442,0 -4.422,0.946 -4.422,2.113 0,1.167 1.98,2.113 4.422,2.113 C -1.979,2.113 0,1.167 0,0" /></g></g></g></g><g
           transform="translate(531.2119,139.3096)"
           id="g396"><path
             id="path398"
             style="fill:#149a49;fill-opacity:1;fill-rule:nonzero;stroke:none"
             d="m 0,0 h -67.059 c -5.523,0 -10,4.477 -10,10 v 67.059 c 0,5.522 4.477,10 10,10 H 0 c 5.522,0 10,-4.478 10,-10 V 10 C 10,4.477 5.522,0 0,0" /></g><g
           transform="translate(531.2119,139.3096)"
           id="g400"><path
             id="path402"
             style="fill:none;stroke:#ffffff;stroke-width:1.74100006;stroke-linecap:butt;stroke-linejoin:miter;stroke-miterlimit:10;stroke-dasharray:none;stroke-opacity:1"
             d="m 0,0 h -67.059 c -5.523,0 -10,4.477 -10,10 v 67.059 c 0,5.522 4.477,10 10,10 H 0 c 5.522,0 10,-4.478 10,-10 V 10 C 10,4.477 5.522,0 0,0 Z" /></g><g
           transform="translate(527.6826,182.8389)"
           id="g404"><path
             id="path406"
             style="fill:#473a38;fill-opacity:1;fill-rule:nonzero;stroke:none"
             d="m 0,0 c 0,-16.568 -13.432,-30 -30,-30 -16.568,0 -30,13.432 -30,30 0,16.568 13.432,30 30,30 C -13.432,30 0,16.568 0,0" /></g><g
           transform="translate(527.6826,182.8389)"
           id="g408"><path
             id="path410"
             style="fill:none;stroke:#55403d;stroke-width:3.87100005;stroke-linecap:butt;stroke-linejoin:miter;stroke-miterlimit:10;stroke-dasharray:none;stroke-opacity:1"
             d="m 0,0 c 0,-16.568 -13.432,-30 -30,-30 -16.568,0 -30,13.432 -30,30 0,16.568 13.432,30 30,30 C -13.432,30 0,16.568 0,0 Z" /></g><g
           transform="translate(519.9414,179.8877)"
           id="g412"><path
             id="path414"
             style="fill:#ef8440;fill-opacity:1;fill-rule:nonzero;stroke:none"
             d="m 0,0 c 0,-12.293 -9.966,-22.259 -22.259,-22.259 -12.293,0 -22.259,9.966 -22.259,22.259 0,12.294 9.966,22.259 22.259,22.259 C -9.966,22.259 0,12.294 0,0" /></g><g
           transform="translate(476.7266,219.1162)"
           id="g416"><path
             id="path418"
             style="fill:#ef8440;fill-opacity:1;fill-rule:nonzero;stroke:none"
             d="M 0,0 C 4.625,2.67 20.656,-28.094 20.656,-28.094 L 7.423,-35.734 C 7.423,-35.734 -6.863,-3.963 0,0" /></g><g
           transform="translate(518.6377,219.1162)"
           id="g420"><path
             id="path422"
             style="fill:#ef8440;fill-opacity:1;fill-rule:nonzero;stroke:none"
             d="m 0,0 c -4.625,2.67 -20.655,-28.094 -20.655,-28.094 l 13.233,-7.64 c 0,0 14.285,31.771 7.422,35.734" /></g><g
           transform="translate(491.041,175.8574)"
           id="g424"><path
             id="path426"
             style="fill:#282827;fill-opacity:1;fill-rule:nonzero;stroke:none"
             d="m 0,0 c 0,-2.226 -1.018,-4.029 -2.274,-4.029 -1.256,0 -2.274,1.803 -2.274,4.029 0,2.227 1.018,4.03 2.274,4.03 C -1.018,4.03 0,2.227 0,0" /></g><g
           transform="translate(508.8721,175.8574)"
           id="g428"><path
             id="path430"
             style="fill:#282827;fill-opacity:1;fill-rule:nonzero;stroke:none"
             d="m 0,0 c 0,-2.226 -1.019,-4.029 -2.274,-4.029 -1.256,0 -2.275,1.803 -2.275,4.029 0,2.227 1.019,4.03 2.275,4.03 C -1.019,4.03 0,2.227 0,0" /></g><g
           id="g432"><g
             id="g434" /><g
             id="g446"><g
               style="opacity:0.13999903"
               id="g444"
               clip-path="url(#clipPath438)"><g
                 id="g442"
                 transform="translate(502.1045,164.2305)"><path
                   id="path440"
                   style="fill:#000000;fill-opacity:1;fill-rule:nonzero;stroke:none"
                   d="m 0,0 c 0,-1.167 -1.979,-2.113 -4.422,-2.113 -2.442,0 -4.422,0.946 -4.422,2.113 0,1.167 1.98,2.113 4.422,2.113 C -1.979,2.113 0,1.167 0,0" /></g></g></g></g><g
           transform="translate(335.8472,139.3096)"
           id="g448"><path
             id="path450"
             style="fill:#149a49;fill-opacity:1;fill-rule:nonzero;stroke:none"
             d="m 0,0 h -67.059 c -5.523,0 -10,4.477 -10,10 v 67.059 c 0,5.522 4.477,10 10,10 H 0 c 5.522,0 10,-4.478 10,-10 V 10 C 10,4.477 5.522,0 0,0" /></g><g
           transform="translate(335.8472,139.3096)"
           id="g452"><path
             id="path454"
             style="fill:none;stroke:#ffffff;stroke-width:1.74100006;stroke-linecap:butt;stroke-linejoin:miter;stroke-miterlimit:10;stroke-dasharray:none;stroke-opacity:1"
             d="m 0,0 h -67.059 c -5.523,0 -10,4.477 -10,10 v 67.059 c 0,5.522 4.477,10 10,10 H 0 c 5.522,0 10,-4.478 10,-10 V 10 C 10,4.477 5.522,0 0,0 Z" /></g><g
           transform="translate(332.3174,182.8389)"
           id="g456"><path
             id="path458"
             style="fill:#473a38;fill-opacity:1;fill-rule:nonzero;stroke:none"
             d="m 0,0 c 0,-16.568 -13.431,-30 -30,-30 -16.568,0 -30,13.432 -30,30 0,16.568 13.432,30 30,30 C -13.431,30 0,16.568 0,0" /></g><g
           transform="translate(332.3174,182.8389)"
           id="g460"><path
             id="path462"
             style="fill:none;stroke:#55403d;stroke-width:3.87100005;stroke-linecap:butt;stroke-linejoin:miter;stroke-miterlimit:10;stroke-dasharray:none;stroke-opacity:1"
             d="m 0,0 c 0,-16.568 -13.431,-30 -30,-30 -16.568,0 -30,13.432 -30,30 0,16.568 13.432,30 30,30 C -13.431,30 0,16.568 0,0 Z" /></g><g
           transform="translate(324.5767,179.8877)"
           id="g464"><path
             id="path466"
             style="fill:#ffffff;fill-opacity:1;fill-rule:nonzero;stroke:none"
             d="m 0,0 c 0,-12.293 -9.965,-22.259 -22.259,-22.259 -12.293,0 -22.259,9.966 -22.259,22.259 0,12.294 9.966,22.259 22.259,22.259 C -9.965,22.259 0,12.294 0,0" /></g><g
           transform="translate(281.3618,219.1162)"
           id="g468"><path
             id="path470"
             style="fill:#ffffff;fill-opacity:1;fill-rule:nonzero;stroke:none"
             d="M 0,0 C 4.625,2.67 20.656,-28.094 20.656,-28.094 L 7.422,-35.734 C 7.422,-35.734 -6.863,-3.963 0,0" /></g><g
           transform="translate(323.2734,219.1162)"
           id="g472"><path
             id="path474"
             style="fill:#ffffff;fill-opacity:1;fill-rule:nonzero;stroke:none"
             d="m 0,0 c -4.625,2.67 -20.656,-28.094 -20.656,-28.094 l 13.234,-7.64 c 0,0 14.285,31.771 7.422,35.734" /></g><g
           transform="translate(295.6763,175.8574)"
           id="g476"><path
             id="path478"
             style="fill:#282827;fill-opacity:1;fill-rule:nonzero;stroke:none"
             d="m 0,0 c 0,-2.226 -1.018,-4.029 -2.274,-4.029 -1.256,0 -2.274,1.803 -2.274,4.029 0,2.227 1.018,4.03 2.274,4.03 C -1.018,4.03 0,2.227 0,0" /></g><g
           transform="translate(313.5068,175.8574)"
           id="g480"><path
             id="path482"
             style="fill:#282827;fill-opacity:1;fill-rule:nonzero;stroke:none"
             d="m 0,0 c 0,-2.226 -1.018,-4.029 -2.274,-4.029 -1.256,0 -2.274,1.803 -2.274,4.029 0,2.227 1.018,4.03 2.274,4.03 C -1.018,4.03 0,2.227 0,0" /></g><g
           id="g484"><g
             id="g486" /><g
             id="g498"><g
               style="opacity:0.13999903"
               id="g496"
               clip-path="url(#clipPath490)"><g
                 id="g494"
                 transform="translate(306.7397,164.2305)"><path
                   id="path492"
                   style="fill:#000000;fill-opacity:1;fill-rule:nonzero;stroke:none"
                   d="m 0,0 c 0,-1.167 -1.98,-2.113 -4.422,-2.113 -2.442,0 -4.422,0.946 -4.422,2.113 0,1.167 1.98,2.113 4.422,2.113 C -1.98,2.113 0,1.167 0,0" /></g></g></g></g><g
           transform="translate(346.5674,310.4385)"
           id="g500"><path
             id="path502"
             style="fill:#149a49;fill-opacity:1;fill-rule:nonzero;stroke:none"
             d="m 0,0 h -67.059 c -5.523,0 -10,4.478 -10,10 v 67.059 c 0,5.523 4.477,10 10,10 H 0 c 5.523,0 10,-4.477 10,-10 V 10 C 10,4.478 5.523,0 0,0" /></g><g
           transform="translate(341.8027,353.9678)"
           id="g504"><path
             id="path506"
             style="fill:#0b8041;fill-opacity:1;fill-rule:nonzero;stroke:none"
             d="m 0,0 c 0,-15.887 -12.878,-28.765 -28.765,-28.765 -15.886,0 -28.764,12.878 -28.764,28.765 0,15.887 12.878,28.765 28.764,28.765 C -12.878,28.765 0,15.887 0,0" /></g><g
           transform="translate(335.2969,351.0176)"
           id="g508"><path
             id="path510"
             style="fill:#ffffff;fill-opacity:1;fill-rule:nonzero;stroke:none"
             d="m 0,0 c 0,-12.294 -9.965,-22.259 -22.259,-22.259 -12.293,0 -22.259,9.965 -22.259,22.259 0,12.293 9.966,22.259 22.259,22.259 C -9.965,22.259 0,12.293 0,0" /></g><g
           transform="translate(292.082,390.2451)"
           id="g512"><path
             id="path514"
             style="fill:#ffffff;fill-opacity:1;fill-rule:nonzero;stroke:none"
             d="M 0,0 C 4.625,2.671 20.656,-28.094 20.656,-28.094 L 7.422,-35.734 C 7.422,-35.734 -6.863,-3.962 0,0" /></g><g
           transform="translate(333.9937,390.2451)"
           id="g516"><path
             id="path518"
             style="fill:#ffffff;fill-opacity:1;fill-rule:nonzero;stroke:none"
             d="m 0,0 c -4.625,2.671 -20.656,-28.094 -20.656,-28.094 l 13.234,-7.64 c 0,0 14.285,31.772 7.422,35.734" /></g><g
           transform="translate(306.3965,346.9873)"
           id="g520"><path
             id="path522"
             style="fill:#282827;fill-opacity:1;fill-rule:nonzero;stroke:none"
             d="m 0,0 c 0,-2.227 -1.018,-4.03 -2.274,-4.03 -1.256,0 -2.274,1.803 -2.274,4.03 0,2.226 1.018,4.03 2.274,4.03 C -1.018,4.03 0,2.226 0,0" /></g><g
           transform="translate(324.2275,346.9873)"
           id="g524"><path
             id="path526"
             style="fill:#282827;fill-opacity:1;fill-rule:nonzero;stroke:none"
             d="m 0,0 c 0,-2.227 -1.018,-4.03 -2.274,-4.03 -1.256,0 -2.274,1.803 -2.274,4.03 0,2.226 1.018,4.03 2.274,4.03 C -1.018,4.03 0,2.226 0,0" /></g><g
           id="g528"><g
             id="g530" /><g
             id="g542"><g
               style="opacity:0.13999903"
               id="g540"
               clip-path="url(#clipPath534)"><g
                 id="g538"
                 transform="translate(317.46,335.3594)"><path
                   id="path536"
                   style="fill:#000000;fill-opacity:1;fill-rule:nonzero;stroke:none"
                   d="m 0,0 c 0,-1.167 -1.98,-2.112 -4.422,-2.112 -2.442,0 -4.422,0.945 -4.422,2.112 0,1.167 1.98,2.113 4.422,2.113 C -1.98,2.113 0,1.167 0,0" /></g></g></g></g><g
           transform="translate(520.4912,310.4385)"
           id="g544"><path
             id="path546"
             style="fill:#149a49;fill-opacity:1;fill-rule:nonzero;stroke:none"
             d="m 0,0 h -67.059 c -5.522,0 -10,4.478 -10,10 v 67.059 c 0,5.523 4.478,10 10,10 H 0 c 5.523,0 10,-4.477 10,-10 V 10 C 10,4.478 5.523,0 0,0" /></g><g
           transform="translate(515.7266,353.9678)"
           id="g548"><path
             id="path550"
             style="fill:#0b8041;fill-opacity:1;fill-rule:nonzero;stroke:none"
             d="m 0,0 c 0,-15.887 -12.878,-28.765 -28.765,-28.765 -15.885,0 -28.764,12.878 -28.764,28.765 0,15.887 12.879,28.765 28.764,28.765 C -12.878,28.765 0,15.887 0,0" /></g><g
           transform="translate(433.4326,310.4385)"
           id="g552"><path
             id="path554"
             style="fill:#149a49;fill-opacity:1;fill-rule:nonzero;stroke:none"
             d="m 0,0 h -67.059 c -5.523,0 -10,4.478 -10,10 v 67.059 c 0,5.523 4.477,10 10,10 H 0 c 5.522,0 10,-4.477 10,-10 V 10 C 10,4.478 5.522,0 0,0" /></g><g
           transform="translate(433.4326,310.4385)"
           id="g556"><path
             id="path558"
             style="fill:none;stroke:#ffffff;stroke-width:1.74100006;stroke-linecap:butt;stroke-linejoin:miter;stroke-miterlimit:10;stroke-dasharray:none;stroke-opacity:1"
             d="m 0,0 h -67.059 c -5.523,0 -10,4.478 -10,10 v 67.059 c 0,5.523 4.477,10 10,10 H 0 c 5.522,0 10,-4.477 10,-10 V 10 C 10,4.478 5.522,0 0,0 Z" /></g><g
           transform="translate(431.0205,353.9678)"
           id="g560"><path
             id="path562"
             style="fill:#c52928;fill-opacity:1;fill-rule:nonzero;stroke:none"
             d="m 0,0 c 0,-17.186 -13.932,-31.117 -31.117,-31.117 -17.186,0 -31.118,13.931 -31.118,31.117 0,17.186 13.932,31.118 31.118,31.118 C -13.932,31.118 0,17.186 0,0" /></g><g
           transform="translate(406.0156,353.9678)"
           id="g564"><path
             id="path566"
             style="fill:#ffffff;fill-opacity:1;fill-rule:nonzero;stroke:none"
             d="m 0,0 c 0,-3.376 -2.736,-6.112 -6.112,-6.112 -3.376,0 -6.113,2.736 -6.113,6.112 0,3.376 2.737,6.112 6.113,6.112 C -2.736,6.112 0,3.376 0,0" /></g><g
           transform="translate(406.0156,374.3428)"
           id="g568"><path
             id="path570"
             style="fill:#ffffff;fill-opacity:1;fill-rule:nonzero;stroke:none"
             d="m 0,0 c 0,-3.376 -2.736,-6.112 -6.112,-6.112 -3.376,0 -6.113,2.736 -6.113,6.112 0,3.375 2.737,6.112 6.113,6.112 C -2.736,6.112 0,3.375 0,0" /></g><g
           transform="translate(406.0156,333.5928)"
           id="g572"><path
             id="path574"
             style="fill:#ffffff;fill-opacity:1;fill-rule:nonzero;stroke:none"
             d="m 0,0 c 0,-3.375 -2.736,-6.112 -6.112,-6.112 -3.376,0 -6.113,2.737 -6.113,6.112 0,3.376 2.737,6.112 6.113,6.112 C -2.736,6.112 0,3.376 0,0" /></g><g
           transform="translate(379.2021,349.0742)"
           id="g576"><path
             id="path578"
             style="fill:#ffffff;fill-opacity:1;fill-rule:nonzero;stroke:none"
             d="m 0,0 c 2.923,1.687 6.662,0.686 8.35,-2.237 1.688,-2.924 0.686,-6.662 -2.238,-8.35 -2.923,-1.688 -6.661,-0.686 -8.349,2.237 C -3.925,-5.427 -2.924,-1.688 0,0" /></g><g
           transform="translate(414.4922,369.4482)"
           id="g580"><path
             id="path582"
             style="fill:#ffffff;fill-opacity:1;fill-rule:nonzero;stroke:none"
             d="M 0,0 C 2.923,1.688 6.661,0.687 8.35,-2.237 10.037,-5.16 9.036,-8.898 6.112,-10.587 3.188,-12.274 -0.55,-11.272 -2.237,-8.35 -3.926,-5.426 -2.924,-1.687 0,0" /></g><g
           transform="translate(414.4922,338.4873)"
           id="g584"><path
             id="path586"
             style="fill:#ffffff;fill-opacity:1;fill-rule:nonzero;stroke:none"
             d="m 0,0 c -2.924,1.687 -3.926,5.426 -2.237,8.35 1.687,2.922 5.425,3.924 8.349,2.237 C 9.036,8.898 10.037,5.16 8.35,2.237 6.661,-0.687 2.923,-1.688 0,0" /></g><g
           transform="translate(379.2021,358.8613)"
           id="g588"><path
             id="path590"
             style="fill:#ffffff;fill-opacity:1;fill-rule:nonzero;stroke:none"
             d="m 0,0 c -2.924,1.688 -3.925,5.427 -2.237,8.35 1.688,2.923 5.426,3.925 8.349,2.237 C 9.036,8.899 10.038,5.161 8.35,2.237 6.662,-0.686 2.923,-1.687 0,0" /></g></g></g></g></svg>