<?xml version="1.0" encoding="UTF-8" standalone="no"?>
<svg
   xmlns:dc="http://purl.org/dc/elements/1.1/"
   xmlns:cc="http://creativecommons.org/ns#"
   xmlns:rdf="http://www.w3.org/1999/02/22-rdf-syntax-ns#"
   xmlns:svg="http://www.w3.org/2000/svg"
   xmlns="http://www.w3.org/2000/svg"
   viewBox="0 0 1066.6667 1133.3333"
   height="1133.3333"
   width="1066.6667"
   xml:space="preserve"
   id="svg2"
   version="1.1"><metadata
     id="metadata8"><rdf:RDF><cc:Work
         rdf:about=""><dc:format>image/svg+xml</dc:format><dc:type
           rdf:resource="http://purl.org/dc/dcmitype/StillImage" /></cc:Work></rdf:RDF></metadata><defs
     id="defs6"><clipPath
       id="clipPath20"
       clipPathUnits="userSpaceOnUse"><path
         id="path18"
         d="M 0,850 H 800 V 0 H 0 Z" /></clipPath><clipPath
       id="clipPath240"
       clipPathUnits="userSpaceOnUse"><path
         id="path238"
         d="m 344.108,613.258 h 8.844 v -4.226 h -8.844 z" /></clipPath><clipPath
       id="clipPath288"
       clipPathUnits="userSpaceOnUse"><path
         id="path286"
         d="m 246.575,613.258 h 8.844 v -4.226 h -8.844 z" /></clipPath><clipPath
       id="clipPath336"
       clipPathUnits="userSpaceOnUse"><path
         id="path334"
         d="m 149.042,613.258 h 8.844 v -4.226 h -8.844 z" /></clipPath><clipPath
       id="clipPath388"
       clipPathUnits="userSpaceOnUse"><path
         id="path386"
         d="m 395.728,166.344 h 8.844 v -4.226 h -8.844 z" /></clipPath><clipPath
       id="clipPath440"
       clipPathUnits="userSpaceOnUse"><path
         id="path438"
         d="m 493.26,166.344 h 8.844 v -4.226 h -8.844 z" /></clipPath><clipPath
       id="clipPath492"
       clipPathUnits="userSpaceOnUse"><path
         id="path490"
         d="m 297.896,166.344 h 8.844 v -4.226 h -8.844 z" /></clipPath><clipPath
       id="clipPath536"
       clipPathUnits="userSpaceOnUse"><path
         id="path534"
         d="m 308.616,337.473 h 8.844 v -4.226 h -8.844 z" /></clipPath></defs><g
     transform="matrix(1.3333333,0,0,-1.3333333,0,1133.3333)"
     id="g10"><path
       id="path12"
       style="fill:#4caf50;fill-opacity:1;fill-rule:nonzero;stroke:none"
       d="M 0,0 H 800 V 850 H 0 Z" /><g
       id="g14"><g
         clip-path="url(#clipPath20)"
         id="g16"><g
           transform="translate(892.9326,777.5137)"
           id="g22"><path
             id="path24"
             style="fill:none;stroke:#ffffff;stroke-width:5;stroke-linecap:butt;stroke-linejoin:miter;stroke-miterlimit:10;stroke-dasharray:none;stroke-opacity:1"
             d="m 0,0 c 0,-61.48 -49.839,-111.319 -111.319,-111.319 -61.48,0 -111.32,49.839 -111.32,111.319 0,61.48 49.84,111.319 111.32,111.319 C -49.839,111.319 0,61.48 0,0 Z" /></g><g
           transform="translate(754.6914,167.0879)"
           id="g26"><path
             id="path28"
             style="fill:none;stroke:#ffffff;stroke-width:5;stroke-linecap:butt;stroke-linejoin:miter;stroke-miterlimit:10;stroke-dasharray:none;stroke-opacity:1"
             d="m 0,0 -22.658,-6.389 c -3.071,-0.866 -5.52,-3.187 -6.548,-6.209 l -7.582,-22.287 c -2.588,-7.608 -12.777,-8.946 -17.241,-2.263 l -13.078,19.575 c -1.773,2.653 -4.739,4.264 -7.929,4.308 l -23.539,0.324 c -8.036,0.111 -12.457,9.387 -7.482,15.698 l 14.577,18.487 c 1.975,2.506 2.591,5.824 1.647,8.872 l -6.966,22.488 c -2.378,7.676 5.078,14.748 12.618,11.965 l 22.086,-8.149 c 2.994,-1.105 6.34,-0.665 8.948,1.175 l 19.234,13.574 c 6.565,4.634 15.595,-0.273 15.279,-8.304 L -19.56,39.342 c -0.126,-3.189 1.327,-6.236 3.882,-8.147 L 3.176,17.098 C 9.611,12.285 7.735,2.182 0,0 Z" /></g><g
           transform="translate(154.7173,323.2715)"
           id="g30"><path
             id="path32"
             style="fill:none;stroke:#ffffff;stroke-width:5;stroke-linecap:butt;stroke-linejoin:miter;stroke-miterlimit:10;stroke-dasharray:none;stroke-opacity:1"
             d="m 0,0 -27.625,-15.949 c -11.479,-6.628 -26.157,-2.695 -32.785,8.784 L -76.359,20.46 c -6.627,11.479 -2.694,26.157 8.785,32.785 l 27.625,15.949 c 11.479,6.627 26.157,2.695 32.784,-8.785 L 8.785,32.784 C 15.412,21.306 11.479,6.627 0,0 Z" /></g><g
           transform="translate(456.8682,412.5264)"
           id="g34"><path
             id="path36"
             style="fill:#ffffff;fill-opacity:1;fill-rule:nonzero;stroke:none"
             d="m 0,0 c -1.782,5.444 -4.225,10.653 -7.266,15.51 -3.04,4.857 -6.678,9.362 -10.838,13.408 -1.611,1.563 -4.655,1.317 -5.366,-0.339 -1.291,-2.905 -2.581,-5.809 -3.871,-8.715 -28.182,9.848 -60.377,4.151 -83.399,-16.731 -2.366,-2.16 -3.366,-4.867 -2.377,-5.821 0.993,-0.958 3.512,-0.076 5.742,1.76 21.875,18.224 51.291,22.238 76.305,12.399 -1.29,-2.906 -2.58,-5.811 -3.871,-8.716 -0.709,-1.648 0.439,-3.458 2.125,-3.33 4.45,0.35 9.161,0.364 14.098,-0.065 4.938,-0.429 10.102,-1.301 15.443,-2.734 C -1.241,-3.935 0.682,-2.104 0,0" /></g><g
           transform="translate(581.5752,644.624)"
           id="g38"><path
             id="path40"
             style="fill:#149a49;fill-opacity:1;fill-rule:nonzero;stroke:none"
             d="m 0,0 v -29.743 c 0,-5.522 -4.478,-10 -10,-10 h -79.485 c -5.523,0 -10,4.478 -10,10 V 0 c 0,5.523 4.477,10 10,10 L -10,10 C -4.478,10 0,5.523 0,0" /></g><g
           transform="translate(581.5752,644.624)"
           id="g42"><path
             id="path44"
             style="fill:none;stroke:#ffffff;stroke-width:1.74100006;stroke-linecap:butt;stroke-linejoin:miter;stroke-miterlimit:10;stroke-dasharray:none;stroke-opacity:1"
             d="m 0,0 v -29.743 c 0,-5.522 -4.478,-10 -10,-10 h -79.485 c -5.523,0 -10,4.478 -10,10 V 0 c 0,5.523 4.477,10 10,10 L -10,10 C -4.478,10 0,5.523 0,0 Z" /></g><g
           transform="translate(560.9629,642.1685)"
           id="g46"><path
             id="path48"
             style="fill:#ffffff;fill-opacity:1;fill-rule:nonzero;stroke:none"
             d="M 0,0 C -1.128,1.208 -2.389,1.774 -3.688,1.937 -5.002,2.102 -6.16,1.086 -6.16,-0.205 v -12.211 -12.21 c 0,-1.291 1.158,-2.307 2.472,-2.142 1.299,0.163 2.56,0.729 3.688,1.936 9.479,10.15 17.393,7.602 17.393,12.416 C 17.393,-7.601 9.479,-10.149 0,0" /></g><g
           transform="translate(578.3555,629.7529)"
           id="g50"><path
             id="path52"
             style="fill:#ffffff;fill-opacity:1;fill-rule:nonzero;stroke:none"
             d="M 0,0 C 0,-1.62 -0.896,-2.406 -2.444,-3.123 V 3.123 C -0.896,2.406 0,1.62 0,0" /></g><g
           transform="translate(548.417,618.4048)"
           id="g54"><path
             id="path56"
             style="fill:#db5727;fill-opacity:1;fill-rule:nonzero;stroke:none"
             d="m 0,0 v 0 c 1.957,0 3.543,1.365 3.543,3.049 v 16.598 c 0,1.684 -1.586,3.049 -3.543,3.049 -1.956,0 -5.261,-1.365 -5.261,-3.049 V 3.049 C -5.261,1.365 -1.956,0 0,0" /></g><path
           id="path58"
           style="fill:#db5727;fill-opacity:1;fill-rule:nonzero;stroke:none"
           d="m 557.187,620.882 h -6.285 v 17.929 h 6.285 z" /><g
           transform="translate(507.1094,636.8281)"
           id="g60"><path
             id="path62"
             style="fill:#ffffff;fill-opacity:1;fill-rule:nonzero;stroke:none"
             d="m 0,0 c 12.199,0 22.088,-3.126 22.088,-6.981 0,-3.856 -9.889,-6.982 -22.088,-6.982 -12.199,0 -22.088,3.126 -22.088,6.982 C -22.088,-3.126 -12.199,0 0,0" /></g><g
           transform="translate(529.1982,629.8462)"
           id="g64"><path
             id="path66"
             style="fill:#db5727;fill-opacity:1;fill-rule:nonzero;stroke:none"
             d="m 0,0 c 0,-3.808 -9.648,-6.904 -21.642,-6.979 1.114,0.436 1.888,0.962 1.888,1.693 0,2.609 -9.849,2.609 -9.849,5.217 0,2.608 9.849,2.608 9.849,5.216 0,0.812 -0.954,1.371 -2.267,1.835 C -9.854,6.97 0,3.849 0,0" /></g><g
           transform="translate(560.9629,637.9722)"
           id="g68"><path
             id="path70"
             style="fill:#db5727;fill-opacity:1;fill-rule:nonzero;stroke:none"
             d="M 0,0 C -1.873,2.208 -4.026,4.247 -6.16,3.783 V -8.219 -20.222 c 2.134,-0.463 4.287,1.575 6.16,3.783 8.358,9.856 17.393,2.68 17.393,8.22 C 17.393,-2.776 8.358,-9.856 0,0" /></g><g
           transform="translate(578.6436,629.7529)"
           id="g72"><path
             id="path74"
             style="fill:#232323;fill-opacity:1;fill-rule:nonzero;stroke:none"
             d="M 0,0 C 0,-1.62 -1.001,-2.406 -2.732,-3.123 V 3.123 C -1.001,2.406 0,1.62 0,0" /></g><g
           transform="translate(521.1143,616.4224)"
           id="g76"><path
             id="path78"
             style="fill:#db5727;fill-opacity:1;fill-rule:nonzero;stroke:none"
             d="M 0,0 H 0.569 C 3.04,0 5.043,1.951 5.043,4.356 v 17.949 c 0,2.405 -2.003,4.356 -4.474,4.356 H 0 C -10.266,26.661 -10.266,0 0,0" /></g><g
           transform="translate(558.4365,629.7529)"
           id="g80"><path
             id="path82"
             style="fill:#db5727;fill-opacity:1;fill-rule:nonzero;stroke:none"
             d="m 0,0 c 0,-5.855 -16.975,-10.602 -26.599,-10.602 -9.624,0 -17.424,4.747 -17.424,10.602 0,5.855 7.8,10.602 17.424,10.602 C -16.975,10.602 0,5.855 0,0" /></g><g
           transform="translate(554.8027,635.7437)"
           id="g84"><path
             id="path86"
             style="fill:#ffffff;fill-opacity:1;fill-rule:nonzero;stroke:none"
             d="m 0,0 v -4.165 c -2.346,0 -4.277,3.792 -4.277,6.077 0,2.422 2.838,2.253 4.277,2.253 z" /></g><g
           transform="translate(554.8027,623.7622)"
           id="g88"><path
             id="path90"
             style="fill:#ffffff;fill-opacity:1;fill-rule:nonzero;stroke:none"
             d="m 0,0 v 4.165 c -2.346,0 -4.277,-3.792 -4.277,-6.077 0,-2.423 2.838,-2.253 4.277,-2.253 z" /></g><g
           transform="translate(566.1562,634.6392)"
           id="g92"><path
             id="path94"
             style="fill:#262626;fill-opacity:1;fill-rule:nonzero;stroke:none"
             d="m 0,0 c 0,-0.768 -0.994,-1.39 -2.221,-1.39 -1.226,0 -2.22,0.622 -2.22,1.39 0,0.768 0.994,1.391 2.22,1.391 C -0.994,1.391 0,0.768 0,0" /></g><g
           transform="translate(566.1562,624.8662)"
           id="g96"><path
             id="path98"
             style="fill:#262626;fill-opacity:1;fill-rule:nonzero;stroke:none"
             d="m 0,0 c 0,-0.768 -0.994,-1.39 -2.221,-1.39 -1.226,0 -2.22,0.622 -2.22,1.39 0,0.768 0.994,1.391 2.22,1.391 C -0.994,1.391 0,0.768 0,0" /></g><g
           transform="translate(680.0654,586.7666)"
           id="g100"><path
             id="path102"
             style="fill:#149a49;fill-opacity:1;fill-rule:nonzero;stroke:none"
             d="m 0,0 h -67.059 c -5.523,0 -10,4.477 -10,10 v 67.059 c 0,5.523 4.477,10 10,10 H 0 c 5.522,0 10,-4.477 10,-10 V 10 C 10,4.477 5.522,0 0,0" /></g><g
           transform="translate(680.0654,586.7666)"
           id="g104"><path
             id="path106"
             style="fill:none;stroke:#ffffff;stroke-width:1.74100006;stroke-linecap:butt;stroke-linejoin:miter;stroke-miterlimit:10;stroke-dasharray:none;stroke-opacity:1"
             d="m 0,0 h -67.059 c -5.523,0 -10,4.477 -10,10 v 67.059 c 0,5.523 4.477,10 10,10 H 0 c 5.522,0 10,-4.477 10,-10 V 10 C 10,4.477 5.522,0 0,0 Z" /></g><g
           transform="translate(677.6533,630.2959)"
           id="g108"><path
             id="path110"
             style="fill:#c52928;fill-opacity:1;fill-rule:nonzero;stroke:none"
             d="m 0,0 c 0,-17.186 -13.932,-31.118 -31.117,-31.118 -17.186,0 -31.118,13.932 -31.118,31.118 0,17.186 13.932,31.118 31.118,31.118 C -13.932,31.118 0,17.186 0,0" /></g><g
           transform="translate(652.6484,630.2959)"
           id="g112"><path
             id="path114"
             style="fill:#ffffff;fill-opacity:1;fill-rule:nonzero;stroke:none"
             d="m 0,0 c 0,-3.376 -2.736,-6.112 -6.112,-6.112 -3.376,0 -6.113,2.736 -6.113,6.112 0,3.375 2.737,6.112 6.113,6.112 C -2.736,6.112 0,3.375 0,0" /></g><g
           transform="translate(652.6484,650.6704)"
           id="g116"><path
             id="path118"
             style="fill:#ffffff;fill-opacity:1;fill-rule:nonzero;stroke:none"
             d="m 0,0 c 0,-3.375 -2.736,-6.112 -6.112,-6.112 -3.376,0 -6.113,2.737 -6.113,6.112 0,3.376 2.737,6.112 6.113,6.112 C -2.736,6.112 0,3.376 0,0" /></g><g
           transform="translate(652.6484,609.9214)"
           id="g120"><path
             id="path122"
             style="fill:#ffffff;fill-opacity:1;fill-rule:nonzero;stroke:none"
             d="m 0,0 c 0,-3.376 -2.736,-6.113 -6.112,-6.113 -3.376,0 -6.113,2.737 -6.113,6.113 0,3.375 2.737,6.112 6.113,6.112 C -2.736,6.112 0,3.375 0,0" /></g><g
           transform="translate(625.835,625.4019)"
           id="g124"><path
             id="path126"
             style="fill:#ffffff;fill-opacity:1;fill-rule:nonzero;stroke:none"
             d="M 0,0 C 2.924,1.688 6.662,0.687 8.35,-2.237 10.037,-5.161 9.036,-8.899 6.112,-10.587 3.188,-12.275 -0.55,-11.273 -2.237,-8.35 -3.926,-5.426 -2.924,-1.688 0,0" /></g><g
           transform="translate(661.125,645.7769)"
           id="g128"><path
             id="path130"
             style="fill:#ffffff;fill-opacity:1;fill-rule:nonzero;stroke:none"
             d="M 0,0 C 2.923,1.687 6.661,0.686 8.35,-2.237 10.037,-5.161 9.036,-8.899 6.112,-10.587 3.188,-12.275 -0.55,-11.273 -2.237,-8.35 -3.926,-5.426 -2.924,-1.688 0,0" /></g><g
           transform="translate(661.125,614.8149)"
           id="g132"><path
             id="path134"
             style="fill:#ffffff;fill-opacity:1;fill-rule:nonzero;stroke:none"
             d="m 0,0 c -2.924,1.688 -3.926,5.426 -2.237,8.35 1.687,2.923 5.425,3.925 8.349,2.237 C 9.036,8.899 10.037,5.161 8.35,2.237 6.661,-0.686 2.923,-1.688 0,0" /></g><g
           transform="translate(625.835,635.1895)"
           id="g136"><path
             id="path138"
             style="fill:#ffffff;fill-opacity:1;fill-rule:nonzero;stroke:none"
             d="m 0,0 c -2.924,1.688 -3.926,5.426 -2.237,8.35 1.687,2.923 5.425,3.925 8.349,2.237 C 9.036,8.899 10.037,5.161 8.35,2.237 6.662,-0.686 2.924,-1.687 0,0" /></g><g
           transform="translate(461.8223,580.0103)"
           id="g140"><path
             id="path142"
             style="fill:#149a49;fill-opacity:1;fill-rule:nonzero;stroke:none"
             d="m 0,0 h -29.743 c -5.523,0 -10,4.477 -10,10 v 79.485 c 0,5.523 4.477,10 10,10 H 0 c 5.522,0 10,-4.477 10,-10 L 10,10 C 10,4.477 5.522,0 0,0" /></g><g
           transform="translate(461.8223,580.0103)"
           id="g144"><path
             id="path146"
             style="fill:none;stroke:#ffffff;stroke-width:1.74100006;stroke-linecap:butt;stroke-linejoin:miter;stroke-miterlimit:10;stroke-dasharray:none;stroke-opacity:1"
             d="m 0,0 h -29.743 c -5.523,0 -10,4.477 -10,10 v 79.485 c 0,5.523 4.477,10 10,10 H 0 c 5.522,0 10,-4.477 10,-10 L 10,10 C 10,4.477 5.522,0 0,0 Z" /></g><g
           transform="translate(459.3662,600.6221)"
           id="g148"><path
             id="path150"
             style="fill:#ffffff;fill-opacity:1;fill-rule:nonzero;stroke:none"
             d="M 0,0 C 1.208,1.128 1.774,2.389 1.937,3.688 2.103,5.002 1.086,6.16 -0.204,6.16 h -12.211 -12.211 c -1.291,0 -2.307,-1.158 -2.142,-2.472 0.164,-1.299 0.729,-2.56 1.937,-3.688 10.149,-9.479 7.602,-17.393 12.416,-17.393 4.814,0 2.267,7.914 12.415,17.393" /></g><g
           transform="translate(446.9512,583.2295)"
           id="g152"><path
             id="path154"
             style="fill:#ffffff;fill-opacity:1;fill-rule:nonzero;stroke:none"
             d="M 0,0 C -1.62,0 -2.406,0.896 -3.123,2.444 H 3.123 C 2.405,0.896 1.619,0 0,0" /></g><g
           transform="translate(435.6025,613.168)"
           id="g156"><path
             id="path158"
             style="fill:#db5727;fill-opacity:1;fill-rule:nonzero;stroke:none"
             d="m 0,0 v 0 c 0,-1.957 1.365,-3.542 3.049,-3.542 h 16.598 c 1.684,0 3.049,1.585 3.049,3.542 0,1.957 -1.365,5.261 -3.049,5.261 H 3.049 C 1.365,5.261 0,1.957 0,0" /></g><path
           id="path160"
           style="fill:#db5727;fill-opacity:1;fill-rule:nonzero;stroke:none"
           d="m 438.08,610.683 h 17.929 v -6.286 H 438.08 Z" /><g
           transform="translate(454.0264,654.4756)"
           id="g162"><path
             id="path164"
             style="fill:#ffffff;fill-opacity:1;fill-rule:nonzero;stroke:none"
             d="m 0,0 c 0,-12.199 -3.126,-22.088 -6.981,-22.088 -3.857,0 -6.982,9.889 -6.982,22.088 0,12.199 3.125,22.088 6.982,22.088 C -3.126,22.088 0,12.199 0,0" /></g><g
           transform="translate(447.0439,632.3872)"
           id="g166"><path
             id="path168"
             style="fill:#db5727;fill-opacity:1;fill-rule:nonzero;stroke:none"
             d="m 0,0 c -3.808,0 -6.904,9.648 -6.979,21.642 0.436,-1.114 0.962,-1.888 1.693,-1.888 2.609,0 2.609,9.849 5.217,9.849 2.608,0 2.608,-9.849 5.216,-9.849 0.812,0 1.372,0.954 1.835,2.267 C 6.971,9.853 3.849,0 0,0" /></g><g
           transform="translate(455.1699,600.6221)"
           id="g170"><path
             id="path172"
             style="fill:#db5727;fill-opacity:1;fill-rule:nonzero;stroke:none"
             d="M 0,0 C 2.209,1.873 4.247,4.026 3.783,6.16 H -8.219 -20.222 c -0.463,-2.134 1.576,-4.287 3.784,-6.16 9.856,-8.358 2.679,-17.393 8.219,-17.393 5.443,0 -1.636,9.035 8.219,17.393" /></g><g
           transform="translate(446.9512,582.9419)"
           id="g174"><path
             id="path176"
             style="fill:#232323;fill-opacity:1;fill-rule:nonzero;stroke:none"
             d="M 0,0 C -1.62,0 -2.406,1 -3.123,2.732 H 3.123 C 2.405,1 1.619,0 0,0" /></g><g
           transform="translate(433.6201,640.4712)"
           id="g178"><path
             id="path180"
             style="fill:#db5727;fill-opacity:1;fill-rule:nonzero;stroke:none"
             d="M 0,0 V -0.569 C 0,-3.04 1.951,-5.043 4.356,-5.043 h 17.949 c 2.406,0 4.356,2.003 4.356,4.474 V 0 C 26.661,10.266 0.001,10.266 0,0" /></g><g
           transform="translate(446.9512,603.1484)"
           id="g182"><path
             id="path184"
             style="fill:#db5727;fill-opacity:1;fill-rule:nonzero;stroke:none"
             d="m 0,0 c -5.855,0 -10.603,16.975 -10.603,26.599 0,9.624 4.748,17.425 10.603,17.425 5.854,0 10.602,-7.801 10.602,-17.425 C 10.602,16.975 5.854,0 0,0" /></g><g
           transform="translate(452.9414,606.7822)"
           id="g186"><path
             id="path188"
             style="fill:#ffffff;fill-opacity:1;fill-rule:nonzero;stroke:none"
             d="m 0,0 h -4.164 c 0,2.346 3.792,4.277 6.076,4.277 2.423,0 2.253,-2.838 2.253,-4.277 z" /></g><g
           transform="translate(440.96,606.7822)"
           id="g190"><path
             id="path192"
             style="fill:#ffffff;fill-opacity:1;fill-rule:nonzero;stroke:none"
             d="m 0,0 h 4.165 c 0,2.346 -3.792,4.277 -6.077,4.277 -2.423,0 -2.252,-2.838 -2.252,-4.277 z" /></g><g
           transform="translate(451.8369,595.4292)"
           id="g194"><path
             id="path196"
             style="fill:#262626;fill-opacity:1;fill-rule:nonzero;stroke:none"
             d="m 0,0 c -0.768,0 -1.39,0.994 -1.39,2.221 0,1.226 0.622,2.22 1.39,2.22 0.769,0 1.391,-0.994 1.391,-2.22 C 1.391,0.994 0.769,0 0,0" /></g><g
           transform="translate(442.0645,595.4292)"
           id="g198"><path
             id="path200"
             style="fill:#262626;fill-opacity:1;fill-rule:nonzero;stroke:none"
             d="m 0,0 c -0.768,0 -1.391,0.994 -1.391,2.221 0,1.226 0.623,2.22 1.391,2.22 0.768,0 1.391,-0.994 1.391,-2.22 C 1.391,0.994 0.768,0 0,0" /></g><g
           transform="translate(382.0591,586.2236)"
           id="g202"><path
             id="path204"
             style="fill:#149a49;fill-opacity:1;fill-rule:nonzero;stroke:none"
             d="m 0,0 h -67.059 c -5.523,0 -10,4.477 -10,10 v 67.059 c 0,5.523 4.477,10 10,10 H 0 c 5.522,0 10,-4.477 10,-10 V 10 C 10,4.477 5.522,0 0,0" /></g><g
           transform="translate(382.0591,586.2236)"
           id="g206"><path
             id="path208"
             style="fill:none;stroke:#ffffff;stroke-width:1.74100006;stroke-linecap:butt;stroke-linejoin:miter;stroke-miterlimit:10;stroke-dasharray:none;stroke-opacity:1"
             d="m 0,0 h -67.059 c -5.523,0 -10,4.477 -10,10 v 67.059 c 0,5.523 4.477,10 10,10 H 0 c 5.522,0 10,-4.477 10,-10 V 10 C 10,4.477 5.522,0 0,0 Z" /></g><g
           transform="translate(377.2944,629.7529)"
           id="g210"><path
             id="path212"
             style="fill:#0b8041;fill-opacity:1;fill-rule:nonzero;stroke:none"
             d="m 0,0 c 0,-15.886 -12.878,-28.765 -28.765,-28.765 -15.886,0 -28.765,12.879 -28.765,28.765 0,15.886 12.879,28.765 28.765,28.765 C -12.878,28.765 0,15.886 0,0" /></g><g
           transform="translate(370.7886,626.8022)"
           id="g214"><path
             id="path216"
             style="fill:#ef8440;fill-opacity:1;fill-rule:nonzero;stroke:none"
             d="m 0,0 c 0,-12.293 -9.965,-22.259 -22.259,-22.259 -12.293,0 -22.259,9.966 -22.259,22.259 0,12.293 9.966,22.259 22.259,22.259 C -9.965,22.259 0,12.293 0,0" /></g><g
           transform="translate(327.5737,666.0303)"
           id="g218"><path
             id="path220"
             style="fill:#ef8440;fill-opacity:1;fill-rule:nonzero;stroke:none"
             d="M 0,0 C 4.625,2.67 20.656,-28.094 20.656,-28.094 L 7.422,-35.734 C 7.422,-35.734 -6.863,-3.962 0,0" /></g><g
           transform="translate(369.4854,666.0303)"
           id="g222"><path
             id="path224"
             style="fill:#ef8440;fill-opacity:1;fill-rule:nonzero;stroke:none"
             d="m 0,0 c -4.625,2.67 -20.656,-28.094 -20.656,-28.094 l 13.234,-7.64 c 0,0 14.285,31.772 7.422,35.734" /></g><g
           transform="translate(341.8882,622.772)"
           id="g226"><path
             id="path228"
             style="fill:#282827;fill-opacity:1;fill-rule:nonzero;stroke:none"
             d="m 0,0 c 0,-2.226 -1.018,-4.03 -2.274,-4.03 -1.256,0 -2.274,1.804 -2.274,4.03 0,2.226 1.018,4.03 2.274,4.03 C -1.018,4.03 0,2.226 0,0" /></g><g
           transform="translate(359.7187,622.772)"
           id="g230"><path
             id="path232"
             style="fill:#282827;fill-opacity:1;fill-rule:nonzero;stroke:none"
             d="m 0,0 c 0,-2.226 -1.018,-4.03 -2.274,-4.03 -1.256,0 -2.274,1.804 -2.274,4.03 0,2.226 1.018,4.03 2.274,4.03 C -1.018,4.03 0,2.226 0,0" /></g><g
           id="g234"><g
             id="g236" /><g
             id="g248"><g
               style="opacity:0.13999903"
               id="g246"
               clip-path="url(#clipPath240)"><g
                 id="g244"
                 transform="translate(352.9517,611.1445)"><path
                   id="path242"
                   style="fill:#000000;fill-opacity:1;fill-rule:nonzero;stroke:none"
                   d="m 0,0 c 0,-1.167 -1.98,-2.113 -4.422,-2.113 -2.442,0 -4.422,0.946 -4.422,2.113 0,1.167 1.98,2.113 4.422,2.113 C -1.98,2.113 0,1.167 0,0" /></g></g></g></g><g
           transform="translate(284.5264,586.2236)"
           id="g250"><path
             id="path252"
             style="fill:#149a49;fill-opacity:1;fill-rule:nonzero;stroke:none"
             d="m 0,0 h -67.059 c -5.523,0 -10,4.477 -10,10 v 67.059 c 0,5.523 4.477,10 10,10 H 0 c 5.522,0 10,-4.477 10,-10 V 10 C 10,4.477 5.522,0 0,0" /></g><g
           transform="translate(284.5264,586.2236)"
           id="g254"><path
             id="path256"
             style="fill:none;stroke:#ffffff;stroke-width:1.74100006;stroke-linecap:butt;stroke-linejoin:miter;stroke-miterlimit:10;stroke-dasharray:none;stroke-opacity:1"
             d="m 0,0 h -67.059 c -5.523,0 -10,4.477 -10,10 v 67.059 c 0,5.523 4.477,10 10,10 H 0 c 5.522,0 10,-4.477 10,-10 V 10 C 10,4.477 5.522,0 0,0 Z" /></g><g
           transform="translate(279.7617,629.7529)"
           id="g258"><path
             id="path260"
             style="fill:#0b8041;fill-opacity:1;fill-rule:nonzero;stroke:none"
             d="m 0,0 c 0,-15.886 -12.878,-28.765 -28.765,-28.765 -15.886,0 -28.765,12.879 -28.765,28.765 0,15.886 12.879,28.765 28.765,28.765 C -12.878,28.765 0,15.886 0,0" /></g><g
           transform="translate(273.2559,626.8022)"
           id="g262"><path
             id="path264"
             style="fill:#ffffff;fill-opacity:1;fill-rule:nonzero;stroke:none"
             d="m 0,0 c 0,-12.293 -9.966,-22.259 -22.259,-22.259 -12.293,0 -22.259,9.966 -22.259,22.259 0,12.293 9.966,22.259 22.259,22.259 C -9.966,22.259 0,12.293 0,0" /></g><g
           transform="translate(230.041,666.0303)"
           id="g266"><path
             id="path268"
             style="fill:#ffffff;fill-opacity:1;fill-rule:nonzero;stroke:none"
             d="M 0,0 C 4.625,2.67 20.656,-28.094 20.656,-28.094 L 7.422,-35.734 C 7.422,-35.734 -6.863,-3.962 0,0" /></g><g
           transform="translate(271.9526,666.0303)"
           id="g270"><path
             id="path272"
             style="fill:#ffffff;fill-opacity:1;fill-rule:nonzero;stroke:none"
             d="m 0,0 c -4.625,2.67 -20.656,-28.094 -20.656,-28.094 l 13.234,-7.64 c 0,0 14.285,31.772 7.422,35.734" /></g><g
           transform="translate(244.3555,622.772)"
           id="g274"><path
             id="path276"
             style="fill:#282827;fill-opacity:1;fill-rule:nonzero;stroke:none"
             d="m 0,0 c 0,-2.226 -1.018,-4.03 -2.274,-4.03 -1.256,0 -2.274,1.804 -2.274,4.03 0,2.226 1.018,4.03 2.274,4.03 C -1.018,4.03 0,2.226 0,0" /></g><g
           transform="translate(262.186,622.772)"
           id="g278"><path
             id="path280"
             style="fill:#282827;fill-opacity:1;fill-rule:nonzero;stroke:none"
             d="m 0,0 c 0,-2.226 -1.018,-4.03 -2.274,-4.03 -1.256,0 -2.274,1.804 -2.274,4.03 0,2.226 1.018,4.03 2.274,4.03 C -1.018,4.03 0,2.226 0,0" /></g><g
           id="g282"><g
             id="g284" /><g
             id="g296"><g
               style="opacity:0.13999903"
               id="g294"
               clip-path="url(#clipPath288)"><g
                 id="g292"
                 transform="translate(255.4189,611.1445)"><path
                   id="path290"
                   style="fill:#000000;fill-opacity:1;fill-rule:nonzero;stroke:none"
                   d="m 0,0 c 0,-1.167 -1.98,-2.113 -4.422,-2.113 -2.442,0 -4.422,0.946 -4.422,2.113 0,1.167 1.98,2.113 4.422,2.113 C -1.98,2.113 0,1.167 0,0" /></g></g></g></g><g
           transform="translate(186.9937,586.2236)"
           id="g298"><path
             id="path300"
             style="fill:#149a49;fill-opacity:1;fill-rule:nonzero;stroke:none"
             d="m 0,0 h -67.059 c -5.523,0 -10,4.477 -10,10 v 67.059 c 0,5.523 4.477,10 10,10 H 0 c 5.522,0 10,-4.477 10,-10 V 10 C 10,4.477 5.522,0 0,0" /></g><g
           transform="translate(186.9937,586.2236)"
           id="g302"><path
             id="path304"
             style="fill:none;stroke:#ffffff;stroke-width:1.74100006;stroke-linecap:butt;stroke-linejoin:miter;stroke-miterlimit:10;stroke-dasharray:none;stroke-opacity:1"
             d="m 0,0 h -67.059 c -5.523,0 -10,4.477 -10,10 v 67.059 c 0,5.523 4.477,10 10,10 H 0 c 5.522,0 10,-4.477 10,-10 V 10 C 10,4.477 5.522,0 0,0 Z" /></g><g
           transform="translate(182.2285,629.7529)"
           id="g306"><path
             id="path308"
             style="fill:#0b8041;fill-opacity:1;fill-rule:nonzero;stroke:none"
             d="m 0,0 c 0,-15.886 -12.878,-28.765 -28.765,-28.765 -15.886,0 -28.764,12.879 -28.764,28.765 0,15.886 12.878,28.765 28.764,28.765 C -12.878,28.765 0,15.886 0,0" /></g><g
           transform="translate(175.7231,626.8022)"
           id="g310"><path
             id="path312"
             style="fill:#aeaeaf;fill-opacity:1;fill-rule:nonzero;stroke:none"
             d="m 0,0 c 0,-12.293 -9.966,-22.259 -22.259,-22.259 -12.293,0 -22.259,9.966 -22.259,22.259 0,12.293 9.966,22.259 22.259,22.259 C -9.966,22.259 0,12.293 0,0" /></g><g
           transform="translate(132.5083,666.0303)"
           id="g314"><path
             id="path316"
             style="fill:#aeaeaf;fill-opacity:1;fill-rule:nonzero;stroke:none"
             d="M 0,0 C 4.625,2.67 20.656,-28.094 20.656,-28.094 L 7.422,-35.734 C 7.422,-35.734 -6.863,-3.962 0,0" /></g><g
           transform="translate(174.4199,666.0303)"
           id="g318"><path
             id="path320"
             style="fill:#aeaeaf;fill-opacity:1;fill-rule:nonzero;stroke:none"
             d="m 0,0 c -4.625,2.67 -20.656,-28.094 -20.656,-28.094 l 13.234,-7.64 c 0,0 14.285,31.772 7.422,35.734" /></g><g
           transform="translate(146.8228,622.772)"
           id="g322"><path
             id="path324"
             style="fill:#282827;fill-opacity:1;fill-rule:nonzero;stroke:none"
             d="m 0,0 c 0,-2.226 -1.018,-4.03 -2.274,-4.03 -1.256,0 -2.274,1.804 -2.274,4.03 0,2.226 1.018,4.03 2.274,4.03 C -1.018,4.03 0,2.226 0,0" /></g><g
           transform="translate(164.6533,622.772)"
           id="g326"><path
             id="path328"
             style="fill:#282827;fill-opacity:1;fill-rule:nonzero;stroke:none"
             d="m 0,0 c 0,-2.226 -1.018,-4.03 -2.274,-4.03 -1.256,0 -2.274,1.804 -2.274,4.03 0,2.226 1.018,4.03 2.274,4.03 C -1.018,4.03 0,2.226 0,0" /></g><g
           id="g330"><g
             id="g332" /><g
             id="g344"><g
               style="opacity:0.13999903"
               id="g342"
               clip-path="url(#clipPath336)"><g
                 id="g340"
                 transform="translate(157.8862,611.1445)"><path
                   id="path338"
                   style="fill:#000000;fill-opacity:1;fill-rule:nonzero;stroke:none"
                   d="m 0,0 c 0,-1.167 -1.98,-2.113 -4.422,-2.113 -2.442,0 -4.422,0.946 -4.422,2.113 0,1.167 1.98,2.113 4.422,2.113 C -1.98,2.113 0,1.167 0,0" /></g></g></g></g><g
           transform="translate(433.6787,139.3096)"
           id="g346"><path
             id="path348"
             style="fill:#149a49;fill-opacity:1;fill-rule:nonzero;stroke:none"
             d="m 0,0 h -67.059 c -5.523,0 -10,4.477 -10,10 v 67.059 c 0,5.522 4.477,10 10,10 H 0 c 5.523,0 10,-4.478 10,-10 V 10 C 10,4.477 5.523,0 0,0" /></g><g
           transform="translate(433.6787,139.3096)"
           id="g350"><path
             id="path352"
             style="fill:none;stroke:#ffffff;stroke-width:1.74100006;stroke-linecap:butt;stroke-linejoin:miter;stroke-miterlimit:10;stroke-dasharray:none;stroke-opacity:1"
             d="m 0,0 h -67.059 c -5.523,0 -10,4.477 -10,10 v 67.059 c 0,5.522 4.477,10 10,10 H 0 c 5.523,0 10,-4.478 10,-10 V 10 C 10,4.477 5.523,0 0,0 Z" /></g><g
           transform="translate(430.1494,182.8389)"
           id="g354"><path
             id="path356"
             style="fill:#473a38;fill-opacity:1;fill-rule:nonzero;stroke:none"
             d="m 0,0 c 0,-16.568 -13.432,-30 -30,-30 -16.568,0 -30,13.432 -30,30 0,16.568 13.432,30 30,30 C -13.432,30 0,16.568 0,0" /></g><g
           transform="translate(430.1494,182.8389)"
           id="g358"><path
             id="path360"
             style="fill:none;stroke:#55403d;stroke-width:3.87100005;stroke-linecap:butt;stroke-linejoin:miter;stroke-miterlimit:10;stroke-dasharray:none;stroke-opacity:1"
             d="m 0,0 c 0,-16.568 -13.432,-30 -30,-30 -16.568,0 -30,13.432 -30,30 0,16.568 13.432,30 30,30 C -13.432,30 0,16.568 0,0 Z" /></g><g
           transform="translate(422.4092,179.8877)"
           id="g362"><path
             id="path364"
             style="fill:#aeaeaf;fill-opacity:1;fill-rule:nonzero;stroke:none"
             d="m 0,0 c 0,-12.293 -9.966,-22.259 -22.259,-22.259 -12.293,0 -22.259,9.966 -22.259,22.259 0,12.294 9.966,22.259 22.259,22.259 C -9.966,22.259 0,12.294 0,0" /></g><g
           transform="translate(379.1938,219.1162)"
           id="g366"><path
             id="path368"
             style="fill:#aeaeaf;fill-opacity:1;fill-rule:nonzero;stroke:none"
             d="M 0,0 C 4.625,2.67 20.656,-28.094 20.656,-28.094 L 7.422,-35.734 C 7.422,-35.734 -6.863,-3.963 0,0" /></g><g
           transform="translate(421.1055,219.1162)"
           id="g370"><path
             id="path372"
             style="fill:#aeaeaf;fill-opacity:1;fill-rule:nonzero;stroke:none"
             d="m 0,0 c -4.625,2.67 -20.656,-28.094 -20.656,-28.094 l 13.233,-7.64 c 0,0 14.286,31.771 7.423,35.734" /></g><g
           transform="translate(393.5083,175.8574)"
           id="g374"><path
             id="path376"
             style="fill:#282827;fill-opacity:1;fill-rule:nonzero;stroke:none"
             d="m 0,0 c 0,-2.226 -1.018,-4.029 -2.274,-4.029 -1.256,0 -2.274,1.803 -2.274,4.029 0,2.227 1.018,4.03 2.274,4.03 C -1.018,4.03 0,2.227 0,0" /></g><g
           transform="translate(411.3389,175.8574)"
           id="g378"><path
             id="path380"
             style="fill:#282827;fill-opacity:1;fill-rule:nonzero;stroke:none"
             d="m 0,0 c 0,-2.226 -1.018,-4.029 -2.273,-4.029 -1.257,0 -2.275,1.803 -2.275,4.029 0,2.227 1.018,4.03 2.275,4.03 C -1.018,4.03 0,2.227 0,0" /></g><g
           id="g382"><g
             id="g384" /><g
             id="g396"><g
               style="opacity:0.13999903"
               id="g394"
               clip-path="url(#clipPath388)"><g
                 id="g392"
                 transform="translate(404.5713,164.2305)"><path
                   id="path390"
                   style="fill:#000000;fill-opacity:1;fill-rule:nonzero;stroke:none"
                   d="m 0,0 c 0,-1.167 -1.979,-2.113 -4.422,-2.113 -2.442,0 -4.422,0.946 -4.422,2.113 0,1.167 1.98,2.113 4.422,2.113 C -1.979,2.113 0,1.167 0,0" /></g></g></g></g><g
           transform="translate(531.2119,139.3096)"
           id="g398"><path
             id="path400"
             style="fill:#149a49;fill-opacity:1;fill-rule:nonzero;stroke:none"
             d="m 0,0 h -67.059 c -5.523,0 -10,4.477 -10,10 v 67.059 c 0,5.522 4.477,10 10,10 H 0 c 5.522,0 10,-4.478 10,-10 V 10 C 10,4.477 5.522,0 0,0" /></g><g
           transform="translate(531.2119,139.3096)"
           id="g402"><path
             id="path404"
             style="fill:none;stroke:#ffffff;stroke-width:1.74100006;stroke-linecap:butt;stroke-linejoin:miter;stroke-miterlimit:10;stroke-dasharray:none;stroke-opacity:1"
             d="m 0,0 h -67.059 c -5.523,0 -10,4.477 -10,10 v 67.059 c 0,5.522 4.477,10 10,10 H 0 c 5.522,0 10,-4.478 10,-10 V 10 C 10,4.477 5.522,0 0,0 Z" /></g><g
           transform="translate(527.6826,182.8389)"
           id="g406"><path
             id="path408"
             style="fill:#473a38;fill-opacity:1;fill-rule:nonzero;stroke:none"
             d="m 0,0 c 0,-16.568 -13.432,-30 -30,-30 -16.568,0 -30,13.432 -30,30 0,16.568 13.432,30 30,30 C -13.432,30 0,16.568 0,0" /></g><g
           transform="translate(527.6826,182.8389)"
           id="g410"><path
             id="path412"
             style="fill:none;stroke:#55403d;stroke-width:3.87100005;stroke-linecap:butt;stroke-linejoin:miter;stroke-miterlimit:10;stroke-dasharray:none;stroke-opacity:1"
             d="m 0,0 c 0,-16.568 -13.432,-30 -30,-30 -16.568,0 -30,13.432 -30,30 0,16.568 13.432,30 30,30 C -13.432,30 0,16.568 0,0 Z" /></g><g
           transform="translate(519.9414,179.8877)"
           id="g414"><path
             id="path416"
             style="fill:#ef8440;fill-opacity:1;fill-rule:nonzero;stroke:none"
             d="m 0,0 c 0,-12.293 -9.966,-22.259 -22.259,-22.259 -12.293,0 -22.259,9.966 -22.259,22.259 0,12.294 9.966,22.259 22.259,22.259 C -9.966,22.259 0,12.294 0,0" /></g><g
           transform="translate(476.7266,219.1162)"
           id="g418"><path
             id="path420"
             style="fill:#ef8440;fill-opacity:1;fill-rule:nonzero;stroke:none"
             d="M 0,0 C 4.625,2.67 20.656,-28.094 20.656,-28.094 L 7.423,-35.734 C 7.423,-35.734 -6.863,-3.963 0,0" /></g><g
           transform="translate(518.6377,219.1162)"
           id="g422"><path
             id="path424"
             style="fill:#ef8440;fill-opacity:1;fill-rule:nonzero;stroke:none"
             d="m 0,0 c -4.625,2.67 -20.655,-28.094 -20.655,-28.094 l 13.233,-7.64 c 0,0 14.285,31.771 7.422,35.734" /></g><g
           transform="translate(491.041,175.8574)"
           id="g426"><path
             id="path428"
             style="fill:#282827;fill-opacity:1;fill-rule:nonzero;stroke:none"
             d="m 0,0 c 0,-2.226 -1.018,-4.029 -2.274,-4.029 -1.256,0 -2.274,1.803 -2.274,4.029 0,2.227 1.018,4.03 2.274,4.03 C -1.018,4.03 0,2.227 0,0" /></g><g
           transform="translate(508.8721,175.8574)"
           id="g430"><path
             id="path432"
             style="fill:#282827;fill-opacity:1;fill-rule:nonzero;stroke:none"
             d="m 0,0 c 0,-2.226 -1.019,-4.029 -2.274,-4.029 -1.256,0 -2.275,1.803 -2.275,4.029 0,2.227 1.019,4.03 2.275,4.03 C -1.019,4.03 0,2.227 0,0" /></g><g
           id="g434"><g
             id="g436" /><g
             id="g448"><g
               style="opacity:0.13999903"
               id="g446"
               clip-path="url(#clipPath440)"><g
                 id="g444"
                 transform="translate(502.1045,164.2305)"><path
                   id="path442"
                   style="fill:#000000;fill-opacity:1;fill-rule:nonzero;stroke:none"
                   d="m 0,0 c 0,-1.167 -1.979,-2.113 -4.422,-2.113 -2.442,0 -4.422,0.946 -4.422,2.113 0,1.167 1.98,2.113 4.422,2.113 C -1.979,2.113 0,1.167 0,0" /></g></g></g></g><g
           transform="translate(335.8472,139.3096)"
           id="g450"><path
             id="path452"
             style="fill:#149a49;fill-opacity:1;fill-rule:nonzero;stroke:none"
             d="m 0,0 h -67.059 c -5.523,0 -10,4.477 -10,10 v 67.059 c 0,5.522 4.477,10 10,10 H 0 c 5.522,0 10,-4.478 10,-10 V 10 C 10,4.477 5.522,0 0,0" /></g><g
           transform="translate(335.8472,139.3096)"
           id="g454"><path
             id="path456"
             style="fill:none;stroke:#ffffff;stroke-width:1.74100006;stroke-linecap:butt;stroke-linejoin:miter;stroke-miterlimit:10;stroke-dasharray:none;stroke-opacity:1"
             d="m 0,0 h -67.059 c -5.523,0 -10,4.477 -10,10 v 67.059 c 0,5.522 4.477,10 10,10 H 0 c 5.522,0 10,-4.478 10,-10 V 10 C 10,4.477 5.522,0 0,0 Z" /></g><g
           transform="translate(332.3174,182.8389)"
           id="g458"><path
             id="path460"
             style="fill:#473a38;fill-opacity:1;fill-rule:nonzero;stroke:none"
             d="m 0,0 c 0,-16.568 -13.431,-30 -30,-30 -16.568,0 -30,13.432 -30,30 0,16.568 13.432,30 30,30 C -13.431,30 0,16.568 0,0" /></g><g
           transform="translate(332.3174,182.8389)"
           id="g462"><path
             id="path464"
             style="fill:none;stroke:#55403d;stroke-width:3.87100005;stroke-linecap:butt;stroke-linejoin:miter;stroke-miterlimit:10;stroke-dasharray:none;stroke-opacity:1"
             d="m 0,0 c 0,-16.568 -13.431,-30 -30,-30 -16.568,0 -30,13.432 -30,30 0,16.568 13.432,30 30,30 C -13.431,30 0,16.568 0,0 Z" /></g><g
           transform="translate(324.5767,179.8877)"
           id="g466"><path
             id="path468"
             style="fill:#ffffff;fill-opacity:1;fill-rule:nonzero;stroke:none"
             d="m 0,0 c 0,-12.293 -9.965,-22.259 -22.259,-22.259 -12.293,0 -22.259,9.966 -22.259,22.259 0,12.294 9.966,22.259 22.259,22.259 C -9.965,22.259 0,12.294 0,0" /></g><g
           transform="translate(281.3618,219.1162)"
           id="g470"><path
             id="path472"
             style="fill:#ffffff;fill-opacity:1;fill-rule:nonzero;stroke:none"
             d="M 0,0 C 4.625,2.67 20.656,-28.094 20.656,-28.094 L 7.422,-35.734 C 7.422,-35.734 -6.863,-3.963 0,0" /></g><g
           transform="translate(323.2734,219.1162)"
           id="g474"><path
             id="path476"
             style="fill:#ffffff;fill-opacity:1;fill-rule:nonzero;stroke:none"
             d="m 0,0 c -4.625,2.67 -20.656,-28.094 -20.656,-28.094 l 13.234,-7.64 c 0,0 14.285,31.771 7.422,35.734" /></g><g
           transform="translate(295.6763,175.8574)"
           id="g478"><path
             id="path480"
             style="fill:#282827;fill-opacity:1;fill-rule:nonzero;stroke:none"
             d="m 0,0 c 0,-2.226 -1.018,-4.029 -2.274,-4.029 -1.256,0 -2.274,1.803 -2.274,4.029 0,2.227 1.018,4.03 2.274,4.03 C -1.018,4.03 0,2.227 0,0" /></g><g
           transform="translate(313.5068,175.8574)"
           id="g482"><path
             id="path484"
             style="fill:#282827;fill-opacity:1;fill-rule:nonzero;stroke:none"
             d="m 0,0 c 0,-2.226 -1.018,-4.029 -2.274,-4.029 -1.256,0 -2.274,1.803 -2.274,4.029 0,2.227 1.018,4.03 2.274,4.03 C -1.018,4.03 0,2.227 0,0" /></g><g
           id="g486"><g
             id="g488" /><g
             id="g500"><g
               style="opacity:0.13999903"
               id="g498"
               clip-path="url(#clipPath492)"><g
                 id="g496"
                 transform="translate(306.7397,164.2305)"><path
                   id="path494"
                   style="fill:#000000;fill-opacity:1;fill-rule:nonzero;stroke:none"
                   d="m 0,0 c 0,-1.167 -1.98,-2.113 -4.422,-2.113 -2.442,0 -4.422,0.946 -4.422,2.113 0,1.167 1.98,2.113 4.422,2.113 C -1.98,2.113 0,1.167 0,0" /></g></g></g></g><g
           transform="translate(346.5674,310.4385)"
           id="g502"><path
             id="path504"
             style="fill:#149a49;fill-opacity:1;fill-rule:nonzero;stroke:none"
             d="m 0,0 h -67.059 c -5.523,0 -10,4.478 -10,10 v 67.059 c 0,5.523 4.477,10 10,10 H 0 c 5.523,0 10,-4.477 10,-10 V 10 C 10,4.478 5.523,0 0,0" /></g><g
           transform="translate(341.8027,353.9678)"
           id="g506"><path
             id="path508"
             style="fill:#0b8041;fill-opacity:1;fill-rule:nonzero;stroke:none"
             d="m 0,0 c 0,-15.887 -12.878,-28.765 -28.765,-28.765 -15.886,0 -28.764,12.878 -28.764,28.765 0,15.887 12.878,28.765 28.764,28.765 C -12.878,28.765 0,15.887 0,0" /></g><g
           transform="translate(335.2969,351.0176)"
           id="g510"><path
             id="path512"
             style="fill:#ffffff;fill-opacity:1;fill-rule:nonzero;stroke:none"
             d="m 0,0 c 0,-12.294 -9.965,-22.259 -22.259,-22.259 -12.293,0 -22.259,9.965 -22.259,22.259 0,12.293 9.966,22.259 22.259,22.259 C -9.965,22.259 0,12.293 0,0" /></g><g
           transform="translate(292.082,390.2451)"
           id="g514"><path
             id="path516"
             style="fill:#ffffff;fill-opacity:1;fill-rule:nonzero;stroke:none"
             d="M 0,0 C 4.625,2.671 20.656,-28.094 20.656,-28.094 L 7.422,-35.734 C 7.422,-35.734 -6.863,-3.962 0,0" /></g><g
           transform="translate(333.9937,390.2451)"
           id="g518"><path
             id="path520"
             style="fill:#ffffff;fill-opacity:1;fill-rule:nonzero;stroke:none"
             d="m 0,0 c -4.625,2.671 -20.656,-28.094 -20.656,-28.094 l 13.234,-7.64 c 0,0 14.285,31.772 7.422,35.734" /></g><g
           transform="translate(306.3965,346.9873)"
           id="g522"><path
             id="path524"
             style="fill:#282827;fill-opacity:1;fill-rule:nonzero;stroke:none"
             d="m 0,0 c 0,-2.227 -1.018,-4.03 -2.274,-4.03 -1.256,0 -2.274,1.803 -2.274,4.03 0,2.226 1.018,4.03 2.274,4.03 C -1.018,4.03 0,2.226 0,0" /></g><g
           transform="translate(324.2275,346.9873)"
           id="g526"><path
             id="path528"
             style="fill:#282827;fill-opacity:1;fill-rule:nonzero;stroke:none"
             d="m 0,0 c 0,-2.227 -1.018,-4.03 -2.274,-4.03 -1.256,0 -2.274,1.803 -2.274,4.03 0,2.226 1.018,4.03 2.274,4.03 C -1.018,4.03 0,2.226 0,0" /></g><g
           id="g530"><g
             id="g532" /><g
             id="g544"><g
               style="opacity:0.13999903"
               id="g542"
               clip-path="url(#clipPath536)"><g
                 id="g540"
                 transform="translate(317.46,335.3594)"><path
                   id="path538"
                   style="fill:#000000;fill-opacity:1;fill-rule:nonzero;stroke:none"
                   d="m 0,0 c 0,-1.167 -1.98,-2.112 -4.422,-2.112 -2.442,0 -4.422,0.945 -4.422,2.112 0,1.167 1.98,2.113 4.422,2.113 C -1.98,2.113 0,1.167 0,0" /></g></g></g></g><g
           transform="translate(520.4912,310.4385)"
           id="g546"><path
             id="path548"
             style="fill:#149a49;fill-opacity:1;fill-rule:nonzero;stroke:none"
             d="m 0,0 h -67.059 c -5.522,0 -10,4.478 -10,10 v 67.059 c 0,5.523 4.478,10 10,10 H 0 c 5.523,0 10,-4.477 10,-10 V 10 C 10,4.478 5.523,0 0,0" /></g><g
           transform="translate(515.7266,353.9678)"
           id="g550"><path
             id="path552"
             style="fill:#0b8041;fill-opacity:1;fill-rule:nonzero;stroke:none"
             d="m 0,0 c 0,-15.887 -12.878,-28.765 -28.765,-28.765 -15.885,0 -28.764,12.878 -28.764,28.765 0,15.887 12.879,28.765 28.764,28.765 C -12.878,28.765 0,15.887 0,0" /></g><g
           transform="translate(433.4326,310.4385)"
           id="g554"><path
             id="path556"
             style="fill:#149a49;fill-opacity:1;fill-rule:nonzero;stroke:none"
             d="m 0,0 h -67.059 c -5.523,0 -10,4.478 -10,10 v 67.059 c 0,5.523 4.477,10 10,10 H 0 c 5.522,0 10,-4.477 10,-10 V 10 C 10,4.478 5.522,0 0,0" /></g><g
           transform="translate(433.4326,310.4385)"
           id="g558"><path
             id="path560"
             style="fill:none;stroke:#ffffff;stroke-width:1.74100006;stroke-linecap:butt;stroke-linejoin:miter;stroke-miterlimit:10;stroke-dasharray:none;stroke-opacity:1"
             d="m 0,0 h -67.059 c -5.523,0 -10,4.478 -10,10 v 67.059 c 0,5.523 4.477,10 10,10 H 0 c 5.522,0 10,-4.477 10,-10 V 10 C 10,4.478 5.522,0 0,0 Z" /></g><g
           transform="translate(431.0205,353.9678)"
           id="g562"><path
             id="path564"
             style="fill:#c52928;fill-opacity:1;fill-rule:nonzero;stroke:none"
             d="m 0,0 c 0,-17.186 -13.932,-31.117 -31.117,-31.117 -17.186,0 -31.118,13.931 -31.118,31.117 0,17.186 13.932,31.118 31.118,31.118 C -13.932,31.118 0,17.186 0,0" /></g><g
           transform="translate(406.0156,353.9678)"
           id="g566"><path
             id="path568"
             style="fill:#ffffff;fill-opacity:1;fill-rule:nonzero;stroke:none"
             d="m 0,0 c 0,-3.376 -2.736,-6.112 -6.112,-6.112 -3.376,0 -6.113,2.736 -6.113,6.112 0,3.376 2.737,6.112 6.113,6.112 C -2.736,6.112 0,3.376 0,0" /></g><g
           transform="translate(406.0156,374.3428)"
           id="g570"><path
             id="path572"
             style="fill:#ffffff;fill-opacity:1;fill-rule:nonzero;stroke:none"
             d="m 0,0 c 0,-3.376 -2.736,-6.112 -6.112,-6.112 -3.376,0 -6.113,2.736 -6.113,6.112 0,3.375 2.737,6.112 6.113,6.112 C -2.736,6.112 0,3.375 0,0" /></g><g
           transform="translate(406.0156,333.5928)"
           id="g574"><path
             id="path576"
             style="fill:#ffffff;fill-opacity:1;fill-rule:nonzero;stroke:none"
             d="m 0,0 c 0,-3.375 -2.736,-6.112 -6.112,-6.112 -3.376,0 -6.113,2.737 -6.113,6.112 0,3.376 2.737,6.112 6.113,6.112 C -2.736,6.112 0,3.376 0,0" /></g><g
           transform="translate(379.2021,349.0742)"
           id="g578"><path
             id="path580"
             style="fill:#ffffff;fill-opacity:1;fill-rule:nonzero;stroke:none"
             d="m 0,0 c 2.923,1.687 6.662,0.686 8.35,-2.237 1.688,-2.924 0.686,-6.662 -2.238,-8.35 -2.923,-1.688 -6.661,-0.686 -8.349,2.237 C -3.925,-5.427 -2.924,-1.688 0,0" /></g><g
           transform="translate(414.4922,369.4482)"
           id="g582"><path
             id="path584"
             style="fill:#ffffff;fill-opacity:1;fill-rule:nonzero;stroke:none"
             d="M 0,0 C 2.923,1.688 6.661,0.687 8.35,-2.237 10.037,-5.16 9.036,-8.898 6.112,-10.587 3.188,-12.274 -0.55,-11.272 -2.237,-8.35 -3.926,-5.426 -2.924,-1.687 0,0" /></g><g
           transform="translate(414.4922,338.4873)"
           id="g586"><path
             id="path588"
             style="fill:#ffffff;fill-opacity:1;fill-rule:nonzero;stroke:none"
             d="m 0,0 c -2.924,1.687 -3.926,5.426 -2.237,8.35 1.687,2.922 5.425,3.924 8.349,2.237 C 9.036,8.898 10.037,5.16 8.35,2.237 6.661,-0.687 2.923,-1.688 0,0" /></g><g
           transform="translate(379.2021,358.8613)"
           id="g590"><path
             id="path592"
             style="fill:#ffffff;fill-opacity:1;fill-rule:nonzero;stroke:none"
             d="m 0,0 c -2.924,1.688 -3.925,5.427 -2.237,8.35 1.688,2.923 5.426,3.925 8.349,2.237 C 9.036,8.899 10.038,5.161 8.35,2.237 6.662,-0.686 2.923,-1.687 0,0" /></g></g></g></g></svg>