<?xml version="1.0" encoding="UTF-8" standalone="no"?>
<svg
   xmlns:dc="http://purl.org/dc/elements/1.1/"
   xmlns:cc="http://creativecommons.org/ns#"
   xmlns:rdf="http://www.w3.org/1999/02/22-rdf-syntax-ns#"
   xmlns:svg="http://www.w3.org/2000/svg"
   xmlns="http://www.w3.org/2000/svg"
   viewBox="0 0 533.33331 533.33331"
   height="533.33331"
   width="533.33331"
   xml:space="preserve"
   id="svg2"
   version="1.1"><metadata
     id="metadata8"><rdf:RDF><cc:Work
         rdf:about=""><dc:format>image/svg+xml</dc:format><dc:type
           rdf:resource="http://purl.org/dc/dcmitype/StillImage" /></cc:Work></rdf:RDF></metadata><defs
     id="defs6"><clipPath
       id="clipPath18"
       clipPathUnits="userSpaceOnUse"><path
         id="path16"
         d="M 0,400 H 400 V 0 H 0 Z" /></clipPath></defs><g
     transform="matrix(1.3333333,0,0,-1.3333333,0,533.33333)"
     id="g10"><g
       id="g12"><g
         clip-path="url(#clipPath18)"
         id="g14"><g
           transform="translate(400,200)"
           id="g20"><path
             id="path22"
             style="fill:#c52928;fill-opacity:1;fill-rule:nonzero;stroke:none"
             d="m 0,0 c 0,-110.457 -89.543,-200 -200,-200 -110.457,0 -200,89.543 -200,200 0,110.457 89.543,200 200,200 C -89.543,200 0,110.457 0,0" /></g><g
           transform="translate(239.2861,200)"
           id="g24"><path
             id="path26"
             style="fill:#ffffff;fill-opacity:1;fill-rule:nonzero;stroke:none"
             d="m 0,0 c 0,-21.697 -17.589,-39.286 -39.286,-39.286 -21.697,0 -39.286,17.589 -39.286,39.286 0,21.697 17.589,39.286 39.286,39.286 C -17.589,39.286 0,21.697 0,0" /></g><g
           transform="translate(239.2861,330.9521)"
           id="g28"><path
             id="path30"
             style="fill:#ffffff;fill-opacity:1;fill-rule:nonzero;stroke:none"
             d="m 0,0 c 0,-21.697 -17.589,-39.286 -39.286,-39.286 -21.697,0 -39.286,17.589 -39.286,39.286 0,21.697 17.589,39.286 39.286,39.286 C -17.589,39.286 0,21.697 0,0" /></g><g
           transform="translate(239.2861,69.0479)"
           id="g32"><path
             id="path34"
             style="fill:#ffffff;fill-opacity:1;fill-rule:nonzero;stroke:none"
             d="m 0,0 c 0,-21.697 -17.589,-39.286 -39.286,-39.286 -21.697,0 -39.286,17.589 -39.286,39.286 0,21.696 17.589,39.285 39.286,39.285 C -17.589,39.285 0,21.696 0,0" /></g><g
           transform="translate(66.9492,168.5459)"
           id="g36"><path
             id="path38"
             style="fill:#ffffff;fill-opacity:1;fill-rule:nonzero;stroke:none"
             d="m 0,0 c 18.79,10.849 42.817,4.411 53.665,-14.379 10.849,-18.79 4.411,-42.817 -14.379,-53.666 -18.79,-10.848 -42.817,-4.41 -53.666,14.38 C -25.228,-34.875 -18.79,-10.848 0,0" /></g><g
           transform="translate(293.7656,299.4985)"
           id="g40"><path
             id="path42"
             style="fill:#ffffff;fill-opacity:1;fill-rule:nonzero;stroke:none"
             d="m 0,0 c 18.79,10.849 42.816,4.411 53.665,-14.379 10.849,-18.79 4.41,-42.817 -14.38,-53.666 -18.79,-10.848 -42.816,-4.41 -53.665,14.38 C -25.229,-34.875 -18.79,-10.848 0,0" /></g><g
           transform="translate(293.7656,100.501)"
           id="g44"><path
             id="path46"
             style="fill:#ffffff;fill-opacity:1;fill-rule:nonzero;stroke:none"
             d="M 0,0 C -18.79,10.849 -25.229,34.876 -14.38,53.666 -3.531,72.456 20.495,78.894 39.285,68.045 58.075,57.197 64.514,33.17 53.665,14.38 42.816,-4.41 18.79,-10.848 0,0" /></g><g
           transform="translate(66.9492,231.4536)"
           id="g48"><path
             id="path50"
             style="fill:#ffffff;fill-opacity:1;fill-rule:nonzero;stroke:none"
             d="M 0,0 C -18.79,10.849 -25.228,34.875 -14.38,53.666 -3.531,72.456 20.496,78.894 39.286,68.045 58.076,57.197 64.514,33.17 53.665,14.38 42.817,-4.41 18.79,-10.848 0,0" /></g></g></g></g></svg>