<?xml version="1.0" encoding="UTF-8" standalone="no"?>
<svg
   xmlns:dc="http://purl.org/dc/elements/1.1/"
   xmlns:cc="http://creativecommons.org/ns#"
   xmlns:rdf="http://www.w3.org/1999/02/22-rdf-syntax-ns#"
   xmlns:svg="http://www.w3.org/2000/svg"
   xmlns="http://www.w3.org/2000/svg"
   viewBox="0 0 682.66669 682.66669"
   height="682.66669"
   width="682.66669"
   xml:space="preserve"
   id="svg2"
   version="1.1"><metadata
     id="metadata8"><rdf:RDF><cc:Work
         rdf:about=""><dc:format>image/svg+xml</dc:format><dc:type
           rdf:resource="http://purl.org/dc/dcmitype/StillImage" /></cc:Work></rdf:RDF></metadata><defs
     id="defs6"><clipPath
       id="clipPath18"
       clipPathUnits="userSpaceOnUse"><path
         id="path16"
         d="M 0,512 H 512 V 0 H 0 Z" /></clipPath></defs><g
     transform="matrix(1.3333333,0,0,-1.3333333,0,682.66667)"
     id="g10"><g
       id="g12"><g
         clip-path="url(#clipPath18)"
         id="g14"><g
           transform="translate(436.5244,186.5215)"
           id="g20"><path
             id="path22"
             style="fill:#f4925c;fill-opacity:1;fill-rule:nonzero;stroke:none"
             d="m 0,0 c 0,-99.699 -80.822,-180.521 -180.522,-180.521 -99.699,0 -180.522,80.822 -180.522,180.521 0,99.7 80.823,180.522 180.522,180.522 C -80.822,180.522 0,99.7 0,0" /></g><g
           transform="translate(86.0454,504.6675)"
           id="g24"><path
             id="path26"
             style="fill:#f4925c;fill-opacity:1;fill-rule:nonzero;stroke:none"
             d="M 0,0 C 37.51,21.657 167.525,-227.846 167.525,-227.846 L 60.197,-289.812 C 60.197,-289.812 -55.661,-32.135 0,0" /></g><g
           transform="translate(425.9551,504.6675)"
           id="g28"><path
             id="path30"
             style="fill:#f4925c;fill-opacity:1;fill-rule:nonzero;stroke:none"
             d="m 0,0 c -37.511,21.657 -167.525,-227.846 -167.525,-227.846 l 107.328,-61.966 c 0,0 115.857,257.677 60.197,289.812" /></g><g
           transform="translate(202.1382,153.8359)"
           id="g32"><path
             id="path34"
             style="fill:#272827;fill-opacity:1;fill-rule:nonzero;stroke:none"
             d="m 0,0 c 0,-18.052 -8.257,-32.686 -18.443,-32.686 -10.186,0 -18.443,14.634 -18.443,32.686 0,18.052 8.257,32.686 18.443,32.686 C -8.257,32.686 0,18.052 0,0" /></g><g
           transform="translate(346.748,153.8359)"
           id="g36"><path
             id="path38"
             style="fill:#272827;fill-opacity:1;fill-rule:nonzero;stroke:none"
             d="m 0,0 c 0,-18.052 -8.257,-32.686 -18.443,-32.686 -10.186,0 -18.443,14.634 -18.443,32.686 0,18.052 8.257,32.686 18.443,32.686 C -8.257,32.686 0,18.052 0,0" /></g><g
           transform="translate(291.8633,59.5371)"
           id="g40"><path
             id="path42"
             style="fill:#9e593f;fill-opacity:1;fill-rule:nonzero;stroke:none"
             d="m 0,0 c 0,-9.465 -16.057,-17.137 -35.863,-17.137 -19.807,0 -35.864,7.672 -35.864,17.137 0,9.464 16.057,17.137 35.864,17.137 C -16.057,17.137 0,9.464 0,0" /></g></g></g></g></svg>