<?xml version="1.0" encoding="UTF-8" standalone="no"?>
<svg
   xmlns:dc="http://purl.org/dc/elements/1.1/"
   xmlns:cc="http://creativecommons.org/ns#"
   xmlns:rdf="http://www.w3.org/1999/02/22-rdf-syntax-ns#"
   xmlns:svg="http://www.w3.org/2000/svg"
   xmlns="http://www.w3.org/2000/svg"
   viewBox="0 0 533.33331 533.33331"
   height="533.33331"
   width="533.33331"
   xml:space="preserve"
   id="svg2"
   version="1.1"><metadata
     id="metadata8"><rdf:RDF><cc:Work
         rdf:about=""><dc:format>image/svg+xml</dc:format><dc:type
           rdf:resource="http://purl.org/dc/dcmitype/StillImage" /></cc:Work></rdf:RDF></metadata><defs
     id="defs6"><clipPath
       id="clipPath18"
       clipPathUnits="userSpaceOnUse"><path
         id="path16"
         d="M 0,400 H 400 V 0 H 0 Z" /></clipPath><clipPath
       id="clipPath46"
       clipPathUnits="userSpaceOnUse"><path
         id="path44"
         d="m 163.887,47.4139 h 72.222 V 12.9041 h -72.222 z" /></clipPath></defs><g
     transform="matrix(1.3333333,0,0,-1.3333333,0,533.33333)"
     id="g10"><g
       id="g12"><g
         clip-path="url(#clipPath18)"
         id="g14"><g
           transform="translate(59.2119,398.8937)"
           id="g20"><path
             id="path22"
             style="fill:#afafaf;fill-opacity:1;fill-rule:nonzero;stroke:none"
             d="M 0,0 C 31.072,17.939 138.773,-188.742 138.773,-188.742 L 49.865,-240.073 C 49.865,-240.073 -46.108,-26.621 0,0" /></g><g
           transform="translate(340.7842,398.8937)"
           id="g24"><path
             id="path26"
             style="fill:#afafaf;fill-opacity:1;fill-rule:nonzero;stroke:none"
             d="m 0,0 c -31.073,17.939 -138.773,-188.742 -138.773,-188.742 l 88.907,-51.331 c 0,0 95.973,213.452 49.866,240.073" /></g><g
           transform="translate(349.9941,108.279)"
           id="g28"><path
             id="path30"
             style="fill:#afafaf;fill-opacity:1;fill-rule:nonzero;stroke:none"
             d="m 0,0 c 0,-17.345 -2.941,-33.99 -8.353,-49.485 -9.454,-9.474 -19.853,-18.013 -31.039,-25.451 -31.677,-21.073 -69.711,-33.34 -110.607,-33.34 -40.897,0 -78.93,12.277 -110.608,33.35 -11.185,7.438 -21.594,15.977 -31.039,25.461 -5.41,15.485 -8.352,32.13 -8.352,49.465 0,4.446 0.197,8.844 0.571,13.192 2.912,33.351 16.734,63.583 37.876,87.086 21.751,24.172 51.236,41.241 84.567,47.301 8.755,1.593 17.776,2.42 26.985,2.42 9.218,0 18.239,-0.836 26.995,-2.42 33.331,-6.06 62.816,-23.129 84.557,-47.301 C -17.305,76.775 -3.483,46.543 -0.571,13.192 -0.197,8.844 0,4.446 0,0" /></g><g
           transform="translate(155.3799,108.2741)"
           id="g32"><path
             id="path34"
             style="fill:#272827;fill-opacity:1;fill-rule:nonzero;stroke:none"
             d="m 0,0 c 0,-14.954 -6.84,-27.076 -15.278,-27.076 -8.437,0 -15.277,12.122 -15.277,27.076 0,14.953 6.84,27.076 15.277,27.076 C -6.84,27.076 0,14.953 0,0" /></g><g
           transform="translate(275.1709,108.2741)"
           id="g36"><path
             id="path38"
             style="fill:#272827;fill-opacity:1;fill-rule:nonzero;stroke:none"
             d="m 0,0 c 0,-14.954 -6.84,-27.076 -15.277,-27.076 -8.438,0 -15.279,12.122 -15.279,27.076 0,14.953 6.841,27.076 15.279,27.076 C -6.84,27.076 0,14.953 0,0" /></g><g
           id="g40"><g
             id="g42" /><g
             id="g54"><g
               style="opacity:0.13999903"
               id="g52"
               clip-path="url(#clipPath46)"><g
                 id="g50"
                 transform="translate(236.1084,30.1589)"><path
                   id="path48"
                   style="fill:#000000;fill-opacity:1;fill-rule:nonzero;stroke:none"
                   d="m 0,0 c 0,-9.529 -16.167,-17.255 -36.11,-17.255 -19.944,0 -36.112,7.726 -36.112,17.255 0,9.529 16.168,17.255 36.112,17.255 C -16.167,17.255 0,9.529 0,0" /></g></g></g></g></g></g></g></svg>