<svg id="Layer_1" data-name="Layer 1" xmlns="http://www.w3.org/2000/svg" viewBox="0 0 1249.88 394.08"><defs><style>.cls-1{fill:#fff;}.cls-2{fill:#db5627;}.cls-3{fill:#232323;}.cls-4{fill:#262626;}</style></defs><title>fox</title><path class="cls-1" d="M1348.9,369.76c-15.06-16.56-31.88-24.32-49.22-26.56-17.55-2.26-33,11.67-33,29.37V707.43c0,17.7,15.46,31.63,33,29.37,17.34-2.24,34.16-10,49.22-26.56C1475.46,571.08,1581.1,606,1581.1,540S1475.46,508.92,1348.9,369.76Z" transform="translate(-335.06 -342.96)"/><path class="cls-1" d="M1581.1,540c0,22.21-11.95,33-32.63,42.82V497.18C1569.15,507,1581.1,517.79,1581.1,540Z" transform="translate(-335.06 -342.96)"/><path class="cls-2" d="M1181.41,695.6h0c26.12,0,47.3-18.72,47.3-41.81V426.21c0-23.09-21.18-41.81-47.3-41.81h0c-26.12,0-70.23,18.72-70.23,41.81V653.79C1111.18,676.88,1155.29,695.6,1181.41,695.6Z" transform="translate(-335.06 -342.96)"/><rect class="cls-2" x="879.53" y="72.83" width="83.91" height="245.84"/><ellipse class="cls-1" cx="294.88" cy="195.75" rx="294.88" ry="95.73"/><path class="cls-2" d="M924.83,538.72c0,52.21-128.81,94.67-288.92,95.7,14.87-6,25.2-13.2,25.2-23.22,0-35.77-131.48-35.77-131.48-71.53s131.48-35.76,131.48-71.53c0-11.13-12.73-18.79-30.27-25.15C793.29,443.15,924.83,486,924.83,538.72Z" transform="translate(-335.06 -342.96)"/><path class="cls-2" d="M1348.9,427.3c-25-30.28-53.75-58.23-82.23-51.88V704.58c28.48,6.35,57.23-21.6,82.23-51.88C1460.48,517.56,1581.1,616,1581.1,540,1581.1,465.37,1460.48,562.44,1348.9,427.3Z" transform="translate(-335.06 -342.96)"/><path class="cls-3" d="M1584.94,540c0,22.21-13.36,33-36.47,42.82V497.18C1571.58,507,1584.94,517.79,1584.94,540Z" transform="translate(-335.06 -342.96)"/><path class="cls-2" d="M816.91,722.78h7.6a59.73,59.73,0,0,0,59.73-59.73V417a59.73,59.73,0,0,0-59.73-59.73h-7.6C679.86,357.22,679.86,722.78,816.91,722.78Z" transform="translate(-335.06 -342.96)"/><path class="cls-2" d="M1315.18,540c0,80.28-226.63,145.37-355.11,145.37S727.44,620.28,727.44,540,831.59,394.63,960.07,394.63,1315.18,459.72,1315.18,540Z" transform="translate(-335.06 -342.96)"/><path class="cls-1" d="M1266.67,457.86V515c-31.33,0-57.11-52-57.11-83.32,0-33.22,37.89-30.89,57.11-30.89Z" transform="translate(-335.06 -342.96)"/><path class="cls-1" d="M1266.67,622.14V565c-31.33,0-57.11,52-57.11,83.32,0,33.22,37.89,30.89,57.11,30.89Z" transform="translate(-335.06 -342.96)"/><ellipse class="cls-4" cx="1053.53" cy="130.04" rx="29.65" ry="19.06"/><ellipse class="cls-4" cx="1053.53" cy="264.04" rx="29.65" ry="19.06"/></svg>