<svg id="Layer_1" data-name="Layer 1" xmlns="http://www.w3.org/2000/svg" viewBox="0 0 311.69 406.58"><defs><style>.cls-1{fill:#f68c43;}.cls-2{fill:#282828;}.cls-3{opacity:0.14;}</style></defs><title>rabbitOrange</title><path class="cls-1" d="M292.42,337.83C324,319.59,433.48,529.68,433.48,529.68l-90.37,52.18S245.55,364.89,292.42,337.83Z" transform="translate(-279.68 -336.71)"/><path class="cls-1" d="M578.63,337.83c-31.58-18.24-141.06,191.85-141.06,191.85l90.37,52.18S625.5,364.89,578.63,337.83Z" transform="translate(-279.68 -336.71)"/><path class="cls-1" d="M588,633.23a152.14,152.14,0,0,1-8.49,50.28,203.18,203.18,0,0,1-288,0,152.14,152.14,0,0,1-8.49-50.28q0-6.78.58-13.41a152.57,152.57,0,0,1,124.45-136.6,154.27,154.27,0,0,1,54.88,0,152.57,152.57,0,0,1,124.45,136.6Q588,626.45,588,633.23Z" transform="translate(-279.68 -336.71)"/><ellipse class="cls-2" cx="94.96" cy="296.53" rx="15.53" ry="27.52"/><ellipse class="cls-2" cx="216.72" cy="296.53" rx="15.53" ry="27.52"/><ellipse class="cls-3" cx="155.84" cy="375.93" rx="36.71" ry="17.54"/></svg>