<svg id="Layer_1" data-name="Layer 1" xmlns="http://www.w3.org/2000/svg" viewBox="0 0 311.69 406.58"><defs><style>.cls-1{fill:#b0b0b0;}.cls-2{fill:#282828;}.cls-3{opacity:0.14;}</style></defs><title>rabbit</title><path class="cls-1" d="M1341.36,337.83c31.59-18.24,141.06,191.85,141.06,191.85l-90.37,52.18S1294.5,364.89,1341.36,337.83Z" transform="translate(-1328.63 -336.71)"/><path class="cls-1" d="M1627.57,337.83c-31.58-18.24-141.06,191.85-141.06,191.85l90.38,52.18S1674.44,364.89,1627.57,337.83Z" transform="translate(-1328.63 -336.71)"/><path class="cls-1" d="M1636.94,633.23a152.26,152.26,0,0,1-8.49,50.3,204.76,204.76,0,0,1-31.55,25.87,203.19,203.19,0,0,1-256.41-25.89,152.14,152.14,0,0,1-8.49-50.28q0-6.78.58-13.41a152.3,152.3,0,0,1,151.89-139.06,154,154,0,0,1,27.44,2.46,152.57,152.57,0,0,1,124.45,136.6Q1636.93,626.45,1636.94,633.23Z" transform="translate(-1328.63 -336.71)"/><ellipse class="cls-2" cx="94.96" cy="296.53" rx="15.53" ry="27.52"/><ellipse class="cls-2" cx="216.72" cy="296.53" rx="15.53" ry="27.52"/><ellipse class="cls-3" cx="155.84" cy="375.93" rx="36.71" ry="17.54"/></svg>