<svg id="Layer_1" data-name="Layer 1" xmlns="http://www.w3.org/2000/svg" viewBox="0 0 311.69 406.58"><defs><style>.cls-1{fill:#fff;}.cls-2{fill:#282828;}.cls-3{opacity:0.14;}</style></defs><title>rabbitW</title><path class="cls-1" d="M816.89,337.83C848.47,319.59,958,529.68,958,529.68l-90.37,52.18S770,364.89,816.89,337.83Z" transform="translate(-804.15 -336.71)"/><path class="cls-1" d="M1103.1,337.83C1071.52,319.59,962,529.68,962,529.68l90.37,52.18S1150,364.89,1103.1,337.83Z" transform="translate(-804.15 -336.71)"/><path class="cls-1" d="M1112.47,633.23a152.14,152.14,0,0,1-8.49,50.28,203.21,203.21,0,0,1-288,0,152.26,152.26,0,0,1-8.49-50.3q0-6.78.58-13.41a152.57,152.57,0,0,1,124.45-136.6,154.21,154.21,0,0,1,54.87,0,152.57,152.57,0,0,1,124.46,136.6Q1112.46,626.45,1112.47,633.23Z" transform="translate(-804.15 -336.71)"/><ellipse class="cls-2" cx="94.96" cy="296.53" rx="15.53" ry="27.52"/><ellipse class="cls-2" cx="216.72" cy="296.53" rx="15.53" ry="27.52"/><ellipse class="cls-3" cx="155.84" cy="375.93" rx="36.71" ry="17.54"/></svg>